<svg width="104" height="48" viewBox="0 0 104 48" fill="none" xmlns="http://www.w3.org/2000/svg">
<path d="M19.4566 47.2517V12.8285C19.2428 13.0423 19.029 13.2561 18.8151 13.4699C18.1737 13.8976 17.4254 14.0045 16.6771 13.7906C16.6771 13.7906 16.6771 13.7906 16.5702 13.7906C14.9666 13.363 13.363 12.5078 12.1871 11.2249C11.4388 10.3697 10.9042 9.51448 10.6904 8.33853C9.94209 8.76615 9.30067 9.30067 8.76615 9.94209C8.12472 10.6904 7.6971 11.5457 7.37639 12.5078L2.77951 31.8575C3.52784 32.2851 4.38307 32.6058 5.23831 32.9265C6.09354 33.2472 6.94877 33.461 7.80401 33.5679C8.01782 32.2851 8.33853 31.1091 8.55234 29.8263C9.62138 24.4811 10.5835 19.1359 11.3318 14.6459C11.3318 14.4321 11.5457 14.3252 11.7595 14.3252C11.9733 14.3252 12.0802 14.539 12.0802 14.7528C11.3318 19.1359 10.3697 24.588 9.30067 29.9332C8.87305 32.0713 8.44543 34.3163 8.01782 36.3474C9.19376 36.7751 10.3697 37.2027 11.5457 37.6303C12.8285 38.0579 14.2183 38.2717 15.5011 38.4855C15.7149 38.4855 15.8218 38.6993 15.8218 38.9131C15.8218 39.1269 15.608 39.2338 15.3942 39.2338C14.0045 39.02 12.6147 38.8062 11.3318 38.3786C10.1559 38.0579 8.97995 37.6303 7.80401 37.0958C7.6971 37.7372 7.4833 38.3786 7.37639 38.9131C7.05568 40.196 6.84187 41.265 6.62806 42.441C6.62806 42.5479 6.62806 42.6548 6.62806 42.7617C6.62806 42.8686 6.62806 42.9755 6.62806 43.0824C6.62806 43.6169 6.73497 44.1514 7.05568 44.4722C7.37639 44.8998 7.6971 45.1136 8.12472 45.3274C10.049 45.9688 11.9733 46.3964 13.8976 46.6102C15.608 47.0379 17.5323 47.2517 19.4566 47.2517ZM20.2049 12.8285V47.1448C22.1292 47.1448 24.0535 47.0379 25.9777 46.7171C27.902 46.3964 29.8263 45.9688 31.7506 45.4343C32.1782 45.3274 32.6058 45.0067 32.8196 44.5791C33.1403 44.1514 33.2472 43.7238 33.2472 43.1893C33.2472 43.0824 33.2472 42.9755 33.2472 42.8686C33.2472 42.7617 33.2472 42.6548 33.2472 42.5479C32.9265 41.4788 32.7127 40.3029 32.4989 39.02C32.392 38.3786 32.1782 37.7372 32.0713 37.2027C30.8953 37.6303 29.7194 38.0579 28.5434 38.4855C27.1537 38.9131 25.8708 39.127 24.4811 39.3408C24.2673 39.3408 24.0535 39.2339 24.0535 39.02C24.0535 38.8062 24.1604 38.5924 24.3742 38.5924C25.7639 38.3786 27.0468 38.1648 28.3296 37.7372C29.5056 37.4165 30.6815 36.9889 31.8575 36.4543C31.4298 34.4232 31.0022 32.1782 30.5746 30.0401C29.5056 24.6949 28.5434 19.2428 27.7951 14.8597C27.7951 14.6459 27.902 14.4321 28.1158 14.4321C28.3296 14.4321 28.5434 14.539 28.5434 14.7528C29.2918 19.2428 30.2539 24.6949 31.3229 29.9332C31.5367 31.216 31.8575 32.4989 32.0713 33.6748C32.9265 33.5679 33.7817 33.2472 34.637 33.0334C35.4922 32.7127 36.2405 32.392 37.0958 31.9644L32.392 12.6147C32.1782 11.6526 31.6437 10.7973 31.0022 10.049C30.4677 9.40757 29.8263 8.76615 29.078 8.44543C28.8641 9.51448 28.3296 10.5835 27.5813 11.3318C26.4053 12.6147 24.8018 13.4699 23.1982 13.8976H23.0913C22.343 14.1114 21.5947 13.8975 20.9532 13.5768C20.6325 13.2561 20.4187 13.0423 20.2049 12.8285ZM8.23163 9.40757C8.87305 8.55234 9.72828 7.91091 10.5835 7.4833C10.5835 7.37639 10.5835 7.16258 10.5835 7.05568C10.5835 6.94878 10.5835 6.73497 10.5835 6.62806C10.5835 6.52116 10.5835 6.30735 10.6904 6.20044C11.0111 4.27617 12.1871 2.77951 13.6837 1.81737C15.5011 0.534521 17.853 0 19.8842 0C21.9154 0 24.2673 0.534521 26.0846 1.81737C27.5813 2.77951 28.7572 4.27617 29.078 6.20044C29.078 6.30735 29.0779 6.52116 29.1849 6.62806C29.2918 6.73497 29.1849 6.94878 29.1849 7.05568C29.1849 7.16258 29.1849 7.37639 29.1849 7.4833C30.0401 7.91091 30.8953 8.55234 31.5367 9.40757C32.2851 10.2628 32.8196 11.2249 33.0334 12.294L37.7372 31.7506C38.2717 31.9644 38.6993 32.2851 39.02 32.7127C39.4477 33.1403 39.6615 33.7817 39.6615 34.4232C39.6615 34.7439 39.6615 34.4232 39.6615 34.5301C39.6615 34.8508 39.6615 35.0646 39.5546 35.4922C39.4477 35.9198 39.3408 36.2405 39.1269 36.5612C38.9131 36.882 38.6993 37.0958 38.3786 37.3096C36.7751 38.3786 35.0646 38.8062 33.2472 39.2338C33.461 40.3029 33.7817 41.3719 33.9955 42.3341C33.9955 42.441 33.9955 42.5479 34.1025 42.7617C34.1025 42.8686 34.1025 42.9755 34.1025 43.1893C34.1025 43.8307 33.8886 44.4722 33.5679 45.0067C33.2472 45.5412 32.7127 45.9688 32.0713 46.0757C30.147 46.7171 28.2227 47.1448 26.1915 47.4655C23.9465 47.8931 21.9154 48 19.8842 48H19.7773H19.6704C17.6392 48 15.5011 47.8931 13.4699 47.5724C11.4388 47.2517 9.51448 46.8241 7.5902 46.1826C6.94878 45.9688 6.52116 45.5412 6.09354 45.1136C5.77283 44.5791 5.55902 43.9376 5.55902 43.2962C5.55902 43.1893 5.55902 43.0824 5.55902 42.8686C5.55902 42.7617 5.55902 42.6548 5.66592 42.441C5.87973 41.4788 6.09354 40.4098 6.41425 39.3408C4.59688 38.9131 2.77951 38.5924 1.28285 37.4165C0.962139 37.2027 0.74833 36.9889 0.534521 36.6682C0.320713 36.3474 0.213809 36.0267 0.106905 35.5991C4.06214e-07 35.2784 0 34.9577 0 34.637C0 34.5301 0 34.8508 0 34.5301C0.106904 33.8886 0.320713 33.2472 0.641426 32.8196C0.962139 32.392 1.38975 32.0713 1.92428 31.8575L6.62806 12.4009C6.94878 11.3318 7.4833 10.2628 8.23163 9.40757ZM32.0713 34.4232C32.1782 35.1715 32.392 35.8129 32.4989 36.5612C32.4989 36.6681 32.4989 36.6682 32.4989 36.7751C32.6058 37.4165 32.8196 38.0579 32.9265 38.5924C34.637 38.1648 36.3474 37.8441 37.8441 36.7751C38.0579 36.6682 38.2717 36.3474 38.3786 36.1336C38.4855 35.9198 38.6993 35.706 38.6993 35.3853C38.8062 35.1715 38.8062 34.9577 38.8062 34.637C38.8062 34.4232 38.8062 34.7439 38.8062 34.5301C38.8062 34.1025 38.5924 33.5679 38.2717 33.2472C38.0579 32.9265 37.7372 32.7127 37.3096 32.4989C36.4543 32.9265 35.5991 33.3541 34.637 33.6748C33.8886 33.9955 32.9265 34.3163 32.0713 34.4232ZM6.73497 38.5924C6.84187 37.951 7.05568 37.4165 7.16258 36.7751C7.16258 36.6682 7.16258 36.6681 7.16258 36.5612C7.26949 35.8129 7.4833 35.1715 7.5902 34.4232C6.73497 34.3163 5.77283 33.9955 4.91759 33.7817C3.95546 33.461 3.10022 33.0334 2.24499 32.6058C1.81737 32.7127 1.49666 33.0334 1.28285 33.3541C0.962139 33.7817 0.855235 34.2094 0.74833 34.637C0.74833 34.8508 0.74833 34.5301 0.74833 34.7439C0.74833 34.9577 0.748329 35.1715 0.855233 35.4922C0.962137 35.8129 1.06904 36.0267 1.17595 36.2405C1.28285 36.4543 1.49666 36.6682 1.71047 36.882C3.20713 37.8441 4.91759 38.1648 6.73497 38.5924ZM22.6637 7.37639L22.7706 7.26949V7.16258V7.05568C22.6637 6.73497 21.4878 6.52116 21.2739 6.41425C20.8463 6.30735 20.3118 6.30735 19.7773 6.30735C19.2428 6.30735 18.8151 6.30735 18.2806 6.41425C17.853 6.52116 17.3185 6.62806 16.8909 6.94878L16.784 7.05568V7.16258C16.784 7.26949 16.784 7.26949 16.784 7.26949L16.8909 7.37639C17.1047 7.4833 17.2116 7.4833 17.4254 7.5902C17.6392 7.6971 17.853 7.6971 17.9599 7.80401C18.4944 7.91091 19.029 8.33853 19.4566 8.76615C19.5635 8.87305 19.6704 9.08686 19.7773 9.19376C19.8842 9.08686 19.9911 8.87305 20.098 8.76615C20.5256 8.33853 20.9532 7.91091 21.5947 7.80401C21.7016 7.80401 21.9154 7.6971 22.1292 7.5902C22.343 7.4833 22.4499 7.37639 22.6637 7.37639ZM23.412 7.5902C23.3051 7.6971 23.1982 7.91091 23.0913 8.01782C22.8775 8.12472 22.6637 8.23163 22.5568 8.33853C22.343 8.44543 22.1292 8.44543 22.0223 8.55234C21.5947 8.65924 21.167 8.97995 20.9532 9.30067C20.6325 9.72828 20.5256 10.1559 20.4187 10.5835V11.118V11.2249C20.4187 11.3318 20.4187 11.3318 20.4187 11.4388C20.5256 12.0802 20.9532 12.5078 21.3808 12.8285C21.8085 13.1492 22.4499 13.2561 22.9844 13.0423C24.4811 12.6147 25.9777 11.8664 27.0468 10.6904C27.902 9.72828 28.4365 8.55234 28.4365 7.05568C28.4365 6.94878 28.4365 6.73497 28.4365 6.62806C28.4365 6.52116 28.4365 6.30735 28.4365 6.20044C28.1158 4.48998 27.1537 3.20713 25.7639 2.24499C24.0535 1.06904 21.8085 0.641425 19.9911 0.641425C18.1737 0.641425 15.9287 1.17595 14.2183 2.24499C12.8285 3.10022 11.8664 4.38307 11.5457 6.20044C11.5457 6.30735 11.5457 6.52116 11.5457 6.62806C11.5457 6.73497 11.5457 6.94878 11.5457 7.05568C11.5457 8.55234 12.0802 9.72828 12.9354 10.6904C14.0045 11.8664 15.5011 12.6147 16.9978 13.0423C17.5323 13.1492 18.1737 13.0423 18.6013 12.8285C19.029 12.5078 19.4566 12.0802 19.5635 11.4388C19.5635 11.3318 19.5635 11.3318 19.5635 11.2249C19.5635 11.118 19.5635 11.118 19.5635 11.118V10.5835C19.5635 10.1559 19.3497 9.62138 19.029 9.30067C18.7082 8.97995 18.3875 8.65924 17.9599 8.55234C17.853 8.55234 17.6392 8.44543 17.4254 8.33853C17.2116 8.23163 16.9978 8.23163 16.8909 8.01782C16.784 7.91091 16.5702 7.80401 16.5702 7.5902C16.4633 7.4833 16.4633 7.26949 16.4633 7.05568C16.4633 6.84187 16.4633 6.73497 16.5702 6.52116C16.8909 5.87973 17.9599 5.66592 18.4944 5.55902C19.029 5.45212 19.5635 5.45212 20.098 5.45212C20.6325 5.45212 21.167 5.45212 21.7016 5.55902C22.2361 5.66592 23.3051 5.98664 23.6258 6.52116C23.7327 6.62806 23.7327 6.84187 23.7327 7.05568C23.5189 7.26949 23.5189 7.4833 23.412 7.5902Z" fill="#26303B"/>
<path d="M69.274 9.51427C72.1605 11.7593 71.7328 21.5944 70.8776 30.6813V30.7882C71.1983 33.0332 71.6259 35.3851 72.0536 37.6301L75.2607 28.4363C75.3676 28.2225 75.5814 28.1156 75.6883 28.2225C75.9021 28.3294 76.009 28.4363 75.9021 28.6501L72.3743 38.9129C72.3743 39.0198 72.2674 39.0198 72.2674 39.0198L72.4812 40.3027L72.695 41.3717H82.8509C82.4233 39.3406 80.3921 31.1089 79.43 25.6568L77.7195 17.8528C77.185 17.639 76.6504 17.5321 76.1159 17.3183C76.009 17.2114 75.9021 17.2114 75.7952 17.1045C75.6883 16.9976 75.5814 16.8907 75.5814 16.7838C75.5814 16.6769 75.5814 16.57 75.5814 16.3561C75.5814 16.2492 75.6883 16.1423 75.7952 16.0354L76.9712 14.6457L76.6504 13.0421L73.3364 13.2559C73.1226 13.2559 73.0157 13.2559 72.9088 13.149C72.8019 13.0421 72.5881 13.0421 72.5881 12.9352C72.4812 12.8283 72.3743 12.7214 72.3743 12.6145C72.3743 12.5076 72.3743 12.2938 72.3743 12.1869C72.8019 10.7971 73.4433 9.51427 74.0847 8.23142C74.4055 7.59 74.8331 6.94857 75.1538 6.41405L69.274 9.51427ZM102.414 45.541L100.918 45.6479L98.2451 45.8617C98.0313 45.8617 97.8175 45.7548 97.6037 45.6479C97.3899 45.541 97.283 45.3272 97.283 45.1134C97.283 45.1134 97.283 45.1134 97.283 45.0065C97.176 43.296 96.9622 40.8372 96.5346 37.8439C96.3208 36.4541 96.2139 34.9575 96.107 33.4608C95.7863 35.7058 95.3587 38.0577 94.9311 40.4096L94.7172 41.7994C94.7172 42.0132 94.5034 42.1201 94.3965 42.1201H83.4923H72.4812C72.2674 42.1201 72.1605 42.0132 72.1605 41.7994L71.8397 40.5165C71.4121 38.1646 70.9845 35.9196 70.6638 33.6746C70.45 35.1713 70.3431 36.561 70.2362 37.9508C69.9155 40.8372 69.5948 43.4029 69.4879 45.1134C69.4879 45.1134 69.4879 45.1134 69.4879 45.2203C69.4879 45.4341 69.274 45.6479 69.1671 45.7548C68.9533 45.7548 68.8464 45.8617 68.5257 45.8617L65.8531 45.6479L64.3564 45.541L63.9288 45.4341C63.715 45.4341 63.5012 45.3272 63.2874 45.1134C63.1805 44.8996 63.0736 44.7927 63.0736 44.472V43.9374C62.9667 36.7749 62.646 16.7838 68.3119 9.19356C68.3119 9.08666 68.4188 9.08666 68.4188 9.08666L76.3297 5.0243C76.5435 4.81049 76.6504 4.59668 76.8642 4.38287C77.9333 3.20692 79.0023 2.5655 80.0714 2.24479C81.1404 1.92407 82.2095 1.92407 83.2785 1.92407C84.3475 1.92407 85.4166 2.03098 86.4856 2.24479C87.5547 2.5655 88.7306 3.20692 89.6928 4.38287C89.9066 4.59668 90.0135 4.81049 90.2273 5.0243L98.0313 8.97975C98.1382 8.97975 98.2451 9.08666 98.2451 9.08666C103.911 16.7838 103.59 36.6679 103.483 43.8305V44.365C103.483 44.5789 103.376 44.7927 103.27 45.0065C103.163 45.1134 102.949 45.3272 102.628 45.3272L102.414 45.541ZM99.5279 45.0065C99.3141 44.7927 99.2072 44.5789 99.2072 44.365C99.2072 43.9374 99.3141 43.6167 99.6348 43.296C99.8486 42.9753 100.276 42.7615 100.597 42.7615L102.949 42.5477C103.056 34.5299 103.056 17.2114 98.0313 10.0488C94.5034 12.1869 96.2139 27.688 97.283 37.9508C97.6037 40.9441 97.9244 43.4029 98.0313 45.1134C98.0313 45.1134 98.0313 45.1134 98.0313 45.2203H98.1382L99.5279 45.0065ZM102.949 43.296L100.704 43.5098C100.49 43.5098 100.383 43.6167 100.276 43.7236C100.169 43.8305 100.062 44.0443 100.062 44.2581C100.062 44.472 100.169 44.5789 100.383 44.6858C100.597 44.7927 100.704 44.8996 100.918 44.8996L102.842 44.6858C102.842 44.6858 102.949 44.6858 102.949 44.5789L103.056 44.472V43.9374L102.949 43.296ZM95.8932 30.6813C95.038 21.7014 94.6103 11.8662 97.4968 9.51427L91.4032 6.52096C91.8308 7.16238 92.1515 7.6969 92.4723 8.33833C93.2206 9.62118 93.7551 10.904 94.1827 12.2938C94.2896 12.4007 94.2896 12.6145 94.1827 12.7214C94.1827 12.8283 94.0758 13.0421 93.9689 13.0421C93.862 13.149 93.7551 13.2559 93.6482 13.2559C93.5413 13.3628 93.3275 13.3628 93.2206 13.3628L88.0892 12.9352L90.7618 16.0354C90.8687 16.1423 90.9756 16.2492 90.9756 16.3561C90.9756 16.463 90.9756 16.57 90.9756 16.7838C90.9756 16.8907 90.8687 16.9976 90.7618 17.1045C90.6549 17.2114 90.548 17.3183 90.4411 17.3183C89.0513 17.8528 87.3409 18.3873 85.7373 18.9218C82.9578 19.884 80.2852 20.7392 79.7507 21.2737C79.6438 21.4875 79.6438 22.3428 79.8576 23.5187L83.7061 41.5855H93.9689L94.1827 40.5165L94.3965 39.2337C94.3965 39.1267 94.2896 39.1267 94.2896 39.1267L90.7618 28.8639C90.6549 28.6501 90.8687 28.4363 90.9756 28.4363C91.1894 28.3294 91.4032 28.5432 91.4032 28.6501L94.5034 37.8439C94.9311 35.5989 95.3587 33.247 95.6794 31.002C95.7863 30.7882 95.7863 30.7882 95.8932 30.6813ZM87.7685 6.62786V6.73476C87.6616 10.1557 84.7752 13.8973 82.5302 16.7838C81.4611 18.1735 80.499 19.4564 80.0714 20.3116C81.2473 19.7771 83.2785 19.0288 85.5235 18.2804C87.1271 17.7459 88.7306 17.2114 90.2273 16.6769H90.3342C90.3342 16.6769 90.3342 16.6769 90.3342 16.57V16.463C90.3342 16.463 90.3342 16.463 90.3342 16.3561L87.1271 12.6145C87.0201 12.5076 87.0201 12.4007 87.0201 12.2938C87.0201 12.08 87.234 11.9731 87.4478 11.9731L93.4344 12.5076H93.5413C93.5413 12.5076 93.5413 12.5076 93.6482 12.4007V12.2938V12.1869C93.2206 10.904 92.6861 9.62118 91.9377 8.33833C91.2963 7.05548 90.4411 5.87953 89.4789 4.70358C88.6237 3.74144 87.6616 3.20692 86.5925 2.88621C86.6994 2.99312 86.6994 2.99311 86.8063 2.99311C87.4478 4.06216 87.7685 5.2381 87.7685 6.62786ZM83.0647 2.77931C81.9956 2.88621 81.2473 3.20692 80.6059 3.74145C79.9645 4.38287 79.6438 5.45191 79.6438 6.62786V6.73476C79.6438 10.1557 81.1404 11.8662 82.744 13.6835C82.9578 13.8973 83.1716 14.2181 83.3854 14.325C85.2028 11.8662 87.0201 9.08666 87.0201 6.62786C87.0201 5.45191 86.6994 4.48977 86.058 3.74145C85.5235 3.20692 84.6683 2.77931 83.5992 2.77931H83.4923H83.3854H83.2785H83.1716H83.0647H82.9578H83.0647C83.1716 2.77931 83.0647 2.77931 83.0647 2.77931ZM80.1783 3.10002C79.2161 3.42073 78.254 3.95525 77.2919 4.91739C76.3297 6.09334 75.4745 7.37619 74.8331 8.55214C74.1916 9.83499 73.5502 11.1178 73.1226 12.4007V12.5076V12.6145C73.1226 12.6145 73.1226 12.6145 73.2295 12.7214H73.3364L79.323 12.1869C79.4299 12.1869 79.5369 12.1869 79.6438 12.2938C79.8576 12.4007 79.8576 12.6145 79.7507 12.8283L76.5435 16.57C76.5435 16.57 76.5435 16.57 76.5435 16.6769V16.7838V16.8907C76.5435 16.8907 76.5435 16.8907 76.6504 16.8907C77.2919 17.1045 78.0402 17.4252 78.6816 17.639C79.323 17.8528 79.9645 18.0666 80.6059 18.2804C81.0335 17.7459 81.4611 17.2114 81.8887 16.57C82.2095 16.1423 82.6371 15.6078 82.9578 15.1802C82.6371 14.8595 82.4233 14.5388 82.2095 14.325C80.499 12.2938 78.8954 10.4764 78.8954 6.84167V6.73476C78.8954 5.34501 79.323 4.16906 80.0714 3.42073C80.0714 3.20692 80.1783 3.20692 80.1783 3.10002ZM84.2406 22.129C84.0268 22.2359 83.813 22.0221 83.813 21.9152C83.7061 21.7014 83.9199 21.4875 84.0268 21.4875L92.793 18.8149C93.0068 18.708 93.2206 18.9218 93.2206 19.0287C93.3275 19.2426 93.1137 19.4564 93.0068 19.4564L84.2406 22.129ZM100.811 44.5789C101.025 44.5789 101.132 44.472 101.132 44.2581C101.132 44.0443 100.918 43.9374 100.811 43.9374C100.704 43.9374 100.49 44.0443 100.49 44.2581C100.49 44.472 100.704 44.5789 100.811 44.5789ZM79.1092 20.5254C79.323 19.9909 79.6438 19.4564 80.0714 18.708C79.6438 18.4942 79.1092 18.3873 78.5747 18.1735L79.1092 20.5254ZM77.7195 13.8973L78.5747 12.9352L77.5057 13.0421L77.7195 13.8973ZM65.8531 44.5789C65.6393 44.5789 65.5324 44.472 65.5324 44.2581C65.5324 44.0443 65.7462 43.9374 65.8531 43.9374C66.0669 43.9374 66.1738 44.0443 66.1738 44.2581C66.1738 44.472 66.0669 44.5789 65.8531 44.5789ZM65.8531 44.8996C66.0669 44.8996 66.2807 44.7927 66.3876 44.6858C66.4945 44.5789 66.6014 44.3651 66.7083 44.2581C66.7083 44.0443 66.6014 43.8305 66.4945 43.7236C66.3876 43.6167 66.1738 43.5098 66.0669 43.5098L63.8219 43.296V44.1512V44.6858C63.8219 44.7927 63.8219 44.7927 63.9288 44.7927L64.0357 44.8996H65.8531ZM63.715 42.5477L66.0669 42.7615C66.4945 42.7615 66.8152 42.9753 67.0291 43.296C67.2429 43.6167 67.4567 43.9374 67.4567 44.365C67.4567 44.6858 67.3498 44.8996 67.136 45.0065L68.4188 45.1134H68.5257C68.5257 45.1134 68.5257 45.1134 68.5257 45.0065C68.6326 43.296 68.8464 40.8372 69.274 37.8439C70.45 27.5811 72.1605 12.08 68.5257 9.94189C63.6081 17.2114 63.6081 34.5299 63.715 42.5477Z" fill="#26303B"/>
</svg>
