<svg width="96" height="47" fill="none" xmlns="http://www.w3.org/2000/svg"><path d="M28.896 24.596H7.295c-1.83 0-3.397.784-4.617 1.917C1.458 27.645.762 29.3.762 31.129c0 1.83.784 3.397 1.916 4.617 1.133 1.22 2.788 1.916 4.617 1.916H31.16c.522 0 1.045-.174 1.393-.61.349-.348.523-.87.523-1.393s-.174-1.046-.523-1.394c-.348-.349-.87-.61-1.393-.61H7.295c-.784 0-1.394-.261-1.83-.784-.435-.522-.783-1.132-.783-1.829 0-.697.261-1.394.784-1.83.435-.435 1.132-.783 1.829-.783h21.601c.174 0 .349.174.349.348a.375.375 0 0 1-.349.349H7.295c-.523 0-1.046.174-1.394.522-.348.349-.61.871-.61 1.394 0 .61.262 1.132.61 1.48.348.35.871.61 1.394.61h21.601a4.148 4.148 0 0 0 2.962-1.219 4.148 4.148 0 0 0 1.22-2.961 4.148 4.148 0 0 0-1.22-2.962c-.697-.958-1.83-1.393-2.962-1.393ZM7.295 23.9H31.16c.522 0 1.045-.175 1.393-.523.349-.348.523-.871.523-1.394 0-.522-.174-1.045-.523-1.393-.348-.349-.87-.523-1.393-.523H7.295c-.784 0-1.394-.348-1.83-.784-.435-.435-.783-1.132-.783-1.829 0-.784.261-1.393.784-1.83.435-.435 1.132-.783 1.829-.783h21.601c.174 0 .349.087.349.348a.375.375 0 0 1-.349.349H7.295c-.523 0-1.046.174-1.394.61-.348.348-.61.87-.61 1.393s.175 1.045.61 1.394c.348.348.871.523 1.394.523h21.601a4.148 4.148 0 0 0 2.962-1.22 4.148 4.148 0 0 0 1.22-2.961 4.148 4.148 0 0 0-1.22-2.962 4.148 4.148 0 0 0-2.962-1.22H7.295c-1.83 0-3.397.697-4.617 1.917-1.22 1.22-1.916 2.787-1.916 4.616 0 1.83.784 3.397 1.916 4.617 1.22.87 2.875 1.655 4.617 1.655Zm-2.178.348c-1.132-.348-2.177-.958-2.874-1.742C.936 21.112.065 19.283.065 17.367c0-1.916.784-3.746 2.178-5.052 1.306-1.306 3.135-2.178 5.052-2.178h21.514c1.394 0 2.613.523 3.484 1.481.871.871 1.48 2.178 1.48 3.484 0 1.394-.522 2.613-1.48 3.484-.348.349-.61.523-1.045.784.61.087 1.22.349 1.742.784.435.436.784 1.133.784 1.83 0 .696-.261 1.393-.784 1.828-.436.436-1.045.784-1.742.784.348.175.697.436 1.045.784.871.872 1.48 2.178 1.48 3.485 0 1.306-.522 2.526-1.48 3.484-.348.348-.61.522-1.045.784.61.087 1.22.348 1.742.783.435.436.784 1.133.784 1.83 0 .697-.261 1.393-.784 1.829-.436.435-1.132.784-1.83.784H7.296c-2.004 0-3.746-.784-5.052-2.178C.849 34.788.065 32.958.065 30.955s.784-3.745 2.178-5.052a8.561 8.561 0 0 1 2.874-1.655Z" fill="#26303B"/><path d="m80.68 9.772 1.017 1.634 3.738-1.438 3.739 1.438 1.148-1.634-5.051-1.569-4.592 1.569Z" fill="#E0E0E0"/><path d="m89.928 11.602 1.87-1.666-6.46-1.798-6.068 1.83 2.034 1.765 4.033-1.274 4.591 1.143Zm-9.445-1.438 4.854-1.438 5.247 1.471-.82.752-4.394-1.144-3.837 1.144-1.05-.784Z" fill="#26303B"/><path d="M85.599 5.752c1.738-.228 2.657-1.274 2.657-2.876C88.256.752 86.976 0 85.075 0c-.985 0-1.575.327-2.1.915-.688.686-.918 1.438-.688 2.386l.623-.163c-.197-.72 0-1.275.524-1.765.492-.523.919-.72 1.706-.72 1.574 0 2.59.556 2.59 2.288 0 1.439-.753 2.125-2.426 2.321h-.328v3.04h.623v-2.55Z" fill="#26303B"/><path d="M79.335 32.336c3.082.948 5.313 1.438 6.69 1.438 1.378 0 3.214-.49 5.51-1.438-.689-2.81-.984-5.099-1.017-6.929-.032-1.83.328-4.641.984-8.53.262 4.118.525 7.223.623 9.347.131 2.092.23 5.262.36 9.576h1.87c.623-5.85.918-10.164.787-12.877-.065-2.059-.065-5.066-.721-8.367-.164-.752-.525-1.83-1.115-3.236l-3.838-2.124c-.393 1.111-.754 1.83-1.082 2.124-1.147 1.242-2.098 1.34-2.82 1.34-.689 0-2.394-.196-3.41-1.34-.328-.36-.591-.98-.886-1.96-2.492 1.11-3.771 1.666-3.771 1.666-.623 1.471-1.017 2.648-1.148 3.563-.492 3.138-.492 6.896-.558 8.595-.065 2.975.131 7.19.59 12.682h1.968c.263-11.93.525-18.14.623-18.662.132-.523.36-.164.722 1.11.492 3.204.722 5.622.688 7.224-.032 1.601-.328 3.791-1.05 6.798Z" fill="#fff"/><path d="M79.958 18.805c-.426-.261-.558-.882-.196-1.34 0-.163-.066-.36-.164-.424-.066-.066-.164-.066-.198-.164-.163-.065-.262.066-.262.196-.164 1.144-.065 1.929-.164 2.648.164.261.197.523.066.784l.066.262c.163 0 .262-.164.262-.262v-.36c0-.555.066-1.143.164-1.863.164.36.262.72.36 1.145 0-.066.066-.197.066-.262v-.36ZM91.961 20.145c0-.882.066-1.765-.164-3.072 0-.163-.164-.261-.262-.196-.066 0-.164.065-.197.163-.066.066-.164.36-.197.621-.065.72-.197 1.438-.263 2.223.165-.556.263-1.079.526-1.569.065.719.065 1.34.164 1.863v.36c0 .163.164.26.261.26l.066-.064c-.066-.23-.032-.36.066-.589 0 0 0 .098 0 0Z" fill="#26303B"/><path d="M95.175 17.564c-.066-1.667-.197-3.007-.525-4.086-.36-1.667-.885-2.582-1.64-3.007a14.92 14.92 0 0 1-1.574-.882c-.558-.262-1.246-.556-1.77-.72h-.067c-.164-.065-.261.066-.36.197a3.904 3.904 0 0 1-1.443 2.222 3.617 3.617 0 0 1-2.328.883c-.886 0-1.706-.36-2.329-.883a3.905 3.905 0 0 1-1.443-2.222c-.066-.164-.197-.196-.36-.196h-.066c-.525.196-1.148.523-1.771.719-.525.196-1.082.555-1.574.882-.787.523-1.28 1.34-1.64 3.007-.164.621-.263 2.223-.426 3.563-.164 1.307-.164 2.483-.164 2.581.065.066 0 .066.065.164.066-.164.36-.196.426-.262.263-2.647.263-4.575.558-5.915.36-1.504.722-2.288 1.344-2.648.525-.261 1.083-.555 1.575-.784.492-.229.983-.425 1.443-.62.262.881.885 1.666 1.509 2.221.787.621 1.705.981 2.689.981 1.082 0 1.934-.261 2.689-.948.722-.555 1.246-1.569 1.508-2.451.426.196 1.148.425 1.64.719.524.261 1.082.556 1.574.882.623.36.918 1.242 1.28 2.648.195.98.622 3.726.753 3.922.525 0-.098.163.427.033Z" fill="#26303B"/><path d="M91.272 17.171c-1.017 4.445-1.017 8.302-.394 12.355.067.523.329 1.96.329 1.895.065.523.131.752.065.883-.032.163.033.261.197.326.164.033.263-.032.328-.196.032-.196.032-.49-.065-1.078 0 .065-.23-1.34-.328-1.896-.591-3.954-.623-7.778.393-12.125.032-.164-.033-.262-.197-.327-.164-.066-.295.033-.328.163ZM79.237 17.563c.95 4.118.918 7.713.262 11.635-.065.523-.36 1.929-.393 2.125-.131.686-.131 1.013 0 1.242.065.13.229.196.36.13.132-.065.165-.228.132-.36-.034-.065-.034-.359.065-.882.033-.196.263-1.634.394-2.124.688-3.987.721-7.68-.263-11.864-.032-.163-.163-.229-.327-.196-.132.033-.263.163-.23.294Z" fill="#26303B"/><path d="M79.467 32.728c-.067 0 .95.392 1.705.621 3.377.98 6.952.948 10.461-.784.131-.066.198-.23.131-.36-.065-.13-.23-.196-.36-.13-3.41 1.699-6.822 1.699-10.068.751-.689-.196-1.837-.62-1.87-.62a.258.258 0 0 0-.262.26c0 .131.098.262.263.262ZM75.826 17.237c-.426 4.641-.525 8.923-.263 12.877.066 1.438.197 2.713.328 3.922.066.785.164 1.34.23 1.83.033.164.164.23.328.23s.23-.164.23-.327c-.066-.425-.165-1.014-.23-1.765-.131-1.144-.23-2.452-.328-3.89a89.745 89.745 0 0 1 .262-12.812c0-.163-.065-.261-.23-.261-.196-.098-.327.033-.327.196ZM78.975 18.74c-.263 8.498-.623 16.145-.787 16.995-.033.164.065.262.196.327.164.033.263-.065.328-.196.164-.915.525-8.53.787-17.094a.258.258 0 0 0-.262-.261c-.131-.065-.262.065-.262.229Z" fill="#26303B"/><path d="M76.45 36.03h2.098v-.557H76.45v.556ZM94.617 17.27c.558 5.85.492 11.111 0 15.622-.065.719-.164 1.34-.23 1.895a3.547 3.547 0 0 0-.065.589c0 .13-.033.196-.033.36-.032.163.066.26.23.326.164.033.262-.065.328-.229.033-.13.033-.228.033-.36.032-.195.065-.391.065-.587.066-.589.164-1.242.23-1.929.525-4.543.59-9.838.033-15.753 0-.164-.164-.229-.263-.229-.23 0-.328.13-.328.294ZM91.404 18.51c.327 9.773.59 16.473.72 17.29.034.164.165.229.329.196.164-.032.229-.163.197-.327-.132-.686-.427-7.55-.755-17.191a.258.258 0 0 0-.262-.261.313.313 0 0 0-.23.294Z" fill="#26303B"/><path d="M94.355 35.473H92.32v.556h2.034v-.556Z" fill="#26303B"/><path d="m54.346 38.78 17.578-.555v-13.4l1.344 1.896 5.05-4.51c-2.656-3.694-4.689-6.145-6-7.29-1.345-1.176-3.083-2.025-5.28-2.581l-1.378.392c-1.28.327-2.263.425-3.05.36-.787-.066-1.902-.425-3.41-1.014-2.592.752-4.56 1.7-5.904 2.844-1.344 1.144-3.902 3.562-6.23 7.256l5.509 5.066 1.147-2.19-.065 14.054.689-.327Z" fill="#fff"/><path d="M78.286 22.113c0-.033-.033-.033-.033-.066v-.032s0-.033-.033-.033c-.032-.13-.164-.229-.196-.36 0-.032-.033-.032-.033-.065-.033-.065-.066-.163-.164-.196-.164-.196-.263-.425-.427-.621-.13-.196-.23-.36-.393-.556-.394-.555-.787-1.078-1.246-1.569-.23-.261-.427-.555-.689-.784-.426-.556-.886-1.078-1.345-1.634-.23-.262-.426-.556-.688-.784-.427-.556-1.017-.981-1.64-1.373-.984-.621-2.132-1.144-3.247-1.536-.393-.164-.787-.23-1.246-.36-.197-.033-.36-.13-.557-.13-.066 0-.164 0-.197.032-.951.686-2.427.883-3.542.883-1.115 0-2.624-.197-3.542-.883 0 0-.033 0-.033-.033-.032-.032-.13-.032-.196 0-.164.033-.361.066-.525.131-.394.13-.787.229-1.246.36-1.148.392-2.263.882-3.247 1.536-.59.392-1.148.817-1.574 1.34v-.033a64.37 64.37 0 0 0-2.722 3.367c-.36.424-.689.882-1.017 1.307l-.033.032c-.328.425-.623.883-.95 1.308-.165.229-.361.523-.427.784 0 .033-.033.066-.033.131s.033.13.066.196c.787.784 1.574 1.634 2.427 2.419a25.483 25.483 0 0 0 1.705 1.569c.197.196.426.359.689.555.13.065.262.196.393.229.066.033.197 0 .263-.033l.82-.784v12.387c0 .163.13.261.262.261H71.66c.164 0 .263-.13.263-.261V26.36l.754.72.066.065c.032.032.065.032.13.065h.132c.033 0 .066-.032.164-.065.066-.033.197-.13.23-.164.23-.163.426-.36.688-.555.59-.523 1.148-1.013 1.706-1.569.82-.785 1.64-1.569 2.426-2.419a.345.345 0 0 0 .066-.163c.033-.098 0-.163 0-.163Zm-5.706-6.145.196-.163c.23.261.427.555.689.784a58.663 58.663 0 0 1 2.525 3.138c.131.163.23.326.328.424-1.443 1.471-2.853 2.942-4.361 4.348v-6.831c0-.131 0-.23.032-.393.033-.228.066-.522.197-.751.098-.23.23-.425.394-.556Zm-13.02-3.17c.951.392 2.066.555 3.083.555 1.016 0 2.131-.163 3.082-.555l.394-.164-.033.393a3.165 3.165 0 0 1-.721 1.895c-.689.785-1.738 1.013-2.722 1.013s-2.066-.228-2.722-1.013a3.215 3.215 0 0 1-.722-1.895l-.032-.425.393.196Zm-6.198 12.779L52.28 26.59l-.164-.163c-.23-.196-.492-.392-.69-.589-.327-.261-.622-.588-.95-.882a150.628 150.628 0 0 1-2.296-2.255c-.164-.163-.262-.327-.426-.49l-.066-.066-.065-.065.065-.196c.033-.033.066-.131.131-.196.197-.327.427-.621.69-.948l.196-.229.197.229c1.443 1.47 2.886 2.941 4.394 4.347l.066.065v.425Zm0-1.046A136.376 136.376 0 0 1 49 20.184c.131-.163.23-.327.328-.425.82-1.078 1.673-2.091 2.525-3.137.164-.196.361-.392.525-.621l.164-.196.197.196c.164.163.262.36.393.555.066.23.164.523.197.752 0 .13.033.229.033.392v6.831Zm18.267-7.975a3.174 3.174 0 0 0-.197 1.112V38.422H53.919V17.668c0-.36-.065-.785-.197-1.112-.163-.49-.393-.915-.82-1.144.493-.522 1.083-.915 1.673-1.274.787-.49 1.673-.817 2.525-1.144a17.23 17.23 0 0 1 1.575-.49c0 .228 0 .523.032.751.066.752.361 1.471.82 2.027.787.915 1.968 1.242 3.149 1.242 1.147 0 2.328-.262 3.148-1.177.492-.556.754-1.307.82-2.026.032-.23.033-.523.033-.752.557.163 1.082.327 1.574.49.885.327 1.738.687 2.525 1.144.59.36 1.148.752 1.672 1.275-.426.163-.721.588-.82 1.078Zm5.968 5.753-.426.425c-.754.751-1.542 1.503-2.296 2.255-.328.326-.623.588-.95.882-.23.196-.427.392-.69.588l-.196.164-.919-.883-.163-.163v-.36l.065-.065a137.988 137.988 0 0 0 4.395-4.347l.196-.196c.132.164.197.262.328.425.23.327.427.621.623.948l.132.163-.099.164Z" fill="#26303B"/><path d="M59.166 12.471c-.033-.065 0 0 0 .229.033.229.131.621.197 1.111l3.28-.915 3.377.915.361-1.438-3.903-1.307-3.312 1.405Z" fill="#E0E0E0"/><path d="m66.218 14.302.393-2.092-4.132-1.275-3.771 1.275.491 2.091 3.346-.98 3.672.98Zm-7.183-1.635 3.477-1.144 3.968 1.144-.328.98-3.64-1.078-3.345 1.079-.132-.98Z" fill="#26303B"/><path d="M62.807 8.517c1.738-.262 2.656-1.308 2.656-2.942 0-2.19-1.278-2.941-3.18-2.941-.984 0-1.575.326-2.1.915-.688.686-.918 1.438-.688 2.418l.59-.163c-.197-.72 0-1.308.525-1.83.492-.523.918-.72 1.705-.72 1.574 0 2.591.556 2.591 2.321 0 1.438-.754 2.19-2.427 2.386h-.328v3.137h.59V8.518h.066Z" fill="#26303B"/><path d="m61.298 31.966 6.56 14.315v.425l14.593-.066 1.279-16.897-1.476-9.282.558-.196v-3.17l-14.922-.196.033 3.431-.033 8.694-6.592 2.942Z" fill="#fff"/><path d="M68.02 47h14.43c.165 0 .262-.131.262-.262a.258.258 0 0 0-.261-.262H68.02a.258.258 0 0 0-.263.262c0 .13.099.262.263.262ZM82.385 20.526H68.218c-.361 0-.722-.326-.722-.719v-2.483c0-.36.328-.72.722-.72h14.167c.36 0 .722.327.722.72v2.483c-.066.425-.394.72-.722.72Zm0-.555c.131 0 .164-.033.164-.164v-2.483c0-.066-.065-.164-.164-.164H68.218c-.066 0-.164.065-.164.163v2.484c0 .066.065.164.164.164h14.167Z" fill="#26303B"/><path d="M72.219 20.527h-1.246c-.361 0-.722-.327-.722-.72V17.52c0-.36.328-.72.722-.72h1.246c.36 0 .722.328.722.72v2.451c-.132.327-.394.556-.722.556Zm.164-3.007c0-.066-.066-.164-.164-.164h-1.246c-.066 0-.164.066-.164.164v2.288c0 .065.065.163.164.163h1.246c.066 0 .131-.033.164-.13V17.52ZM79.27 20.527h-1.247c-.36 0-.721-.327-.721-.72V17.52c0-.36.328-.72.721-.72h1.246c.36 0 .722.328.722.72v2.451c-.13.327-.361.556-.722.556Zm.163-3.007c0-.066-.065-.164-.164-.164h-1.246c-.065 0-.164.066-.164.164v2.288c0 .065.066.163.164.163h1.246c.066 0 .131-.033.164-.13V17.52ZM67.66 20.33l-.065 26.409c0 .163.13.261.262.261.131 0 .262-.13.262-.261l.066-26.409a.258.258 0 0 0-.262-.261c-.164 0-.263.098-.263.261ZM82.09 20.494l1.345 9.184c.032.163.164.228.328.228.164-.032.23-.163.23-.326l-1.345-9.184c-.033-.164-.164-.23-.328-.23-.131.066-.23.164-.23.328Z" fill="#26303B"/><path d="m83.435 29.58-1.28 17.093c0 .164.132.262.23.262.164 0 .263-.13.263-.229l1.311-17.093c0-.164-.13-.262-.23-.262a.314.314 0 0 0-.294.229ZM61.036 32.162l6.69 14.577c.065.13.23.196.36.13.132-.065.197-.228.132-.36l-6.69-14.576c-.066-.13-.23-.196-.361-.13-.131.065-.197.228-.131.359Z" fill="#26303B"/><path d="m61.397 32.227 6.624-2.942c.131-.065.197-.229.131-.36-.065-.13-.197-.195-.36-.13l-6.625 2.942c-.131.065-.197.228-.131.36.065.13.23.195.36.13ZM62.347 33.665l5.707-2.484c.13-.066.197-.229.13-.36-.032-.13-.196-.196-.36-.13l-5.706 2.484c-.131.065-.197.228-.131.359.032.13.196.163.36.13ZM79.27 26.475h-7.871c-.361 0-.722-.327-.722-.719v-.98c0-.36.328-.72.722-.72h7.805c.36 0 .722.327.722.72v1.078c0 .327-.295.621-.657.621Zm0-.556c.065 0 .065-.032.065-.065v-1.079c0-.065-.066-.163-.164-.163h-7.74c-.065 0-.163.065-.163.163v.981c0 .065.065.163.164.163h7.837Z" fill="#26303B"/><path d="M67.66 20.33v26.245c0 .163.132.262.263.262s.262-.131.262-.262V20.33a.258.258 0 0 0-.262-.261.258.258 0 0 0-.262.261ZM71.039 26.18v4.707c0 .163.13.26.262.26.164 0 .262-.13.262-.26V26.18a.258.258 0 0 0-.262-.261.258.258 0 0 0-.262.261ZM79.073 26.18v4.707c0 .163.131.26.262.26.164 0 .263-.13.263-.26V26.18a.259.259 0 0 0-.263-.261c-.131 0-.262.13-.262.261Z" fill="#26303B"/><path d="m71.137 31.214 4 2.942c.132.065.263.065.361-.033.066-.13.066-.262-.032-.36l-4.001-2.941c-.132-.065-.263-.065-.361.033-.099.098-.066.228.033.36Z" fill="#26303B"/><path d="m79.106 30.822-3.935 2.941c-.132.066-.164.23-.033.36.065.13.23.163.36.032l3.936-2.941c.13-.065.164-.229.033-.36-.033-.065-.23-.098-.361-.032Z" fill="#26303B"/></svg>