<svg width="83" height="44" fill="none" xmlns="http://www.w3.org/2000/svg"><path d="M60.4 42.7h20.2" stroke="#26303B" stroke-width=".75" stroke-miterlimit="10" stroke-linecap="round"/><path d="M80.5 5.7H60.7c-.3 0-.6-.3-.6-.6V1.6c0-.3.3-.6.6-.6h19.8c.3 0 .6.3.6.6v3.5c0 .4-.3.6-.6.6Z" stroke="#26303B" stroke-width=".75" stroke-miterlimit="10"/><path d="M66.3 5.7h-1.7c-.3 0-.6-.3-.6-.6V1.9c0-.3.3-.6.6-.6h1.7c.3 0 .6.3.6.6v3.3c-.1.3-.3.5-.6.5ZM76.2 5.7h-1.7c-.3 0-.6-.3-.6-.6V1.9c0-.3.3-.6.6-.6h1.7c.3 0 .6.3.6.6v3.3c-.1.3-.3.5-.6.5Z" stroke="#26303B" stroke-width=".75" stroke-miterlimit="10"/><path d="m60.3 5.8-.1 36.9M80.5 6l1.9 12.8M82.4 18.8l-1.8 23.9M51 22.2l9.4 20.4M51 22.1l9.3-4.1M52.3 24.1l8-3.5M76.2 14h-11c-.3 0-.6-.3-.6-.6V12c0-.3.3-.6.6-.6h10.9c.3 0 .6.3.6.6v1.5c0 .3-.2.5-.5.5ZM60.3 5.8v36.7M65 14v6.6M76.3 14v6.6M65 20.7l5.6 4.1M76.2 20.8l-5.5 4.1" stroke="#26303B" stroke-width=".75" stroke-miterlimit="10" stroke-linecap="round"/><path d="M7 17.1c-.6-.4-.8-1.2-.3-1.9 0-.2-.1-.5-.2-.6-.1-.1-.2-.1-.3-.2-.2-.1-.4.1-.4.3-.2 1.6-.1 2.7-.2 3.7.2.4.3.7.1 1.1l.1.4c.2 0 .4-.2.4-.4V19c0-.8.1-1.6.2-2.6.2.5.4 1 .5 1.6 0-.1.1-.3.1-.4v-.5ZM23.8 19c0-1.2.1-2.5-.2-4.3 0-.2-.2-.4-.4-.3-.1 0-.2.1-.3.2-.1.1-.2.5-.3.9-.1 1-.3 2-.4 3.1.2-.8.4-1.5.7-2.2.1 1 .1 1.9.2 2.6v.5c0 .2.2.4.4.4l.1-.1c0-.3.1-.5.2-.8 0 0 0 .1 0 0Z" fill="#26303B"/><path d="M28.3 15.4c-.1-2.3-.3-4.2-.7-5.7-.5-2.3-1.2-3.6-2.3-4.2-.7-.4-1.5-.8-2.2-1.2-.8-.4-1.7-.8-2.5-1h-.1c-.2-.1-.4.1-.5.3-.3 1.2-1 2.3-2 3.1-.9.8-2.1 1.2-3.3 1.2-1.2 0-2.4-.5-3.3-1.2-1-.8-1.7-1.9-2-3.1-.1-.2-.3-.3-.5-.3h-.1c-.7.3-1.6.7-2.5 1-.7.3-1.5.8-2.2 1.2-1.1.7-1.8 1.9-2.3 4.2-.2.9-.4 3.1-.6 5-.2 1.8-.2 3.5-.2 3.6.1.1 0 .1.1.2.1-.2.5-.3.6-.4.4-3.7.4-6.4.8-8.3.5-2.1 1-3.2 1.9-3.7.7-.4 1.5-.8 2.2-1.1.7-.3 1.4-.6 2-.9.4 1.2 1.2 2.3 2.1 3.1 1.1.9 2.4 1.4 3.8 1.4 1.5 0 2.7-.4 3.8-1.3 1-.8 1.7-2.2 2.1-3.4.6.3 1.6.6 2.3 1 .7.4 1.5.8 2.2 1.2.9.5 1.3 1.7 1.8 3.7.3 1.4.6 3.2.8 5.4.7.1.2 0 .8.2Z" fill="#26303B"/><path d="M23.2 14.9c-2.7 11.6.3 19.9 0 21.1M6.4 15.3c2.7 11.5-.8 19.8-.2 20.9M6.3 36.2c.3 0 8.2 4.1 16.9-.2M1.6 14.9c-1.4 14.6.2 24.7.4 25.9M6 17c-.4 12.9-.9 22.7-1.1 23.8" stroke="#26303B" stroke-width=".75" stroke-miterlimit="10" stroke-linecap="round"/><path d="M2.1 40.8H5" stroke="#26303B" stroke-width=".75" stroke-miterlimit="10"/><path d="M27.9 14.9c1.4 14.6-.4 24.7-.6 25.9M23.4 16.7c.4 12.9.8 23 1 24.1" stroke="#26303B" stroke-width=".75" stroke-miterlimit="10" stroke-linecap="round"/><path d="M27.2 40.8h-2.9" stroke="#26303B" stroke-width=".75" stroke-miterlimit="10"/></svg>