<svg width="123" height="43" fill="none" xmlns="http://www.w3.org/2000/svg"><path d="M1.3.9c-.1 0-.3.1-.3.2v40.4c0 .1.1.2.3.2h10.3c.2 0 .3-.1.3-.2v-.1L9.5 30.5l-.4-2 .2-.1c1.8-.6 3.5-1.6 5-3 2.3-2.2 4.1-5.4 5.4-9.5 1.3-4.1 2-8.9 2.1-14.4v-.1h3.4c-.2-.1-.2-.3-.2-.5H1.3Zm.3 27.9 3.6.2h1.3c.6 0 1.2-.1 1.8-.3l.2-.1.4 1.7-.2.1c-1 .2-2 .2-3.1.3h-.5c-1-.1-2-.1-3.3-.4l-.2-.1v-1.4Zm9.7 12.4H1.6V30.7l.2.1c1.3.3 2.5.4 3.6.4h.2c1.1 0 2.2-.1 3.2-.3H9l2.3 10.3Zm7.9-25.6C18 19.5 16.3 22.9 14 25c-1.8 1.8-4.1 2.9-6.6 3.3-.6.1-1.1.1-1.7.1l-2.5-.1c-.2 0-.4 0-.6-.1l-1-.1V1.4h19.6c-.1 5.3-.8 10.2-2 14.2Z" fill="#2D333D" stroke="#2D333D" stroke-width=".25" stroke-miterlimit="10"/><path d="M25 .9c0 .1 0 .3-.2.5h3.4v.2c.1 5.5.8 10.4 2.1 14.4 1.3 4.1 3.1 7.2 5.4 9.5 1.5 1.4 3.2 2.4 5 3l.2.1-.4 2-2.4 10.8v.1c0 .1.1.2.3.2h10.3c.2 0 .3-.1.3-.2V1.2c0-.2-.1-.2-.3-.2L25 .9Zm23.3 29.3-.2.1c-1.3.3-2.4.3-3.3.4h-.5c-1.1-.1-2.1-.1-3.1-.3H41l.4-1.7.2.1 1.8.3h1.2l3.6-.2.1 1.3Zm-7.5.6h.2c1 .2 2.1.3 3.2.3h.2c1.2 0 2.3-.1 3.6-.4l.2-.1v10.5h-9.8l2.4-10.3ZM28.7 1.4h19.6v26.8l-1 .1c-.2 0-.4 0-.6.1h-2.5c-.6 0-1.1 0-1.7-.1-2.5-.4-4.8-1.5-6.6-3.3-2.3-2.2-4-5.5-5.2-9.4-1.2-4-1.9-8.8-2-14.2Z" fill="#2D333D" stroke="#2D333D" stroke-width=".25" stroke-miterlimit="10"/><path d="M84.7 38.8c-.2 0-.4-.2-.4-.4V18.2c0-.2.2-.4.4-.4s.3.2.4.3v20.3c0 .3-.2.4-.4.4Z" fill="#2D333D"/><path d="M74.1 41.9c-.2 0-.4-.2-.4-.4V3.4c0-.1.1-.3.2-.4.1 0 .2-.1.3-.2l.1-.1v-.9h-3.9c-.2 0-.4-.1-.4-.4 0-.2.2-.4.4-.4h3.9V.4c0-.2.1-.4.4-.4.2 0 .4.2.4.4v.8h6.4V0h.1c.2 0 .4.2.4.4v.8h6.4V.4c0-.2.1-.4.4-.4.2 0 .4.2.4.4v.8h6.3V.4c0-.2.1-.4.4-.4.2 0 .4.2.4.4v.8h6.4V.4c0-.2.1-.4.4-.4.3 0 .4.2.4.4v.8h6.4V.4c0-.2.1-.4.4-.4.3 0 .4.2.4.4v.8h6.4V.4c0-.2.1-.4.4-.4.2 0 .4.2.4.4v.8h3.9c.2 0 .4.1.4.4 0 .2-.2.4-.4.4h-3.9v1.2H118.2s.1 0 .1.1c.1.1.2.2.2.3v38.1c0 .2-.2.4-.4.4h-44v-.2Zm.3-.7h43.1V3.7c0-.2-.1-.3-.3-.3-.8.5-2.1.8-3.5.8-1 0-2-.2-2.8-.5-.1-.1-.3-.2-.5-.2h-.1c-.1 0-.2 0-.3.1-.1 0-.2 0-.3.1-.8.4-1.8.6-2.9.6-1.4 0-2.6-.3-3.5-.8l-.1-.1-.1.1c-.8.5-2.1.8-3.5.8-1.1 0-2.1-.2-2.9-.6l-.2-.1c-.1-.1-.2-.2-.5-.2-.2 0-.4.1-.5.2-.2.1-.3.1-.4.2-.9.3-1.7.5-2.6.5-1.4 0-2.6-.3-3.5-.8l-.1-.1h-.1c-.8.5-2.1.8-3.5.8-1.1 0-2.1-.2-2.9-.6h-.1s-.1-.1-.2-.1H81.8c-.2 0-.4.1-.5.2-.8.4-1.8.6-2.9.6-1.4 0-2.6-.3-3.5-.8l-.4-.2v.2h-.1v37.7Zm36.1-38.4c.8.5 2 .8 3.2.8 1.3 0 2.4-.2 3.1-.7l.1-.1V1.7h-6.4v1.1Zm-7.1 0c.8.5 2 .8 3.2.8 1.3 0 2.4-.2 3.1-.7l.1-.1V1.7h-6.4v1.1Zm-7.1 0c.8.5 2 .8 3.2.8 1.3 0 2.4-.2 3.1-.7l.1-.1V1.7h-6.4v1.1Zm-7.1 0c.8.5 2 .8 3.2.8 1.3 0 2.4-.2 3.1-.7l.1-.1V1.7h-6.4v1.1Zm-7.1 0c.8.5 2 .8 3.2.8 1.3 0 2.4-.2 3.1-.7l.1-.1V1.7h-6.4v1.1Zm-7 0c.8.5 2 .8 3.2.8 1.3 0 2.4-.2 3.1-.7l.1-.1V1.7h-6.4v1.1Z" fill="#2D333D"/><path d="M96.6 39c-.2 0-.4-.2-.4-.4V18.3c0-.2.2-.4.4-.4s.3.3.4.4v20.2c0 .3-.2.5-.4.5ZM109.6 38.8c-.2 0-.4-.2-.4-.4V18.2c0-.2.2-.4.4-.4s.3.2.4.3v20.3c0 .3-.2.4-.4.4Z" fill="#2D333D"/></svg>