<svg width="96" height="47" viewBox="0 0 96 47" fill="none" xmlns="http://www.w3.org/2000/svg">
<path d="M28.8961 24.5965H7.29471C5.46558 24.5965 3.89772 25.3804 2.6783 26.5127C1.45878 27.6451 0.761984 29.3 0.761984 31.1292C0.761984 32.9584 1.54596 34.5262 2.6783 35.7457C3.81063 36.9651 5.46558 37.6619 7.29471 37.6619H31.1609C31.6835 37.6619 32.206 37.4877 32.5545 37.0522C32.9029 36.7037 33.0771 36.1812 33.0771 35.6586C33.0771 35.1359 32.9029 34.6133 32.5545 34.2649C32.206 33.9165 31.6835 33.6552 31.1609 33.6552H28.8961H7.29471C6.51083 33.6552 5.90102 33.3939 5.46558 32.8713C5.03005 32.3487 4.6816 31.7389 4.6816 31.0421C4.6816 30.3453 4.94296 29.6485 5.46558 29.2129C5.90102 28.7774 6.59792 28.429 7.29471 28.429H28.8961C29.0704 28.429 29.2446 28.6032 29.2446 28.7774C29.2446 28.9517 29.0704 29.1258 28.8961 29.1258H7.29471C6.77209 29.1258 6.24947 29.3 5.90102 29.6485C5.55267 29.9969 5.29131 30.5194 5.29131 31.0421C5.29131 31.6518 5.55267 32.1744 5.90102 32.5228C6.24947 32.8713 6.77209 33.1325 7.29471 33.1325H28.8961C30.0285 33.1325 31.0737 32.697 31.8577 31.9131C32.6416 31.1292 33.0771 30.084 33.0771 28.9517C33.0771 27.8193 32.6416 26.7741 31.8577 25.9901C31.1609 25.032 30.0285 24.5965 28.8961 24.5965ZM7.29471 23.8997H28.8961H31.1609C31.6835 23.8997 32.206 23.7254 32.5545 23.3771C32.9029 23.0286 33.0771 22.506 33.0771 21.9834C33.0771 21.4608 32.9029 20.9382 32.5545 20.5898C32.206 20.2414 31.6835 20.0672 31.1609 20.0672H28.8961H7.29471C6.51083 20.0672 5.90102 19.7187 5.46558 19.2832C5.03005 18.8478 4.6816 18.1509 4.6816 17.4541C4.6816 16.6702 4.94296 16.0605 5.46558 15.6249C5.90102 15.1894 6.59792 14.841 7.29471 14.841H28.8961C29.0704 14.841 29.2446 14.9281 29.2446 15.1894C29.2446 15.3636 29.0704 15.5378 28.8961 15.5378H7.29471C6.77209 15.5378 6.24947 15.712 5.90102 16.1476C5.55267 16.4959 5.29131 17.0185 5.29131 17.5412C5.29131 18.0638 5.46558 18.5864 5.90102 18.9348C6.24947 19.2832 6.77209 19.4575 7.29471 19.4575H28.8961C30.0285 19.4575 31.0737 19.0219 31.8577 18.238C32.6416 17.4541 33.0771 16.4088 33.0771 15.2765C33.0771 14.1442 32.6416 13.0989 31.8577 12.315C31.0737 11.531 30.0285 11.0956 28.8961 11.0956H7.29471C5.46558 11.0956 3.89772 11.7924 2.6783 13.0118C1.45878 14.2312 0.761984 15.7991 0.761984 17.6282C0.761984 19.4575 1.54596 21.0252 2.6783 22.2448C3.89772 23.1157 5.55267 23.8997 7.29471 23.8997ZM5.11714 24.2481C3.9848 23.8997 2.93956 23.29 2.24276 22.506C0.936253 21.1124 0.0651855 19.2832 0.0651855 17.367C0.0651855 15.4507 0.849072 13.6215 2.24276 12.315C3.54927 11.0085 5.3784 10.1375 7.29471 10.1375H28.809C30.2027 10.1375 31.4221 10.6601 32.2932 11.6182C33.1642 12.4892 33.7739 13.7958 33.7739 15.1023C33.7739 16.4959 33.2513 17.7154 32.2932 18.5864C31.9448 18.9348 31.6834 19.109 31.248 19.3704C31.8577 19.4575 32.4674 19.7187 32.99 20.1543C33.4255 20.5898 33.7739 21.2866 33.7739 21.9834C33.7739 22.6802 33.5126 23.3771 32.99 23.8125C32.5545 24.2481 31.9448 24.5965 31.248 24.5965C31.5963 24.7707 31.9448 25.032 32.2932 25.3804C33.1642 26.2515 33.7739 27.558 33.7739 28.8645C33.7739 30.1711 33.2513 31.3905 32.2932 32.3487C31.9448 32.697 31.6834 32.8713 31.248 33.1325C31.8577 33.2196 32.4674 33.481 32.99 33.9165C33.4255 34.352 33.7739 35.0489 33.7739 35.7457C33.7739 36.4425 33.5126 37.1393 32.99 37.5748C32.5545 38.0103 31.8577 38.3587 31.1609 38.3587H7.29471C5.29131 38.3587 3.54927 37.5748 2.24276 36.1812C0.849072 34.7875 0.0651855 32.9584 0.0651855 30.955C0.0651855 28.9517 0.849072 27.2096 2.24276 25.903C3.02665 25.2062 4.07189 24.5965 5.11714 24.2481Z" fill="#26303B"/>
<path d="M80.6794 9.77191L81.6969 11.4061L85.4347 9.96802L89.1736 11.4061L90.3218 9.77191L85.2707 8.20312L80.6794 9.77191Z" fill="#E0E0E0"/>
<path d="M89.9285 11.6025L91.7974 9.93567L85.3372 8.13806L79.2698 9.96839L81.3035 11.7333L85.3372 10.4587L89.9285 11.6025ZM80.4833 10.1645L85.3372 8.72639L90.5837 10.1971L89.7644 10.9488L85.3695 9.805L81.533 10.9488L80.4833 10.1645Z" fill="#26303B"/>
<path d="M85.5989 5.75225C87.3369 5.52352 88.2557 4.47763 88.2557 2.87613C88.2557 0.751715 86.9766 0 85.0745 0C84.0902 0 83.5004 0.326835 82.9751 0.915137C82.2867 1.60148 82.0573 2.35321 82.2867 3.30106L82.9097 3.13758C82.7134 2.41858 82.9097 1.86295 83.4341 1.3727C83.9262 0.84977 84.3529 0.653669 85.1399 0.653669C86.714 0.653669 87.7304 1.20928 87.7304 2.94147C87.7304 4.37957 86.9766 5.06596 85.3039 5.26207H84.9759V8.30159H85.5989V5.78497V5.75225Z" fill="#26303B"/>
<path d="M79.3348 32.3359C82.4174 33.2837 84.6476 33.774 86.0254 33.774C87.4031 33.774 89.2389 33.2837 91.5345 32.3359C90.8461 29.5251 90.5512 27.2373 90.518 25.4071C90.4858 23.5768 90.8461 20.766 91.5023 16.8767C91.764 20.9948 92.0266 24.0998 92.1252 26.2242C92.2561 28.3158 92.3547 31.4861 92.4856 35.8004H94.3554C94.9784 29.9501 95.2733 25.6358 95.1425 22.9231C95.077 20.864 95.077 17.8572 94.4209 14.5562C94.2568 13.8044 93.8965 12.7259 93.3058 11.3205L89.4684 9.19604C89.0748 10.3073 88.7145 11.0264 88.3864 11.3205C87.2391 12.5624 86.288 12.6605 85.5664 12.6605C84.8771 12.6605 83.1722 12.4644 82.1557 11.3205C81.8276 10.9609 81.565 10.34 81.2701 9.35953C78.7776 10.4708 77.4986 11.0264 77.4986 11.0264C76.8756 12.4971 76.482 13.6737 76.3508 14.5889C75.8589 17.7265 75.8589 21.4851 75.7933 23.1845C75.7278 26.1588 75.9245 30.3749 76.3836 35.8657H78.3513C78.6137 23.9363 78.876 17.7265 78.9744 17.2036C79.1056 16.6806 79.3348 17.0401 79.696 18.3148C80.1881 21.5177 80.4176 23.9363 80.3844 25.5378C80.3522 27.1393 80.0564 29.3291 79.3348 32.3359Z" fill="white"/>
<path d="M79.958 18.8055C79.5322 18.544 79.4004 17.923 79.7617 17.4654C79.7617 17.302 79.6962 17.1059 79.5976 17.0406C79.5322 16.9752 79.4336 16.9752 79.4004 16.8771C79.2367 16.8118 79.1383 16.9425 79.1383 17.0732C78.9744 18.2172 79.0728 19.0016 78.9744 19.7206C79.1383 19.9821 79.1711 20.2435 79.04 20.5051L79.1055 20.7665C79.2695 20.7665 79.3682 20.603 79.3682 20.5051C79.3682 20.3416 79.3682 20.3089 79.3682 20.1455C79.3682 19.5898 79.4336 19.0016 79.5322 18.2825C79.6962 18.642 79.7939 19.0016 79.8925 19.4265C79.8925 19.3611 79.958 19.2303 79.958 19.165C79.958 19.0997 79.958 19.0997 79.958 19.0016C79.958 18.8708 79.958 18.8055 79.958 18.8055Z" fill="#26303B"/>
<path d="M91.9613 20.1453C91.9613 19.2628 92.0267 18.3804 91.7972 17.073C91.7972 16.9096 91.6332 16.8116 91.5346 16.8769C91.4691 16.8769 91.3705 16.9422 91.3383 17.0403C91.2719 17.1056 91.1742 17.3998 91.1411 17.6613C91.0756 18.3804 90.9438 19.0994 90.8784 19.8838C91.0425 19.3282 91.1411 18.8052 91.4037 18.315C91.4691 19.034 91.4691 19.655 91.5678 20.178C91.5678 20.3414 91.5678 20.4394 91.5678 20.5375C91.5678 20.7009 91.7318 20.7989 91.8295 20.7989L91.8949 20.7336C91.8295 20.5048 91.8627 20.374 91.9613 20.1453C91.9613 20.1453 91.9613 20.2433 91.9613 20.1453Z" fill="#26303B"/>
<path d="M95.1747 17.5635C95.1093 15.8966 94.9775 14.5566 94.6503 13.4781C94.2891 11.8112 93.7647 10.896 93.01 10.4712C92.4856 10.2097 91.928 9.91556 91.4359 9.58868C90.8784 9.32723 90.1899 9.03307 89.6656 8.86967C89.6656 8.86967 89.6656 8.86967 89.5992 8.86967C89.4352 8.80433 89.3375 8.93501 89.2389 9.06578C89.0417 9.94828 88.5173 10.7326 87.7957 11.2882C87.1727 11.8439 86.2871 12.1707 85.4678 12.1707C84.5822 12.1707 83.762 11.8112 83.139 11.2882C82.4174 10.7326 81.8931 9.94828 81.6958 9.06578C81.6304 8.90239 81.4995 8.86967 81.3355 8.86967C81.3355 8.86967 81.3355 8.86967 81.2701 8.86967C80.7448 9.06578 80.1218 9.39266 79.4988 9.58868C78.9741 9.78479 78.4165 10.1443 77.9246 10.4712C77.1376 10.9941 76.6456 11.8112 76.2848 13.4781C76.1209 14.099 76.0225 15.7005 75.8585 17.0406C75.6946 18.3479 75.6946 19.5245 75.6946 19.6225C75.7602 19.6879 75.6946 19.6879 75.7602 19.7859C75.8257 19.6225 76.1209 19.5898 76.1865 19.5245C76.4489 16.8771 76.4489 14.9488 76.744 13.6088C77.1048 12.1053 77.4655 11.321 78.0885 10.9615C78.6133 10.7 79.1708 10.4058 79.6629 10.177C80.155 9.94828 80.6462 9.75217 81.106 9.55606C81.3678 10.4385 81.9907 11.2229 82.6146 11.7785C83.4017 12.3995 84.3195 12.759 85.3038 12.759C86.3857 12.759 87.2382 12.4975 87.9929 11.8112C88.7145 11.2556 89.2389 10.2424 89.5015 9.35995C89.9273 9.55606 90.6489 9.78479 91.141 10.079C91.6654 10.3404 92.2229 10.6346 92.715 10.9615C93.338 11.321 93.6329 12.2034 93.9942 13.6088C94.1905 14.5893 94.6172 17.3347 94.748 17.5308C95.2733 17.5308 94.6503 17.6943 95.1747 17.5635Z" fill="#26303B"/>
<path d="M91.2719 17.1713C90.2554 21.6162 90.2554 25.4729 90.8784 29.5257C90.9448 30.0486 91.2065 31.4867 91.2065 31.4212C91.2719 31.9442 91.3383 32.173 91.2719 32.3037C91.2397 32.4671 91.3051 32.5652 91.4691 32.6305C91.6332 32.6632 91.7318 32.5979 91.7972 32.4344C91.8295 32.2383 91.8295 31.9442 91.7318 31.3559C91.7318 31.4212 91.5014 30.0159 91.4037 29.4602C90.813 25.5056 90.7807 21.6816 91.7972 17.3347C91.8295 17.1713 91.764 17.0732 91.6 17.0079C91.436 16.9425 91.3051 17.0405 91.2719 17.1713Z" fill="#26303B"/>
<path d="M79.2369 17.5629C80.1875 21.6811 80.1552 25.2763 79.4991 29.1983C79.4336 29.7212 79.1385 31.1266 79.1057 31.3227C78.9745 32.009 78.9745 32.3359 79.1057 32.5647C79.1713 32.6954 79.335 32.7607 79.4668 32.6954C79.5977 32.63 79.6309 32.4666 79.5977 32.3359C79.5645 32.2705 79.5645 31.9764 79.6631 31.4534C79.6963 31.2574 79.9258 29.8193 80.0566 29.329C80.745 25.3416 80.7782 21.6483 79.794 17.4649C79.7617 17.3015 79.6309 17.2361 79.4668 17.2688C79.335 17.3015 79.2041 17.4323 79.2369 17.5629Z" fill="#26303B"/>
<path d="M79.4667 32.7282C79.4004 32.7282 80.4178 33.1203 81.1717 33.3491C84.5492 34.3296 88.124 34.297 91.6333 32.5647C91.7642 32.4993 91.8305 32.3359 91.7642 32.2052C91.6987 32.0745 91.5347 32.0091 91.4038 32.0745C87.9931 33.774 84.5824 33.774 81.3357 32.8261C80.6473 32.6301 79.499 32.2052 79.4667 32.2052C79.3024 32.2052 79.2041 32.336 79.2041 32.4666C79.2041 32.5974 79.3024 32.7282 79.4667 32.7282Z" fill="#26303B"/>
<path d="M75.8258 17.2371C75.3995 21.8781 75.3011 26.1596 75.5634 30.1144C75.629 31.5524 75.7602 32.8271 75.8914 34.0364C75.9569 34.8207 76.0554 35.3763 76.121 35.8666C76.1537 36.03 76.2849 36.0954 76.4489 36.0954C76.6129 36.0954 76.6784 35.932 76.6784 35.7686C76.6128 35.3437 76.5145 34.7554 76.4489 34.0037C76.3177 32.8597 76.2193 31.5524 76.121 30.1144C75.9241 26.1923 75.9569 21.8781 76.3833 17.3024C76.3833 17.139 76.3177 17.041 76.1537 17.041C75.9569 16.9429 75.8258 17.0737 75.8258 17.2371Z" fill="#26303B"/>
<path d="M78.9746 18.7398C78.7123 27.2375 78.3515 34.8854 78.1875 35.7351C78.1547 35.8986 78.2531 35.9966 78.3843 36.062C78.5483 36.0947 78.6466 35.9966 78.7123 35.8659C78.8762 34.9507 79.237 27.3354 79.4991 18.7724C79.4991 18.609 79.3682 18.511 79.237 18.511C79.1058 18.4456 78.9746 18.5763 78.9746 18.7398Z" fill="#26303B"/>
<path d="M76.4492 36.0294H78.5481V35.4734H76.4492V36.0294Z" fill="#26303B"/>
<path d="M94.6171 17.2691C95.1747 23.1194 95.1093 28.3815 94.6171 32.8919C94.5517 33.6109 94.4531 34.2318 94.3877 34.7874C94.3545 34.9835 94.3222 35.1797 94.3222 35.3758C94.3222 35.5064 94.2891 35.5719 94.2891 35.7353C94.2568 35.8987 94.3554 35.9967 94.5185 36.0622C94.6826 36.0948 94.7812 35.9967 94.8466 35.8333C94.8798 35.7026 94.8798 35.6045 94.8798 35.4738C94.912 35.2777 94.9452 35.0816 94.9452 34.8855C95.0106 34.2972 95.1093 33.6435 95.1747 32.9572C95.7 28.4141 95.7654 23.1194 95.2079 17.2038C95.2079 17.0403 95.0438 16.975 94.9452 16.975C94.7157 16.975 94.6171 17.1057 94.6171 17.2691Z" fill="#26303B"/>
<path d="M91.4038 18.5107C91.731 28.283 91.9936 34.9831 92.1245 35.8003C92.1577 35.9637 92.2885 36.029 92.4526 35.9963C92.6166 35.9637 92.682 35.8329 92.6498 35.6695C92.518 34.9831 92.2231 28.1196 91.895 18.478C91.895 18.3146 91.7641 18.2166 91.6333 18.2166C91.5015 18.2493 91.4038 18.3799 91.4038 18.5107Z" fill="#26303B"/>
<path d="M94.3545 35.4734H92.3215V36.0294H94.3545V35.4734Z" fill="#26303B"/>
<path d="M54.3457 38.7808L71.9237 38.2251V24.825L73.2683 26.7205L78.3186 22.2103C75.6623 18.517 73.6291 16.0658 72.3172 14.9219C70.9726 13.7452 69.2346 12.8955 67.0373 12.3398L65.6599 12.732C64.3808 13.0589 63.3971 13.157 62.6099 13.0915C61.8228 13.0262 60.7078 12.6667 59.1993 12.0784C56.6085 12.8301 54.6408 13.7779 53.2962 14.9219C51.9516 16.0658 49.3936 18.4844 47.0652 22.1776L52.5747 27.2435L53.7225 25.0537L53.657 39.1076L54.3457 38.7808Z" fill="white"/>
<path d="M78.2859 22.1125C78.2859 22.0799 78.2531 22.0799 78.2531 22.0472C78.2531 22.0472 78.2531 22.0472 78.2531 22.0145C78.2531 22.0145 78.2531 21.9819 78.2203 21.9819C78.1875 21.8511 78.0564 21.753 78.0236 21.6224C78.0236 21.5896 77.9908 21.5896 77.9908 21.5569C77.9579 21.4916 77.9251 21.3935 77.8268 21.3608C77.6628 21.1647 77.5644 20.936 77.4004 20.7399C77.2693 20.5438 77.1708 20.3804 77.0069 20.1842C76.6134 19.6286 76.2198 19.1057 75.7606 18.6155C75.5311 18.354 75.3343 18.0598 75.072 17.831C74.6456 17.2754 74.1865 16.7525 73.7274 16.1969C73.4978 15.9354 73.3011 15.6413 73.0387 15.4125C72.6124 14.8568 72.0221 14.432 71.399 14.0398C70.4151 13.4187 69.2673 12.8958 68.1523 12.5036C67.7587 12.3402 67.3652 12.2749 66.9061 12.1441C66.7093 12.1114 66.5453 12.0134 66.3486 12.0134C66.2829 12.0134 66.1846 12.0134 66.1518 12.0461C65.2007 12.7324 63.7249 12.9285 62.6099 12.9285C61.4949 12.9285 59.9863 12.7324 59.0681 12.0461C59.0681 12.0461 59.0353 12.0461 59.0353 12.0134C59.0026 11.9807 58.9041 11.9807 58.8385 12.0134C58.6746 12.0461 58.4778 12.0788 58.3139 12.1441C57.9203 12.2749 57.5267 12.3729 57.0676 12.5036C55.9198 12.8958 54.8048 13.3861 53.8209 14.0398C53.2306 14.432 52.6731 14.8568 52.2468 15.3797V15.3471C51.2957 16.4583 50.3775 17.5696 49.5248 18.7135C49.1641 19.1384 48.8361 19.5959 48.5082 20.0209L48.4754 20.0535C48.1474 20.4784 47.8523 20.936 47.5243 21.3608C47.3604 21.5896 47.1636 21.8838 47.098 22.1453C47.098 22.178 47.0652 22.2106 47.0652 22.276C47.0652 22.3414 47.098 22.4067 47.1308 22.472C47.9178 23.2565 48.7049 24.1063 49.5576 24.8907C50.1151 25.4463 50.6726 25.9692 51.2629 26.4595C51.4597 26.6556 51.6893 26.819 51.9516 27.0151C52.0828 27.0804 52.214 27.2112 52.3451 27.2438C52.4108 27.2766 52.5419 27.2438 52.6075 27.2112L53.4274 26.4268V38.8138C53.4274 38.9773 53.5586 39.0752 53.6897 39.0752H71.6613C71.8253 39.0752 71.9237 38.9445 71.9237 38.8138V26.3614L72.678 27.0804L72.7435 27.1458C72.7763 27.1785 72.8091 27.1785 72.8748 27.2112C72.8748 27.2112 72.9076 27.2112 72.9404 27.2112H72.9731H73.0059C73.0387 27.2112 73.0715 27.1785 73.1699 27.1458C73.2355 27.1132 73.3667 27.0151 73.3995 26.9824C73.6291 26.819 73.8258 26.6229 74.0882 26.4268C74.6784 25.9039 75.236 25.4136 75.7935 24.858C76.6134 24.0735 77.4332 23.2892 78.2203 22.4394C78.2531 22.4067 78.2859 22.3086 78.2859 22.276C78.3186 22.178 78.2859 22.1125 78.2859 22.1125ZM72.5796 15.9681L72.7763 15.8047C73.0059 16.0661 73.2026 16.3603 73.465 16.589C74.3506 17.6023 75.1704 18.6481 75.9902 19.7267C76.1214 19.8901 76.2198 20.0535 76.3182 20.1515C74.8752 21.6224 73.465 23.0931 71.9565 24.4985V17.6676C71.9565 17.5369 71.9565 17.4388 71.9893 17.2754C72.0221 17.0467 72.0548 16.7525 72.1861 16.5237C72.2844 16.2949 72.4156 16.0988 72.5796 15.9681ZM59.56 12.7978C60.5111 13.19 61.6261 13.3534 62.6427 13.3534C63.6594 13.3534 64.7744 13.19 65.7255 12.7978L66.119 12.6344L66.0862 13.0266C66.0534 13.7129 65.8238 14.3666 65.3647 14.9222C64.676 15.7066 63.6266 15.9354 62.6427 15.9354C61.6589 15.9354 60.5767 15.7066 59.9208 14.9222C59.4944 14.3993 59.2321 13.7456 59.1993 13.0266L59.1665 12.6017L59.56 12.7978ZM53.3618 25.577L52.2796 26.5902L52.1156 26.4268C51.886 26.2307 51.6236 26.0346 51.4269 25.8384C51.099 25.577 50.8038 25.2502 50.4758 24.956C49.6888 24.2043 48.9345 23.4526 48.1802 22.7009C48.0162 22.5375 47.9178 22.374 47.7539 22.2106L47.6883 22.1453L47.6227 22.0799L47.6883 21.8838C47.7211 21.8511 47.7539 21.753 47.8195 21.6877C48.0162 21.3608 48.2458 21.0667 48.5082 20.7399L48.7049 20.511L48.9017 20.7399C50.3447 22.2106 51.7877 23.6813 53.2962 25.0867L53.3618 25.1522V25.577ZM53.3618 24.5311C51.8532 23.0931 50.4103 21.655 49.0001 20.1842C49.1313 20.0209 49.2297 19.8574 49.328 19.7594C50.1479 18.6808 51.0006 17.6676 51.8532 16.6217C52.0172 16.4256 52.214 16.2295 52.3779 16.0008L52.5419 15.8047L52.7387 16.0008C52.9027 16.1642 53.001 16.3603 53.1322 16.5564C53.1979 16.7851 53.2962 17.0793 53.329 17.3081C53.329 17.4388 53.3618 17.5369 53.3618 17.7003V24.5311ZM71.6285 16.5564C71.4974 16.8832 71.4318 17.3081 71.4318 17.6676V25.0867V25.1194V25.675V38.4216H53.9193V25.675V25.6423V17.6676C53.9193 17.3081 53.8537 16.8832 53.7225 16.5564C53.5586 16.0661 53.329 15.6413 52.9027 15.4125C53.3946 14.8896 53.9849 14.4973 54.5752 14.1378C55.3623 13.6476 56.2477 13.3208 57.1004 12.9939C57.6252 12.7978 58.1826 12.6344 58.6746 12.5036C58.6746 12.7324 58.6746 13.0266 58.7074 13.2553C58.773 14.0071 59.0681 14.7261 59.5272 15.2818C60.3143 16.1969 61.4949 16.5237 62.6756 16.5237C63.8234 16.5237 65.004 16.2622 65.8238 15.3471C66.3158 14.7915 66.5781 14.0398 66.6437 13.3208C66.6765 13.0919 66.6766 12.7978 66.6766 12.569C67.234 12.7324 67.7588 12.8958 68.2507 13.0592C69.1361 13.3861 69.9888 13.7456 70.7759 14.2032C71.3661 14.5627 71.9237 14.9549 72.4484 15.4778C72.0221 15.6413 71.7269 16.0661 71.6285 16.5564ZM77.5972 22.3086C77.4332 22.472 77.2693 22.6355 77.1708 22.7336C76.4166 23.4853 75.6295 24.237 74.8752 24.9887C74.5473 25.3155 74.2521 25.577 73.9241 25.8712C73.6946 26.0673 73.4978 26.2634 73.2355 26.4595L73.0387 26.6229L72.1204 25.7404L71.9565 25.577V25.2175L72.0221 25.1522C73.5306 23.714 75.0064 22.276 76.4166 20.8052L76.6134 20.6091C76.7445 20.7726 76.8101 20.8706 76.9413 21.034C77.1708 21.3608 77.3677 21.655 77.5644 21.9819L77.6956 22.1453L77.5972 22.3086Z" fill="#26303B"/>
<path d="M59.1662 12.4712C59.1334 12.4059 59.1662 12.4712 59.1662 12.7C59.199 12.9287 59.2974 13.321 59.3629 13.8112L62.6424 12.8961L66.0204 13.8112L66.3811 12.3731L62.4785 11.0658L59.1662 12.4712Z" fill="#E0E0E0"/>
<path d="M66.2175 14.3015L66.6111 12.2097L62.4789 10.9351L58.7075 12.2097L59.1994 14.3015L62.5445 13.3209L66.2175 14.3015ZM59.0354 12.6672L62.5117 11.5233L66.4799 12.6672L66.152 13.6478L62.5117 12.5692L59.1666 13.6478L59.0354 12.6672Z" fill="#26303B"/>
<path d="M62.8071 8.51655C64.5453 8.2551 65.4635 7.20921 65.4635 5.57508C65.4635 3.38525 64.1845 2.63354 62.2823 2.63354C61.2986 2.63354 60.7082 2.96041 60.1835 3.54864C59.4948 4.23503 59.2652 4.98675 59.4948 5.96721L60.0851 5.80382C59.8884 5.08481 60.0851 4.49648 60.6099 3.97358C61.1017 3.45059 61.5281 3.25457 62.3152 3.25457C63.8893 3.25457 64.906 3.81019 64.906 5.57508C64.906 7.0131 64.1517 7.76483 62.4791 7.96094H62.1512V11.0985H62.7415V8.51655H62.8071Z" fill="#26303B"/>
<path d="M61.2981 31.9656L67.8571 46.281V46.7058L82.4506 46.6405L83.7297 29.7431L82.2543 20.4611L82.8119 20.265V17.0947L67.8899 16.8986L67.9227 20.3303L67.8899 29.0241L61.2981 31.9656Z" fill="white"/>
<path d="M68.0207 46.9997H82.4507C82.6147 46.9997 82.7124 46.8688 82.7124 46.7381C82.7124 46.5745 82.5816 46.4764 82.4507 46.4764H68.0207C67.8567 46.4764 67.7583 46.6072 67.7583 46.7381C67.7583 46.8688 67.8567 46.9997 68.0207 46.9997Z" fill="#26303B"/>
<path d="M82.3853 20.5265H68.2178C67.857 20.5265 67.4963 20.1996 67.4963 19.8074V17.3235C67.4963 16.964 67.8242 16.6045 68.2178 16.6045H82.3853C82.7456 16.6045 83.1069 16.9313 83.1069 17.3235V19.8074C83.0415 20.2323 82.7134 20.5265 82.3853 20.5265ZM82.3853 19.9709C82.5162 19.9709 82.5493 19.9382 82.5493 19.8074V17.3235C82.5493 17.2582 82.4839 17.1601 82.3853 17.1601H68.2178C68.1522 17.1601 68.0538 17.2254 68.0538 17.3235V19.8074C68.0538 19.8728 68.1194 19.9709 68.2178 19.9709H82.3853Z" fill="#26303B"/>
<path d="M72.2189 20.5266H70.9727C70.612 20.5266 70.2512 20.1998 70.2512 19.8076V17.5197C70.2512 17.1602 70.5792 16.8007 70.9727 16.8007H72.2189C72.5797 16.8007 72.9405 17.1275 72.9405 17.5197V19.9056V19.971C72.8092 20.2978 72.5468 20.5266 72.2189 20.5266ZM72.3829 17.5197C72.3829 17.4543 72.3173 17.3563 72.2189 17.3563H70.9727C70.9071 17.3563 70.8088 17.4216 70.8088 17.5197V19.8076C70.8088 19.8729 70.8744 19.971 70.9727 19.971H72.2189C72.2845 19.971 72.3501 19.9382 72.3829 19.8403V17.5197Z" fill="#26303B"/>
<path d="M79.2694 20.5266H78.0233C77.6625 20.5266 77.3018 20.1998 77.3018 19.8076V17.5197C77.3018 17.1602 77.6297 16.8007 78.0233 16.8007H79.2694C79.6297 16.8007 79.991 17.1275 79.991 17.5197V19.9056V19.971C79.8601 20.2978 79.6297 20.5266 79.2694 20.5266ZM79.4334 17.5197C79.4334 17.4543 79.368 17.3563 79.2694 17.3563H78.0233C77.9576 17.3563 77.8592 17.4216 77.8592 17.5197V19.8076C77.8592 19.8729 77.9248 19.971 78.0233 19.971H79.2694C79.3348 19.971 79.4003 19.9382 79.4334 19.8403V17.5197Z" fill="#26303B"/>
<path d="M67.6602 20.3303L67.5947 46.7385C67.5947 46.9019 67.7259 47 67.8571 47C67.9882 47 68.1194 46.8692 68.1194 46.7385L68.185 20.3303C68.185 20.1669 68.0538 20.0688 67.9226 20.0688C67.7587 20.0688 67.6602 20.1669 67.6602 20.3303Z" fill="#26303B"/>
<path d="M82.0903 20.4936L83.4349 29.6776C83.4672 29.841 83.5989 29.9064 83.763 29.9064C83.927 29.8737 83.9925 29.743 83.9925 29.5796L82.6479 20.3956C82.6147 20.2321 82.4838 20.1667 82.3198 20.1667C82.1889 20.2321 82.0903 20.3301 82.0903 20.4936Z" fill="#26303B"/>
<path d="M83.4349 29.58L82.1558 46.6735C82.1558 46.8369 82.2866 46.9349 82.3852 46.9349C82.5493 46.9349 82.6479 46.8042 82.6479 46.7061L83.9593 29.6127C83.9593 29.4493 83.8284 29.3512 83.7298 29.3512C83.5989 29.3512 83.4671 29.4493 83.4349 29.58Z" fill="#26303B"/>
<path d="M61.0358 32.1619L67.7259 46.7387C67.7914 46.8695 67.9555 46.9348 68.0866 46.8695C68.2178 46.804 68.2833 46.6406 68.2178 46.5099L61.5276 31.9331C61.4621 31.8024 61.298 31.737 61.1669 31.8024C61.0358 31.8677 60.9701 32.0312 61.0358 32.1619Z" fill="#26303B"/>
<path d="M61.3965 32.2268L68.021 29.2853C68.1522 29.22 68.2178 29.0565 68.1522 28.9258C68.0866 28.795 67.9554 28.7297 67.7914 28.795L61.1669 31.7366C61.0358 31.8019 60.9701 31.9653 61.0358 32.0961C61.1013 32.2268 61.2653 32.2922 61.3965 32.2268Z" fill="#26303B"/>
<path d="M62.3475 33.6648L68.0537 31.1808C68.1849 31.1154 68.2505 30.952 68.1849 30.8213C68.1522 30.6906 67.9881 30.6252 67.8242 30.6906L62.1179 33.1745C61.9867 33.2398 61.9211 33.4032 61.9867 33.534C62.0195 33.6648 62.1834 33.6974 62.3475 33.6648Z" fill="#26303B"/>
<path d="M79.2695 26.475H71.3987C71.038 26.475 70.6772 26.1482 70.6772 25.756V24.7754C70.6772 24.4159 71.0052 24.0564 71.3987 24.0564H79.2039C79.5642 24.0564 79.9255 24.3833 79.9255 24.7754V25.854C79.9255 26.1808 79.6306 26.475 79.2695 26.475ZM79.2695 25.9193C79.3347 25.9193 79.3347 25.8867 79.3347 25.854V24.7754C79.3347 24.7101 79.2695 24.612 79.1711 24.612H71.4316C71.3659 24.612 71.2675 24.6774 71.2675 24.7754V25.756C71.2675 25.8213 71.3331 25.9193 71.4316 25.9193H79.2695Z" fill="#26303B"/>
<path d="M67.6606 20.3303V46.575C67.6606 46.7385 67.7919 46.8366 67.923 46.8366C68.0542 46.8366 68.1854 46.7058 68.1854 46.575V20.3303C68.1854 20.1669 68.0542 20.0688 67.923 20.0688C67.7919 20.0688 67.6606 20.1669 67.6606 20.3303Z" fill="#26303B"/>
<path d="M71.0386 26.1801V30.8865C71.0386 31.0499 71.1697 31.1479 71.301 31.1479C71.4649 31.1479 71.5632 31.0173 71.5632 30.8865V26.1801C71.5632 26.0166 71.4321 25.9186 71.301 25.9186C71.1369 25.9186 71.0386 26.0494 71.0386 26.1801Z" fill="#26303B"/>
<path d="M79.0728 26.1801V30.8865C79.0728 31.0499 79.204 31.1479 79.335 31.1479C79.4991 31.1479 79.5977 31.0173 79.5977 30.8865V26.1801C79.5977 26.0166 79.4659 25.9186 79.335 25.9186C79.204 25.9186 79.0728 26.0494 79.0728 26.1801Z" fill="#26303B"/>
<path d="M71.1366 31.2141L75.1376 34.1556C75.2688 34.2209 75.3999 34.2209 75.4984 34.1229C75.5639 33.9922 75.5639 33.8614 75.4656 33.7634L71.4646 30.8219C71.3334 30.7566 71.2022 30.7566 71.1039 30.8545C71.0054 30.9526 71.0383 31.0834 71.1366 31.2141Z" fill="#26303B"/>
<path d="M79.1059 30.8218L75.1705 33.7633C75.0393 33.8287 75.0066 33.9921 75.1377 34.1228C75.2033 34.2535 75.3673 34.2862 75.4984 34.1554L79.4337 31.214C79.5646 31.1486 79.5977 30.9852 79.4669 30.8545C79.4337 30.789 79.237 30.7564 79.1059 30.8218Z" fill="#26303B"/>
</svg>
