<svg width="116" height="43" fill="none" xmlns="http://www.w3.org/2000/svg"><path d="M115.1 42.6V5.2c0-.4-.3-.7-.8-.7H68.4c-.4 0-.8.3-.8.7v37.4" stroke="#2D333D" stroke-width=".75" stroke-miterlimit="10"/><path d="M68.7 1.7c-.1 0-.3.1-.3.1v2.3c0 .1.1.1.2.1s.2-.1.3-.1V1.8c0-.1-.1-.1-.2-.1ZM74.1 1.7c-.1 0-.3.1-.3.1v2.3c0 .1.1.1.3.1.1 0 .3-.1.3-.1V1.8c-.1-.1-.2-.1-.3-.1ZM81.4 1.7c-.1 0-.3.1-.3.1v2.3c0 .1.1.1.3.1.2 0 .3-.1.3-.1V1.8c0-.1-.1-.1-.3-.1ZM79.7 1.7c-.1 0-.3.1-.3.1v2.3c0 .1.1.1.3.1.1 0 .3-.1.3-.1V1.8c-.1-.1-.2-.1-.3-.1ZM75.9 1.7c-.1 0-.3.1-.3.1v2.3c0 .1.1.1.3.1.1 0 .3-.1.3-.1V1.8c0-.1-.1-.1-.3-.1ZM77.8 1.7c-.1 0-.3.1-.3.1v2.3c0 .1.1.1.3.1.1 0 .2-.1.2-.1V1.8c0-.1-.1-.1-.2-.1ZM72.3 1.7c-.1 0-.3.1-.3.1v2.3c0 .1.1.1.3.1.1 0 .3-.1.3-.1V1.8c0-.1-.2-.1-.3-.1ZM70.6 1.7c-.1 0-.3.1-.3.1v2.3c0 .1.1.1.3.1.1 0 .3-.1.3-.1V1.8c-.1-.1-.2-.1-.3-.1ZM83.1 1.7c-.1 0-.3.1-.3.1v2.3c0 .1.1.1.3.1.2 0 .3-.1.3-.1V1.8c0-.1-.1-.1-.3-.1ZM88.5 1.7c-.1 0-.3.1-.3.1v2.3c0 .1.1.1.3.1.1 0 .3-.1.3-.1V1.8c0-.1-.1-.1-.3-.1ZM95.9 1.7c-.1 0-.3.1-.3.1v2.3c0 .1.1.1.3.1.1 0 .3-.1.3-.1V1.8c-.1-.1-.2-.1-.3-.1ZM94.1 1.7c-.1 0-.3.1-.3.1v2.3c0 .1.1.1.3.1.2 0 .2-.1.2-.1V1.8c.1-.1 0-.1-.2-.1ZM90.4 1.7c-.1 0-.3.1-.3.1v2.3c0 .1.1.1.3.1.2 0 .3-.1.3-.1V1.8c-.1-.1-.2-.1-.3-.1ZM92.2 1.7c-.1 0-.3.1-.3.1v2.3c0 .1.1.1.3.1.2 0 .3-.1.3-.1V1.8c0-.1-.1-.1-.3-.1ZM86.7 1.7c-.1 0-.3.1-.3.1v2.3c0 .1.1.1.3.1.2 0 .3-.1.3-.1V1.8c0-.1-.1-.1-.3-.1ZM85 1.7c-.1 0-.3.1-.3.1v2.3c0 .1.1.1.3.1.1 0 .3-.1.3-.1V1.8c0-.1-.2-.1-.3-.1ZM97.7 1.7c-.1 0-.3.1-.3.1v2.3c0 .1.1.1.3.1.1 0 .2-.1.2-.1V1.8c0-.1-.1-.1-.2-.1ZM103 1.7c-.1 0-.3.1-.3.1v2.3c0 .1.1.1.3.1.1 0 .3-.1.3-.1V1.8s-.2-.1-.3-.1ZM110.4 1.7c-.1 0-.3.1-.3.1v2.3c0 .1.1.1.3.1.1 0 .3-.1.3-.1V1.8c-.1 0-.2-.1-.3-.1ZM108.6 1.7c-.1 0-.3.1-.3.1v2.3c0 .1.1.1.3.1.1 0 .2-.1.2-.1V1.8s-.1-.1-.2-.1ZM104.8 1.7c-.1 0-.3.1-.3.1v2.3c0 .1.1.1.3.1.1 0 .3-.1.3-.1V1.8s-.1-.1-.3-.1ZM106.7 1.7c-.1 0-.3.1-.3.1v2.3c0 .1.1.1.3.1.1 0 .3-.1.3-.1V1.8c-.1 0-.2-.1-.3-.1ZM101.2 1.7c-.1 0-.3.1-.3.1v2.3c0 .1.1.1.3.1.1 0 .3-.1.3-.1V1.8s-.1-.1-.3-.1ZM99.5 1.7c-.1 0-.3.1-.3.1v2.3c0 .1.1.1.3.1.1 0 .3-.1.3-.1V1.8c-.1 0-.2-.1-.3-.1ZM112.2 1.7c-.1 0-.3.1-.3.1v2.3c0 .1.1.1.3.1.1 0 .2-.1.2-.1V1.8s-.1-.1-.2-.1ZM113.8 1.7c-.1 0-.3.1-.3.1v2.3c0 .1.1.1.3.1.1 0 .2-.1.2-.1V1.8c.1 0 0-.1-.2-.1Z" fill="#2D333D"/><path d="M68.7 1.7c-.1 0-.3.1-.3.1v2.3c0 .1.1.1.2.1s.2-.1.3-.1V1.8c0-.1-.1-.1-.2-.1ZM74.1 1.7c-.1 0-.3.1-.3.1v2.3c0 .1.1.1.3.1.1 0 .3-.1.3-.1V1.8c-.1-.1-.2-.1-.3-.1ZM81.4 1.7c-.1 0-.3.1-.3.1v2.3c0 .1.1.1.3.1.2 0 .3-.1.3-.1V1.8c0-.1-.1-.1-.3-.1ZM79.7 1.7c-.1 0-.3.1-.3.1v2.3c0 .1.1.1.3.1.1 0 .3-.1.3-.1V1.8c-.1-.1-.2-.1-.3-.1ZM75.9 1.7c-.1 0-.3.1-.3.1v2.3c0 .1.1.1.3.1.1 0 .3-.1.3-.1V1.8c0-.1-.1-.1-.3-.1ZM77.8 1.7c-.1 0-.3.1-.3.1v2.3c0 .1.1.1.3.1.1 0 .2-.1.2-.1V1.8c0-.1-.1-.1-.2-.1ZM72.3 1.7c-.1 0-.3.1-.3.1v2.3c0 .1.1.1.3.1.1 0 .3-.1.3-.1V1.8c0-.1-.2-.1-.3-.1ZM70.6 1.7c-.1 0-.3.1-.3.1v2.3c0 .1.1.1.3.1.1 0 .3-.1.3-.1V1.8c-.1-.1-.2-.1-.3-.1ZM83.1 1.7c-.1 0-.3.1-.3.1v2.3c0 .1.1.1.3.1.2 0 .3-.1.3-.1V1.8c0-.1-.1-.1-.3-.1ZM88.5 1.7c-.1 0-.3.1-.3.1v2.3c0 .1.1.1.3.1.1 0 .3-.1.3-.1V1.8c0-.1-.1-.1-.3-.1ZM95.9 1.7c-.1 0-.3.1-.3.1v2.3c0 .1.1.1.3.1.1 0 .3-.1.3-.1V1.8c-.1-.1-.2-.1-.3-.1ZM94.1 1.7c-.1 0-.3.1-.3.1v2.3c0 .1.1.1.3.1.2 0 .2-.1.2-.1V1.8c.1-.1 0-.1-.2-.1ZM90.4 1.7c-.1 0-.3.1-.3.1v2.3c0 .1.1.1.3.1.2 0 .3-.1.3-.1V1.8c-.1-.1-.2-.1-.3-.1ZM92.2 1.7c-.1 0-.3.1-.3.1v2.3c0 .1.1.1.3.1.2 0 .3-.1.3-.1V1.8c0-.1-.1-.1-.3-.1ZM86.7 1.7c-.1 0-.3.1-.3.1v2.3c0 .1.1.1.3.1.2 0 .3-.1.3-.1V1.8c0-.1-.1-.1-.3-.1ZM85 1.7c-.1 0-.3.1-.3.1v2.3c0 .1.1.1.3.1.1 0 .3-.1.3-.1V1.8c0-.1-.2-.1-.3-.1ZM97.7 1.7c-.1 0-.3.1-.3.1v2.3c0 .1.1.1.3.1.1 0 .2-.1.2-.1V1.8c0-.1-.1-.1-.2-.1ZM103 1.7c-.1 0-.3.1-.3.1v2.3c0 .1.1.1.3.1.1 0 .3-.1.3-.1V1.8s-.2-.1-.3-.1ZM110.4 1.7c-.1 0-.3.1-.3.1v2.3c0 .1.1.1.3.1.1 0 .3-.1.3-.1V1.8c-.1 0-.2-.1-.3-.1ZM108.6 1.7c-.1 0-.3.1-.3.1v2.3c0 .1.1.1.3.1.1 0 .2-.1.2-.1V1.8s-.1-.1-.2-.1ZM104.8 1.7c-.1 0-.3.1-.3.1v2.3c0 .1.1.1.3.1.1 0 .3-.1.3-.1V1.8s-.1-.1-.3-.1ZM106.7 1.7c-.1 0-.3.1-.3.1v2.3c0 .1.1.1.3.1.1 0 .3-.1.3-.1V1.8c-.1 0-.2-.1-.3-.1ZM101.2 1.7c-.1 0-.3.1-.3.1v2.3c0 .1.1.1.3.1.1 0 .3-.1.3-.1V1.8s-.1-.1-.3-.1ZM99.5 1.7c-.1 0-.3.1-.3.1v2.3c0 .1.1.1.3.1.1 0 .3-.1.3-.1V1.8c-.1 0-.2-.1-.3-.1ZM112.2 1.7c-.1 0-.3.1-.3.1v2.3c0 .1.1.1.3.1.1 0 .2-.1.2-.1V1.8s-.1-.1-.2-.1ZM113.8 1.7c-.1 0-.3.1-.3.1v2.3c0 .1.1.1.3.1.1 0 .2-.1.2-.1V1.8c.1 0 0-.1-.2-.1ZM93.7 26.6s-.1 0-.2-.1-.1-.2-.1-.3c0-.1.1-.2.2-.2h.1c.1 0 .2 0 .2.1 0 0 .1.1.1.2 0 .2-.1.3-.3.3ZM88.6 26.8h-.1c-.1-.1-.1-.2-.1-.3 0-.1.1-.2.2-.2h.1c.1 0 .2 0 .2.1 0 0 .1.1.1.2s0 .1-.1.2h-.3ZM91.2 28h-.5c-.1 0-.2-.1-.3-.1-.1 0-.1-.1-.2-.1-.2-.1-.3-.2-.4-.3l-.1-.1s-.1-.1-.1-.2 0-.2.1-.2c.1-.1.1-.1.2-.1s.1 0 .2.1c.3.2.5.4.8.4h.2c.4 0 .7-.1 1-.4l.2-.2c.1-.1.1-.2.2-.2h.1c.1 0 .3.1.3.2s0 .2-.1.3v.1c-.5.5-1.1.8-1.6.8ZM96.2 28.6c-.4 0-.8-.1-1.1-.3-.2-.2-.5-.4-.6-.7-.1-.1-.1-.2 0-.2 0-.1.1-.1.2-.2h.1c.1 0 .2 0 .2.1l.1.1c.1.1.2.3.3.4.2.2.5.3.9.3.2 0 .4 0 .5-.1.1 0 .2-.1.3-.2.1-.1.2-.1.3-.1.1 0 .2.1.2.1 0 .1.1.2 0 .3-.3.3-.8.5-1.4.5ZM86.1 29c-.2 0-.3 0-.5-.1h-.1c-.1 0-.3-.1-.4-.2H85c-.1 0-.1-.1-.1-.2s0-.2.2-.2h.1c.1 0 .2 0 .3.1.1.1.2.1.3.1h.3c.5 0 1-.3 1.2-.8v-.1c.1-.2.1-.3.2-.3h.1c.1 0 .3.1.3.2 0 .2 0 .4-.1.5-.3.6-.8 1-1.4 1.1-.1-.1-.2-.1-.3-.1ZM98.6 28c-.1 0-.1 0-.2-.1s-.1-.1-.1-.2.1-.2.2-.3h.1c.1 0 .3.1.3.2s0 .2-.1.2c0 .1 0 .2-.2.2ZM83.8 28.5c-.1 0-.1 0-.2-.1s-.1-.2-.1-.3c0-.1.1-.2.2-.2h.1c.1 0 .2 0 .2.1 0 0 .1.1.1.2 0 .2-.2.3-.3.3ZM93.3 30.1c-.3 0-.7-.2-.9-.4-.2-.3-.2-.7-.1-1 .2-.3.4-.4.7-.5h.2c.2 0 .3 0 .5.1.3.1.6.4.6.8 0 .2-.1.5-.3.7-.1.2-.4.3-.7.3.1 0 0 0 0 0Zm-.2-1.4c-.1 0-.2.1-.3.2-.1.1-.1.2 0 .4.1.1.3.3.4.3.2 0 .3-.1.4-.3.1-.1.1-.3 0-.4-.1-.2-.3-.2-.4-.2h-.1ZM89.1 30.3c-.3 0-.6-.1-.8-.3-.3-.4-.3-1 0-1.3.1-.1.3-.2.5-.3h.3c.2 0 .4.1.6.2.2.1.4.4.4.6.1.3 0 .7-.3 1-.1.1-.3.2-.5.2 0-.1-.1-.1-.2-.1Zm-.1-1.5c-.2 0-.3.2-.3.4s0 .3.2.4c.1.1.2.1.3.1.2 0 .4-.1.5-.3 0-.1 0-.3-.1-.4-.1-.1-.2-.2-.4-.2H89ZM100.9 30.7c-.3 0-.6-.1-.8-.2-.3-.1-.4-.3-.6-.4-.1-.1-.1-.2-.2-.3 0-.1-.1-.1-.1-.2-.1-.2-.1-.3-.2-.5V29c0-.1.1-.2.2-.3h.1c.1 0 .1 0 .2.1s.1.2.1.3c0 .1 0 .1.1.2.2.5.7.9 1.3.9h.2c.1 0 .3 0 .4-.1.1 0 .2-.1.2-.1h.1c.1 0 .2.1.2.1v.3c-.1.1-.2.1-.3.2h-.1c-.4.1-.6.1-.8.1ZM81.5 31.5h-.2c-.1 0-.2 0-.3-.1-.1-.1-.1-.2-.1-.3 0-.1 0-.2.1-.2s.1-.1.2-.1H81.5c.3 0 .7-.1 1-.4.2-.2.3-.4.4-.7v-.5c0-.1.1-.2.2-.2h.1c.1 0 .2.1.3.2.1.2.1.4 0 .7-.2.6-.7 1.2-1.3 1.3H82c-.2.2-.4.3-.5.3ZM97.5 31.2h-.1c-.3 0-.5-.1-.7-.3-.2-.2-.3-.4-.3-.7 0-.4.3-.9.8-1h.3c.5 0 1 .4 1 .9 0 .2 0 .5-.2.7-.2.3-.5.4-.8.4Zm-.4-.6c.1.1.2.1.3.1h.2l.1-.1h.1c.1-.1.2-.1.3-.3 0-.1 0-.3-.1-.4-.1-.1-.3-.2-.4-.2h-.2l-.3.3c-.2.3-.1.5 0 .6ZM91.2 29.9s-.1 0-.2-.1c-.1 0-.1-.1-.1-.2s.1-.2.2-.2h.1c.1 0 .2 0 .2.1 0 0 .1.1.1.2s0 .1-.1.2h-.2ZM85.1 31.7c-.3 0-.6-.1-.8-.3-.3-.4-.3-1 0-1.3.1-.1.3-.3.5-.3h.3c.2 0 .3 0 .5.1.3.2.6.5.6.9 0 .2-.1.4-.3.7-.2.1-.5.2-.8.2Zm-.3-.7c.1.1.2.2.3.2.2 0 .4-.1.4-.3.1-.1.1-.3 0-.4-.1-.2-.3-.2-.4-.2-.1 0-.1 0-.2.1s-.3.2-.3.4c.1 0 .1.1.2.2ZM95.2 30.4s-.1 0-.2-.1-.1-.2-.1-.3c0-.1.1-.2.2-.2h.1c.1 0 .2 0 .2.1 0 0 .1.1.1.2s0 .1-.1.2c0 0-.1.1-.2.1ZM87.2 30.7c-.1 0-.3-.1-.3-.2s.1-.2.2-.3h.1c.1 0 .3.1.3.2s0 .2-.1.2c0 0-.1.1-.2.1ZM102.9 30.8c-.1 0-.1 0-.2-.1s-.1-.1-.1-.2.1-.2.2-.3h.1c.1 0 .3.1.3.2s0 .1-.1.2c0 .1-.1.2-.2.2ZM103 42.6h.6c-.1-.4-.2-.7-.4-1l-.1-.1.1-.1c.3-.5.4-1 .3-1.4-.1-.7-.4-1.4-1-1.8l-.1-.1v-.8c0-.9-.8-1.8-1.7-2.1-.2-.1-.2-.2-.2-.3-.2-1.1-1.2-1.9-2.4-2-.1 0-.3-.1-.3-.2-.1-.2-.3-.4-.5-.7-.5-.4-1.1-.7-1.8-.7-.3 0-.5 0-.8.1h-.1l-.1-.1-.9-.6c-.3-.1-.7-.2-1-.2-.3 0-.7.1-1 .2-.1 0-.2.1-.3.2-.1 0-.2.1-.2.1h-.2c-.1 0-.2-.1-.2-.1s-.1 0-.1-.1c-.3-.1-.6-.2-1-.2-.6 0-1.2.2-1.7.6l-.3.3c0 .1-.1.1-.1.1l-.1.1h-1.2c-.7.2-1.4.6-1.7 1.3 0 .1-.1.1-.1.2s-.1.2-.1.2v.1h-.1c-.1 0-.2.1-.3.1h-.1c-1.1.2-2 1.3-2 2.4v.1l.3.1c-.4.2-.8.4-1 .8-.2.3-.3.6-.4.9 0 .3-.1.6 0 .8v.2c0 .1.1.2.1.3 0 .1-.1.2-.2.2l-.1.1c-.7.8-.7 2-.1 2.9h2.5s0-.1-.1-.1c-.1-.1-.1-.1-.2-.1H80.9l-.1-.1c-.3-.4-.5-.8-.4-1.3 0-.5.3-1 .7-1.3l.1-.1h.1c.2.1.4.1.7.2l.9.3h.1c.1 0 .3-.1.3-.3 0-.1-.1-.3-.2-.3-.2-.1-.5-.1-.7-.2-.5.2-.7.1-1 .1h-.1v-.1c-.3-.7 0-1.7.6-2.2.1-.1.3-.2.4-.3h.1l.1.1c.4.3.8.6 1.2.8h.1s.1.1.2.1.2 0 .2-.1c.1-.1.1-.1.1-.2s0-.1-.1-.2c-.2-.1-.4-.3-.6-.4-.2-.2-.5-.3-.7-.5h-.2v-.1c-.1-1 .8-1.9 1.8-2h.1l.1.1c.1.1.2.3.3.5.2.3.4.5.6.8 0 .1.1.1.2.1s.2 0 .2-.1c.1-.1.1-.3 0-.4-.2-.2-.3-.4-.4-.6-.2-.2-.3-.4-.5-.6l-.1-.1v-.1c.2-.8 1-1.4 1.9-1.4.1 0 .3 0 .4.1h.1v.1c.2.5.3 1 .5 1.4 0 .1.2.2.3.2.1 0 .1 0 .2-.1s.1-.2.1-.3c-.1-.2-.1-.4-.2-.6-.1-.3-.2-.5-.3-.8v-.2c.3-.5 1-.9 1.7-.9.4 0 .7.1 1 .3l.1.1v1.6c0 .1.1.2.3.2h.1c.1 0 .2-.1.2-.3v-1.5c0-.1.1-.2.2-.3.3-.2.7-.3 1.1-.3h.4c.3.1.7.2 1 .6l.1.1v.1c-.1.2-.2.4-.2.7-.1.3-.2.5-.3.8 0 .1 0 .1.1.2s.1.1.2.1.2-.1.3-.2c.1-.2.1-.4.2-.7.1-.3.2-.5.3-.8v-.1h.1c.2-.1.5-.2.7-.2.8 0 1.5.5 1.8 1.1v.1l-.3.4c-.2.3-.5.6-.7.9-.1.1 0 .2 0 .3.1.1.1.1.2.1s.2-.1.3-.2c.1-.2.3-.4.4-.6.2-.2.3-.4.4-.6l.1-.1h.2c.6 0 1.2.3 1.6.7.2.3.3.6.4.9v.1l-.1.1c-.2.1-.4.3-.6.4-.2.2-.5.3-.7.5-.1.1-.1.1-.1.2s.1.2.3.2h.1c.1 0 .1-.1.2-.1l.1-.1c.2-.1.3-.2.4-.3.2-.1.3-.2.5-.4 0 0 .1-.1.2-.1h.1c.5.1.9.4 1.1.9.3.4.3.9.2 1.4v.1h-.1l-.9.3c-.2.1-.4.1-.6.2-.1 0-.1.1-.2.2 0 .1 0 .2.1.2 0 .1.1.1.2.1h.1l.4-.1c.3-.1.7-.2 1-.3h.2c.4.3.7.7.8 1.2.1.5 0 1-.2 1.3l-.1.1H100.7c-.1 0-.1 0-.2.1s-.1.1-.1.2 0 .1.1.2.1.1.2.1H102.4l.1.1c.3.7.5 1 .5 1.2ZM79.7 31.6c-.1 0-.2 0-.2-.1-.1-.1-.1-.2-.1-.2 0-.1.1-.2.2-.2h.1c.1 0 .2 0 .2.1 0 0 .1.1.1.2s0 .1-.1.2h-.2ZM98.9 32s-.1 0-.2-.1-.1-.2-.1-.3c0-.1.1-.2.2-.2h.1c.1 0 .2 0 .2.1 0 0 .1.1.1.2s0 .1-.1.1c0 .2-.1.2-.2.2ZM100.9 33.5c-.3 0-.5-.1-.7-.3-.3-.3-.4-.9-.1-1.3.1-.2.4-.4.6-.4h.2c.2 0 .4.1.6.2.3.2.5.5.5.9 0 .2-.1.4-.3.7-.2.1-.5.2-.8.2Zm-.2-.6c.1.1.2.1.3.1.2 0 .4-.1.4-.3 0-.1 0-.2-.1-.4-.1-.1-.3-.2-.4-.2h-.2c-.2.1-.3.2-.3.4 0 .1.1.3.3.4ZM104.7 34.1c-.7 0-1.4-.4-1.7-1-.1-.2-.2-.4-.2-.6v-.6c0-.1.1-.2.2-.2h.1c.1 0 .3.1.3.2 0 .4 0 .7.2 1 .2.3.6.6 1 .7H104.9c.1 0 .2 0 .2.1.1.1.1.2.1.3 0 .1-.1.2-.2.2-.1-.1-.2-.1-.3-.1ZM83.7 32.6s-.1 0-.2-.1-.1-.2-.1-.3c0-.1.1-.2.2-.2h.1c.1 0 .2 0 .2.1 0 0 .1.1.1.2s0 .1-.1.2c0 .1-.1.1-.2.1ZM81.8 34.2c-.3 0-.6-.1-.8-.4-.2-.2-.2-.4-.2-.7.1-.4.4-.8.8-.9h.3c.2 0 .3 0 .5.1s.4.4.5.6c.2.4 0 .8-.3 1-.3.2-.5.3-.8.3Zm-.2-.6c.1 0 .1.1.2.1s.3-.1.4-.2c.1-.1.1-.3.1-.4-.1-.2-.3-.4-.5-.4h-.2c-.2.1-.3.2-.3.4 0 .3.1.5.3.5ZM78.2 35.1H78c-.1-.1-.1-.2-.1-.3 0-.1.1-.2.2-.2.5-.1.9-.3 1.1-.6.2-.2.3-.5.3-.9 0-.1 0-.2-.1-.2 0-.1-.1-.2-.1-.2 0-.1.1-.2.2-.3h.1c.1 0 .2 0 .2.1.2.3.3.7.2 1.1-.1.5-.4 1-.8 1.3-.1 0-.1.1-.2.1-.2.1-.3.2-.4.2h-.1c-.2-.1-.3-.1-.3-.1Z" fill="#2D333D"/><path d="M92.5 34.2s-.1 0-.2-.1-.1-.2-.1-.3c0-.1.1-.2.2-.2h.1c.1 0 .2 0 .2.1 0 0 .1.1.1.2 0 .2-.1.3-.3.3ZM89.9 34.4c-.2 0-.3-.1-.3-.2s.1-.2.2-.3h.1c.1 0 .2 0 .2.1 0 0 .1.1.1.2s0 .1-.1.2c0-.1-.1 0-.2 0ZM101.9 34.6c-.1 0-.2 0-.2-.1-.1-.1-.1-.2-.1-.2 0-.1.1-.2.2-.2h.1c.1 0 .3.1.3.2s0 .1-.1.2-.1.1-.2.1c0 .1 0 0 0 0ZM106.1 34.7c-.1 0-.1 0-.2-.1s-.1-.1-.1-.2.1-.2.2-.3h.1c.1 0 .3.1.3.2s0 .2-.1.2c0 .2-.1.2-.2.2ZM95.1 34.9s-.1 0-.2-.1-.1-.2-.1-.3c0-.1.1-.2.2-.2h.1c.1 0 .2 0 .2.1 0 0 .1.1.1.2 0 .2-.1.3-.3.3ZM87.4 35.3c-.1 0-.1 0-.2-.1s-.1-.1-.1-.2.1-.2.2-.3h.1c.1 0 .3.1.3.2s0 .2-.1.2c0 .2-.1.2-.2.2ZM90.9 35.4c-.1 0-.1 0-.2-.1s-.1-.1-.1-.2.1-.2.1-.2c.1 0 .2-.1.3-.1.1 0 .2 0 .3-.1h.4c.1 0 .1.1.1.2s0 .2-.1.2c-.1.1-.2.1-.3.1H91c.1.2 0 .2-.1.2ZM103.5 36.7c-.3 0-.6-.2-.8-.4-.2-.3-.3-.6-.1-1 .2-.3.4-.5.7-.5h.2c.2 0 .3 0 .5.1.3.1.5.4.5.6.1.3 0 .7-.2.9-.1.2-.4.3-.8.3Zm-.3-.7c.1.1.2.2.4.2s.3-.1.4-.2c.1-.1.1-.3 0-.4-.1-.1-.3-.3-.4-.3h-.1c-.2 0-.3.1-.3.3-.2.1-.1.3 0 .4ZM81 35.5c-.1 0-.1 0-.2-.1s-.1-.1-.1-.2.1-.2.2-.3h.1c.1 0 .2 0 .2.1 0 0 .1.1.1.2s0 .1-.1.2c-.1 0-.1.1-.2.1ZM94 35.6c-.2 0-.3 0-.5-.1-.1 0-.2 0-.3-.1-.1 0-.2-.1-.2-.3 0-.1.1-.2.2-.3h.7c.2 0 .3 0 .3.1.1.1.1.2.1.3-.1.3-.2.4-.3.4ZM88.7 36c-.1 0-.2-.1-.3-.1 0-.1-.1-.1 0-.2 0-.1.1-.1.1-.2.1-.1.2-.1.3-.2.1-.1.3-.1.4-.2h.1c.1 0 .2.1.3.1 0 .1.1.1 0 .2 0 0 0 .1-.1.1-.1.1-.2.1-.3.2-.1.1-.2.1-.3.2-.1.1-.1.1-.2.1ZM76.9 35.7c-.1 0-.1 0-.2-.1s-.1-.1-.1-.2.1-.2.2-.3h.1c.1 0 .3.1.3.2s0 .2-.1.2c-.1.2-.1.2-.2.2ZM107 38.4c-.4 0-.8-.2-1.1-.5-.6-.6-.7-1.6-.3-2.2 0-.1.1-.1.1-.1h.1c.1 0 .2 0 .2.1 0 0 .1.1.1.2s0 .1-.1.2c-.1.2-.1.4-.1.6 0 .4.2.8.6 1.1.1.1.3.2.4.2.1 0 .2.1.3.1.1.1.1.2 0 .3h-.2ZM79.4 37.7c-.2 0-.4-.1-.5-.2-.2-.1-.4-.4-.4-.6-.1-.3 0-.5.1-.8.2-.3.4-.4.6-.5h.3c.5 0 .9.3 1 .7.2.5-.1 1-.6 1.2-.2.1-.3.2-.5.2Zm.1-1.5h-.2c-.2.1-.3.2-.3.4s.1.4.3.4h.2c.1 0 .3-.1.3-.2.1-.1.1-.2.1-.3 0-.1 0-.2-.1-.3h-.3ZM96 36.6c-.1 0-.2-.1-.3-.1 0 0-.1 0-.1-.1 0 0-.1 0-.2-.1-.2-.1-.3-.1-.3-.2v-.2c0-.1.1-.1.2-.1h.1c.1 0 .2.1.3.1.1 0 .1.1.2.1 0 0 .1.1.2.1s.2.1.3.2c0 .1.1.2 0 .2s-.3 0-.4.1ZM97.4 36.3c-.1 0-.1 0-.2-.1s-.1-.1-.1-.2.1-.2.2-.3h.1c.1 0 .2 0 .2.1 0 0 .1.1.1.2s0 .1-.1.2-.1.1-.2.1ZM86.8 37.2c-.2 0-.2-.1-.3-.1-.1-.1-.1-.2 0-.3 0-.1.1-.1.2-.2l.2-.2.1-.1c.1-.1.1-.1.2-.1h.1c.1 0 .3.1.3.2s-.1.2-.2.4l-.1.1-.1.1c-.2.1-.3.2-.4.2ZM85.3 36.9s-.1 0-.2-.1-.1-.2-.1-.3c0-.1.1-.2.2-.2h.1c.1 0 .2 0 .2.1 0 0 .1.1.1.2.1.3-.1.3-.3.3ZM76.5 39.5c-.1 0-.2 0-.2-.1 0 0-.1-.1-.1-.2s.1-.2.3-.2c.1-.1.2-.1.3-.2.5-.4.6-1.2.2-1.7 0 0 0-.1-.1-.1-.1-.1-.1-.1-.1-.2s.1-.2.2-.3h.1s.1 0 .2.1c.6.5.7 1.5.3 2.1-.1.2-.2.3-.3.5l-.1.1c-.2.1-.4.2-.7.2.1 0 0 0 0 0ZM91.5 38.8s-.1 0 0 0c-.2-.1-.3-.1-.3-.2v-1.7c0-.1.1-.2.2-.2h.1c.1 0 .2 0 .2.1 0 0 .1.1 0 .2v1.6c.1.1-.1.2-.2.2ZM92.7 38.9c-.1 0-.1 0-.2-.1s-.1-.2-.1-.3c.1-.2.1-.4.2-.5.1-.3.2-.7.3-1 0-.1.1-.1.1-.2h.1c.1 0 .2.1.3.2.1.1 0 .2 0 .4-.1.3-.2.5-.3.7-.1.2-.2.4-.2.7 0 0-.1.1-.2.1ZM90.3 39c-.1 0-.2-.1-.3-.2-.1-.4-.2-.7-.3-1.1-.1-.2-.1-.3-.2-.5-.1-.1 0-.3.1-.4h.1c.1 0 .2.1.3.2l.1.3c.2.4.3.9.4 1.3 0 .1 0 .2-.1.2.1.2 0 .2-.1.2ZM97.6 38.1c-.1 0-.1 0-.2-.1s-.2-.2-.3-.2l-.3-.3c-.1-.1-.1-.2-.1-.2 0-.1.1-.2.2-.2h.1s.1 0 .2.1l.3.3c.1.1.2.2.3.2.1 0 .1.1.1.2s0 .1-.1.2h-.2ZM93.7 39.3c-.1 0-.2-.1-.2-.1-.1-.1-.1-.2 0-.3.4-.5.7-1 1.1-1.4h.2c.1 0 .2 0 .2.1.1.1.1.3 0 .4l-.2.2c-.2.3-.5.6-.7.9-.1.2-.2.3-.4.2.1 0 0 0 0 0ZM103.9 38.1h-.2c-.1-.1-.1-.2-.1-.3 0-.1.1-.2.2-.2h.1c.1 0 .2 0 .2.1 0 0 .1.1.1.2s-.2.2-.3.2ZM99.1 38.2s-.1 0-.2-.1-.1-.2-.1-.3c0-.1.1-.2.2-.2h.1c.1 0 .2 0 .2.1 0 0 .1.1.1.2 0 .2-.2.3-.3.3ZM89.3 39.6c-.1 0-.2 0-.2-.1l-.2-.2c-.2-.3-.5-.6-.7-.9 0 0 0-.1-.1-.1-.1-.1-.1-.2-.1-.2 0-.1.1-.2.2-.3h.1c.1 0 .2 0 .2.1.2.3.4.5.6.8.1.2.3.4.4.5.1.1.1.2 0 .3 0 .1-.1.1-.2.1ZM85.4 39c-.1 0-.2-.1-.3-.2-.1-.1 0-.2.1-.4 0-.1.1-.1.1-.2 0 0 0-.1.1-.1.1-.2.1-.3.3-.3h.1c.1 0 .2.1.2.1s.1.1 0 .2c-.1.3-.3.5-.4.7 0 .2-.2.2-.2.2ZM79.3 39s-.1 0-.2-.1-.1-.2-.1-.3c0-.1.1-.2.2-.2h.1c.1 0 .2 0 .2.1 0 0 .1.1.1.2s0 .1-.1.2-.1.1-.2.1ZM83.9 39.1c-.1 0-.3-.1-.3-.3 0-.1.1-.2.2-.3h.1c.1 0 .3.1.3.2s0 .2-.1.2c0 .2 0 .2-.2.2.1 0 0 0 0 0ZM94.6 40.1c-.1 0-.2 0-.2-.1 0 0-.1-.1-.1-.2s.1-.2.3-.3c.1 0 .1-.1.2-.1.2-.1.3-.2.5-.4.2-.1.4-.3.6-.4h.1c.1 0 .3.1.3.2s-.1.2-.2.3c-.2.1-.4.3-.6.4-.2.2-.5.4-.9.6.1 0 .1 0 0 0ZM105 40.6c-.3 0-.6-.1-.8-.4-.3-.4-.3-1 .1-1.4.2-.1.3-.2.5-.2h.2c.5 0 .9.3 1 .7.1.3 0 .7-.2.9-.1.3-.5.4-.8.4Zm-.4-.7c.1.1.2.2.4.2s.3-.1.4-.2c.1-.1.1-.3 0-.4-.1-.2-.3-.3-.4-.3h-.1c-.1 0-.3.2-.3.3-.1.1-.1.3 0 .4ZM107.8 39.4c-.1 0-.2 0-.2-.1-.1-.1-.1-.2-.1-.2 0-.1.1-.2.2-.2h.1c.1 0 .3.1.3.2s0 .2-.1.2c0 .1 0 .1-.2.1.1 0 .1 0 0 0ZM88.6 40.5h-.2c-.5-.4-1-.7-1.4-1-.1-.1-.1-.2-.1-.3 0-.1.1-.2.2-.2h.2c.4.2.7.5 1.1.7l.4.3c.1.1.1.2.1.4-.1 0-.2.1-.3.1ZM98.7 40.1s-.1 0 0 0c-.2-.1-.3-.2-.3-.3 0-.1-.1-.1-.1-.1 0-.1-.1-.1-.1-.1-.1-.1-.1-.2-.1-.4 0-.1.1-.2.2-.2h.1c.1 0 .2 0 .2.1s.1.1.1.2.1.2.1.3c0 0 0 .1.1.1.1.1.1.2.1.3 0 0-.2.1-.3.1ZM94.3 41.1c-.1-.3-.3-.5-.5-.8-.2-.2-.5-.4-.7-.6-.2-.1-.4-.2-.7-.2-.1 0-.1 0-.2-.1H91.3c-.6.1-1.2.4-1.7.8-.2.2-.3.4-.4.6-.1.2-.2.5-.3.7v1h.7c-.1-.5-.1-1 .2-1.4.3-.6.9-1.1 1.5-1.2.1 0 .3-.1.4-.1.4 0 .9.1 1.3.4.5.4.8.9.9 1.4.1.3 0 .5 0 .8h.6v-.1c.1-.2.1-.7-.2-1.2ZM78.3 41.6c-.3 0-.6-.1-.8-.4-.2-.2-.3-.5-.2-.8 0-.3.2-.5.4-.7.1-.1.2-.1.3-.2h.2c.2 0 .3 0 .5.1.3.1.5.4.5.6.1.4 0 .8-.3 1-.1.2-.3.4-.6.4Zm-.3-.7c.1.1.2.1.3.1.2 0 .4-.2.5-.4 0-.1 0-.3-.1-.4-.1-.1-.2-.2-.4-.2h-.2c-.1.2-.2.3-.2.5-.1.1 0 .3.1.4ZM84.6 41c-.1 0-.3-.1-.3-.2V40c0-.1.1-.2.2-.3h.1c.1 0 .2 0 .2.1.1.1.1.2 0 .4v.4c0 .2 0 .3-.1.3 0 .1 0 .1-.1.1ZM75.4 40.5c-.1 0-.3-.1-.3-.3 0-.1.1-.2.2-.3h.1c.1 0 .3.1.3.2s0 .2-.1.2c0 .2 0 .2-.2.2.1 0 0 0 0 0ZM95.2 41.1h-.1c-.1-.1-.1-.2-.1-.3 0-.1.1-.2.2-.2.5-.2 1.1-.3 1.6-.5h.1c.1 0 .2 0 .2.1.1.1.1.2 0 .2 0 .1-.1.1-.1.2-.3.1-.5.2-.7.2-.2.1-.5.2-.7.2-.2 0-.3.1-.4.1ZM106.8 42.7h.1c.2 0 .4 0 .6-.1-.2-.1-.3-.3-.4-.5-.2-.4-.2-.9 0-1.2 0-.1.1-.2.2-.3.1-.1.2-.2.2-.3 0-.1-.2-.2-.3-.2h-.1c-.3.2-.5.6-.6.9-.2.5-.1 1 .2 1.5-.1 0 0 .1.1.2ZM100 40.6c-.1 0-.1 0-.2-.1s-.1-.1-.1-.2.1-.2.2-.3h.1c.1 0 .3.1.3.3 0 .1 0 .1-.1.2 0 .2 0 .2-.2.1.1 0 .1 0 0 0ZM88.1 41.5c-.7-.2-1.2-.4-1.8-.5-.1 0-.1-.2-.1-.2 0-.1.1-.2.2-.2h.1c.1 0 .2 0 .3.1.3.1.5.2.7.2.2.1.4.1.6.2.1 0 .3.1.3.3 0 .1 0 .1-.1.2 0-.1-.1-.1-.2-.1ZM83.3 41.6c-.1 0-.2 0-.2-.1-.1-.1-.1-.2-.1-.2 0-.1.1-.2.2-.2h.1c.1 0 .2 0 .2.1 0 0 .1.1.1.2s0 .1-.1.2h-.2ZM99.1 42.3c-.1 0-.2-.1-.3-.2-.1-.2-.1-.5-.1-.7 0-.1.1-.2.2-.3h.1c.1 0 .2 0 .2.1.1.1.1.1.1.3V41.8c0 .2.1.3 0 .4 0 .1-.2.1-.2.1ZM76.3 41.9s0 .1 0 0c.1.2.2.3.3.4 0 .1 0 .2.1.2h.6v-.1c0-.4-.3-.9-.7-1.2-.1-.1-.3-.2-.4-.2h-.1c-.1 0-.1.1-.2.1v.2c0 .1.1.1.2.1 0 .3.1.4.2.5ZM104.6 41.9c-.1 0-.1 0-.2-.1s-.1-.1-.1-.2.1-.2.2-.2h.1c.1 0 .2 0 .2.1 0 0 .1.1.1.2s0 .1-.1.2h-.2ZM97.2 42.2H95.5c-.1 0-.1 0-.2-.1s-.1-.1-.1-.2.1-.2.2-.3H97.1c.1 0 .1 0 .2.1s.1.1.1.2 0 .1-.1.2c0 .1 0 .1-.1.1ZM84.1 42.5h.6c0-.1 0-.3-.1-.4 0-.1-.2-.2-.3-.2h-.1c-.1.1-.2.2-.2.3.1.2.1.3.1.3ZM86.1 42.6h1c.3 0 .7-.1 1 0 .1-.1.1-.1.1-.2s-.1-.2-.3-.2h-1.8c-.1.1-.2.2-.1.4.1-.1.1-.1.1 0ZM111.2 9c-.1-.1-.2-.1-.3-.2-.1-.1-.2-.2-.2-.4-.2-.1-.4-.3-.5-.4-.1-.1-.1-.3-.1-.4 0-.2.1-.4.3-.6l.2-.2-.2-.2v-.2c0-.1 0-.1.1-.2 0 0 0-.1.1-.1-.1 0-.1-.1-.1-.1l-.1-.1c0-.1-.1-.1-.2-.2h-.2l.1-.1h.2c.1.1.2.1.2.2.1.1.1.2.2.2h.1v.1h-.2l-.1.1V6.5c0 .1.1.1.1.2.1 0 .2-.1.3-.1.1 0 .1 0 .2.1l.1.1s0 .1-.1.1c-.1.1-.2.1-.3 0-.1 0-.1-.1-.2-.1-.2.1-.4.3-.4.5v.3c0 .1 0 .1.1.2s.2.3.3.4v-.4c0-.1 0-.2.1-.3 0-.1.1-.2.2-.2.1-.1.2-.1.3-.1h.8v-.3c0-.1 0-.2.1-.2 0-.1.1-.1.2-.2s.2-.1.4-.1h.5v.5c0 .1-.1.2-.1.3 0 .1-.1.1-.1.1-.1 0-.1.1-.2.1h-.6v.3c0 .1 0 .3-.1.4 0 .1-.1.2-.2.3-.1.1-.3.1-.4.2h-.2c-.1 0-.2 0-.3-.1.1.1.1.2.3.3.1.1.2.1.3.2.2.1.3.1.5 0s.4-.2.5-.3c0-.1-.1-.1-.1-.2v-.2l.1-.1h.1l.1.1v.3c0 .1-.1.1-.1.2l.2.2c.1 0 .1.1.2.1h.1l.1-.1v-.1.1c0 .1 0 .1.1.2 0 .1.1.1.1.1l.2.2v.2s0 .1-.1.1h-.1V9.5c0-.1-.1-.1-.2-.2l-.1-.1-.1-.1c-.1.1-.1.1-.2.1h-.1c-.1 0-.1 0-.2-.1-.1 0-.1-.1-.2-.2-.2.2-.4.3-.7.4h-.3c-.1-.2-.2-.3-.2-.3Zm-.3-.6c.1.1.3.1.4.1.1 0 .3 0 .4-.1l.2-.2c.1-.1.1-.3.1-.4v-.4c-.1 0-.2 0-.3-.1h-.4c-.1 0-.2.1-.3.1-.1.1-.2.2-.2.3V8c0 .1 0 .2.1.3-.1.1 0 .1 0 .1Zm1.5.2c0-.1.1-.1.1-.2v-.2c-.1.1-.1.1-.1.2-.1.1-.1.1 0 .2ZM111 6.9h.2c-.1-.1-.1-.1-.2 0 0-.1-.1-.1-.2-.1 0 .1.1.1.2.1Zm1.1.4h.6c.1 0 .2-.1.2-.2.1-.1.1-.2.1-.4v-.3h-.3c-.1 0-.2 0-.3.1-.1 0-.2.1-.2.2s0 .1-.1.2v.4Z" fill="#2D333D"/><path d="M111 6.9h.2c-.1-.1-.1-.1-.2 0Zm0 0c0-.1-.1-.1-.2-.1 0 .1.1.1.2.1Zm.2 2.1c-.1-.1-.2-.1-.3-.2-.1-.1-.2-.2-.2-.4-.2-.1-.4-.3-.5-.4-.1-.1-.1-.3-.1-.4 0-.2.1-.4.3-.6l.2-.2-.2-.2v-.2c0-.1 0-.1.1-.2 0 0 0-.1.1-.1-.1 0-.1-.1-.1-.1l-.1-.1c0-.1-.1-.1-.2-.2h-.2l.1-.1h.2c.1.1.2.1.2.2.1.1.1.2.2.2h.1v.1h-.2l-.1.1V6.5c0 .1.1.1.1.2.1 0 .2-.1.3-.1.1 0 .1 0 .2.1l.1.1s0 .1-.1.1c-.1.1-.2.1-.3 0-.1 0-.1-.1-.2-.1-.2.1-.4.3-.4.5v.3c0 .1 0 .1.1.2s.2.3.3.4v-.4c0-.1 0-.2.1-.3 0-.1.1-.2.2-.2.1-.1.2-.1.3-.1h.8v-.3c0-.1 0-.2.1-.2 0-.1.1-.1.2-.2s.2-.1.4-.1h.5v.5c0 .1-.1.2-.1.3 0 .1-.1.1-.1.1-.1 0-.1.1-.2.1h-.6v.3c0 .1 0 .3-.1.4 0 .1-.1.2-.2.3-.1.1-.3.1-.4.2h-.2c-.1 0-.2 0-.3-.1.1.1.1.2.3.3.1.1.2.1.3.2.2.1.3.1.5 0s.4-.2.5-.3c0-.1-.1-.1-.1-.2v-.2l.1-.1h.1l.1.1v.3c0 .1-.1.1-.1.2l.2.2c.1 0 .1.1.2.1h.1l.1-.1v-.1.1c0 .1 0 .1.1.2 0 .1.1.1.1.1l.2.2v.2s0 .1-.1.1h-.1V9.5c0-.1-.1-.1-.2-.2l-.1-.1-.1-.1c-.1.1-.1.1-.2.1h-.1c-.1 0-.1 0-.2-.1-.1 0-.1-.1-.2-.2-.2.2-.4.3-.7.4h-.3c-.1-.2-.2-.3-.2-.3Zm-.3-.6c.1.1.3.1.4.1.1 0 .3 0 .4-.1l.2-.2c.1-.1.1-.3.1-.4v-.4c-.1 0-.2 0-.3-.1h-.4c-.1 0-.2.1-.3.1-.1.1-.2.2-.2.3V8c0 .1 0 .2.1.3-.1.1 0 .1 0 .1Zm1.5.2c0-.1.1-.1.1-.2v-.2c-.1.1-.1.1-.1.2-.1.1-.1.1 0 .2Zm-.3-1.3h.6c.1 0 .2-.1.2-.2.1-.1.1-.2.1-.4v-.3h-.3c-.1 0-.2 0-.3.1-.1 0-.2.1-.2.2s0 .1-.1.2v.4Z" stroke="#2D333D" stroke-width=".15" stroke-miterlimit="10"/><path d="M71.5 9c-.1 0-.2.1-.2.1H71c-.3 0-.5-.1-.7-.4l-.2.2c-.1 0-.1.1-.2.1h-.1c-.1 0-.2 0-.2-.1 0 .1-.1.1-.1.1l-.1.1-.2.2V9.6h-.1l-.1-.1v-.2c0-.1.1-.1.2-.2l.1-.1c0-.1.1-.1.1-.2v-.1.1l.1.1h.1c.1 0 .1 0 .2-.1.1 0 .1-.1.2-.2 0-.1-.1-.1-.1-.2v-.3s0-.1.1-.1h.1l.1.1v.2c0 .1 0 .1-.1.2.1.1.3.3.5.3h.5c.1 0 .2-.1.3-.2l.3-.3c-.1 0-.2.1-.3.1h-.2c-.1 0-.3-.1-.4-.2-.1-.1-.2-.2-.2-.3-.1-.1-.1-.3-.1-.4v-.3h-.6c-.1 0-.1-.1-.2-.1s-.1-.1-.1-.1c-.1-.1-.1-.2-.1-.3v-.5h.5c.1 0 .3.1.4.1.1.1.2.1.2.2s0 .2.1.2V7h.2c.2 0 .4-.1.6 0 .1 0 .2.1.3.1.1.1.2.1.2.2s.1.2.1.3V8c.2-.1.3-.2.3-.4 0-.1.1-.1.1-.2v-.3c-.1-.2-.2-.4-.4-.5-.1 0-.1.1-.2.1h-.3l-.1-.1s0-.1.1-.1.1 0 .2-.1c.1 0 .2 0 .3.1.1-.1.1-.1.1-.2V6s0-.1-.1-.1h-.2v-.1h.1c.1 0 .2-.1.2-.2.1-.1.1-.2.2-.2 0 0 .1-.1.2 0 0 0 .1 0 .1.1h-.2c-.1 0-.1.1-.2.2 0 .1-.1.1-.1.1 0 .1-.1.1-.1.1l.1.1c0 .1.1.1.1.2v.2c0 .1-.1.1-.2.2.1 0 .2.1.2.2.2.2.3.4.3.6 0 .1-.1.3-.1.4-.1.2-.3.4-.5.4 0 .1-.1.2-.2.4-.2.2-.3.3-.3.4Zm.2-.6s.1 0 .1-.1.1-.2.1-.3v-.3c0-.1-.1-.2-.2-.3-.1-.1-.2-.1-.3-.1H71c-.1 0-.2 0-.3.1v.4c0 .1 0 .3.1.4 0 .1.1.2.2.2.1.1.2.1.4.1 0 0 .2 0 .3-.1Zm-1.4.2v-.2c0-.1 0-.1-.1-.2v.2c0 .1 0 .1.1.2Zm1.4-1.7c.1 0 .1 0 .2-.1-.1 0-.2-.1-.3 0 0 0-.1 0-.1.1h.2Zm-1.2 0c0-.1 0-.1-.1-.2l-.2-.2c-.1 0-.2-.1-.3-.1h-.3v.3c0 .1.1.3.1.4l.2.2h.6c.1-.1.1-.3 0-.4Z" fill="#2D333D" stroke="#2D333D" stroke-width=".15" stroke-miterlimit="10"/><path d="M50.4 42.6v-39c0-.4-.3-.8-.8-.8h-46c-.4 0-.8.4-.8.8v39" stroke="#2D333D" stroke-width=".6" stroke-miterlimit="10"/><path d="M3.5 3.9c0-.6-.6-1.1-1.4-1.1M5.2 3.6c0-.8.1-1.5.3-1.5M3.5 5.7c0-.6-.6-1.1-1.4-1.1M7.3 3.6c0-.8.1-1.5.3-1.5M9.4 3.4c0-1 .2-1.8.3-1.8M11.4 3.9c0-1 .1-1.8.3-1.8M13.6 3.6c0-1.1 0-2 .1-2M15.6 3.6c0-1.3.2-2.2.5-2.2M16.9 3.6c0-1.1.1-2 .2-2M18.6 3.4c0-1.3.2-2.3.5-2.3M20.6 3.6c0-1-.2-1.8-.3-1.8M22.1 3.9c0-1.3.1-2.3.2-2.3M23.6 3.9c0-1.4.3-2.5.7-2.5M25.9 3.9c0-1.3-.1-2.3-.3-2.3M27.6 3.9c0-1.3-.2-2.3-.5-2.3M29.4 3.6c0-1.3 0-2.2.1-2.2M30.9 3.6c0-1.4.3-2.6.7-2.6M33.6 3.6c0-1.4-.3-2.6-.7-2.6M35.1 3.6c0-1.3 0-2.2.1-2.2M36.6 3.9c0-1.6.4-2.9.9-2.9M38.7 3.6c0-1.4.1-2.6.3-2.6M41.4 3.9c0-1.6-.1-2.9-.2-2.9M43.2 3.6c0-1.4-.3-2.6-.6-2.6M44.6 3.4c0-1.3.2-2.3.4-2.3M46.8 3.9c0-1.6-.2-2.9-.5-2.9M48.5 4.1c0-1.7.2-3.1.4-3.1M49.8 3.6c0-1 .5-1.8 1.1-1.8M49.8 4.6c0-.3.9-.5 1.9-.5M49.4 5.7c0 .1 1 .2 2.2.2M49.4 7.2c0 .1 1.2.2 2.7.2M49.4 8.6c0 .1.9.2 1.9.2M49.8 9.7c0 .3 1 .6 2.3.6M49.8 11.1c0 .3.9.5 1.9.5M49.4 12.5c0 .4.9.8 1.9.8M49.8 14.4c0 .1.9.2 1.9.2M49.8 15.6h1.9M49.4 17c0 .1 1 .2 2.2.2M49.4 18.5c0 .2 1.3.4 2.9.4M49.4 20.2h2.7M49.8 21.4c0 .2.9.3 1.9.3M49.4 22.7c0 .1 1.3.2 2.9.2M49.8 24.1c0 .1 1 .2 2.3.2M49.8 25.5c0 .2.9.4 1.9.4M49.4 27.1c0 .2 1.2.4 2.7.4M49.8 28.6c0 .3 1.1.6 2.6.6M49.4 30.2c0 .3 1 .5 2.2.5M49.4 31.6c0 .2.9.3 1.9.3M49.4 32.8c0 .4 1 .8 2.2.8M49.4 34.5c0 .1 1 .2 2.2.2M49.4 35.9c0 .2.9.3 1.9.3M49.8 37.2c0 .3.9.6 1.9.6M49.4 38.7c0 .1.9.2 1.9.2M49.4 39.8c0 .2 1 .4 2.2.4M49.8 41.4c0 .2.7.4 1.6.4M3.8 41.8H1.2M3.8 40.7c0-.4-1-.8-2.1-.8M3.8 38.9c0-.3-1.3-.5-2.8-.5M3.8 37.2c0-.3-1-.5-2.1-.5M4.2 35.6c0-.5-1.1-.9-2.5-.9M3.8 33.6c0-.6-1.1-1.1-2.6-1.1M4.2 30.9c0-.2-1.3-.4-3-.4M3.5 29.2H1.7M3.8 27.7c0-.1-1.1-.2-2.6-.2M3.8 26c0-.3-1.3-.5-2.8-.5M3.5 24.3c0-.2-1.1-.4-2.5-.4M3.8 22.8c0-.4-1.1-.7-2.6-.7M3.5 20.6H1.2M3.5 19.2c0-.1-.8-.2-1.8-.2M3.8 17.5c0-.3-.7-.5-1.7-.5M3.5 16.1c0-.2-.9-.4-2.1-.4M3.5 14.5c0-.1-.7-.2-1.6-.2M3.5 13.3c0-.2-1.1-.4-2.5-.4M3.8 12c0-.2-1-.3-2.1-.3M3.8 10.7c0-.5-.9-1-1.9-1M3.8 8.8c0-.4-1.1-.6-2.6-.6M3.5 7.4c0-.2-.7-.2-1.6-.2M3.8 6.6c0-.4-1.1-.7-2.4-.7M6.1 4.9c0-1.1.1-1.9.3-1.9M8.5 4.4c0-.6 0-1-.1-1M10.5 4.6c0-1 .1-1.8.3-1.8M12.9 4.6c0-.9-.1-1.6-.3-1.6M15.2 4.9c0-.9-.1-1.6-.2-1.6M16.4 4.9c0-.7-.2-1.2-.3-1.2M17.8 4.9V3.7M19.7 4.9c0-.9 0-1.6-.1-1.6M21.4 4.6c0-.5 0-1 .1-1M22.9 4.9c0-.7-.1-1.2-.2-1.2M24.7 5.1c0-1.2-.2-2.2-.5-2.2M27.1 5.4c0-1-.2-1.8-.5-1.8M28.7 5.1c0-.9-.1-1.5-.3-1.5M30.1 5.1c0-.8 0-1.4.1-1.4M32.4 5.1c0-.9 0-1.5-.1-1.5M34.5 5.1c0-1-.1-1.8-.2-1.8M36 5.1c0-.7-.1-1.2-.3-1.2M38 4.9c0-.6-.2-1.1-.5-1.1M40 4.9V3.6M42.2 4.6c0-.5-.1-.9-.2-.9M44 5.1V3.8M45.6 4.9V3.3M47.7 5.1c0-.9-.1-1.5-.2-1.5M48.5 5.7c0-.4.1-.8.2-.8M47.6 6.9c0-.4.6-.6 1.4-.6M47.3 8.2c0-.2.9-.4 1.9-.4M47.6 9.1c0 .1.6.1 1.4.1M47.3 10.3c0 .2.7.4 1.7.4M47.3 12h1.4M47.3 13.3c0 .2 1 .4 2.2.4M47.3 15c0 .1.6.1 1.4.1M46.8 16.5c0 .3.8.5 1.8.5M46.8 18.2c0-.1.7-.1 1.7-.1M46.8 19.9s.9.1 2.1.1M46.8 21.4c0 .2.7.3 1.5.3M47.3 23.1c0 .1.9.1 1.9.1M47.6 24.3c0 .4.6.8 1.3.8M46.8 26c0 .4.8.6 1.8.6M47.6 27.9c0-.1.6-.3 1.3-.3M46.8 29.4c0-.2.9-.3 2.1-.3M47.3 31.1c0-.2.7-.3 1.7-.3M47.3 32.8c0-.4.7-.8 1.7-.8M47.3 34.1c0-.3.6-.5 1.3-.5M46.6 35.2h1.7M47.3 36.7c0 .3.9.5 1.9.5M47.3 38.8c0 .2.7.4 1.7.4M47.3 40.3c0 .6.7 1.1 1.7 1.1M5 5.4c0-1.6-.4-2.8-.8-2.8M5.2 7.2c0-.8-.5-1.5-1.1-1.5M4.6 8.2c0-.2-.7-.4-1.6-.4M5 10.3c0-.5-.9-.9-2-.9M5 12.2c0 .2-.7.4-1.5.4M5.2 14.4c0 .1-.8.2-1.7.2M4.7 15.8c0 .1-.5.2-1.2.2M4.6 17.7c0 .3-1.1.5-2.4.5M5.2 19.6c0 .2-1.1.4-2.5.4M5.5 21.7H2.8M5.4 24.3c0-.4-.9-.8-2-.8M6.1 26c0-.3-.9-.5-2.1-.5M5.7 27.6c0-.3-.9-.5-1.9-.5M5.5 29.4c0-.5-.9-.9-2-.9M5.5 30.9c0-.4-.4-.7-1-.7M5.4 32.4c0-.3-1.1-.6-2.4-.6M5.9 34.7c0-.6-.4-1.1-1-1.1M5.2 35.2c0-.6-.8-1-1.7-1M5.5 37c0-.4-.8-.7-1.8-.7M5.2 38.4c0-.3-.8-.5-1.9-.5M6.4 40.7c0-.6-.9-1.1-2.1-1.1M5.5 41.8c0-.2-.8-.4-1.7-.4M7.7 41.3c0 .5-.7.9-1.5.9M7.4 39.6c0 .6-.4 1.1-1 1.1M7.4 38.1c0 .3-.9.5-2 .5M7.2 36.6c0 .7-.8 1.2-1.7 1.2" stroke="#2D333D" stroke-width=".6" stroke-miterlimit="10" stroke-linecap="round"/><path d="M7.6 34.6c0 .3-1.2.6-2.6.6M7.2 32.8c0 .2-.6.3-1.3.3M8.2 30.4c0 .7-.9 1.2-2 1.2M6.9 29c0 .2-.6.4-1.4.4M7.8 26c0 .8-1.2 1.5-2.6 1.5M7.2 24.1c0 .6-.8 1.1-1.8 1.1M7.6 21.7c0 1-1.1 1.8-2.4 1.8M6.9 20.2c0 .6-.7 1.1-1.5 1.1M6.6 18.8c0-.3-.9-.6-2-.6M6.4 16.5c0-.3-1-.5-2.2-.5M7.2 13.7c0-.4-.7-.8-1.6-.8M6.6 11.8c0-.4-.7-.7-1.6-.7M6.9 9.8c0-.4-.8-.7-1.7-.7M6.5 8c0-.4-.3-.8-.6-.8M8.2 6.4c0-.7-.3-1.3-.6-1.3M9.4 7.2c0-.8.2-1.4.3-1.4M11.2 6.9c0-1 .4-1.7 1-1.7M12.6 7.2c0-.7.5-1.3 1.1-1.3M14.8 7.6c0-.6.3-1.2.7-1.2M16.4 8c0-1 .2-1.7.5-1.7M18.1 7.8c0-.8.2-1.5.5-1.5M19.7 7.8c0-.8.3-1.5.6-1.5M21.4 7c0-.6 0-1.1.1-1.1M23.6 7.8c0-.7.3-1.3.7-1.3M25.4 7.6c0-.9.2-1.6.5-1.6M27.9 7.8c0-.6.3-1.2.7-1.2M29.9 7.4c0-.7.3-1.3.6-1.3M31.6 7.3c0-.6.1-1 .3-1M33.6 7.4V5.8M35.2 7.6V6.3M37 7.8V6.1M38.3 7.1V5.7M40 7.4c0-.9.3-1.7.6-1.7M41.4 7.6c0-1 .5-1.9 1.2-1.9M43.5 7.8c0-1 .5-1.7 1.2-1.7M44.8 7.6c0-1.2.8-2.2 1.7-2.2M45.4 9.1c0-.6.4-1.1 1-1.1M45 10.7c0-.4.8-.8 1.8-.8M44.2 12.9c0-.7.9-1.3 2.1-1.3M44.6 14.5c0-.4.8-.8 1.7-.8M44 16c0-.2.8-.4 1.7-.4M44.2 17.2c0-.1 1.1-.3 2.6-.3M44.1 19.2H46M43.5 21.1h3.2M44.2 23.8c0-.3 1.1-.6 2.4-.6M45 24.7h1.3M44.6 26.8c0 .5.9.9 2 .9M44.1 28.6c0 .9.8 1.6 1.9 1.6M44.2 31c0 .5.7.9 1.5.9M45 32.8c0 .6.6 1.1 1.4 1.1M44 34.9c0 .4.6.7 1.4.7M44.7 37.2c0 .5.9.9 1.9.9M44.1 40.1c0 .4.6.6 1.4.6M44.2 41.6c0 .2.9.4 2.1.4M10.6 42.2c0 .1-.3.2-.6.2M10.3 40.8c0 .3-.8.5-1.7.5M10.3 39.6c0 .3-.7.4-1.5.4M10.6 38.1c0 .2-.9.3-2 .3M10.3 36.6c0 .4-.7.6-1.5.6M10 34.5c0 .4-.8.7-1.8.7M9.4 32.8c0 .6-.8 1.1-1.8 1.1M9.6 30.5c0 .6-.6 1.1-1.4 1.1M9.6 28.6c0 .4-.9.7-2 .7M9.6 26.7c0 .7-1.2 1.3-2.7 1.3M9.8 24.1c0 .4-.4.6-1 .6M9.8 21.7c0 .8-.7 1.5-1.6 1.5M9.4 20.2c0 .2-.6.3-1.3.3M8.9 18.8c0 .1-.7.2-1.5.2M8.2 17c0 .1-.8.3-1.8.3M8.1 15.4c0-.2-.8-.4-1.7-.4M8.5 12.5c0-.6-.5-1.1-1-1.1M8.5 10c0-.6-.1-1.2-.3-1.2M9.1 9.1C9.1 8.5 9 8 8.8 8M10.6 9.2v-.7M12.6 9.2v-.8M14.2 9.1c0-.6-.1-1.1-.2-1.1M16.1 9.5v-.4M17.8 10.3c0-.9.3-1.7.8-1.7M19.7 10.2c0-.8.6-1.4 1.4-1.4M22.1 10c0-1.5.4-2.6.8-2.6M23.9 10.5c0-.8.3-1.4.6-1.4M26.1 9.7c0-1.4.6-2.6 1.3-2.6M28.2 10.3c0-.5.2-.9.4-.9M30.2 9.7c0-.8.3-1.5.7-1.5M32.3 9.5c0-.6.4-1.2.9-1.2M34.5 9.8c0-.9.8-1.7 1.7-1.7M37 9.8c0-.4 1-.8 2.3-.8M39.3 10.3c0-.8 1.6-1.4 3.6-1.4M42.2 10.5c0-.2.3-.3.6-.3M41.3 12.9c0-.4.4-.7 1-.7M41.8 14.5c0-.2.9-.4 2-.4M41.8 16.7c0-.1.5-.3 1.1-.3M41.8 18.5c0-.3.6-.5 1.4-.5M40.6 20.2h2.3M41.1 21.9c0-.1.6-.3 1.2-.3M41.7 24.1c0-.3 1-.6 2.3-.6M41.7 26.3c0-.3 1-.5 2.3-.5M41.3 28.6c0-.1 1-.2 2.2-.2M40.6 30.7c0-.1 1.1-.3 2.6-.3M41.7 32.5c0-.1 1-.2 2.3-.2M41.8 34.5h1.7M40.6 36.9c0-.1 1.1-.2 2.6-.2M41.7 38.2c0 .1 1.1.1 2.5.1M42 39.6c0 .1.2.2.4.2M41.4 41.4c0 .6.6 1 1.4 1M14 41.8c0 .2-1.1.4-2.4.4M13.1 40.4h-1.5M13.7 38.6c0-.3-1.1-.5-2.5-.5M12.4 36.6c0-.4-.6-.6-1.3-.6M13.1 34.7c0-1.3-1.1-2.3-2.5-2.3M11.4 34.1c0-.5-.1-.9-.3-.9M12.8 30.5c0-.2-1.1-.4-2.5-.4M12.8 28.4c0-.3-.8-.6-1.7-.6M12 26.3c0-.1-.6-.2-1.4-.2M12.8 24.7c0-.1-.9-.1-1.9-.1M12.3 22.9c0-.8-.7-1.4-1.5-1.4M12 20.2c0-.6-.7-1.1-1.7-1.1M11.7 18.2c0-.4-1-.7-2.2-.7M11.1 15.9c0-.5-1-.9-2.1-.9M9.6 14.1c0-.3-.3-.6-.7-.6M10.3 12.5c0-.8-.4-1.4-1-1.4M11.3 11.7v-1.5M12.4 11.8c0-.6.1-1.1.3-1.1M14.1 12c0-.9.2-1.7.4-1.7M15.6 12v-1.1M17.1 12.7c0-.4.2-.8.3-.8M19 12.7c0-.9.1-1.6.3-1.6M21 12.9c0-1.1.2-2 .4-2M23.1 13.1c0-.8.1-1.5.2-1.5M25.1 12.9c0-1.3.3-2.2.6-2.2M27.1 12.7c0-.9.1-1.6.3-1.6M29.4 12.9v-1.7M31.6 12.6c0-.8-.2-1.4-.3-1.4M32.9 12.5v-1.6M34.3 12.9c0-1.1.2-2 .4-2M35.9 12.6c0-.8.3-1.4.7-1.4M37 12.7c0-1.1 1-2.1 2.3-2.1M38.2 13.8c0-.5.5-.9 1.1-.9M39.3 14.8c0-.2.6-.4 1.3-.4M38.7 17c0-.3.9-.5 1.9-.5M38 18.5c0-.2 1.2-.4 2.6-.4M38.3 20.8c0-.2.9-.4 2-.4M38.9 22.4H41M38.7 23.9c0 .2 1 .4 2.2.4M38.9 25.9c0 .3 1.4.5 3 .5M38.7 27.6c0 .5.9 1 2 1M38.2 29.6c0 1 .7 1.8 1.7 1.8M39.6 32.8c0 .4.6.7 1.2.7M39.3 34.9c0 .4.7.7 1.6.7M39.6 37.8c0 .8.4 1.4 1 1.4M39.6 40.3c0 .6.4 1.1 1 1.1M15.7 41.8c0 .1-.4.2-.9.2M16.4 39.8c0 .1-.4.2-.9.2M16 38.1c0 .2-.5.3-1.2.3M16.4 35.6c0 .3-1 .6-2.3.6M15.6 33.8c0 .4-.5.7-1.1.7M15.2 31.1c0 .4-.9.8-2 .8M15.2 29.4c0 .2-.7.3-1.5.3M14.8 26.3c0 .5-1 .9-2.3.9M14.4 25.1c0 .2-.8.4-1.8.4M14.2 23.2H13M14 21.1c0 .2-.5.4-1.2.4M13.4 20.2c0-.3-.2-.5-.5-.5M13.4 18.5c0 .1-.6.2-1.4.2M13.5 16.6c0 .1-.9.1-1.9.1M12 14.6c0-.1-.4-.2-.8-.2M12.7 13.7c0-.6-.2-1.2-.5-1.2M14.2 15c0-.7.1-1.3.2-1.3M15.1 14.6c0-.7.1-1.3.3-1.3M16.7 14.8c0-.7.4-1.3.9-1.3M18.6 15.2c0-1 .6-1.8 1.4-1.8M21 15.1c0-.5.3-.9.6-.9M22.9 15c0-.8.4-1.5 1-1.5M24.7 15.5c0-.7.4-1.2.9-1.2M27.1 15c0-.9.6-1.7 1.3-1.7M30.2 14.6c0-.7.2-1.2.3-1.2M32.1 15.1c0-.6.2-1.2.4-1.2M33.6 15.6c0-.8.4-1.5.9-1.5M34.7 15.4c0-1 1.2-1.9 2.8-1.9M36 17c0-.6.9-1.2 1.9-1.2M36 19.2c0-.4.8-.7 1.7-.7M36.3 20.4c0 .1.5.2 1.2.2M36.3 22.5H38M35.6 23.5c0 .6.9 1.2 2.1 1.2M36.7 25.1c0 .9.7 1.6 1.5 1.6M36.1 27.2c0 .7.4 1.3.9 1.3M35.6 30.4c0 .4.7.7 1.5.7M36 32.8c0 .2.9.4 1.9.4M37 34.5c0 .2.8.4 1.7.4M37 36.3c0 .5.6.9 1.3.9M36.9 38.7c0 .5.8.9 1.8.9M36.9 40.7c0 .6.6 1.1 1.3 1.1M18.9 40.7c0 .3-.3.5-.7.5M19 38.6c0 .7-.3 1.3-.6 1.3M18.1 37.5c0 .3-.4.6-.9.6M18.1 36.1c0 .3-.7.6-1.5.6M17.6 33.8c0 .4-.5.7-1.2.7M16.7 32.1c0 .5-.8 1-1.8 1M16 27.5c0 .3-.7.6-1.7.6M16 23.1c0-.1-.7-.2-1.6-.2M15.4 20.8c0-.9-1-1.6-2.2-1.6M15 18.4c0-.8-.6-1.4-1.2-1.4M15.6 16.7v-1.3M17.2 17.2c0-.5.2-1 .4-1M18.9 16.7c0-.7.2-1.2.4-1.2M21.4 17.5c0-1 .5-1.9 1.2-1.9M23.7 17.1c0-.7.1-1.2.3-1.2M25.4 17.2c0-.7.4-1.3.9-1.3M28.4 17.1c0-1 .3-1.7.6-1.7M30.6 16.7c0-.5.3-.9.7-.9M32.4 17.7v-.2M33.6 18.2c0-.9.7-1.6 1.7-1.6M34.5 19.7c0-.3.1-.5.2-.5M33.6 21.5h1.7M34.1 24.2c0 1 .7 1.9 1.6 1.9M34.1 26.3c0 1 .5 1.7 1.1 1.7M34.1 28.9c0 .3.4.6 1 .6M34.1 31.1c0 .7.5 1.2 1.1 1.2M34.1 33.8c0 .4.5.8 1.2.8M34.9 35.6c0 .5.5.9 1 .9M34.9 37.8c0 .4.5.8 1 .8M34.4 39.6c0 .4.7.8 1.6.8M28 41.4c0 .5.6.9 1.4.9M34.1 41c0 .4.2.8.4.8M21.4 40.1c0 .9-.5 1.7-1.1 1.7M21.4 38.6c0 .4-.8.7-1.8.7M20.5 36.3c0 .4-.4.7-.9.7M19.6 34.2c0 .2-.2.3-.5.3M18.9 32.1c0 .2-.3.4-.7.4M18.5 30.9c0 .2-.8.3-1.8.3M17.4 29.3s-.6.1-1.4.1M17.6 25.9c0-.2-1.2-.4-2.6-.4M16.4 21.9c0-.1-.6-.1-1.3-.1M16.4 19.8c0-.7-.1-1.3-.2-1.3M17.1 24.6h-1.9M18.5 19.6c0-.9-.2-1.7-.4-1.7M19.6 19c0-.9.2-1.6.4-1.6M21.7 19.2c0-.4.2-.7.3-.7M23.8 19.5c0-.9.4-1.6 1-1.6M26.1 19.2c0-1 .5-1.8 1.1-1.8M28.1 19.1c0-.3.2-.6.3-.6M29.4 18.9c0-.8.5-1.4 1.1-1.4M31.2 19.6c0-.5.2-.8.5-.8M32.9 20c0-.3.3-.5.7-.5M32.7 22.7c0 .3.8.5 1.7.5M31.8 24.1c0 .6.6 1.1 1.3 1.1M32.7 26c0 .8.3 1.5.6 1.5M32.2 27.9c0 .6.2 1.1.4 1.1M32.4 30.7c0 .4.2.8.5.8M32.1 32.4c0 .6.3 1.2.6 1.2M33.3 34.9c0 .6.3 1 .8 1M33 36.9c0 .8.5 1.4 1.1 1.4M32.2 38.5c0 .6.2 1.1.4 1.1M31.4 40.4c0 .5.4.8.9.8M31.6 22.2c0-.4.4-.8.9-.8M30.2 21.4c0-.4.4-.8 1-.8M29 21c0-.8.2-1.5.4-1.5M27.2 21.5c0-1 .1-1.7.1-1.7M25.6 21.9V20M23.9 21.7c0-.6.2-1.1.3-1.1M21.7 21.9v-1.5M20.2 21.5c0-1.3.3-2.3.6-2.3M18.9 22.4c0-1-.1-1.7-.3-1.7M17.7 22.8v-1.7M18.8 28.1c0-.3-.6-.5-1.4-.5M20.2 30.2c0-.3-.6-.5-1.4-.5M21.4 32.4c0 .4-.7.7-1.7.7M19.3 25.3c0-1-.4-1.8-.8-1.8M20.9 24.4c0-.8 0-1.4-.1-1.4M22.9 24.4v-2.7M24.7 25.1v-2.4M26.7 24.2c0-1.1-.2-1.9-.4-1.9M28.1 24.4c0-1.7.1-3 .1-3M30 25.9c0-1.6.4-2.9.9-2.9M30.2 27.7c0-.9.7-1.6 1.5-1.6M30.2 29.6c0-.2.8-.4 1.8-.4M29.4 30.9c0 .6 1 1.1 2.1 1.1M29.8 33.2c0 1 .9 1.7 2.1 1.7M30 35.6c0 .4 1 .7 2.3.7M30 37.5c0 .5.8.8 1.8.8M29 38.5c0 1.5.4 2.7 1 2.7M22.1 41.4v.6M23.1 38.5c0 1-.2 1.9-.5 1.9M22.6 35.6c0 .9-.5 1.6-1.2 1.6M22.9 33.5c0 .8-1 1.4-2.3 1.4M22.1 30.5c0 .6-.8 1-1.8 1M21.7 28.9h-1.9M20.6 27.2c0-.8-.8-1.5-1.7-1.5M23.1 27.2c0-1.2-.5-2.1-1.1-2.1M28.8 29.4c-.1-.3.7-.7 1.7-1.1M28 31.1c0-.5.4-1 .9-1M26.9 35.2c0-.4 1.1-.8 2.4-.8M27.8 35.9c0 .7 1.1 1.3 2.5 1.3M24.7 38.7c0-.8-.2-1.5-.4-1.5M26.7 40.6c0 .6-.8 1.1-1.7 1.1M24.5 40.8c0 .5-.5.9-1.1.9M24.2 39.8c0 .2-.1.4-.3.4M27.2 27.5c0-.1.8-.2 1.7-.2M24.7 27.2c0-1.1-.2-1.9-.5-1.9M25.7 26.7c0-1.1.2-2 .3-2M23.2 29.1c0-.8-.5-1.4-1.2-1.4M24.3 30.3c0 .5-.8.8-1.7.8M24.7 32.3c0 .2-1.1.3-2.4.3M24.5 34.4c0 .6-.7 1-1.6 1M24.1 36.2c0 .2-.3.3-.8.3M26 39c0 .4-.3.7-.8.7M27.1 39.4c0 .7.5 1.3 1.1 1.3M27.6 38.3c0 .3.2.5.5.5M26.7 36.4c0 .7.5 1.2 1.1 1.2M27.1 31.1c0 1 .8 1.9 1.8 1.9M26.5 28.9c0 .4.5.8 1.2.8M25.4 29.9c0-.7-.1-1.3-.3-1.3M25.7 34.2c0 1-.2 1.9-.4 1.9M28.7 25.3c0-.9.2-1.6.4-1.6M27.1 26.5c0-.8.1-1.4.3-1.4M25.6 31.4c0 1.2.7 2.1 1.5 2.1" stroke="#2D333D" stroke-width=".6" stroke-miterlimit="10" stroke-linecap="round"/></svg>