<svg width="104" height="48" fill="none" xmlns="http://www.w3.org/2000/svg"><path d="M19.457 47.252V12.828l-.642.642c-.641.428-1.39.534-2.138.32h-.107c-1.603-.427-3.207-1.282-4.383-2.565-.748-.855-1.283-1.71-1.497-2.886a7.002 7.002 0 0 0-1.924 1.603c-.641.748-1.069 1.604-1.39 2.566L2.78 31.858c.748.427 1.603.748 2.458 1.068.856.321 1.71.535 2.566.642.214-1.283.535-2.459.748-3.742a490.754 490.754 0 0 0 2.78-15.18c0-.214.214-.32.427-.32.214 0 .321.213.321.427-.748 4.383-1.71 9.835-2.78 15.18-.427 2.138-.855 4.383-1.282 6.414l3.528 1.283c1.283.428 2.672.642 3.955.855.214 0 .32.214.32.428s-.213.32-.427.32c-1.39-.213-2.78-.427-4.062-.854a23.41 23.41 0 0 1-3.528-1.283c-.107.641-.32 1.283-.428 1.817a52.598 52.598 0 0 0-.748 3.528v.641c0 .535.107 1.07.428 1.39.32.428.641.642 1.069.855a28.001 28.001 0 0 0 5.773 1.283c1.71.428 3.634.642 5.559.642Zm.748-34.424v34.317c1.924 0 3.849-.107 5.773-.428a55.892 55.892 0 0 0 5.773-1.283 1.698 1.698 0 0 0 1.069-.855c.32-.428.427-.855.427-1.39v-.641c-.32-1.07-.534-2.245-.748-3.528-.107-.641-.32-1.283-.428-1.817l-3.528 1.282c-1.39.428-2.672.642-4.062.856-.214 0-.428-.107-.428-.321 0-.214.107-.428.321-.428 1.39-.213 2.673-.427 3.956-.855a23.4 23.4 0 0 0 3.528-1.283c-.428-2.03-.856-4.276-1.283-6.414-1.07-5.345-2.032-10.797-2.78-15.18 0-.214.107-.428.32-.428.215 0 .428.107.428.32.749 4.49 1.71 9.943 2.78 15.181.214 1.283.535 2.566.748 3.742.855-.107 1.71-.428 2.566-.642.855-.32 1.603-.641 2.459-1.069l-4.704-19.35c-.214-.961-.748-1.817-1.39-2.565-.534-.641-1.176-1.283-1.924-1.604-.214 1.07-.748 2.139-1.497 2.887-1.176 1.283-2.78 2.138-4.383 2.566h-.107c-.748.213-1.496 0-2.138-.321l-.748-.748ZM8.232 9.408c.641-.856 1.496-1.497 2.352-1.925v-.855c0-.107 0-.32.106-.428.321-1.924 1.497-3.42 2.994-4.383C15.5.535 17.853 0 19.884 0c2.031 0 4.383.535 6.2 1.817 1.497.963 2.673 2.46 2.994 4.383 0 .107 0 .321.107.428.107.107 0 .32 0 .428v.427c.855.428 1.71 1.07 2.352 1.925.748.855 1.283 1.817 1.496 2.886l4.704 19.457c.535.213.962.534 1.283.962.428.427.641 1.069.641 1.71v.107c0 .32 0 .535-.106.962-.107.428-.214.748-.428 1.07-.214.32-.428.534-.748.748-1.604 1.069-3.314 1.496-5.132 1.924.214 1.069.535 2.138.748 3.1 0 .107 0 .214.108.428v.427c0 .642-.214 1.283-.535 1.818-.32.534-.855.962-1.497 1.069-1.924.641-3.848 1.069-5.88 1.39-2.244.427-4.276.534-6.307.534h-.214c-2.03 0-4.169-.107-6.2-.428-2.031-.32-3.956-.748-5.88-1.39-.641-.213-1.069-.64-1.496-1.068-.321-.535-.535-1.176-.535-1.818v-.427c0-.107 0-.214.107-.428.214-.962.428-2.031.748-3.1-1.817-.428-3.634-.749-5.131-1.925a2.498 2.498 0 0 1-.748-.748c-.214-.32-.321-.641-.428-1.069C0 35.28 0 34.958 0 34.637v-.107c.107-.641.32-1.283.641-1.71.321-.428.749-.749 1.283-.962L6.628 12.4c.32-1.07.855-2.138 1.604-2.993Zm23.84 25.015c.106.748.32 1.39.427 2.138v.214c.107.642.32 1.283.427 1.817 1.711-.427 3.421-.748 4.918-1.817.214-.107.428-.428.535-.641.107-.214.32-.428.32-.749.107-.213.107-.427.107-.748v-.107c0-.428-.214-.962-.534-1.283-.214-.32-.535-.534-.962-.748-.856.427-1.71.855-2.673 1.176-.748.32-1.71.641-2.566.748Zm-25.337 4.17c.107-.642.32-1.177.428-1.818v-.214c.106-.748.32-1.39.427-2.138-.855-.107-1.817-.428-2.672-.641-.963-.321-1.818-.749-2.673-1.176-.428.107-.748.427-.962.748-.32.428-.428.855-.535 1.283v.107c0 .214 0 .428.107.748s.214.535.321.748c.107.214.32.428.534.642 1.497.962 3.208 1.283 5.025 1.71ZM22.664 7.375l.107-.107v-.213c-.107-.321-1.283-.535-1.497-.642-.428-.107-.962-.107-1.497-.107-.534 0-.962 0-1.496.107-.428.107-.962.214-1.39.535l-.107.107v.213l.107.107c.214.107.32.107.534.214.214.107.428.107.535.214.534.107 1.069.535 1.497.962.107.107.213.32.32.428.107-.107.214-.321.321-.428.428-.427.855-.855 1.497-.962.107 0 .32-.107.534-.214.214-.107.32-.214.535-.214Zm.748.214c-.107.107-.214.32-.32.428-.214.107-.428.214-.535.32-.214.107-.428.107-.535.214a1.96 1.96 0 0 0-1.069.749c-.32.427-.427.855-.534 1.283v.855c.107.641.534 1.069.962 1.39.427.32 1.069.427 1.603.213 1.497-.427 2.994-1.176 4.063-2.352.855-.962 1.39-2.138 1.39-3.634V6.2c-.321-1.71-1.283-2.993-2.673-3.955C24.054 1.069 21.808.641 19.99.641c-1.817 0-4.062.535-5.773 1.604-1.39.855-2.352 2.138-2.672 3.955v.856c0 1.496.534 2.672 1.39 3.634 1.069 1.176 2.565 1.925 4.062 2.352.534.107 1.176 0 1.603-.213.428-.321.856-.749.963-1.39v-.855c0-.428-.214-.963-.535-1.283-.32-.321-.642-.642-1.07-.749-.106 0-.32-.107-.534-.213-.213-.107-.427-.107-.534-.321-.107-.107-.32-.214-.32-.428-.108-.107-.108-.32-.108-.534 0-.214 0-.321.107-.535.32-.641 1.39-.855 1.924-.962.535-.107 1.07-.107 1.604-.107.535 0 1.069 0 1.604.107.534.107 1.603.428 1.924.962.107.107.107.32.107.535-.214.213-.214.427-.321.534ZM69.274 9.514c2.886 2.245 2.459 12.08 1.604 21.167v.107c.32 2.245.748 4.597 1.176 6.842l3.207-9.194c.107-.213.32-.32.427-.213.214.106.321.213.214.427l-3.528 10.263c0 .107-.107.107-.107.107l.214 1.283.214 1.069h10.156c-.428-2.031-2.459-10.263-3.421-15.715l-1.71-7.804c-.535-.214-1.07-.32-1.604-.535-.107-.107-.214-.107-.32-.213-.108-.107-.215-.214-.215-.321v-.428c0-.107.107-.214.214-.32l1.176-1.39-.32-1.604-3.315.214c-.213 0-.32 0-.427-.107-.107-.107-.32-.107-.32-.214-.108-.107-.215-.214-.215-.32v-.428c.428-1.39 1.07-2.673 1.71-3.956.322-.641.75-1.282 1.07-1.817l-5.88 3.1Zm33.14 36.027-1.496.107-2.673.214c-.214 0-.428-.107-.641-.214a.588.588 0 0 1-.321-.535v-.106c-.107-1.711-.32-4.17-.748-7.163-.214-1.39-.321-2.886-.428-4.383-.32 2.245-.748 4.597-1.176 6.949l-.214 1.39c0 .213-.214.32-.32.32H72.482c-.215 0-.322-.107-.322-.32l-.32-1.283c-.428-2.352-.856-4.597-1.176-6.842-.214 1.496-.32 2.886-.428 4.276-.32 2.886-.641 5.452-.748 7.162v.107c0 .214-.214.428-.32.535-.215 0-.322.107-.642.107l-2.673-.214-1.497-.107-.427-.107c-.214 0-.428-.107-.642-.32-.106-.214-.213-.321-.213-.642v-.535c-.107-7.162-.428-27.153 5.238-34.743 0-.107.107-.107.107-.107l7.91-4.063c.215-.214.321-.427.535-.641 1.07-1.176 2.138-1.817 3.207-2.138 1.07-.32 2.139-.32 3.207-.32 1.07 0 2.139.106 3.208.32 1.069.32 2.245.962 3.207 2.138.214.214.32.427.534.641l7.804 3.956c.107 0 .214.107.214.107 5.666 7.697 5.345 27.58 5.238 34.743v.535c0 .214-.107.428-.213.642-.107.106-.321.32-.642.32l-.214.214Zm-2.886-.534c-.214-.214-.32-.428-.32-.642 0-.428.106-.748.427-1.069.214-.32.641-.535.962-.535l2.352-.213c.107-8.018.107-25.337-4.918-32.5-3.528 2.139-1.817 17.64-.748 27.903.32 2.993.641 5.452.748 7.162v.107h.107l1.39-.213Zm3.421-1.711-2.245.214c-.214 0-.321.107-.428.214a.816.816 0 0 0-.214.534c0 .214.107.32.321.428.214.107.321.214.535.214l1.924-.214s.107 0 .107-.107l.107-.107v-.535l-.107-.641Zm-7.056-12.615c-.855-8.98-1.283-18.815 1.604-21.167l-6.094-2.993a16.11 16.11 0 0 1 1.07 1.817c.748 1.283 1.282 2.566 1.71 3.956a.325.325 0 0 1 0 .427c0 .107-.107.321-.214.321-.107.107-.214.214-.32.214-.108.107-.322.107-.428.107l-5.132-.428 2.673 3.1c.107.107.214.214.214.321v.428c0 .107-.107.214-.214.32-.107.107-.214.214-.32.214-1.39.535-3.101 1.07-4.705 1.604-2.78.962-5.452 1.817-5.986 2.352-.107.213-.107 1.069.107 2.245l3.848 18.067H93.97l.214-1.07.213-1.282c0-.107-.106-.107-.106-.107l-3.528-10.263c-.107-.214.107-.428.214-.428.213-.107.427.107.427.214l3.1 9.194c.428-2.245.856-4.597 1.176-6.842.107-.214.107-.214.214-.32ZM87.77 6.628v.107c-.107 3.42-2.994 7.162-5.239 10.049-1.069 1.39-2.031 2.672-2.459 3.528 1.176-.535 3.207-1.283 5.453-2.032a238.62 238.62 0 0 0 4.703-1.603h.107v-.321l-3.207-3.742c-.107-.106-.107-.213-.107-.32 0-.214.214-.32.428-.32l5.986.534h.107l.107-.107v-.214c-.427-1.283-.962-2.566-1.71-3.849-.642-1.283-1.497-2.458-2.46-3.634-.854-.963-1.816-1.497-2.885-1.818.106.107.106.107.213.107.642 1.07.963 2.245.963 3.635Zm-4.704-3.849c-1.07.107-1.818.428-2.46.962-.64.642-.961 1.71-.961 2.887v.107c0 3.42 1.496 5.131 3.1 6.949.214.213.428.534.641.641 1.818-2.459 3.635-5.238 3.635-7.697 0-1.176-.32-2.138-.962-2.887-.535-.534-1.39-.962-2.459-.962h-.641.107c.107 0 0 0 0 0Zm-2.887.321c-.962.32-1.924.855-2.886 1.817a24.185 24.185 0 0 0-2.459 3.635c-.641 1.283-1.283 2.566-1.71 3.849v.214l.106.106h.107l5.987-.534c.107 0 .214 0 .32.107.215.107.215.32.108.534l-3.208 3.742v.321h.107c.642.214 1.39.534 2.032.748l1.924.641c.428-.534.855-1.069 1.283-1.71.32-.428.748-.962 1.069-1.39-.32-.32-.535-.641-.748-.855-1.711-2.031-3.315-3.849-3.315-7.483v-.107c0-1.39.428-2.566 1.176-3.314 0-.214.107-.214.107-.321Zm4.063 19.029c-.214.107-.428-.107-.428-.214-.107-.214.107-.427.214-.427l8.766-2.673c.214-.107.428.107.428.214.106.214-.107.427-.214.427L84.24 22.13Zm16.57 22.45c.214 0 .321-.107.321-.32 0-.215-.214-.322-.321-.322-.107 0-.321.107-.321.321 0 .214.214.32.321.32ZM79.109 20.525c.214-.534.535-1.069.962-1.817-.427-.214-.962-.32-1.496-.534l.534 2.351Zm-1.39-6.628.856-.962-1.07.107.215.855ZM65.853 44.58c-.214 0-.32-.107-.32-.32 0-.215.213-.322.32-.322.214 0 .32.107.32.321 0 .214-.106.32-.32.32Zm0 .32a.817.817 0 0 0 .535-.213c.106-.107.213-.32.32-.428a.817.817 0 0 0-.213-.534c-.107-.107-.321-.214-.428-.214l-2.245-.214V44.686c0 .107 0 .107.107.107l.107.107h1.817Zm-2.138-2.351 2.352.213c.428 0 .748.214.962.535.214.32.428.641.428 1.069 0 .32-.107.535-.321.642l1.283.106h.107v-.106c.107-1.711.32-4.17.748-7.163C70.45 27.58 72.16 12.08 68.526 9.942c-4.918 7.27-4.918 24.588-4.811 32.606Z" fill="#26303B"/></svg>