<svg width="101" height="45" fill="none" xmlns="http://www.w3.org/2000/svg"><path d="M77.8 1h10.8c2 0 3.5 1.6 3.5 3.5 0 2-1.6 3.5-3.5 3.5H77.8c-2 0-3.5-1.6-3.5-3.5 0-2 1.6-3.5 3.5-3.5Z" stroke="#2D333D" stroke-width=".382"/><path d="M77.8 1.1h10.8c1.8 0 3.3 1.5 3.3 3.3 0 1.8-1.5 3.3-3.3 3.3H77.8c-1.8 0-3.3-1.5-3.3-3.3 0-1.8 1.5-3.3 3.3-3.3Z" stroke="#2D333D" stroke-width=".75"/><path d="M71 13.2c0-1.9 1.5-3.4 3.4-3.4h17.4c1.9 0 3.4 1.5 3.4 3.4v21H71v-21Z" stroke="#26303B" stroke-width=".75"/><path d="M76 13.2h14.4c.8 0 1.5.7 1.5 1.5v4.8c0 .8-.7 1.5-1.5 1.5H76c-.8 0-1.5-.7-1.5-1.5v-4.8c0-.8.6-1.5 1.5-1.5ZM71.5 34.4h23.3c2.8 0 5.1 2.3 5.1 5.1s-2.3 5.1-5.1 5.1H71.5c-2.8 0-5.1-2.3-5.1-5.1.1-2.9 2.4-5.1 5.1-5.1Z" stroke="#26303B" stroke-width=".75"/><path d="M98.8 31.1c0 2-1.6 3.6-3.6 3.6s-3.6-1.6-3.6-3.6 1.6-3.6 3.6-3.6 3.6 1.6 3.6 3.6Z" fill="#E0E0E0" stroke="#26303B" stroke-width=".75"/><path d="M95.7 30.5h-1.1v1.1h1.1v-1.1Z" fill="#26303B"/><path d="M98.3 11.9 74.9 31.4l-.9-2.3-1.1-1.4L99.1 6.2v5.2l-.8.5Z" fill="#E0E0E0"/><path d="M99.2 4.8v1.4-1.4Zm0 1.4v6.9-1.7l-.9.6-23.4 19.4-.9-2.3-1.1-1.4L99.2 6.2Z" stroke="#26303B" stroke-width=".75"/><path d="M74.8 31.1c0 2-1.6 3.6-3.6 3.6s-3.6-1.6-3.6-3.6 1.6-3.6 3.6-3.6 3.6 1.6 3.6 3.6Z" fill="#E0E0E0" stroke="#26303B" stroke-width=".75"/><path d="M71.8 30.5h-1.1v1.1h1.1v-1.1Z" fill="#26303B"/><path d="M78.6 7.6v2.3M87.2 7.6v2.3M36.3 17c-.2 6.1-5.2 11.1-11.4 11.1H14.2C8 28.1 3 23.2 2.8 17h33.5ZM2.1 14.6h34.8c.6 0 1.1.5 1.1 1.1 0 .6-.5 1.1-1.1 1.1H2.1c-.6 0-1.1-.5-1.1-1.1 0-.6.5-1.1 1.1-1.1Z" stroke="#26303B" stroke-width=".75"/><path d="m6.6 5.2 9.4 9.7-9.4-9.7Zm9.4 9.6h1.1c.2 0 .4-.2.4-.4L17 2.8c0-.2-.2-.4-.4-.4C5.4 1.9 2.5 9.7 2.4 14.1c0 .2.2.4.4.4l13.2.3Z" stroke="#26303B" stroke-width=".75"/><path d="M19.4 15.4c0 1.1-.9 2-2 2s-2-.9-2-2 .9-2 2-2 2 .9 2 2Z" fill="#E0E0E0" stroke="#26303B" stroke-width=".75"/><path d="M34 40.8c0 2.1-1.7 3.8-3.7 3.8s-3.7-1.7-3.7-3.8c0-2.1 1.7-3.8 3.7-3.8 2 .1 3.7 1.7 3.7 3.8ZM11.3 40.8c0 .8-.6 1.4-1.4 1.4-.8 0-1.4-.6-1.4-1.4 0-.8.6-1.4 1.4-1.4.8 0 1.4.6 1.4 1.4Z" stroke="#26303B" stroke-width=".75"/><path d="M13.6 40.8c0 2.1-1.7 3.8-3.7 3.8s-3.7-1.7-3.7-3.8c0-2.1 1.7-3.8 3.7-3.8 2 .1 3.7 1.7 3.7 3.8ZM31.6 40.8c0 .8-.6 1.4-1.4 1.4-.8 0-1.4-.6-1.4-1.4 0-.8.6-1.4 1.4-1.4.8 0 1.4.6 1.4 1.4Z" stroke="#26303B" stroke-width=".75"/><path d="m37.8 6.1-25 32.1-.9-.6-1.2-.6 26-33.3c.4-.5.9-.7 1.5-.7h5.4c.4 0 .9.1 1.1.5.3.5.2 1 0 1.3-.2.4-.7.5-1.1.5h-4.2c-.7.1-1.2.3-1.6.8Z" fill="#E0E0E0" stroke="#26303B" stroke-width=".75"/><path d="m17.8 31.9 8.9.4-1.4-4.1 2.5-.3 2.6 9.2H30l-1.6.3-.9-2.8H15.7l1.1-1.4 1-1.3Z" fill="#E0E0E0" stroke="#26303B" stroke-width=".75"/></svg>