<svg width="134" height="48" fill="none" xmlns="http://www.w3.org/2000/svg"><path d="M27.577 39.926c-.12.12-.24.48 0 .6.12.24.36.24.6 0 .958-.96 1.918-2.039 2.637-3.118.72-1.199 1.319-2.398 1.678-3.717.12-.24-.12-.48-.36-.6-.239-.12-.479.12-.479.24-.36 1.2-.959 2.398-1.558 3.477-.6 1.2-1.44 2.159-2.518 3.118Zm12.949-.96c.48-2.277.839-4.675 1.079-7.073.24-2.398.36-4.796.36-7.314s-.12-4.916-.36-7.434a62.5 62.5 0 0 0-1.08-7.074c-.12-.48-.12-.84-.12-1.199 0-.36.12-.72.24-1.199l.36-.959c.12-.48.24-.96.12-1.439-.12-.48-.36-.959-.72-1.319-.359-.36-.719-.6-1.198-.72-.48-.119-.96-.119-1.439.12l-.84.36c-.359.12-.719.24-1.078.24-.36 0-.72 0-1.08-.12-2.158-.48-4.436-.839-6.714-1.199a69.876 69.876 0 0 0-14.148 0c-2.398.24-4.556.6-6.714 1.2-.36.12-.72.12-1.08.12-.359 0-.719-.12-1.078-.24l-.84-.36c-.48-.24-.959-.24-1.438-.12-.48.12-.84.36-1.2.72C1.2 4.315.96 4.795.84 5.274c-.12.48-.12.96.12 1.439l.36.84c.12.359.24.719.24 1.198 0 .36 0 .84-.12 1.2a64.705 64.705 0 0 0-1.08 7.193A75.302 75.302 0 0 0 0 24.58c0 2.518.12 5.036.36 7.434a62.5 62.5 0 0 0 1.079 7.074c.12.48.12.839.12 1.199 0 .36-.12.719-.24 1.198l-.48.72c-.12.48-.24.96-.12 1.439.12.48.36.959.72 1.319s.72.6 1.199.719c.48.12.959.12 1.439-.12l.719-.24c.36-.12.72-.24 1.079-.24.36 0 .72 0 1.199.12 2.158.48 4.436.96 6.834 1.2 2.278.24 4.676.36 7.074.36 2.398 0 4.796-.12 7.074-.36 2.398-.24 4.676-.6 6.835-1.2.36-.12.719-.12 1.199-.12.36 0 .719.12 1.079.24l.719.36c.48.24.96.24 1.439.12.48-.12.959-.36 1.199-.72.36-.36.6-.839.72-1.318.119-.48.119-.96-.12-1.44l-.36-.958c-.12-.36-.24-.72-.24-1.2-.24-.479-.12-.839 0-1.198Zm.12-7.193c-.24 2.398-.6 4.796-1.08 6.954-.12.48-.12.96-.12 1.439 0 .48.12.959.36 1.438l.36.96c.12.36.12.6.12.959-.12.36-.24.6-.48.84-.24.239-.48.479-.839.479-.36.12-.6 0-.96-.12l-.718-.24c-.48-.24-.96-.36-1.32-.36-.479 0-.959 0-1.318.12-2.159.48-4.437.84-6.715 1.2-2.278.239-4.556.359-7.074.359a65.83 65.83 0 0 1-6.954-.36c-2.398-.24-4.556-.6-6.714-1.199-.48-.12-.96-.12-1.319-.12-.48 0-.96.12-1.319.36l-.72.24c-.359.12-.599.12-.958.12-.36-.12-.6-.24-.84-.48s-.36-.48-.48-.84c-.12-.359 0-.599.12-.958l.36-.84.36-1.438c0-.48 0-.96-.12-1.44A66.946 66.946 0 0 1 1.2 31.774a72.873 72.873 0 0 1-.36-7.314c0-2.518.12-4.916.36-7.314.24-2.398.6-4.796 1.08-7.074.119-.48.119-.96.119-1.439 0-.48-.12-.959-.36-1.438l-.36-.84c-.12-.36-.12-.6-.12-.959.12-.36.24-.6.48-.84.24-.239.48-.479.84-.479.36-.12.6 0 .959.12l.839.36c.48.24.96.36 1.319.36.48 0 .96 0 1.319-.12 2.158-.48 4.316-.84 6.714-1.2 2.278-.24 4.556-.36 6.954-.36 2.398 0 4.676.12 6.954.36 2.278.24 4.556.6 6.715 1.2.48.12.959.12 1.319.12.48 0 .959-.12 1.319-.36l.839-.36c.36-.12.6-.12.959-.12.36.12.6.24.84.48.239.24.359.48.479.84.12.359 0 .599-.12.958l-.48.96-.36 1.438c0 .48 0 .96.12 1.439.48 2.278.84 4.556 1.08 6.954.24 2.278.36 4.796.36 7.314s-.12 4.916-.36 7.314Zm-9.832 8.992c-.12.12-.12.48 0 .6.12.24.36.24.6 0 1.558-1.44 2.637-2.998 3.477-4.796.839-1.799 1.318-3.837 1.318-6.115 0-.24-.12-.48-.36-.48s-.359.24-.359.48c0 2.158-.48 4.076-1.319 5.755-.84 1.679-2.038 3.117-3.357 4.556Z" fill="#26303B"/><path d="M71 16.546V7.468C71 3.837 73.86 1 77.556 1h45.888C127.02 1 130 3.95 130 7.468V17" stroke="#26303B" stroke-width=".75" stroke-miterlimit="10"/><path d="M73.258 15.946h.72c2.757 0 5.035 2.398 5.035 5.276v21.222c0 2.038-1.678 3.717-3.597 3.717H71.82c-1.918 0-3.597-1.679-3.597-3.717V21.342c0-2.998 2.278-5.396 5.036-5.396ZM127.692 16.546h.6c2.757 0 5.035 2.398 5.035 5.276v21.222c0 2.038-1.678 3.717-3.597 3.717h-3.597c-1.918 0-3.597-1.68-3.597-3.717V21.942c.12-2.998 2.278-5.396 5.156-5.396Z" stroke="#26303B" stroke-width=".75" stroke-miterlimit="10"/><path d="M122.656 23.26c0-.839-21.941-15.586-43.403-.12M78.654 42.084c3.357 0 3.357 4.916 6.714 4.916s3.357-5.036 6.714-5.036 3.357 4.916 6.715 4.916c3.357 0 3.357-5.036 6.714-5.036s3.357 4.916 6.714 4.916 3.357-5.036 6.714-5.036c3.358 0 3.358 4.916 6.715 4.916" stroke="#26303B" stroke-width=".75" stroke-miterlimit="10"/></svg>