<svg width="93" height="48" viewBox="0 0 93 48" fill="none" xmlns="http://www.w3.org/2000/svg">
<path d="M78.4143 7.32222C79.3183 7.77419 80.2222 8.13577 81.1262 8.49736C82.3917 9.03973 83.7477 9.5821 85.0132 10.3053C85.0132 10.3053 85.1036 10.3053 85.1036 10.3957C88.4482 13.8307 90.0753 25.4013 91.4313 35.0736C91.7025 36.9719 91.9736 38.7799 92.2448 40.5878C92.2448 40.6782 92.2448 40.7685 92.2448 40.7685C92.2448 40.8589 92.2448 40.8589 92.1544 40.9493C92.1544 41.0397 92.064 41.0397 91.9736 41.1301C91.9736 41.1301 91.8832 41.1301 91.7929 41.2205L86.8211 41.8533C86.6403 41.8533 86.5499 41.8533 86.4595 41.7629C86.3691 41.6725 86.2787 41.5821 86.2787 41.4917L84.29 28.4748L84.3804 40.5878C84.3804 40.6782 84.3804 40.7685 84.3804 40.7685C84.3804 40.8589 84.29 40.8589 84.29 40.9493C84.29 41.0397 84.1996 41.0397 84.1092 41.0397C84.0188 41.0397 84.0188 41.0397 83.9284 41.0397H73.6234H63.4991C63.4087 41.0397 63.3183 41.0397 63.3183 41.0397C63.2279 41.0397 63.2279 40.9493 63.1375 40.9493C63.1375 40.9493 63.0471 40.8589 63.0471 40.7685C63.0471 40.6782 63.0471 40.6782 63.0471 40.5878L63.1375 28.4748L61.0584 41.5821C61.0584 41.6725 60.968 41.7629 60.8776 41.8533C60.7872 41.9437 60.6968 41.9437 60.516 41.9437L55.5443 41.3109C55.4539 41.3109 55.4539 41.3109 55.3635 41.2205C55.2731 41.2205 55.2731 41.1301 55.1827 41.0397C55.1827 40.9493 55.0923 40.9493 55.0923 40.8589C55.0923 40.7685 55.0923 40.7685 55.0923 40.6782C55.3635 38.8702 55.6347 36.9719 55.9058 35.164C57.1714 25.4917 58.7985 13.8307 62.1431 10.4861C62.1431 10.4861 62.2335 10.4861 62.2335 10.3957C63.4991 9.6725 64.855 9.13013 66.1205 8.58775C67.0245 8.22617 67.9284 7.86459 68.8324 7.41261V6.14707C68.8324 5.6951 69.3748 5.24312 70.3691 4.97193C71.1827 4.70075 72.3578 4.61035 73.6234 4.61035C74.8889 4.61035 76.064 4.79114 76.8776 4.97193C77.7815 5.24312 78.4143 5.6951 78.4143 6.14707V7.32222ZM58.0753 40.7685C57.8945 40.7685 57.8041 40.6781 57.8041 40.4974C57.8041 40.3166 57.9849 40.2262 58.0753 40.2262C58.2561 40.2262 58.3465 40.3166 58.3465 40.4974C58.4369 40.5878 58.2561 40.7685 58.0753 40.7685ZM57.9849 41.0397C58.1657 41.0397 58.2561 41.0397 58.4369 40.9493C58.5273 40.8589 58.6177 40.7685 58.6177 40.5878C58.6177 40.407 58.6177 40.3166 58.5273 40.1358C58.4369 40.0454 58.3465 39.955 58.1657 39.955L55.8154 39.6838C55.725 40.0454 55.7251 40.4974 55.6347 40.8589C56.4482 40.8589 57.2618 40.9493 57.9849 41.0397ZM55.9058 39.051L58.2561 39.3222C58.5273 39.3222 58.7985 39.503 58.9793 39.7742C59.1601 39.955 59.2505 40.3166 59.1601 40.5878C59.1601 40.5878 59.1601 40.5878 59.1601 40.6782C59.1601 40.8589 59.0697 41.0397 58.9793 41.2205L60.516 41.4013L63.1375 24.5878V20.8815L62.2335 11.39C59.3409 15.1866 57.8041 26.1245 56.5386 35.2544C56.2674 36.52 56.0866 37.8759 55.9058 39.051ZM63.6799 24.5878L63.5895 40.5878H73.3522V10.8476C73.2618 10.8476 73.1714 10.7572 73.081 10.6668C72.9002 10.4861 72.8098 10.3053 72.8098 10.1245C72.8098 9.94369 72.9002 9.49171 73.081 9.22052C72.0866 9.22052 71.0923 9.03973 70.4595 8.85894C69.8267 8.67815 69.2844 8.40696 69.1036 8.04538C68.29 8.49736 67.3861 8.85894 66.4821 9.22052C65.307 9.76289 64.0414 10.3053 62.8663 10.938L63.8606 20.8815L63.6799 24.5878ZM77.8719 6.96063C77.6008 7.14142 77.3296 7.23182 76.8776 7.32222C76.6064 7.41261 76.2448 7.50301 75.8832 7.5934C75.9736 7.77419 76.064 7.95498 76.064 8.13578C76.064 8.22617 76.064 8.31657 76.064 8.40696C76.3352 8.31657 76.6064 8.31657 76.8776 8.22617C77.6008 8.04538 77.9623 7.77419 77.9623 7.5934L77.8719 6.96063ZM69.3748 6.96063V7.5934C69.3748 7.77419 69.8267 8.04538 70.4595 8.22617C71.2731 8.40696 72.3578 8.58775 73.533 8.58775C74.0753 8.58775 74.5273 8.58775 75.0697 8.49736C75.1601 8.49736 75.2505 8.40696 75.2505 8.31657C75.3409 8.22617 75.3409 8.13577 75.3409 8.04538C75.3409 7.95498 75.2505 7.86459 75.2505 7.77419C75.1601 7.6838 75.0697 7.6838 74.9793 7.6838C74.5273 7.6838 74.0753 7.77419 73.6234 7.77419C72.3578 7.77419 71.1827 7.5934 70.3691 7.41261C70.0979 7.32222 69.9171 7.23182 69.7364 7.14142H69.646C69.5556 7.05103 69.4652 6.96063 69.3748 6.96063ZM73.6234 5.06233C72.4482 5.06233 71.2731 5.24312 70.4595 5.42391C69.7364 5.6047 69.3748 5.87589 69.3748 6.05668C69.3748 6.14707 69.5556 6.32787 69.7364 6.41826C70.1883 6.23747 70.7307 6.14707 71.3635 5.96628C71.9962 5.87589 72.8098 5.78549 73.6234 5.78549C74.4369 5.78549 75.1601 5.87589 75.7929 5.96628C76.4256 6.05668 76.968 6.23747 77.42 6.41826C77.6912 6.23747 77.7815 6.14707 77.7815 6.05668C77.7815 5.87589 77.3296 5.6047 76.6968 5.42391C75.9736 5.24312 74.8889 5.06233 73.6234 5.06233ZM70.7307 6.87024C71.5443 7.05103 72.5386 7.14142 73.7138 7.14142C74.8889 7.14142 75.8832 7.05103 76.6968 6.87024C76.4256 6.77984 76.1544 6.68945 75.8832 6.68945C75.2505 6.59905 74.5273 6.50866 73.8041 6.50866C73.081 6.50866 72.2674 6.59905 71.6347 6.68945C71.1827 6.68945 70.9115 6.77984 70.7307 6.87024ZM74.2561 9.13013C74.4369 9.40131 74.5273 9.85329 74.5273 10.0341C74.5273 10.3053 74.4369 10.4861 74.2561 10.6668C74.1657 10.7572 74.0753 10.8476 73.8945 10.8476V40.4974H83.6573L83.5669 24.5878C83.5669 24.5878 83.5669 24.5878 83.5669 24.4974V20.7911L84.5612 10.8476C83.3861 10.2149 82.1205 9.6725 80.9454 9.13013C80.0414 8.76854 79.2279 8.40696 78.3239 7.95498C78.1431 8.31657 77.6008 8.58775 76.968 8.76854C76.2448 8.94933 75.2505 9.13013 74.2561 9.13013ZM73.4426 10.2149C73.4426 10.3053 73.533 10.3053 73.6234 10.3053C73.7138 10.3053 73.8041 10.3053 73.8041 10.2149C73.8041 10.2149 73.8945 10.1245 73.8945 10.0341C73.8945 9.85329 73.8041 9.5821 73.7138 9.40131C73.6234 9.31092 73.6234 9.22052 73.6234 9.22052C73.6234 9.22052 73.6234 9.31092 73.533 9.40131C73.4426 9.6725 73.3522 9.94369 73.3522 10.0341C73.3522 10.1245 73.3522 10.2149 73.4426 10.2149ZM64.855 16.633H71.2731C71.4539 16.633 71.5443 16.7233 71.6347 16.8137C71.725 16.9041 71.7251 16.9945 71.7251 17.0849V17.8081C71.7251 17.9889 71.6347 18.0793 71.5443 18.1697C71.4539 18.2601 71.3635 18.3505 71.1827 18.3505H64.7646C64.5838 18.3505 64.4934 18.2601 64.403 18.1697C64.3126 18.0793 64.2222 17.9889 64.2222 17.8081V17.1753C64.2222 16.9945 64.3126 16.9041 64.403 16.8137C64.5838 16.7233 64.7646 16.633 64.855 16.633ZM71.1827 17.2657H64.9454V17.8985H71.1827V17.2657ZM64.403 37.6951L65.6686 29.1979C65.6686 29.1075 65.759 28.9267 65.8493 28.9267C65.9397 28.8363 66.0301 28.8363 66.2109 28.8363L66.9341 28.9267C67.0245 28.9267 67.1149 29.0171 67.2053 29.1075C67.2957 29.1979 67.2957 29.2883 67.2957 29.4691L66.1205 37.9663C66.1205 38.1471 66.0301 38.2375 65.9397 38.2375C65.8493 38.3279 65.6686 38.3279 65.5782 38.3279L64.855 38.2375C64.7646 38.2375 64.5838 38.1471 64.5838 38.0567C64.403 37.9663 64.403 37.8759 64.403 37.6951ZM66.2109 29.3787L64.9454 37.7855L65.5782 37.8759L66.8437 29.4691L66.2109 29.3787ZM74.9793 8.40696C74.7985 8.40696 74.7081 8.31657 74.7081 8.13578C74.7081 7.95498 74.7985 7.86459 74.9793 7.86459C75.1601 7.86459 75.2505 7.95498 75.2505 8.13578C75.2505 8.31657 75.1601 8.40696 74.9793 8.40696ZM82.3013 17.2657H76.064V17.8985H82.3013V17.2657ZM75.9736 16.633H82.3917C82.5725 16.633 82.6629 16.7233 82.7533 16.8137C82.8437 16.9041 82.9341 16.9945 82.9341 17.1753V17.8985C82.9341 18.0793 82.8437 18.1697 82.7533 18.2601C82.6629 18.3505 82.5725 18.4409 82.3917 18.4409H75.9736C75.7928 18.4409 75.7025 18.3505 75.6121 18.2601C75.5217 18.1697 75.4313 18.0793 75.4313 17.8985V17.1753C75.4313 16.9945 75.5217 16.9041 75.6121 16.8137C75.7928 16.7233 75.8832 16.633 75.9736 16.633ZM89.2618 40.7685C89.081 40.7685 88.9906 40.6781 88.9906 40.4974C88.9906 40.3166 89.081 40.2262 89.2618 40.2262C89.4426 40.2262 89.533 40.3166 89.533 40.4974C89.533 40.6781 89.3522 40.7685 89.2618 40.7685ZM91.6121 40.7685C91.5217 40.407 91.5217 40.0454 91.4313 39.5934L89.081 39.8646C88.9002 39.8646 88.8098 39.955 88.7194 40.0454C88.629 40.1358 88.5386 40.3166 88.629 40.4974C88.629 40.6781 88.7194 40.7685 88.8098 40.8589C88.9002 40.9493 89.081 41.0397 89.2618 40.9493C90.0753 40.9493 90.7985 40.8589 91.6121 40.7685ZM88.2674 41.2205C88.177 41.0397 88.0866 40.9493 88.0866 40.6782C88.0866 40.6782 88.0866 40.6782 88.0866 40.5878C88.0866 40.3166 88.177 39.955 88.2674 39.7742C88.4482 39.503 88.7194 39.4126 88.9906 39.3222L91.3409 39.051C91.1601 37.8759 90.9793 36.6104 90.7985 35.2544C89.533 26.1245 87.9962 15.1866 85.1036 11.39L84.1092 20.7911V24.4974L86.7307 41.4013L88.2674 41.2205ZM82.3013 37.6951L81.0358 29.2883L80.403 29.3787L81.6686 37.7855L82.3013 37.6951ZM81.5782 29.1979L82.8437 37.6951C82.8437 37.7855 82.8437 37.9663 82.7533 38.0567C82.6629 38.1471 82.5725 38.2375 82.4821 38.2375L81.759 38.3279C81.6686 38.3279 81.4878 38.3279 81.3974 38.2375C81.307 38.1471 81.2166 38.0567 81.2166 37.9663L79.951 29.4691C79.951 29.2883 79.951 29.1979 80.0414 29.1075C80.1318 29.0171 80.2222 28.9267 80.3126 28.9267L81.0358 28.8363C81.2166 28.8363 81.307 28.8363 81.3974 28.9267C81.4878 28.9267 81.5782 29.0171 81.5782 29.1979Z" fill="#26303B"/>
<path d="M27.883 46.5536C27.7022 46.644 27.431 46.644 27.2502 46.5536L27.3406 47.1864H16.6739V33.0847C16.4028 33.0847 16.3124 33.0847 16.0412 33.0847V47.1864H8.44795V47.0056C8.35756 47.0056 8.35756 47.0056 8.26716 47.0056H8.17677H8.08637C8.17677 47.0056 8.17677 47.0056 8.17677 47.0056C8.08637 47.0056 8.08637 47.096 7.99598 47.096C7.99598 47.096 7.99598 47.096 7.90558 47.096L7.81519 47.6384C7.81519 47.8192 7.99598 48 8.17677 48H27.7926C27.9734 48 28.1542 47.8192 28.1542 47.6384L27.883 46.5536Z" fill="#26303B"/>
<path d="M9.89441 21.6948C9.89441 21.6044 9.89441 21.6044 9.9848 21.6044C10.0752 21.2429 10.1656 20.7909 10.1656 20.4293C10.1656 20.2485 10.256 20.1581 10.3464 20.0677C10.256 19.9773 10.256 19.8869 10.0752 19.7965C9.89441 19.7965 9.71362 19.8869 9.71362 20.0677L8.0865 31.096V31.1864L6.64017 41.0395L1.48763 40.6779L1.57802 39.8643L4.65147 40.1355C4.92266 40.1355 5.19384 40.0451 5.37463 39.8643C5.55542 39.6835 5.73621 39.4123 5.73621 39.1412C5.73621 38.87 5.64582 38.5988 5.46503 38.3276C5.28424 38.1468 5.01305 37.966 4.74187 37.966L1.75881 37.6948L5.37463 10.8474C5.46503 10.5762 5.46503 10.305 5.64582 10.1242C5.73622 9.94342 6.0074 9.76263 6.18819 9.58184L9.9848 8.4067C9.89441 8.22591 10.256 7.77393 10.256 7.59314L6.0978 9.03947C5.73622 9.22026 5.55542 9.49144 5.28424 9.76263C5.10345 10.0338 5.01305 10.3954 4.92266 10.757L1.21644 37.966L1.03565 39.4123L0.854858 40.8587C0.854858 41.0395 0.945254 41.2203 1.12605 41.2203L6.91136 41.6722C7.09215 41.6722 7.27294 41.5818 7.27294 41.4011L9.89441 21.6948ZM1.84921 38.3276L4.83226 38.5988C4.92265 38.5988 5.01305 38.6892 5.10345 38.6892C5.19384 38.7796 5.19384 38.87 5.19384 38.9604C5.19384 39.0508 5.10345 39.1412 5.10345 39.2316C5.01305 39.322 4.92265 39.322 4.83226 39.322L1.75881 39.0508L1.84921 38.3276Z" fill="#26303B"/>
<path d="M35.2053 40.8587L35.0245 39.4123L34.8437 37.966L31.1375 10.757C31.0471 10.3954 30.9567 10.0338 30.7759 9.76263C30.5951 9.49144 30.3239 9.22026 29.9623 9.03947L25.3522 7.59314C25.3522 7.77393 25.6234 8.22591 25.6234 8.4067L29.6912 9.58184C29.9623 9.76263 30.1431 9.94342 30.2335 10.1242C30.3239 10.305 30.4143 10.5762 30.5047 10.8474L34.1205 37.6948L31.1375 37.966C30.8663 37.966 30.5951 38.1468 30.4143 38.3276C30.2335 38.5084 30.1431 38.7796 30.1431 39.1412C30.1431 39.4123 30.3239 39.6835 30.5047 39.8643C30.6855 40.0451 30.9567 40.1355 31.2279 40.1355L34.3917 39.7739L34.4821 40.5875L29.3296 40.9491L28.3352 33.4462V33.3559L26.4369 20.0677C26.4369 19.8869 26.2561 19.7061 26.0753 19.7965C25.8945 19.7965 25.8042 19.9773 25.8042 20.1581V20.3389C25.8945 20.4293 25.8945 20.4293 25.9849 20.5197C26.1657 20.8813 26.2561 21.4236 26.2561 21.7852L28.968 41.4011C28.968 41.5818 29.1488 41.7626 29.3296 41.6722L35.1149 41.2203C35.1149 41.2203 35.2053 41.0395 35.2053 40.8587ZM31.3183 39.4123C31.2279 39.4123 31.1375 39.4123 31.0471 39.322C30.9567 39.2316 30.9567 39.1412 30.9567 39.0508C30.9567 38.9604 30.9567 38.87 31.0471 38.7796C31.1375 38.6892 31.2279 38.6892 31.3183 38.6892L34.3013 38.418L34.3917 39.2316L31.3183 39.4123Z" fill="#26303B"/>
<path d="M16.0412 30.8244L16.6739 30.734L15.2276 16.4515C15.0468 16.09 14.7756 16.09 14.5948 16.09L16.0412 30.8244Z" fill="#26303B"/>
<path d="M25.8042 20.1581L25.3522 31.0959" stroke="#26303B" stroke-width="0.75" stroke-miterlimit="10" stroke-linecap="round"/>
<path d="M25.3522 31.1864L27.7929 47.3672" stroke="#26303B" stroke-width="0.75" stroke-miterlimit="10" stroke-linecap="round"/>
<path d="M9.98499 20.1581L10.5274 31.1863" stroke="#26303B" stroke-width="0.75" stroke-miterlimit="10" stroke-linecap="round"/>
<path d="M10.5272 31.1864L8.08655 47.3672" stroke="#26303B" stroke-width="0.75" stroke-miterlimit="10" stroke-linecap="round"/>
<path d="M10.4369 29.288C10.4369 30.1015 12.8776 30.9151 15.5894 31.2767" stroke="#26303B" stroke-width="0.75" stroke-miterlimit="10" stroke-linecap="round"/>
<path d="M10.4369 30.6442C10.4369 31.4577 12.7872 32.2713 15.5894 32.5425" stroke="#26303B" stroke-width="0.75" stroke-miterlimit="10" stroke-linecap="round"/>
<path d="M25.3519 29.288C25.3519 30.3727 21.4649 31.3671 17.9395 31.3671" stroke="#26303B" stroke-width="0.75" stroke-miterlimit="10" stroke-linecap="round"/>
<path d="M25.3519 30.6442C25.3519 31.7289 21.3745 32.6329 17.8491 32.6329" stroke="#26303B" stroke-width="0.75" stroke-miterlimit="10" stroke-linecap="round"/>
<path d="M15.4989 32.6328C13.0582 38.8701 12.2447 44.2034 13.691 44.9266" stroke="#26303B" stroke-width="0.75" stroke-miterlimit="10" stroke-linecap="round"/>
<path d="M16.4029 33.2654C13.9623 39.4123 13.2391 44.4744 14.6854 45.1072" stroke="#26303B" stroke-width="0.75" stroke-miterlimit="10" stroke-linecap="round"/>
<path d="M13.691 44.9265L14.595 45.1977" stroke="#26303B" stroke-width="0.75" stroke-miterlimit="10" stroke-linecap="round"/>
<path d="M17.4876 33.175H16.0413C15.9509 33.175 15.8605 33.0846 15.8605 32.9942V31.0055C15.8605 30.9151 15.9509 30.8247 16.0413 30.8247H17.4876C17.578 30.8247 17.6684 30.9151 17.6684 31.0055V32.9942C17.6684 33.0846 17.578 33.175 17.4876 33.175Z" stroke="#26303B" stroke-width="0.75" stroke-miterlimit="10" stroke-linecap="round"/>
<path d="M23.1824 2.80226C23.1824 2.80226 22.7304 2.16949 22.5496 1.9887C21.8265 0.99435 21.0129 0.542373 20.1994 0.271187C19.3858 0.0903957 18.5722 0 17.8491 0C17.1259 0 16.3124 0.0903957 15.5892 0.271187C14.7756 0.542373 13.9621 1.08475 13.2389 1.9887C13.1485 2.0791 12.9677 2.25989 12.8773 2.35028C12.7869 2.62147 12.6965 2.71186 12.5157 2.89266C12.335 3.07345 12.335 3.16384 12.1542 3.43503L12.0638 3.61582C11.9734 3.70621 12.0638 3.61582 11.9734 3.70622L11.883 3.79661C11.6118 4.33898 11.3406 4.79096 11.0694 5.33333C10.6174 6.41808 10.1655 7.50282 9.80388 8.58757C9.71349 8.67797 9.71349 8.76836 9.80388 8.94915C9.80388 9.03955 9.89428 9.12994 9.89428 9.22034C9.98467 9.31073 10.0751 9.31073 10.1655 9.40113C10.2559 9.49152 10.3463 9.49153 10.4366 9.49153L12.8773 9.31073H12.9677C13.0581 9.31073 13.0581 9.31073 13.1485 9.31073C13.2389 9.31073 13.3293 9.31073 13.4197 9.22034H13.6005L14.3237 9.12994L13.6909 9.9435C13.6909 9.85311 13.6005 9.9435 13.6005 10.0339C13.6005 10.1243 13.5101 10.2147 13.3293 10.3051L13.2389 10.3955L12.335 11.5706C12.2446 11.661 12.2446 11.7514 12.2446 11.8418C12.2446 11.9322 12.2446 12.0226 12.2446 12.2034C12.2446 12.2938 12.335 12.3842 12.335 12.4746C12.4254 12.565 12.5157 12.565 12.6061 12.6554C12.9677 12.7458 13.3293 12.9266 13.6005 13.0169H13.6909H13.7813H13.8717C13.9621 13.0169 13.9621 13.0169 14.0525 13.1073C14.2333 13.1977 14.2333 13.1977 14.3237 13.1977H14.4141C14.7756 13.2881 15.1372 13.4689 15.4988 13.5593C15.1372 14.1017 14.9564 14.6441 14.7756 15.0057C14.6852 15.1864 14.6852 15.2768 14.5948 15.4576C14.5044 15.9096 14.5044 16.0904 14.5044 16.452L14.5948 16.7232H15.2276C15.2276 16.6328 15.2276 16.5424 15.2276 16.452C15.2276 16.0904 15.2276 15.9096 15.318 15.9096C15.4084 15.8192 16.222 15.1864 16.5835 15.096L16.6739 14.4633C16.222 14.6441 15.8604 14.9153 15.4988 15.096C15.77 14.3729 16.4931 13.3785 17.3067 12.2034C18.9338 9.76271 21.1033 6.77966 21.1033 3.88701C21.1033 3.79661 21.1033 3.79661 21.1033 3.79661C21.1033 2.71186 20.8321 1.71751 20.1994 1.08475C20.109 0.99435 20.109 0.99435 20.109 0.99435C20.8321 1.26554 21.5553 1.71751 22.1881 2.53107C22.64 3.16384 23.092 3.88701 23.544 4.61017L23.996 4.0678C23.9056 3.88701 23.3632 3.16384 23.1824 2.80226ZM16.7643 11.7514C16.4028 12.2938 16.1316 12.7458 15.8604 13.1977C15.4084 13.0169 14.9564 12.8362 14.4141 12.6554C13.8717 12.4746 13.4197 12.2938 12.9677 12.0226C12.9677 12.0226 12.9677 12.0226 12.8773 12.0226C12.8773 12.0226 12.8773 12.0226 12.8773 11.9322V11.8418C12.8773 11.8418 12.8773 11.8418 12.8773 11.7514L15.2276 8.67797C15.318 8.58757 15.318 8.40678 15.1372 8.31638C15.0468 8.22599 15.0468 8.22599 14.9564 8.22599L10.6174 8.58757H10.527C10.527 8.58757 10.527 8.58757 10.4366 8.49718V8.40678V8.31638C10.7982 7.23164 11.1598 6.14689 11.7022 5.15254C12.1542 4.15819 12.7869 3.16384 13.5101 2.16949C14.1429 1.35593 14.866 0.903955 15.5892 0.632768C15.4988 0.903955 15.4988 0.99435 15.4084 0.99435C14.866 1.62712 14.5044 2.62147 14.5044 3.70622C14.5044 6.77966 15.6796 8.22599 16.9451 9.85311C17.1259 10.0339 17.3067 10.3051 17.4875 10.5763C17.3067 11.0282 17.0355 11.3898 16.7643 11.7514ZM20.4705 3.79661C20.4705 5.87571 19.205 8.13559 17.8491 10.2147C17.7587 10.0339 17.5779 9.85311 17.3971 9.67232C16.222 8.13559 15.1372 6.77966 15.1372 3.9774C15.1372 3.88701 15.1372 3.88701 15.1372 3.88701C15.1372 2.89266 15.4084 2.0791 15.8604 1.53672C16.3124 1.08475 16.8547 0.813559 17.5779 0.723164H17.9395C18.6626 0.813559 19.2954 1.08475 19.657 1.53672C20.1994 1.9887 20.4705 2.71186 20.4705 3.79661Z" fill="#26303B"/>
<path d="M23.0018 12.565C23.0922 12.4746 23.1826 12.4746 23.273 12.3842C23.3634 12.2938 23.3634 12.2034 23.3634 12.113C23.3634 12.0226 23.3634 11.9322 23.3634 11.7514C23.3634 11.661 23.273 11.5706 23.273 11.4802L21.3747 8.94917L25.0809 9.31075C25.1713 9.31075 25.2617 9.31075 25.3521 9.22036C25.4425 9.12996 25.5329 9.12996 25.6232 9.03956C25.7136 8.94917 25.7136 8.85877 25.7136 8.76838C25.7136 8.67798 25.7136 8.58759 25.7136 8.4068C25.3521 7.32205 24.9905 6.2373 24.4481 5.15256C24.2673 4.79098 24.0865 4.339 23.8153 3.97742L23.4538 4.51979C23.6346 4.79098 23.8153 5.15256 23.9057 5.42375C24.3577 6.4181 24.8097 7.50284 25.1713 8.58759V8.67798V8.76838C25.1713 8.76838 25.1713 8.85877 25.0809 8.85877C24.9905 8.85877 24.9905 8.85877 24.9905 8.85877L21.2843 8.49719C20.9227 8.49719 20.3803 8.58759 20.4707 8.85877L20.5611 9.03956L22.7306 11.9322C22.7306 11.9322 22.7306 11.9322 22.7306 12.0226V12.113V12.2034C22.7306 12.2034 22.7306 12.2034 22.6402 12.2034C21.6458 12.6554 20.3803 13.1074 19.2052 13.5593C18.2108 13.9209 17.2165 14.2825 16.4029 14.6441L15.7701 15.548C16.5837 15.1865 17.9396 14.5537 19.4764 14.0113C20.7419 13.4689 21.917 13.017 23.0018 12.565Z" fill="#26303B" stroke="#26303B" stroke-width="0.05" stroke-miterlimit="10"/>
</svg>
