<svg width="93" height="42" fill="none" xmlns="http://www.w3.org/2000/svg"><path d="M78.941 34.3v.8c0 .6-.5.9-.9.9l-4.4.1" stroke="#2D333D" stroke-width=".75" stroke-miterlimit="10"/><path d="M69.442 32.2c.5 0 .7-.3.7-.7 0-.4-.3-.7-.7-.7-.5 0-.7.3-.7.7.1.4.3.7.7.7Z" fill="#2D333D"/><path d="M78.941 34.5V31M70.041 39.5l-.7.6c-.4.3-1.1.4-1.4 0l-8.6-9c-.3-.3-.3-1 .1-1.3l1-.9" stroke="#2D333D" stroke-width=".75" stroke-miterlimit="10"/><path d="m69.941 39.2.6-.6 1.1-1-1.9-1.9c-.3-.3-.6-.8-.7-1.2v-.1h-.1c-.5-.1-.9-.3-1.2-.7l-5.7-5.9-1 1.1-.1.1c-.1.1-.4.3-.7.5l-.3-.4 4.1-3.7V5.8c0-.8.3-1.2.7-1.5.3-.3.9-.6 1.5-.6.5 0 .9.1 1.2.3l.3.2v-.8c0-1.4 1-2 2-2 .6 0 1 .2 1.5.6.2.2.5.5.6.9l.1.3.2-.2c.3-.2.8-.3 1.2-.3 1 0 2 .7 2 2v2.2l.3-.1s.8-.4 1.2-.4c.3 0 .7.1 1 .2.1 0 .3.1.3.1.5.4.8 1.1.8 1.7v3.3l4-3.6c.5-.3.9-.6 1.5-.6s1.1.2 1.6.7c.3.3.5.7.6 1.1l.1.3.7-.6c.5-.3.9-.6 1.5-.6s1.1.2 1.6.7c.3.3.6.9.6 1.4 0 .2 0 .7-.3 1l-.2.2h.3c.1 0 .2.1.3.1.7.2 1.4.8 1.5 1.6.2.7-.1 1.4-.7 1.9l-1.6 1.5h.5c.5.1.7.4 1 .7.3.3.6.9.6 1.4 0 .6-.2 1-.7 1.5-1.2 1.1-13.5 12.3-13.5 12.3-1.5 1.4-2.5 2.3-2.5 2.3l-1.2 1.1-1 .9-3.2 2.7-.5-.5Zm2.4-7.1c-.1.6-.3 1.1-.8 1.5-.5.5-1 .7-1.6.7h-.3l.1.2c.1.2.2.6.5.7l1.9 1.9 3.2-2.8-2-2c-.2-.2-.5-.3-.7-.5l-.2-.1-.1.4Zm12.2-24.5c-.3 0-.8.1-1 .5l-17.5 16 5.7 5.9c.3.3.6.8.7 1.2v.1h.1c.5.1.9.3 1.2.7l1.9 1.9.1-.1c2.2-2 13.9-12.8 15.6-14.3.8-.7.6-1.6.1-2.2-.3-.3-.7-.6-1.1-.6-.3 0-.7.2-1 .5l-6.1 5.5-.6-.2 4.3-4 4.4-4.1c.6-.6.6-1.1.5-1.4-.1-.6-.6-1-1.1-1.2-.1 0-.3-.1-.5-.1-.3 0-.7.1-1 .5l-7.8 7.1-.3-.3 8.7-7.9c.3-.3.6-.7.6-1.1 0-.3-.2-.7-.5-1-.3-.3-.7-.5-1-.6h-.1c-.3 0-.7.1-1 .5l-1.8 1.6-7.8 7.1-.3-.3 7.8-7.1c.8-.7.6-1.6 0-2.2-.4-.3-.9-.4-1.2-.4Zm-22.2 19.7 5.7 5.9c.2.2.6.5 1 .6.2 0 .3.1.6.1.6 0 1.1-.2 1.5-.6.5-.3.7-.9.7-1.5s-.2-1.1-.6-1.5l-5.7-5.9-3.2 2.9Zm9.3-13.7c-.7.1-1.2.6-2.3 1.6-1 1-4 4.6-4.8 5.8v3.7l.8-.8 6-5.5c1.2-1.1 1.9-2.2 1.9-2.8 0-.5-.2-.9-.8-1.5-.2-.2-.5-.3-.8-.5Zm-5.6-9.6c-.5 0-.8.1-1.1.3-.3.2-.5.7-.5 1.1V20l.3-.5c.7-.9 1.8-2.3 2.7-3.3l.3-.3-.2.2V5.6c0-.5-.1-.9-.5-1.1-.2-.3-.5-.5-1-.5Zm7.4-1.2c-.8 0-1.6.5-1.6 1.5V13h.2c.3.1.7.2 1 .6.6.6.9 1.2.9 1.8v.7l1.1-1V4.4c0-1.1-.9-1.6-1.6-1.6Zm-3.6-1.1c-.3 0-.8.1-1.1.3-.3.2-.5.7-.5 1.1v12.5l.3-.5.3-.3c.7-.7 1.5-1.4 2.3-1.7h.2V3.3c0-.5-.1-.9-.5-1.1-.2-.4-.7-.5-1-.5Zm7.2 4.8c-.3 0-.6.1-.8.2-.5.2-.7.7-.7 1.4v6.7l3.2-2.8V8c0-.5-.2-.9-.5-1.2-.1-.1-.3-.2-.5-.2-.2-.1-.4-.1-.7-.1Z" fill="#2D333D" stroke="#2D333D" stroke-width=".25" stroke-miterlimit="10"/><path d="M10.141 13.9c0-3.7 1-7.1 2.4-9.5 1.2-2.4 3.1-3.6 4.9-3.6 1.8 0 3.5 1.5 4.6 3.7 1.2 2.4 2 6 2 9.6.2 0 .5-.1.6-.1 0-3.8-.8-7.4-2.2-9.8-1.4-2.6-3.3-4.2-5.4-4.2-2.2 0-4.1 1.6-5.4 4.2-1.4 2.5-2.2 6-2.2 9.8.2.1.5.1.7.2v-.3Z" fill="#2D333D"/><path d="M34.041 14.3c-.1-.3-.4-.6-.7-.9-.3-.3-.5-.4-.9-.5-.4-.1-.6 0-1 0-1.6.2-3.2.7-4.6 1-.7.1-1.4.3-2.2.5V14.1h-.6v.9c0 .2.1.3.3.3h.1c.9-.2 1.7-.5 2.6-.6 1.5-.3 3.1-.8 4.6-1 .4-.1.5-.1.7 0l.6.3c.2.2.2.3.3.6.1.3.1.4.1.7-.2 3.3-.8 6.7-1.5 10.1-.8 3.4-1.8 6.9-2.8 10.5-.3 1.2-1 2.4-2 3.2-.9.8-2.2 1.4-3.4 1.6-1 .1-2 .2-3.3.3-1 .1-2.2.1-3.3.1-1.1 0-2.3 0-3.3-.1-1.1-.1-2.3-.2-3.2-.3-1.2-.3-2.3-.8-3.2-1.6-.9-.8-1.6-1.9-2-3.2-1-3.6-2-7.1-2.8-10.6-.8-3.4-1.4-6.8-1.5-10.1 0-.2 0-.5.1-.7.1-.2.2-.5.3-.6.1-.1.3-.2.6-.3h.7c1.6.2 3.1.7 4.6 1 .8.2 1.7.3 2.5.6.2.1.3-.1.3-.2v-.7c-.2-.1-.5-.1-.7-.2v.2c-.7-.1-1.4-.3-2.2-.5-1.6-.3-3.1-.8-4.6-1-.4-.1-.6-.1-1 0s-.7.2-.9.5c-.2.2-.5.5-.6.8-.1.3-.2.7-.1 1 .2 3.3.8 6.8 1.5 10.2.8 3.4 1.8 7 2.8 10.6.5 1.4 1.2 2.6 2.3 3.5 1 .9 2.4 1.5 3.8 1.8 1 .2 2 .3 3.3.5 1 .1 2.2.1 3.4.1 1.1 0 2.3 0 3.4-.1s2.3-.2 3.3-.5c1.5-.2 2.7-.9 3.8-1.8 1-.9 1.8-2.2 2.3-3.5 1-3.6 2-7.1 2.8-10.6.8-3.5 1.4-6.9 1.5-10.2 0-.2-.1-.5-.2-.8Z" fill="#2D333D"/><path d="M11.941 14.7c.1-3.4.7-6.6 1.6-8.8.9-2.2 2.3-3.6 3.6-3.6 1.3 0 2.7 1.4 3.6 3.6 1 2.2 1.6 5.3 1.6 8.7.3 0 .5-.1.8-.1-.1-3.4-.7-6.7-1.7-8.9-1.1-2.6-2.6-4.1-4.3-4.1-1.7 0-3.3 1.6-4.3 4.1-1 2.3-1.6 5.4-1.7 8.9.3 0 .5.1.8.2Z" fill="#2D333D"/><path d="M23.141 14.5c-.2 0-.5 0-.8.1v.3l-2.4.3c-.8.2-1.9.2-2.8.2-1 0-1.9 0-2.8-.1l-2.4-.3v-.2c-.2-.1-.5-.2-.8-.2v.8c0 .2.1.3.3.3.9.2 1.8.3 2.7.5.9.1 1.9.1 2.9.1s2 0 2.9-.1c.9-.1 1.8-.2 2.7-.5.2 0 .3-.2.3-.3.2-.4.2-.7.2-.9Z" fill="#2D333D"/></svg>