<svg width="71" height="48" fill="none" xmlns="http://www.w3.org/2000/svg"><path d="M3.736 4.89V.237c0-.158.08-.237.237-.237h1.42c.157 0 .236.158.236.237v4.81M10.597 5.126V.394c0-.315.08-.394.237-.394h1.42c.157 0 .236.079.236.237v4.731M5.393 4.968h5.441M5.235 20.505c0 2.681-1.656 4.81-3.786 4.81M10.834 20.505c0 2.681 1.656 4.81 3.786 4.81" stroke="#26303B" stroke-width=".75" stroke-miterlimit="10"/><path d="M7.916 29.574 6.181 46.53" stroke="#26303B" stroke-width=".75" stroke-miterlimit="10" stroke-linecap="round"/><path d="M12.49 4.968c0 1.972 1.104 3.47 2.445 3.47M3.736 4.89c0 1.972-1.025 3.628-2.366 3.628" stroke="#26303B" stroke-width=".75" stroke-miterlimit="10"/><path d="M1.37 8.517 1.213 18.77M14.856 8.517l-.079 10.252M1.213 18.77h13.485" stroke="#26303B" stroke-width=".75" stroke-miterlimit="10" stroke-linecap="round"/><path d="M14.62 20.505H1.37a.17.17 0 0 1-.157-.158v-1.498a.17.17 0 0 1 .157-.158h13.25a.17.17 0 0 1 .157.158v1.498c0 .158-.079.158-.157.158ZM10.992 15.142H5.235c-.158 0-.237-.08-.237-.237l-.867-4.1c-.08-.159.078-.316.236-.316h7.413c.158 0 .316.157.237.315l-.789 4.101c0 .158-.079.237-.236.237Z" stroke="#26303B" stroke-width=".75" stroke-miterlimit="10"/><path d="m1.45 20.505-.237 27.444M14.62 20.505l-.158 25.63M9.493 46.53 7.837 29.574" stroke="#26303B" stroke-width=".75" stroke-miterlimit="10" stroke-linecap="round"/><path d="m6.181 46.214-.158 2.05a.54.54 0 0 1-.552.553H1.765a.54.54 0 0 1-.552-.552v-2.603M9.493 46.135l.08 2.05a.54.54 0 0 0 .551.553h3.707a.54.54 0 0 0 .552-.552v-2.603" stroke="#26303B" stroke-width=".75" stroke-miterlimit="10"/><path d="M57.443 15.379C69.825 26.814 71.48 40.615 68.957 46.845M45.298 15.379C32.916 26.814 31.18 40.458 33.784 46.767M42.459 6.31c-.631-4.496 6.624-5.285 9.227-1.42M60.124 6.31c-.552-4.023-5.6-5.364-8.754-2.051M42.459 6.31c2.208 4.1 2.444 6.86 2.839 8.99M60.124 6.31c-2.445 4.495-2.366 7.334-2.602 8.911M57.837 24.448c-.394.552-.789.946-.63 1.893.315 1.577 1.97 1.183 2.286 2.76.316 1.577-1.42 1.893-1.104 3.391.316 1.577 1.972 1.183 2.287 2.76.316 1.578-1.42 1.893-1.104 3.392.316 1.577 1.972 1.183 2.287 2.76.316 1.577-1.42 1.893-1.104 3.391M55.55 29.416c.237 1.104-1.42 1.42-1.262 2.445.237 1.104 1.893.71 2.13 1.814.236 1.104-1.42 1.42-1.262 2.445.236 1.104 1.892.71 2.129 1.814.237 1.104-1.42 1.42-1.262 2.444.237 1.105 1.893.71 2.13 1.814.236 1.104-1.42 1.42-1.262 2.445M41.591 31.467c-.394 1.104-2.05.552-2.366 1.656-.394 1.104 1.262 1.656.868 2.76-.395 1.104-2.05.552-2.366 1.656-.394 1.104 1.262 1.657.867 2.76-.394 1.105-2.05.553-2.366 1.657-.394 1.104 1.262 1.656.868 2.76-.394 1.104-2.05.552-2.366 1.656" stroke="#2D333D" stroke-width=".75" stroke-miterlimit="10" stroke-linecap="round"/><path d="M33.941 46.767c1.262 0 1.262.63 2.524.63s1.262-.63 2.524-.63 1.262.63 2.523.63c1.262 0 1.262-.63 2.524-.63s1.262.63 2.524.63c1.261 0 1.261-.63 2.523-.63 1.262 0 1.262.63 2.524.63s1.262-.63 2.524-.63c1.261 0 1.261.63 2.523.63 1.262 0 1.262-.63 2.524-.63s1.262.63 2.524.63c1.261 0 1.261-.63 2.523-.63 1.262 0 1.262.63 2.524.63s1.262-.63 2.524-.63M45.771 15.379c4.259 2.208 8.596.867 11.435 0" stroke="#2D333D" stroke-width=".75" stroke-miterlimit="10" stroke-linecap="round"/></svg>