<svg width="93" height="48" fill="none" xmlns="http://www.w3.org/2000/svg"><path d="M78.414 7.322c.904.452 1.808.814 2.712 1.175 1.266.543 2.622 1.085 3.887 1.808 0 0 .09 0 .09.09 3.345 3.436 4.972 15.006 6.328 24.679.272 1.898.543 3.706.814 5.514v.18c0 .09 0 .09-.09.181 0 .09-.091.09-.181.181 0 0-.09 0-.181.09l-4.972.633c-.18 0-.271 0-.361-.09-.09-.09-.181-.18-.181-.271L84.29 28.475l.09 12.113v.18c0 .09-.09.09-.09.181 0 .09-.09.09-.18.09H63.318c-.091 0-.091-.09-.181-.09 0 0-.09-.09-.09-.18v-.181l.09-12.113-2.08 13.107c0 .09-.09.18-.18.271-.09.09-.181.09-.362.09l-4.972-.632c-.09 0-.09 0-.18-.09-.09 0-.09-.09-.181-.181 0-.09-.09-.09-.09-.181v-.18c.27-1.809.542-3.707.813-5.515 1.265-9.672 2.892-21.333 6.237-24.678 0 0 .09 0 .09-.09 1.266-.724 2.622-1.266 3.888-1.808.904-.362 1.807-.723 2.711-1.175V6.147c0-.452.543-.904 1.537-1.175.814-.271 1.989-.362 3.254-.362 1.266 0 2.441.181 3.255.362.903.271 1.536.723 1.536 1.175v1.175ZM58.075 40.77c-.18 0-.27-.09-.27-.272 0-.18.18-.27.27-.27.181 0 .271.09.271.27.09.09-.09.272-.27.272Zm-.09.27c.18 0 .271 0 .452-.09.09-.09.18-.18.18-.361s0-.271-.09-.452c-.09-.09-.18-.181-.361-.181l-2.35-.271c-.091.361-.09.813-.181 1.175.813 0 1.627.09 2.35.18Zm-2.08-1.988 2.351.271c.271 0 .542.181.723.452.181.181.272.543.181.814v.09c0 .18-.09.362-.18.543l1.536.18 2.622-16.813V20.88l-.904-9.491c-2.893 3.797-4.43 14.735-5.695 23.864-.272 1.266-.452 2.622-.633 3.797Zm7.775-14.463-.09 16h9.762v-29.74c-.09 0-.18-.09-.271-.181-.18-.18-.271-.362-.271-.543 0-.18.09-.632.271-.903-.994 0-1.989-.181-2.621-.362-.633-.18-1.176-.452-1.356-.814-.814.452-1.718.814-2.622 1.176-1.175.542-2.44 1.084-3.616 1.717l.995 9.943-.181 3.707ZM77.872 6.96c-.271.18-.542.27-.994.361-.272.09-.633.181-.995.271.09.181.181.362.181.543v.271c.271-.09.542-.09.814-.18.723-.182 1.084-.453 1.084-.634l-.09-.632Zm-8.497 0v.632c0 .181.452.452 1.085.633.813.181 1.898.362 3.073.362.542 0 .994 0 1.537-.09.09 0 .18-.091.18-.181.09-.09.09-.181.09-.272 0-.09-.09-.18-.09-.27-.09-.091-.18-.091-.27-.091-.453 0-.905.09-1.357.09-1.265 0-2.44-.18-3.254-.361a4.4 4.4 0 0 1-.633-.272h-.09c-.09-.09-.18-.18-.271-.18Zm4.248-1.899c-1.175 0-2.35.181-3.163.362-.724.18-1.085.452-1.085.633 0 .09.18.27.361.361.452-.18.995-.27 1.627-.452.633-.09 1.447-.18 2.26-.18a15 15 0 0 1 2.17.18c.633.09 1.175.271 1.627.452.271-.18.361-.27.361-.361 0-.181-.451-.452-1.084-.633a12.981 12.981 0 0 0-3.074-.362ZM70.731 6.87c.813.181 1.808.271 2.983.271s2.17-.09 2.983-.27c-.271-.091-.543-.182-.814-.182-.632-.09-1.356-.18-2.079-.18-.723 0-1.537.09-2.17.18-.451 0-.722.09-.903.181Zm3.525 2.26c.18.271.271.723.271.904a.82.82 0 0 1-.27.633c-.091.09-.182.18-.363.18v29.65h9.763l-.09-15.91v-3.796l.994-9.943c-1.175-.633-2.44-1.176-3.616-1.718a33.366 33.366 0 0 1-2.621-1.175c-.18.362-.723.633-1.356.814-.723.18-1.718.361-2.712.361Zm-.813 1.085c0 .09.09.09.18.09s.181 0 .181-.09c0 0 .09-.09.09-.18 0-.182-.09-.453-.18-.634-.09-.09-.09-.18-.09-.18s0 .09-.091.18c-.09.271-.18.543-.18.633 0 .09 0 .18.09.18Zm-8.588 6.418h6.418c.18 0 .271.09.362.18.09.091.09.181.09.272v.723c0 .18-.09.271-.18.362-.091.09-.181.18-.362.18h-6.418c-.181 0-.272-.09-.362-.18-.09-.09-.18-.181-.18-.362v-.633c0-.18.09-.27.18-.361.18-.09.362-.181.452-.181Zm6.328.633h-6.238v.633h6.238v-.633Zm-6.78 20.43 1.266-8.498c0-.09.09-.271.18-.271.09-.09.181-.09.362-.09l.723.09c.09 0 .18.09.271.18.09.09.09.181.09.362l-1.174 8.497c0 .181-.09.271-.181.271-.09.09-.271.09-.362.09l-.723-.09c-.09 0-.271-.09-.271-.18-.181-.09-.181-.181-.181-.362Zm1.808-8.317-1.266 8.406.633.09 1.266-8.406-.633-.09Zm8.768-20.972c-.18 0-.27-.09-.27-.271 0-.181.09-.271.27-.271.181 0 .272.09.272.27 0 .182-.09.272-.272.272Zm7.322 8.859h-6.237v.633h6.237v-.633Zm-6.327-.633h6.418c.18 0 .27.09.361.18.09.091.181.181.181.362v.723c0 .181-.09.272-.18.362-.091.09-.181.18-.362.18h-6.418c-.181 0-.272-.09-.362-.18-.09-.09-.18-.18-.18-.362v-.723c0-.18.09-.27.18-.361.18-.09.271-.181.362-.181Zm13.288 24.136c-.181 0-.271-.09-.271-.272 0-.18.09-.27.27-.27.182 0 .272.09.272.27 0 .181-.18.272-.271.272Zm2.35 0c-.09-.362-.09-.724-.18-1.176l-2.351.272c-.18 0-.271.09-.362.18-.09.09-.18.272-.09.452 0 .181.09.272.18.362.091.09.272.18.453.09.813 0 1.537-.09 2.35-.18Zm-3.345.452c-.09-.181-.18-.272-.18-.543v-.09c0-.271.09-.633.18-.814.181-.271.452-.361.724-.452l2.35-.271c-.18-1.175-.362-2.44-.542-3.797-1.266-9.13-2.803-20.067-5.695-23.864l-.995 9.401v3.706l2.622 16.904 1.536-.18Zm-5.966-3.526-1.265-8.407-.633.09 1.266 8.407.632-.09Zm-.723-8.497 1.266 8.497c0 .09 0 .271-.09.362-.091.09-.181.18-.272.18l-.723.09c-.09 0-.271 0-.362-.09-.09-.09-.18-.18-.18-.27l-1.266-8.498c0-.18 0-.271.09-.361.09-.09.181-.181.272-.181l.723-.09c.18 0 .271 0 .361.09.09 0 .181.09.181.27ZM27.883 46.554a.772.772 0 0 1-.633 0l.09.632H16.675V33.085h-.633v14.101H8.448v-.18h-.361.09c-.09 0-.09.09-.181.09h-.09l-.09.542c0 .181.18.362.36.362h19.617c.18 0 .361-.18.361-.362l-.271-1.084ZM9.894 21.695c0-.09 0-.09.09-.09.091-.362.182-.814.182-1.176 0-.18.09-.27.18-.361-.09-.09-.09-.181-.27-.271-.182 0-.362.09-.362.27L8.086 31.097v.09L6.64 41.04l-5.152-.361.09-.814 3.073.272c.272 0 .543-.09.724-.272.18-.18.361-.452.361-.723 0-.271-.09-.542-.271-.813-.18-.181-.452-.362-.723-.362l-2.983-.271 3.616-26.848c.09-.27.09-.542.27-.723.091-.18.362-.361.543-.542l3.797-1.175c-.09-.181.271-.633.271-.814L6.098 9.04c-.362.181-.543.452-.814.724-.18.27-.271.632-.361.994L1.216 37.966l-.18 1.446-.181 1.447c0 .18.09.361.271.361l5.785.452c.181 0 .362-.09.362-.27l2.621-19.707ZM1.85 38.328l2.983.27c.09 0 .181.091.271.091.09.09.09.181.09.271 0 .09-.09.181-.09.272-.09.09-.18.09-.27.09l-3.074-.271.09-.723ZM35.205 40.859l-.18-1.447-.181-1.446-3.707-27.209c-.09-.362-.18-.723-.361-.994a2.134 2.134 0 0 0-.814-.724l-4.61-1.446c0 .18.271.633.271.814l4.068 1.175c.271.18.452.361.543.542.09.181.18.452.27.723l3.616 26.848-2.982.271c-.272 0-.543.18-.724.362-.18.18-.27.452-.27.813 0 .271.18.543.36.723.181.181.453.272.724.272l3.164-.362.09.813-5.152.362-.995-7.503v-.09l-1.898-13.288c0-.181-.18-.362-.362-.271-.18 0-.27.18-.27.361v.18l.18.182c.18.361.271.904.271 1.265l2.712 19.616c0 .18.18.362.362.271l5.785-.452s.09-.18.09-.361Zm-3.887-1.447c-.09 0-.18 0-.27-.09-.091-.09-.091-.18-.091-.271 0-.09 0-.181.09-.271.09-.09.18-.09.271-.09l2.983-.272.09.814-3.073.18ZM16.041 30.824l.633-.09-1.446-14.283c-.181-.361-.452-.361-.633-.361l1.446 14.734Z" fill="#26303B"/><path d="m25.804 20.158-.452 10.938M25.352 31.186l2.44 16.181M9.985 20.158l.542 11.028M10.527 31.186l-2.44 16.181M10.437 29.288c0 .814 2.44 1.627 5.152 1.989M10.437 30.644c0 .814 2.35 1.627 5.152 1.898M25.352 29.288c0 1.085-3.887 2.08-7.413 2.08M25.352 30.644c0 1.085-3.977 1.989-7.503 1.989M15.499 32.633c-2.44 6.237-3.254 11.57-1.808 12.294" stroke="#26303B" stroke-width=".75" stroke-miterlimit="10" stroke-linecap="round"/><path d="M16.403 33.265c-2.44 6.147-3.164 11.21-1.718 11.842M13.691 44.926l.904.272M17.488 33.175H16.04c-.09 0-.18-.09-.18-.18v-1.99c0-.09.09-.18.18-.18h1.447c.09 0 .18.09.18.18v1.99c0 .09-.09.18-.18.18Z" stroke="#26303B" stroke-width=".75" stroke-miterlimit="10" stroke-linecap="round"/><path d="M23.182 2.802s-.452-.633-.632-.813C21.826.994 21.013.542 20.2.27A11.044 11.044 0 0 0 17.85 0c-.724 0-1.538.09-2.26.271-.814.271-1.628.814-2.351 1.718l-.362.361c-.09.271-.18.362-.361.543-.181.18-.181.27-.362.542l-.09.18-.09.091-.091.09c-.271.543-.542.995-.814 1.537-.452 1.085-.904 2.17-1.265 3.255-.09.09-.09.18 0 .361 0 .09.09.18.09.271.09.09.181.09.271.181.09.09.181.09.272.09l2.44-.18h.271c.09 0 .181 0 .272-.09h.18l.724-.091-.633.813c0-.09-.09 0-.09.09 0 .091-.09.182-.272.272l-.09.09-.904 1.176c-.09.09-.09.18-.09.27v.362c0 .09.09.181.09.272.09.09.18.09.271.18.362.09.723.272.995.362h.27c.091 0 .091 0 .181.09.181.09.181.09.272.09h.09c.362.091.723.272 1.085.362-.362.543-.543 1.085-.723 1.447-.09.18-.09.27-.181.452-.09.452-.09.632-.09.994l.09.271h.633v-.271c0-.362 0-.542.09-.542.09-.09.904-.724 1.266-.814l.09-.633c-.452.181-.814.452-1.175.633.271-.723.994-1.717 1.808-2.893 1.627-2.44 3.796-5.423 3.796-8.316v-.09c0-1.085-.27-2.08-.904-2.712l-.09-.09a4.617 4.617 0 0 1 2.08 1.536c.451.633.903 1.356 1.355 2.08l.452-.543c-.09-.181-.633-.904-.814-1.266Zm-6.418 8.95c-.361.542-.632.994-.904 1.446a25.05 25.05 0 0 0-1.446-.543c-.542-.18-.994-.361-1.446-.632h-.09v-.271l2.35-3.074c.09-.09.09-.271-.09-.362-.091-.09-.091-.09-.182-.09l-4.339.362h-.09l-.09-.09v-.181c.361-1.085.723-2.17 1.265-3.164.452-.995 1.085-1.99 1.808-2.984A4.617 4.617 0 0 1 15.59.633c-.091.271-.091.361-.182.361-.542.633-.904 1.627-.904 2.712 0 3.074 1.176 4.52 2.441 6.147.18.18.362.452.543.723-.181.452-.453.814-.724 1.175Zm3.707-7.955c0 2.079-1.266 4.339-2.622 6.418-.09-.181-.271-.362-.452-.543-1.175-1.536-2.26-2.892-2.26-5.695v-.09c0-.994.271-1.808.723-2.35.452-.452.995-.723 1.718-.814h.361c.724.09 1.356.362 1.718.814.542.452.814 1.175.814 2.26Z" fill="#26303B"/><path d="M23.002 12.565c.09-.09.18-.09.271-.18.09-.091.09-.182.09-.272v-.362c0-.09-.09-.18-.09-.27l-1.898-2.532 3.706.362c.09 0 .18 0 .271-.09.09-.091.18-.091.271-.181.09-.09.09-.181.09-.272v-.361c-.36-1.085-.723-2.17-1.265-3.254-.18-.362-.361-.814-.633-1.176l-.361.543c.18.271.361.633.452.904.452.994.904 2.079 1.265 3.164v.18s0 .09-.09.09h-.09l-3.707-.36c-.361 0-.904.09-.813.36l.09.182 2.17 2.892v.271h-.09c-.995.452-2.26.904-3.436 1.356-.994.362-1.988.724-2.802 1.085l-.633.904c.814-.361 2.17-.994 3.706-1.537 1.266-.542 2.441-.994 3.526-1.446Z" fill="#26303B" stroke="#26303B" stroke-width=".05" stroke-miterlimit="10"/></svg>