<svg width="123" height="43" viewBox="0 0 123 43" fill="none" xmlns="http://www.w3.org/2000/svg">
<path d="M1.3 0.900024C1.2 0.900024 1 1.00002 1 1.10002V41.5C1 41.6 1.1 41.7 1.3 41.7H11.6C11.8 41.7 11.9 41.6 11.9 41.5C11.9 41.5 11.9 41.5 11.9 41.4L9.5 30.5L9.1 28.5L9.3 28.4C11.1 27.8 12.8 26.8 14.3 25.4C16.6 23.2 18.4 20 19.7 15.9C21 11.8 21.7 7.00002 21.8 1.50002V1.40002H25.2C25 1.30002 25 1.10002 25 0.900024H1.3ZM1.6 28.8L5.2 29C5.5 29 5.9 29 6.1 29H6.5C7.1 29 7.7 28.9 8.3 28.7L8.5 28.6L8.9 30.3L8.7 30.4C7.7 30.6 6.7 30.6 5.6 30.7C5.4 30.7 5.3 30.7 5.1 30.7C4.1 30.6 3.1 30.6 1.8 30.3L1.6 30.2V28.8ZM11.3 41.2H1.6V30.7L1.8 30.8C3.1 31.1 4.3 31.2 5.4 31.2C5.5 31.2 5.6 31.2 5.6 31.2C6.7 31.2 7.8 31.1 8.8 30.9H9L11.3 41.2ZM19.2 15.6C18 19.5 16.3 22.9 14 25C12.2 26.8 9.9 27.9 7.4 28.3C6.8 28.4 6.3 28.4 5.7 28.4L3.2 28.3C3 28.3 2.8 28.3 2.6 28.2L1.6 28.1V1.40002H21.2C21.1 6.70002 20.4 11.6 19.2 15.6Z" fill="#2D333D" stroke="#2D333D" stroke-width="0.25" stroke-miterlimit="10"/>
<path d="M25 0.900024C25 1.00002 25 1.20002 24.8 1.40002H28.2001V1.60002C28.3001 7.10002 29 12 30.3 16C31.6 20.1 33.4001 23.2 35.7001 25.5C37.2001 26.9 38.9001 27.9 40.7001 28.5L40.9001 28.6L40.5 30.6L38.1 41.4C38.1 41.4 38.1 41.4 38.1 41.5C38.1 41.6 38.2001 41.7 38.4001 41.7H48.7001C48.9001 41.7 49 41.6 49 41.5V1.20002C49 1.00002 48.9001 1.00002 48.7001 1.00002L25 0.900024ZM48.3 30.2L48.1 30.3C46.8 30.6 45.7 30.6 44.8 30.7C44.6 30.7 44.5 30.7 44.3 30.7C43.2 30.6 42.2001 30.6 41.2001 30.4H41L41.4001 28.7L41.6 28.8C42.2 28.9 42.8001 29 43.4001 29.1H43.7001C44 29.1 44.4 29.1 44.6 29.1L48.2001 28.9L48.3 30.2ZM40.8 30.8H41C42 31 43.1 31.1 44.2001 31.1C44.3001 31.1 44.4001 31.1 44.4001 31.1C45.6001 31.1 46.7001 31 48 30.7L48.2001 30.6V41.1H38.4001L40.8 30.8ZM28.7001 1.40002H48.3V28.2L47.3 28.3C47.1 28.3 46.9001 28.3 46.7001 28.4H44.2001C43.6 28.4 43.1 28.4 42.5 28.3C40 27.9 37.7001 26.8 35.9001 25C33.6001 22.8 31.9001 19.5 30.7001 15.6C29.5001 11.6 28.8001 6.80002 28.7001 1.40002Z" fill="#2D333D" stroke="#2D333D" stroke-width="0.25" stroke-miterlimit="10"/>
<path d="M84.7 38.8001C84.5 38.8001 84.3 38.6 84.3 38.4V18.2C84.3 18 84.5 17.8 84.7 17.8C84.9 17.8 85 18 85.1 18.1V38.4C85.1 38.7 84.9 38.8001 84.7 38.8001Z" fill="#2D333D"/>
<path d="M74.1 41.9C73.9 41.9 73.7 41.7 73.7 41.5V3.4C73.7 3.3 73.8 3.1 73.9 3C74 3 74.1 2.9 74.2 2.8L74.3 2.7V1.8H70.4C70.2 1.8 70 1.7 70 1.4C70 1.2 70.2 1 70.4 1H74.3V0.4C74.3 0.2 74.4 0 74.7 0C74.9 0 75.1 0.2 75.1 0.4V1.2H81.5V0.4V0.299999C81.5 0.199999 81.5 0 81.5 0C81.5 0 81.5 0 81.6 0C81.8 0 82 0.2 82 0.4V1.2H88.4V0.4C88.4 0.2 88.5 0 88.8 0C89 0 89.2 0.2 89.2 0.4V1.2H95.5V0.4C95.5 0.2 95.6 0 95.9 0C96.1 0 96.3 0.2 96.3 0.4V1.2H102.7V0.4C102.7 0.2 102.8 0 103.1 0C103.4 0 103.5 0.2 103.5 0.4V1.2H109.9V0.4C109.9 0.2 110 0 110.3 0C110.6 0 110.7 0.2 110.7 0.4V1.2H117.1V0.4C117.1 0.2 117.2 0 117.5 0C117.7 0 117.9 0.2 117.9 0.4V1.2H121.8C122 1.2 122.2 1.3 122.2 1.6C122.2 1.8 122 2 121.8 2H117.9V3.2H118.1C118.1 3.2 118.1 3.2 118.2 3.2C118.2 3.2 118.3 3.2 118.3 3.3C118.4 3.4 118.5 3.5 118.5 3.6V41.7C118.5 41.9 118.3 42.1 118.1 42.1H74.1V41.9ZM74.4 41.2H117.5V3.7C117.5 3.5 117.4 3.4 117.2 3.4C116.4 3.9 115.1 4.2 113.7 4.2C112.7 4.2 111.7 4 110.9 3.7C110.8 3.6 110.6 3.5 110.4 3.5H110.3C110.2 3.5 110.1 3.5 110 3.6C109.9 3.6 109.8 3.6 109.7 3.7C108.9 4.1 107.9 4.3 106.8 4.3C105.4 4.3 104.2 4 103.3 3.5L103.2 3.4L103.1 3.5C102.3 4 101 4.3 99.6 4.3C98.5 4.3 97.5 4.1 96.7 3.7L96.5 3.6C96.4 3.5 96.3 3.4 96 3.4C95.8 3.4 95.6 3.5 95.5 3.6C95.3 3.7 95.2 3.7 95.1 3.8C94.2 4.1 93.4 4.3 92.5 4.3C91.1 4.3 89.9 4 89 3.5L88.9 3.4H88.8C88 3.9 86.7 4.2 85.3 4.2C84.2 4.2 83.2 4 82.4 3.6H82.3C82.3 3.6 82.2 3.5 82.1 3.5C82 3.5 81.9 3.5 81.9 3.5H81.8C81.6 3.5 81.4 3.6 81.3 3.7C80.5 4.1 79.5 4.3 78.4 4.3C77 4.3 75.8 4 74.9 3.5L74.5 3.3V3.5H74.4V41.2ZM110.5 2.8C111.3 3.3 112.5 3.6 113.7 3.6C115 3.6 116.1 3.4 116.8 2.9L116.9 2.8V1.7H110.5V2.8ZM103.4 2.8C104.2 3.3 105.4 3.6 106.6 3.6C107.9 3.6 109 3.4 109.7 2.9L109.8 2.8V1.7H103.4V2.8ZM96.3 2.8C97.1 3.3 98.3 3.6 99.5 3.6C100.8 3.6 101.9 3.4 102.6 2.9L102.7 2.8V1.7H96.3V2.8ZM89.2 2.8C90 3.3 91.2 3.6 92.4 3.6C93.7 3.6 94.8 3.4 95.5 2.9L95.6 2.8V1.7H89.2V2.8ZM82.1 2.8C82.9 3.3 84.1 3.6 85.3 3.6C86.6 3.6 87.7 3.4 88.4 2.9L88.5 2.8V1.7H82.1V2.8ZM75.1 2.8C75.9 3.3 77.1 3.6 78.3 3.6C79.6 3.6 80.7 3.4 81.4 2.9L81.5 2.8V1.7H75.1V2.8Z" fill="#2D333D"/>
<path d="M96.6 39C96.4 39 96.2 38.8 96.2 38.6V18.3C96.2 18.1 96.4 17.9 96.6 17.9C96.8 17.9 96.9 18.2 97 18.3V38.5C97 38.8 96.8 39 96.6 39Z" fill="#2D333D"/>
<path d="M109.6 38.8001C109.4 38.8001 109.2 38.6 109.2 38.4V18.2C109.2 18 109.4 17.8 109.6 17.8C109.8 17.8 109.9 18 110 18.1V38.4C110 38.7 109.8 38.8001 109.6 38.8001Z" fill="#2D333D"/>
</svg>
