<svg width="142" height="42" fill="none" xmlns="http://www.w3.org/2000/svg"><path d="M141.307 32.554c0-.231-.231-.462-.347-.578l-.462-.347c-.462.231-1.618.81-1.733.81-7.395 2.541-14.674 3.234-18.718 3.581-3.12.231-6.355.115-9.474-.578-3.929-.809-9.359-1.848-13.172-2.08a79.403 79.403 0 0 1-6.124-.577v-.116c-2.08-3.004-3.12-8.896-3.582-11.554l31.543 6.355h.116c.115 0 .231 0 .346-.116.116-.115.231-.23.231-.346l.347-2.427s.116-1.04.116-1.155c-.116-.347-.116-.693.115-1.04-.115-.23-.231-.346-.346-.578-.116 0-.347.116-.463.116-.115.462-.808 4.16-.808 4.16l-30.85-6.24c-.115.578-.462 1.04-.578 1.618.116.23.116.578.116.809-.116.693-.347 1.502-.347 2.195.578 2.542 1.387 5.661 2.658 7.857-1.156-.231-2.08-.347-2.658-.463-.115.232-.23.463-.577.694.115.115 0 .23 0 .346 1.502.347 5.892 1.271 10.745 1.502 3.697.116 9.128 1.156 12.941 1.965 2.31.462 4.621.693 6.932.693.924 0 1.964 0 2.889-.116 4.044-.346 11.438-1.04 18.948-3.697.116 0 .347-.115.462-.231.347-.231 1.503-.462 1.618-.578 0 .231 0 .231.116.116-.116.115-.116.115 0 0 0 0 0 .115 0 0ZM103.871 3.784c-.115-.231-.115.23 0 0h-.231c-.231.115-.346.115-.462.115h-.115c-.116 0 .115-.462-.347.116l.115 5.661c0 .463-.115.925-.577 1.387a1.915 1.915 0 0 1-1.387.578l-12.594.115v1.04s0 .116.116.116v-.116l12.478.116c.809 0 1.618-.347 2.196-.925.577-.577.924-1.386.808-2.195V3.784ZM105.951 1.011a1.541 1.541 0 0 0-.809-.924 1.968 1.968 0 0 0-1.155 0l-1.733.808s-.116 0-.116.116l-2.542 2.542-.577.115c0 .232.115.463.115.578h.231l.347-.115c.115-.116.347-.116.462-.231.231-.116.578-.232.809-.232.115-.346 0-.346.462-.346l1.387-1.387 1.733-.808h.231s.115 0 .115.115l.347 1.271h-.231v.116h.115c.347 0 .578.115.809.346.116-.115.347-.23.462-.346l-.462-1.618Z" fill="#2D333D"/><path d="M141.307 32.785c0-.116-.116-.116-.116-.231l-.693-.578v-.231c0-.809-.231-2.542-1.386-3.928a5.225 5.225 0 0 0-3.004-1.733c-.925-.232-1.965-.347-2.889-.232h-1.618c-2.888 0-7.048-.462-10.629-2.31l-.231-.116-.116-.115c-.462-.925-.924-1.734-1.502-2.427l-.231-.23-.693-.694-.463-.462a5.118 5.118 0 0 0-1.27-.925l-.347-.23-.462-.347-.578-.347h-.116c-.346-.231-.577-.347-.924-.693-.231-.231-.462-.462-.693-.809l-3.351-5.315c-.231-3.004-.462-5.893-.462-5.893-.115-1.04-.924-1.964-2.08-2.08l-.924-.115-2.657-.346c-.116 0-.232.115-.232.23l-.231.578-16.06 1.965c-.115 0-.23.115-.23.346l.692 6.933v.115c.694 2.196-1.155 11.67-1.155 11.785v.231c-1.04 2.08-.347 6.24-.116 7.51v.347l-.924.925s-.115.115-.115.23v5.893c0 .81.693 1.502 1.617 1.502h13.634a.249.249 0 0 0 .231-.23l.809-2.89 11.207 1.965.347 1.27c0 .116.115.232.231.232s1.849.115 4.391.115c6.354 0 17.908-.693 23.917-4.968.115 0 .115-.115.115-.23-.231-.694-.578-3.005-.693-3.467Zm-.462 3.466c-5.893 3.928-17.1 4.506-23.224 4.506H113.693l-.347-1.155c0-.116-.116-.231-.231-.231l-11.67-2.08a.249.249 0 0 0-.231.231l-.809 2.889H86.887c-.578 0-1.04-.462-1.04-.925V33.71l.924-.924.116-.347c-.347-1.617-1.04-5.892 0-7.625V24.466l.462-3.813.231-.462c.578-3.697.694-6.24.462-7.395l.116-.924-.462-6.124 16.176-1.964.115-.115.231-.578 3.235.462c.809.116 1.502.809 1.502 1.618 0 0 .347 3.812.578 5.661.116.693.693 1.733.809 1.849.578 1.04 2.08 3.004 2.888 4.275.347.578.925 1.04 1.618 1.27.115 0 .115 0 .231.116l.462.231.462.347.694.462c.462.347 1.039.809 1.502 1.271l.231.231.462.462.693 1.156c.231.462.809 1.502.809 1.502l.693.346c3.582 1.733 7.626 2.196 10.399 2.196h1.849c.577 0 1.27 0 1.848.115 1.387.231 2.542.809 3.351 1.733 1.386 1.618 1.271 4.044 1.271 4.044l.809.347.462 3.35-.231.116Z" fill="#2D333D" stroke="#2D333D" stroke-width=".25" stroke-miterlimit="10"/><path d="M109.533 6.904c.578 0 .925-.462.925-.925 0-.577-.463-.924-.925-.924-.577 0-.924.462-.924.924-.116.463.347.925.924.925Z" fill="#2D333D"/><path d="M109.533 6.326c.231 0 .347-.115.347-.347 0-.23-.116-.346-.347-.346-.231 0-.347.115-.347.346-.115.116.116.347.347.347ZM109.995 10.716c.578 0 .924-.462.924-.924 0-.578-.462-.924-.924-.924-.578 0-.924.462-.924.924-.116.462.346.924.924.924Z" fill="#2D333D"/><path d="M109.995 10.139c.231 0 .347-.116.347-.347 0-.231-.116-.347-.347-.347-.231 0-.347.116-.347.347 0 .231.116.347.347.347Z" fill="#2D333D"/><path d="m117.274 19.613-1.502 2.542M115.079 17.533l-1.618 2.542M113.808 16.147l-1.502 2.195M113.23 14.992l-2.079 1.964M111.844 13.836l-1.849 1.733" stroke="#2D333D" stroke-width=".75" stroke-miterlimit="10" stroke-linecap="round"/><path d="M53.38 22.155s-.116 0 0 0c-.693-1.502-1.849-2.31-3.35-2.888-1.387-.578-3.12-.81-4.738-.925-.693-.115-1.27-.115-1.849-.23-.346 0-.577-.116-.924-.232-.23-.115-.462-.115-.578-.115-.23.23-.346.577-.462.924.231.116.578.116.81.231.23 0 .461.116.692.116l.925 2.888h.115c-.924-.116-1.849-.346-2.657-.578-.81-.23-1.618-.577-2.542-.924l-15.483-6.701c-.23-.116-.462 0-.693.115-1.386 1.618-3.004 3.004-4.737 4.044-1.733.925-3.582 1.502-5.43 1.618-.347 0-.578.23-.578.577 0 .116.115.232.115.347 1.733 2.08 2.773 4.39 3.235 5.546h-1.733c-4.16-.116-8.319-.116-12.132-.116-.115-1.848 0-3.812.347-5.892.116-.462.116-.693.462-1.271 1.04-1.849 2.427-1.271 3.813-.578.347.231.809.347 1.156.462 1.617.578 3.004.463 3.928-2.31.693.115 1.386.115 2.08-.116 1.27-.231 2.542-.809 3.697-1.733 1.271-1.04 2.542-2.426 3.813-4.044.115-.116.23-.231.462-.347h.347c.115-.346.115-.693.115-1.04h-.578l-2.195-1.27c-.346-.232-.809-.232-1.155-.232-.462.116-.809.232-1.04.578l-1.964 1.964c-.231.231-.347.463-.462.694-.116.23-.116.462-.116.808 0 .232 0 .578.116.81.115.23.23.461.462.692l1.04 1.04c-.925.694-1.85 1.04-2.773 1.271-2.311.462-4.738-.577-7.395-3.466-.231-.231-.462-.462-.809-.578-.346-.115-.693-.115-.924 0a3.458 3.458 0 0 0-.924.463c-.232.23-.463.462-.578.808-.809 2.542-1.387 4.969-1.733 7.28C.23 22.04.116 24.234.23 26.198L0 30.243v.116c0 .462.231.924.578 1.386.346.347.808.578 1.27.578h37.667c2.542 0 5.662-.462 8.435-1.387 1.733-.693 3.12-1.502 4.275-2.542 1.155-1.155 1.848-2.541 1.848-4.16-.346-.577-.462-1.501-.693-2.079Zm-38.244-9.82c-.116-.116-.116-.232-.231-.347 0-.116-.116-.231-.116-.347 0-.116 0-.231.116-.347 0-.115.115-.23.23-.23L17.1 9.098c.116-.116.347-.231.462-.231.231 0 .347 0 .578.115l1.617.925-.115.115c-1.04 1.502-2.195 2.658-3.235 3.582l-1.271-1.27Zm-12.016.692c0-.115.115-.346.23-.346.116-.116.232-.116.347-.231.347 0 .578 0 .81.23 1.732 1.965 3.465 3.12 5.198 3.583-.693 1.733-1.502 1.848-2.541 1.502-.347-.116-.81-.232-1.156-.463-1.386-.693-2.888-1.27-4.044-.346.231-1.271.693-2.542 1.156-3.929Zm41.941 6.24c1.618.23 3.235.462 4.506.924 1.156.462 2.08 1.04 2.658 2.08-.578 1.386-3.005 2.31-6.47 2.888l-1.734-6.008c.347.116.693.116 1.04.116Zm-31.89 1.386c1.734-.23 3.351-.809 4.853-1.617 1.85-1.04 3.467-2.427 4.853-4.044l15.252 6.47c.924.346 1.848.693 2.657.924.924.231 1.733.462 2.773.578l.578.116.693 2.195c-6.932.924-17.562.924-28.654.809-.462-.81-1.387-3.12-3.004-5.43ZM51.07 27.47c-.924.924-2.31 1.733-3.928 2.31-2.658.925-5.662 1.387-8.088 1.387H1.502a.883.883 0 0 1-.578-.23c-.115-.116-.23-.347-.23-.463l.23-3.235c4.044 0 8.088.116 12.132.116 12.248.115 24.38.346 32.005-.925h.347c.115 0 .115 0 .115-.115 3.235-.578 5.662-1.387 6.933-2.658v.578c.23 1.27-.463 2.426-1.387 3.235Z" fill="#26303B"/><path d="m21.49 10.37.463.23a4.27 4.27 0 0 0-.578 1.271c-.116.463.116 1.04.693 1.156.462.116.925-.116 1.04-.693.116-.463.231-.694.462-.925l2.196.925c-.231.346-.347.693-.462 1.155-.116.462.115 1.04.577 1.155.462.116.924-.115 1.156-.693.115-.462.23-.693.462-.924l2.195.924c-.231.347-.347.694-.462 1.156-.116.462.115.924.578 1.155.462.116.924-.115 1.155-.693.116-.347.231-.693.462-.925l2.195.925c-.23.346-.346.693-.462 1.04-.115.462.116.924.578 1.155.462.116.924-.115 1.04-.693.115-.347.23-.693.462-.924l2.195.924c-.115.346-.346.693-.462 1.04-.115.462.116 1.04.578 1.155.462.116.924-.115 1.04-.693.115-.347.23-.693.462-.809l.462.231c.693.231 1.386.462 1.964.694.231-.347.347-.694.462-.925-.23-.115-.462-.115-.693-.23.116-.232.231-.694 0-.925a1.396 1.396 0 0 0-.809-.81c-.462-.23-.924-.346-1.386-.23-.462.115-.809.346-1.156.693l-.693-.231c.116-.231.231-.693 0-.924a1.396 1.396 0 0 0-.809-.81c-.462-.23-.924-.346-1.386-.23-.462.115-.809.23-1.156.693l-.346-.462c.115-.231.231-.578 0-.924a1.396 1.396 0 0 0-.809-.81c-.462-.23-.924-.346-1.386-.23-.347.115-.81.346-1.156.693l-.693-.231a.986.986 0 0 0 0-.809c-.231-.347-.462-.693-.809-.809-.462-.23-.924-.346-1.386-.23-.347.115-.81.23-1.04.577l-.462-.347a.986.986 0 0 0 0-.809c-.231-.346-.462-.693-.81-.808-.461-.231-.924-.347-1.386-.231-.346.115-.808.346-1.04.577l-.808-.346c-.116 0-.231-.116-.347-.116 0 .347 0 .809-.116 1.04.116-.115.116-.115.232-.115Z" fill="#26303B"/></svg>