<svg width="24" height="24" fill="none" xmlns="http://www.w3.org/2000/svg"><path d="m10.795 7.2-2.82-3.254c-.324-.375-.92-.373-1.297.005L4.359 6.274c-.69.69-.887 1.716-.488 2.539a24.34 24.34 0 0 0 11.3 11.316c.822.4 1.847.202 2.537-.489l2.34-2.344c.38-.38.38-.978.002-1.303l-3.267-2.805c-.341-.293-.872-.255-1.215.089l-1.136 1.138a.385.385 0 0 1-.461.074 12.13 12.13 0 0 1-4.467-4.473.386.386 0 0 1 .074-.462L10.71 8.42c.343-.345.38-.878.084-1.22v0Z" stroke="#26303B" stroke-width="2" stroke-linecap="round" stroke-linejoin="round"/></svg>