<svg width="80" height="80" fill="none" xmlns="http://www.w3.org/2000/svg"><circle cx="40" cy="40" r="40" fill="#fff"/><path fill-rule="evenodd" clip-rule="evenodd" d="M28.326 4.232a.098.098 0 0 0-.029.067v3.32c0 .027.01.049.028.066.02.02.043.028.063.028h23.334c.03 0 .045-.01.054-.02.01-.008.03-.034.036-.095V4.299a.089.089 0 0 0-.027-.066.092.092 0 0 0-.063-.028H28.388a.082.082 0 0 0-.062.027Zm-1.234.067A1.3 1.3 0 0 1 28.388 3h23.334a1.3 1.3 0 0 1 1.296 1.3v3.336l-.001.016c-.04.717-.585 1.266-1.295 1.266H28.388a1.3 1.3 0 0 1-1.296-1.3V4.3Z" fill="#010066"/><path fill-rule="evenodd" clip-rule="evenodd" d="M25.939 14.956c2.8 0 5.312-2.934 5.312-6.896h1.205c0 4.348-2.802 8.1-6.517 8.1v-1.204ZM54.079 16.16c-3.715 0-6.517-3.752-6.517-8.1h1.205c0 3.962 2.511 6.896 5.312 6.896v1.205ZM41.98 15.214c.443-1.534.5-3.859.135-6.563l1.194-.16c.375 2.774.34 5.29-.171 7.058-.254.881-.646 1.643-1.23 2.137-.613.518-1.38.689-2.23.477l.292-1.17c.502.125.864.023 1.16-.228.328-.277.628-.781.85-1.55Z" fill="#010066"/><path fill-rule="evenodd" clip-rule="evenodd" d="m39.452 35.643-.208-31.688 1.206-.008.208 31.688-1.206.008Z" fill="#010066"/><path d="M47.517 76.335a.455.455 0 0 0 .44-.441V18.692a.455.455 0 0 0-.44-.44.455.455 0 0 0-.439.44v57.225c.023.21.208.418.44.418ZM32.754 76.335a.455.455 0 0 0 .44-.441V18.019a.456.456 0 0 0-.44-.44.456.456 0 0 0-.438.44v57.945c-.024.162.184.37.438.37ZM25.916 15.582c.23.07.485-.024.554-.302L28.688 8.5c.07-.232-.023-.487-.3-.557-.231-.07-.485.023-.555.302l-2.217 6.779c-.116.255.023.51.3.557ZM54.471 15.953c-.23.07-.485-.023-.554-.302l-2.195-6.802c-.07-.232.023-.487.3-.557.232-.07.486.023.555.302l2.218 6.779c.023.278-.116.51-.324.58Z" fill="#010066"/><path d="M52.646 75.174a.425.425 0 0 0 .44-.441l1.663-59.082a.425.425 0 0 0-.44-.441.425.425 0 0 0-.438.441l-1.687 59.105c.047.186.208.418.462.418ZM27.625 75.615a.426.426 0 0 1-.439-.441L25.5 15.581c0-.232.162-.44.439-.44.231 0 .439.162.439.44l1.663 59.593c.023.232-.208.441-.416.441Z" fill="#010066"/><path d="m32.685 76.544-5.129-.883c-.23-.023-.439-.301-.37-.557.024-.232.301-.44.555-.371l5.129.882c.231.023.439.302.37.557-.093.279-.324.441-.555.372ZM47.656 76.637l5.013-1.23c.231-.07.44-.302.347-.581-.07-.232-.3-.441-.578-.348l-5.013 1.23c-.231.07-.439.302-.347.58.07.256.347.395.578.349Z" fill="#010066"/><path d="m32.986 76.544 5.128-.883c.231-.023.44-.301.37-.557-.023-.232-.3-.44-.554-.371l-5.13.882c-.23.023-.438.302-.369.557.046.279.324.441.555.372ZM47.17 76.637l-5.013-1.23c-.23-.07-.439-.302-.346-.581.07-.232.3-.441.577-.348l5.014 1.23c.23.07.439.302.346.58-.023.256-.254.395-.577.349Z" fill="#010066"/><path fill-rule="evenodd" clip-rule="evenodd" d="M40.099 34.433c.332.012.593.29.581.623-.024.718-.27 5.737-.655 13.576-.34 6.926-.787 16.054-1.286 26.362a.603.603 0 0 1-1.204-.058c.5-10.345.95-19.494 1.29-26.423.382-7.801.626-12.788.65-13.498a.603.603 0 0 1 .624-.582Z" fill="#010066"/><path fill-rule="evenodd" clip-rule="evenodd" d="M40.073 34.178c.332.01.594.287.584.62-.022.756.212 5.222.589 12.318l.05.956c.371 6.97.863 16.232 1.371 26.771a.603.603 0 1 1-1.204.058c-.508-10.536-1-19.795-1.37-26.765l-.05-.956c-.375-7.042-.614-11.595-.59-12.417a.603.603 0 0 1 .62-.585Z" fill="#010066"/></svg>