<svg width="80" height="80" viewBox="0 0 80 80" fill="none" xmlns="http://www.w3.org/2000/svg">
<circle cx="40" cy="40" r="40" fill="white"/>
<path d="M48.3149 62.6214C48.3149 62.3382 48.11 62.1323 47.8282 62.1323C47.5465 62.1323 47.3416 62.3382 47.3416 62.6214V72.9426C47.6745 72.9426 47.9563 72.9426 48.2893 72.9426L48.3149 62.6214Z" fill="#010066"/>
<path d="M33.0737 61.9007C33.0737 61.6175 32.8688 61.4116 32.587 61.4116C32.3053 61.4116 32.1003 61.6175 32.1003 61.9007V72.9683C32.4333 72.9683 32.7151 72.9683 33.0481 72.9683L33.0737 61.9007Z" fill="#010066"/>
<path d="M27.8486 59.1209C27.8486 58.8378 27.6437 58.6833 27.3619 58.6833C27.0802 58.6833 26.9265 58.8893 26.9265 59.1724L26.8752 72.9941C27.157 72.9941 27.49 72.9941 27.7718 72.9941L27.8486 59.1209Z" fill="#010066"/>
<path d="M20.0615 53.7672C19.7029 53.7672 19.3699 54.0503 19.3699 54.4622C19.3699 54.8482 19.6517 55.1571 20.0615 55.1571C20.4457 55.1571 20.7531 54.874 20.7531 54.4622C20.7275 54.1018 20.4713 53.7672 20.0615 53.7672ZM19.9334 55.5689C19.5748 55.5689 19.2418 55.852 19.2418 56.2639C19.2418 56.6242 19.5236 56.9588 19.9334 56.9588C20.3689 56.9588 20.625 56.6757 20.625 56.2639C20.5482 55.9035 20.292 55.5689 19.9334 55.5689ZM20.2664 52.1457C19.9078 52.1457 19.5748 52.4288 19.5748 52.8406C19.5748 53.2267 19.9078 53.5356 20.2664 53.5356C20.625 53.5356 20.958 53.2524 20.958 52.8406C20.958 52.4031 20.625 52.1457 20.2664 52.1457ZM20.2664 52.1457C19.9078 52.1457 19.5748 52.4288 19.5748 52.8406C19.5748 53.2267 19.9078 53.5356 20.2664 53.5356C20.625 53.5356 20.958 53.2524 20.958 52.8406C20.958 52.4031 20.625 52.1457 20.2664 52.1457ZM19.9334 55.5689C19.5748 55.5689 19.2418 55.852 19.2418 56.2639C19.2418 56.6242 19.5236 56.9588 19.9334 56.9588C20.3689 56.9588 20.625 56.6757 20.625 56.2639C20.5482 55.9035 20.292 55.5689 19.9334 55.5689ZM20.0615 53.7672C19.7029 53.7672 19.3699 54.0503 19.3699 54.4622C19.3699 54.8482 19.6517 55.1571 20.0615 55.1571C20.4457 55.1571 20.7531 54.874 20.7531 54.4622C20.7275 54.1018 20.4713 53.7672 20.0615 53.7672ZM40.8096 52.0685C40.451 52.0685 40.118 52.3516 40.118 52.7634C40.118 53.1495 40.3998 53.4583 40.8096 53.4583C41.2194 53.4583 41.5012 53.1752 41.5012 52.7634C41.5524 52.3773 41.2451 52.0685 40.8096 52.0685ZM40.8096 45.2477C40.451 45.2477 40.118 45.5308 40.118 45.9426C40.118 46.3287 40.3998 46.6376 40.8096 46.6376C41.2194 46.6376 41.5012 46.3545 41.5012 45.9426C41.5524 45.5308 41.2451 45.2477 40.8096 45.2477ZM40.8096 38.4527C40.451 38.4527 40.118 38.7358 40.118 39.1476C40.118 39.508 40.3998 39.8426 40.8096 39.8426C41.2194 39.8426 41.5012 39.5595 41.5012 39.1476C41.5524 38.7873 41.2451 38.4527 40.8096 38.4527ZM60.4563 52.1457C60.0977 52.1457 59.7647 52.4288 59.7647 52.8406C59.7647 53.2267 60.0464 53.5356 60.4563 53.5356C60.8661 53.5356 61.1479 53.2524 61.1479 52.8406C61.1223 52.4031 60.7893 52.1457 60.4563 52.1457ZM60.6612 53.7672C60.3026 53.7672 59.9696 54.1018 59.9696 54.4622C59.9696 54.8225 60.3026 55.1571 60.6612 55.1571C61.0198 55.1571 61.3528 54.874 61.3528 54.4622C61.3528 54.1018 61.0198 53.7672 60.6612 53.7672ZM60.7893 55.5689C60.4051 55.5689 60.0977 55.9035 60.0977 56.2639C60.0977 56.6242 60.3794 56.9588 60.7893 56.9588C61.1479 56.9588 61.4809 56.6757 61.4809 56.2639C61.5065 55.8778 61.2247 55.5689 60.7893 55.5689ZM60.7893 55.5689C60.4051 55.5689 60.0977 55.9035 60.0977 56.2639C60.0977 56.6242 60.3794 56.9588 60.7893 56.9588C61.1479 56.9588 61.4809 56.6757 61.4809 56.2639C61.5065 55.8778 61.2247 55.5689 60.7893 55.5689ZM60.6612 53.7672C60.3026 53.7672 59.9696 54.1018 59.9696 54.4622C59.9696 54.8225 60.3026 55.1571 60.6612 55.1571C61.0198 55.1571 61.3528 54.874 61.3528 54.4622C61.3528 54.1018 61.0198 53.7672 60.6612 53.7672ZM60.4563 52.1457C60.0977 52.1457 59.7647 52.4288 59.7647 52.8406C59.7647 53.2267 60.0464 53.5356 60.4563 53.5356C60.8661 53.5356 61.1479 53.2524 61.1479 52.8406C61.1223 52.4031 60.7893 52.1457 60.4563 52.1457ZM40.8096 38.4527C40.451 38.4527 40.118 38.7358 40.118 39.1476C40.118 39.508 40.3998 39.8426 40.8096 39.8426C41.2194 39.8426 41.5012 39.5595 41.5012 39.1476C41.5524 38.7873 41.2451 38.4527 40.8096 38.4527ZM40.8096 45.2477C40.451 45.2477 40.118 45.5308 40.118 45.9426C40.118 46.3287 40.3998 46.6376 40.8096 46.6376C41.2194 46.6376 41.5012 46.3545 41.5012 45.9426C41.5524 45.5308 41.2451 45.2477 40.8096 45.2477ZM40.8096 52.0685C40.451 52.0685 40.118 52.3516 40.118 52.7634C40.118 53.1495 40.3998 53.4583 40.8096 53.4583C41.2194 53.4583 41.5012 53.1752 41.5012 52.7634C41.5524 52.3773 41.2451 52.0685 40.8096 52.0685ZM20.0615 53.7672C19.7029 53.7672 19.3699 54.0503 19.3699 54.4622C19.3699 54.8482 19.6517 55.1571 20.0615 55.1571C20.4457 55.1571 20.7531 54.874 20.7531 54.4622C20.7275 54.1018 20.4713 53.7672 20.0615 53.7672ZM19.9334 55.5689C19.5748 55.5689 19.2418 55.852 19.2418 56.2639C19.2418 56.6242 19.5236 56.9588 19.9334 56.9588C20.3689 56.9588 20.625 56.6757 20.625 56.2639C20.5482 55.9035 20.292 55.5689 19.9334 55.5689ZM20.2664 52.1457C19.9078 52.1457 19.5748 52.4288 19.5748 52.8406C19.5748 53.2267 19.9078 53.5356 20.2664 53.5356C20.625 53.5356 20.958 53.2524 20.958 52.8406C20.958 52.4031 20.625 52.1457 20.2664 52.1457ZM20.2664 52.1457C19.9078 52.1457 19.5748 52.4288 19.5748 52.8406C19.5748 53.2267 19.9078 53.5356 20.2664 53.5356C20.625 53.5356 20.958 53.2524 20.958 52.8406C20.958 52.4031 20.625 52.1457 20.2664 52.1457ZM19.9334 55.5689C19.5748 55.5689 19.2418 55.852 19.2418 56.2639C19.2418 56.6242 19.5236 56.9588 19.9334 56.9588C20.3689 56.9588 20.625 56.6757 20.625 56.2639C20.5482 55.9035 20.292 55.5689 19.9334 55.5689ZM20.0615 53.7672C19.7029 53.7672 19.3699 54.0503 19.3699 54.4622C19.3699 54.8482 19.6517 55.1571 20.0615 55.1571C20.4457 55.1571 20.7531 54.874 20.7531 54.4622C20.7275 54.1018 20.4713 53.7672 20.0615 53.7672ZM40.8096 52.0685C40.451 52.0685 40.118 52.3516 40.118 52.7634C40.118 53.1495 40.3998 53.4583 40.8096 53.4583C41.2194 53.4583 41.5012 53.1752 41.5012 52.7634C41.5524 52.3773 41.2451 52.0685 40.8096 52.0685ZM40.8096 45.2477C40.451 45.2477 40.118 45.5308 40.118 45.9426C40.118 46.3287 40.3998 46.6376 40.8096 46.6376C41.2194 46.6376 41.5012 46.3545 41.5012 45.9426C41.5524 45.5308 41.2451 45.2477 40.8096 45.2477ZM40.8096 38.4527C40.451 38.4527 40.118 38.7358 40.118 39.1476C40.118 39.508 40.3998 39.8426 40.8096 39.8426C41.2194 39.8426 41.5012 39.5595 41.5012 39.1476C41.5524 38.7873 41.2451 38.4527 40.8096 38.4527ZM60.4563 52.1457C60.0977 52.1457 59.7647 52.4288 59.7647 52.8406C59.7647 53.2267 60.0464 53.5356 60.4563 53.5356C60.8661 53.5356 61.1479 53.2524 61.1479 52.8406C61.1223 52.4031 60.7893 52.1457 60.4563 52.1457ZM60.6612 53.7672C60.3026 53.7672 59.9696 54.1018 59.9696 54.4622C59.9696 54.8225 60.3026 55.1571 60.6612 55.1571C61.0198 55.1571 61.3528 54.874 61.3528 54.4622C61.3528 54.1018 61.0198 53.7672 60.6612 53.7672ZM60.7893 55.5689C60.4051 55.5689 60.0977 55.9035 60.0977 56.2639C60.0977 56.6242 60.3794 56.9588 60.7893 56.9588C61.1479 56.9588 61.4809 56.6757 61.4809 56.2639C61.5065 55.8778 61.2247 55.5689 60.7893 55.5689ZM60.7893 55.5689C60.4051 55.5689 60.0977 55.9035 60.0977 56.2639C60.0977 56.6242 60.3794 56.9588 60.7893 56.9588C61.1479 56.9588 61.4809 56.6757 61.4809 56.2639C61.5065 55.8778 61.2247 55.5689 60.7893 55.5689ZM60.6612 53.7672C60.3026 53.7672 59.9696 54.1018 59.9696 54.4622C59.9696 54.8225 60.3026 55.1571 60.6612 55.1571C61.0198 55.1571 61.3528 54.874 61.3528 54.4622C61.3528 54.1018 61.0198 53.7672 60.6612 53.7672ZM60.4563 52.1457C60.0977 52.1457 59.7647 52.4288 59.7647 52.8406C59.7647 53.2267 60.0464 53.5356 60.4563 53.5356C60.8661 53.5356 61.1479 53.2524 61.1479 52.8406C61.1223 52.4031 60.7893 52.1457 60.4563 52.1457ZM40.8096 38.4527C40.451 38.4527 40.118 38.7358 40.118 39.1476C40.118 39.508 40.3998 39.8426 40.8096 39.8426C41.2194 39.8426 41.5012 39.5595 41.5012 39.1476C41.5524 38.7873 41.2451 38.4527 40.8096 38.4527ZM40.8096 45.2477C40.451 45.2477 40.118 45.5308 40.118 45.9426C40.118 46.3287 40.3998 46.6376 40.8096 46.6376C41.2194 46.6376 41.5012 46.3545 41.5012 45.9426C41.5524 45.5308 41.2451 45.2477 40.8096 45.2477ZM40.8096 52.0685C40.451 52.0685 40.118 52.3516 40.118 52.7634C40.118 53.1495 40.3998 53.4583 40.8096 53.4583C41.2194 53.4583 41.5012 53.1752 41.5012 52.7634C41.5524 52.3773 41.2451 52.0685 40.8096 52.0685ZM20.0615 53.7672C19.7029 53.7672 19.3699 54.0503 19.3699 54.4622C19.3699 54.8482 19.6517 55.1571 20.0615 55.1571C20.4457 55.1571 20.7531 54.874 20.7531 54.4622C20.7275 54.1018 20.4713 53.7672 20.0615 53.7672ZM19.9334 55.5689C19.5748 55.5689 19.2418 55.852 19.2418 56.2639C19.2418 56.6242 19.5236 56.9588 19.9334 56.9588C20.3689 56.9588 20.625 56.6757 20.625 56.2639C20.5482 55.9035 20.292 55.5689 19.9334 55.5689ZM20.2664 52.1457C19.9078 52.1457 19.5748 52.4288 19.5748 52.8406C19.5748 53.2267 19.9078 53.5356 20.2664 53.5356C20.625 53.5356 20.958 53.2524 20.958 52.8406C20.958 52.4031 20.625 52.1457 20.2664 52.1457ZM20.2664 52.1457C19.9078 52.1457 19.5748 52.4288 19.5748 52.8406C19.5748 53.2267 19.9078 53.5356 20.2664 53.5356C20.625 53.5356 20.958 53.2524 20.958 52.8406C20.958 52.4031 20.625 52.1457 20.2664 52.1457ZM19.9334 55.5689C19.5748 55.5689 19.2418 55.852 19.2418 56.2639C19.2418 56.6242 19.5236 56.9588 19.9334 56.9588C20.3689 56.9588 20.625 56.6757 20.625 56.2639C20.5482 55.9035 20.292 55.5689 19.9334 55.5689ZM20.0615 53.7672C19.7029 53.7672 19.3699 54.0503 19.3699 54.4622C19.3699 54.8482 19.6517 55.1571 20.0615 55.1571C20.4457 55.1571 20.7531 54.874 20.7531 54.4622C20.7275 54.1018 20.4713 53.7672 20.0615 53.7672ZM40.8096 52.0685C40.451 52.0685 40.118 52.3516 40.118 52.7634C40.118 53.1495 40.3998 53.4583 40.8096 53.4583C41.2194 53.4583 41.5012 53.1752 41.5012 52.7634C41.5524 52.3773 41.2451 52.0685 40.8096 52.0685ZM40.8096 45.2477C40.451 45.2477 40.118 45.5308 40.118 45.9426C40.118 46.3287 40.3998 46.6376 40.8096 46.6376C41.2194 46.6376 41.5012 46.3545 41.5012 45.9426C41.5524 45.5308 41.2451 45.2477 40.8096 45.2477ZM40.8096 38.4527C40.451 38.4527 40.118 38.7358 40.118 39.1476C40.118 39.508 40.3998 39.8426 40.8096 39.8426C41.2194 39.8426 41.5012 39.5595 41.5012 39.1476C41.5524 38.7873 41.2451 38.4527 40.8096 38.4527ZM60.4563 52.1457C60.0977 52.1457 59.7647 52.4288 59.7647 52.8406C59.7647 53.2267 60.0464 53.5356 60.4563 53.5356C60.8661 53.5356 61.1479 53.2524 61.1479 52.8406C61.1223 52.4031 60.7893 52.1457 60.4563 52.1457ZM60.6612 53.7672C60.3026 53.7672 59.9696 54.1018 59.9696 54.4622C59.9696 54.8225 60.3026 55.1571 60.6612 55.1571C61.0198 55.1571 61.3528 54.874 61.3528 54.4622C61.3528 54.1018 61.0198 53.7672 60.6612 53.7672ZM60.7893 55.5689C60.4051 55.5689 60.0977 55.9035 60.0977 56.2639C60.0977 56.6242 60.3794 56.9588 60.7893 56.9588C61.1479 56.9588 61.4809 56.6757 61.4809 56.2639C61.5065 55.8778 61.2247 55.5689 60.7893 55.5689ZM60.7893 55.5689C60.4051 55.5689 60.0977 55.9035 60.0977 56.2639C60.0977 56.6242 60.3794 56.9588 60.7893 56.9588C61.1479 56.9588 61.4809 56.6757 61.4809 56.2639C61.5065 55.8778 61.2247 55.5689 60.7893 55.5689ZM61.276 54.4879C61.276 54.1276 60.9942 53.793 60.5844 53.793C60.2001 53.793 59.8928 54.1276 59.8928 54.4879C59.8928 54.8482 60.2257 55.1828 60.5844 55.1828C61.0198 55.1828 61.276 54.8997 61.276 54.4879ZM60.4563 53.4841C60.8405 53.4841 61.1479 53.201 61.1479 52.7891C61.1479 52.4031 60.8661 52.0942 60.4563 52.0942C60.0977 52.0942 59.7647 52.3773 59.7647 52.7891C59.7647 53.1752 60.0464 53.4841 60.4563 53.4841ZM40.8096 39.7911C41.1682 39.7911 41.5012 39.508 41.5012 39.0962C41.5012 38.7358 41.2194 38.4012 40.8096 38.4012C40.3998 38.4012 40.118 38.6843 40.118 39.0962C40.1692 39.4822 40.4766 39.7911 40.8096 39.7911ZM40.8096 45.2477C40.451 45.2477 40.118 45.5308 40.118 45.9426C40.118 46.3287 40.3998 46.6376 40.8096 46.6376C41.2194 46.6376 41.5012 46.3545 41.5012 45.9426C41.5524 45.5308 41.2451 45.2477 40.8096 45.2477ZM40.8096 52.0685C40.451 52.0685 40.118 52.3516 40.118 52.7634C40.118 53.1495 40.3998 53.4583 40.8096 53.4583C41.2194 53.4583 41.5012 53.1752 41.5012 52.7634C41.5524 52.3773 41.2451 52.0685 40.8096 52.0685ZM20.0615 53.7672C19.7029 53.7672 19.3699 54.0503 19.3699 54.4622C19.3699 54.8482 19.6517 55.1571 20.0615 55.1571C20.4457 55.1571 20.7531 54.874 20.7531 54.4622C20.7275 54.1018 20.4713 53.7672 20.0615 53.7672ZM19.9334 55.5689C19.5748 55.5689 19.2418 55.852 19.2418 56.2639C19.2418 56.6242 19.5236 56.9588 19.9334 56.9588C20.3689 56.9588 20.625 56.6757 20.625 56.2639C20.5482 55.9035 20.292 55.5689 19.9334 55.5689ZM20.2664 53.4841C20.625 53.4841 20.958 53.201 20.958 52.7891C20.958 52.4031 20.6763 52.0942 20.2664 52.0942C19.9078 52.0942 19.5748 52.3773 19.5748 52.7891C19.5236 53.1752 19.9334 53.4841 20.2664 53.4841ZM62.9922 57.8339L59.8159 23.2926L59.7647 23.0095C59.4573 20.101 59.2012 17.1668 56.7165 15.5195C56.6653 15.5195 56.6653 15.468 56.6653 15.468L48.1355 10.8093L47.572 9.98569L47.5207 9.93421C46.3937 8.57006 45.241 7.87511 44.0115 7.43756C42.8588 7.07722 41.6805 7 40.5278 7H40.1949C39.0422 7 37.8639 7.05148 36.7368 7.38608C35.5329 7.77216 34.3546 8.51858 33.1764 9.88273C33.1764 9.88273 33.1764 9.93421 33.1251 9.93421L32.5616 10.7578L23.8525 15.468C23.8525 15.468 23.8013 15.468 23.8013 15.5195C21.2654 17.141 21.0092 20.0238 20.7787 22.9837L20.7275 23.2154L17.5 57.7052V57.7567C17.5 58.0398 17.6793 58.1943 17.8842 58.2457L25.2613 58.6833C25.5431 58.6833 25.6968 58.5031 25.748 58.2972L26.7214 47.6157V59.4555C26.7214 59.6614 26.9263 59.893 27.1568 59.893H31.3321C32.3567 59.893 33.2276 59.893 33.996 59.9445C37.1979 60.0732 38.9909 60.0732 40.0924 58.5804C41.2963 59.9445 43.3967 59.9445 47.2133 59.893H53.3097C53.5146 59.893 53.7452 59.6871 53.7452 59.4555V47.6157L54.7185 58.2972C54.7698 58.5803 54.9235 58.7348 55.1028 58.7348C55.154 58.7348 55.154 58.7348 55.154 58.7348L62.5311 58.2972C62.8385 58.2457 63.0434 58.0398 62.9922 57.8339ZM46.8547 10.5519L49.0832 13.5634L47.8025 14.1039C47.5976 14.2326 47.4695 14.4642 47.5207 14.6701C47.572 14.7988 47.6488 14.876 47.7256 14.9533L49.6212 15.8541L42.0391 30.345V30.3965L41.0145 32.3011C41.783 29.7273 42.577 26.5099 43.243 23.4213C44.2676 18.8913 45.0617 14.5929 45.0617 12.4309C45.0617 10.8093 44.6262 9.41944 43.7553 8.51858C43.7041 8.46711 43.7041 8.38989 43.6273 8.36415C44.8312 8.72449 45.8814 9.34222 46.8547 10.5519ZM40.3229 8.00381C41.6037 8.00381 42.5514 8.38989 43.2174 9.16205C43.909 9.93421 44.242 11.0667 44.242 12.5338C44.242 14.5929 43.4223 18.8655 42.449 23.2926C41.7574 26.3555 40.9633 29.5214 40.2205 32.121C39.3239 29.0838 38.3762 25.2487 37.659 21.7483C36.8393 17.8875 36.3014 14.2841 36.3014 12.5338C36.3014 11.1697 36.66 9.98569 37.326 9.16205C38.0688 8.44137 39.0422 8.00381 40.3229 8.00381ZM33.7655 10.5519C34.7901 9.34222 35.7891 8.72449 36.8649 8.36415C36.8137 8.41563 36.7368 8.49284 36.7112 8.54432C35.8403 9.49665 35.4049 10.8351 35.4049 12.4566C35.4049 14.3613 35.9684 17.9647 36.8393 21.877C37.5565 25.2487 38.4787 28.9036 39.3496 31.9151L38.5299 30.2935L30.9479 15.7769L32.8434 14.876C33.1251 14.7473 33.1764 14.5157 33.0483 14.3098C32.997 14.1811 32.8946 14.1039 32.7665 14.0267L31.4858 13.4862L33.7655 10.5519ZM26.8238 37.9637L25.0052 57.8339L18.499 57.4736L21.6496 23.3698L21.7009 23.1639C21.9826 20.6672 22.1875 18.2221 23.8269 16.755L26.8495 32.8159V37.9894H26.8238V37.9637ZM34.0216 59.0694C33.202 59.0694 32.3054 59.0179 31.3577 59.0179H27.6691V46.3802C27.7204 46.3802 27.7204 46.3802 27.7204 46.3802H34.8413C35.0462 46.3802 35.2768 46.1743 35.2768 45.9426C35.2768 45.7367 35.0719 45.5051 34.8413 45.5051V45.5566H27.6948C27.6435 45.5566 27.6435 45.5566 27.6435 45.5566V32.6357L24.5953 16.163L31.2296 12.5338L30.5124 13.4862C30.4612 13.5376 30.4612 13.5376 30.4612 13.6148C30.4099 13.8208 30.4612 14.1039 30.7429 14.1811L31.6138 14.5414L30.1794 15.2364L30.1282 15.2879C29.9233 15.4166 29.7952 15.6482 29.9233 15.8541L37.6846 30.7826L39.5801 34.4117C39.2983 35.364 39.0422 36.1362 38.7604 36.7797C38.7604 36.8312 38.7092 36.9341 38.7092 36.9856V48.0532C38.7092 50.7558 38.7092 52.7891 38.8629 54.3849C38.9909 55.8778 39.2215 56.9588 39.5801 57.7567C38.7604 59.1723 37.1211 59.1209 34.0216 59.0694ZM52.9767 32.61C52.9255 32.6615 52.9255 32.6615 52.9255 32.7387V45.5308C52.8743 45.5308 52.8743 45.5308 52.8743 45.5308H45.4203C45.1385 45.5308 44.9848 45.7367 44.9848 45.9684C44.9848 46.2515 45.1642 46.4059 45.4203 46.4059H52.8743C52.9255 46.4059 52.9255 46.4059 52.9255 46.4059V59.0436H49.1345C48.699 59.0436 47.9818 59.0951 47.239 59.0951C43.3455 59.1466 41.2963 59.1466 40.4766 57.628L40.4254 57.5765C40.0412 56.8816 39.8106 55.852 39.7082 54.3592C39.5801 52.8406 39.5545 50.73 39.5545 48.079V37.0885L42.8588 30.8083C42.91 30.8083 42.91 30.7568 42.91 30.7568L50.7226 15.8541V15.8026C50.7738 15.5967 50.7226 15.3136 50.5177 15.2364L49.0576 14.5414L49.8773 14.1811C49.9285 14.1811 50.0054 14.1296 50.0054 14.1296C50.2103 13.9752 50.2103 13.7435 50.0566 13.5119L49.365 12.5596L55.9993 16.1887L52.9767 32.61ZM55.6151 57.8339L53.7964 37.9637V32.7902L56.819 16.7292C58.4583 18.1963 58.7145 20.6415 58.945 23.1382L58.9962 23.3441L62.1725 57.4221L55.6151 57.8339ZM60.1745 56.2639C60.1745 56.6242 60.4563 56.9588 60.8661 56.9588C61.2247 56.9588 61.5577 56.6757 61.5577 56.2639C61.5577 55.8778 61.276 55.5689 60.8661 55.5689C60.4563 55.5689 60.1745 55.9035 60.1745 56.2639ZM60.6612 53.7672C60.3026 53.7672 59.9696 54.1018 59.9696 54.4622C59.9696 54.8225 60.3026 55.1571 60.6612 55.1571C61.0198 55.1571 61.3528 54.874 61.3528 54.4622C61.3528 54.1018 61.0198 53.7672 60.6612 53.7672ZM60.4563 53.4841C60.8405 53.4841 61.1479 53.201 61.1479 52.7891C61.1479 52.4031 60.8661 52.0942 60.4563 52.0942C60.0977 52.0942 59.7647 52.3773 59.7647 52.7891C59.7647 53.1752 60.0464 53.4841 60.4563 53.4841ZM40.8096 38.4527C40.451 38.4527 40.118 38.7358 40.118 39.1476C40.118 39.508 40.3998 39.8426 40.8096 39.8426C41.2194 39.8426 41.5012 39.5595 41.5012 39.1476C41.5524 38.7873 41.2451 38.4527 40.8096 38.4527ZM40.8096 45.2477C40.451 45.2477 40.118 45.5308 40.118 45.9426C40.118 46.3287 40.3998 46.6376 40.8096 46.6376C41.2194 46.6376 41.5012 46.3545 41.5012 45.9426C41.5524 45.5308 41.2451 45.2477 40.8096 45.2477ZM40.8096 52.0685C40.451 52.0685 40.118 52.3516 40.118 52.7634C40.118 53.1495 40.3998 53.4583 40.8096 53.4583C41.2194 53.4583 41.5012 53.1752 41.5012 52.7634C41.5524 52.3773 41.2451 52.0685 40.8096 52.0685ZM20.0615 53.7672C19.7029 53.7672 19.3699 54.0503 19.3699 54.4622C19.3699 54.8482 19.6517 55.1571 20.0615 55.1571C20.4457 55.1571 20.7531 54.874 20.7531 54.4622C20.7275 54.1018 20.4713 53.7672 20.0615 53.7672ZM19.9334 55.5689C19.5748 55.5689 19.2418 55.852 19.2418 56.2639C19.2418 56.6242 19.5236 56.9588 19.9334 56.9588C20.3689 56.9588 20.625 56.6757 20.625 56.2639C20.5482 55.9035 20.292 55.5689 19.9334 55.5689ZM20.2664 52.1457C19.9078 52.1457 19.5748 52.4288 19.5748 52.8406C19.5748 53.2267 19.9078 53.5356 20.2664 53.5356C20.625 53.5356 20.958 53.2524 20.958 52.8406C20.958 52.4031 20.625 52.1457 20.2664 52.1457ZM20.2664 52.1457C19.9078 52.1457 19.5748 52.4288 19.5748 52.8406C19.5748 53.2267 19.9078 53.5356 20.2664 53.5356C20.625 53.5356 20.958 53.2524 20.958 52.8406C20.958 52.4031 20.625 52.1457 20.2664 52.1457ZM19.9334 55.5689C19.5748 55.5689 19.2418 55.852 19.2418 56.2639C19.2418 56.6242 19.5236 56.9588 19.9334 56.9588C20.3689 56.9588 20.625 56.6757 20.625 56.2639C20.5482 55.9035 20.292 55.5689 19.9334 55.5689ZM20.0615 53.7672C19.7029 53.7672 19.3699 54.0503 19.3699 54.4622C19.3699 54.8482 19.6517 55.1571 20.0615 55.1571C20.4457 55.1571 20.7531 54.874 20.7531 54.4622C20.7275 54.1018 20.4713 53.7672 20.0615 53.7672ZM40.8096 52.0685C40.451 52.0685 40.118 52.3516 40.118 52.7634C40.118 53.1495 40.3998 53.4583 40.8096 53.4583C41.2194 53.4583 41.5012 53.1752 41.5012 52.7634C41.5524 52.3773 41.2451 52.0685 40.8096 52.0685ZM40.8096 45.2477C40.451 45.2477 40.118 45.5308 40.118 45.9426C40.118 46.3287 40.3998 46.6376 40.8096 46.6376C41.2194 46.6376 41.5012 46.3545 41.5012 45.9426C41.5524 45.5308 41.2451 45.2477 40.8096 45.2477ZM40.8096 38.4527C40.451 38.4527 40.118 38.7358 40.118 39.1476C40.118 39.508 40.3998 39.8426 40.8096 39.8426C41.2194 39.8426 41.5012 39.5595 41.5012 39.1476C41.5524 38.7873 41.2451 38.4527 40.8096 38.4527ZM60.4563 52.1457C60.0977 52.1457 59.7647 52.4288 59.7647 52.8406C59.7647 53.2267 60.0464 53.5356 60.4563 53.5356C60.8661 53.5356 61.1479 53.2524 61.1479 52.8406C61.1223 52.4031 60.7893 52.1457 60.4563 52.1457ZM60.6612 53.7672C60.3026 53.7672 59.9696 54.1018 59.9696 54.4622C59.9696 54.8225 60.3026 55.1571 60.6612 55.1571C61.0198 55.1571 61.3528 54.874 61.3528 54.4622C61.3528 54.1018 61.0198 53.7672 60.6612 53.7672ZM60.7893 55.5689C60.4051 55.5689 60.0977 55.9035 60.0977 56.2639C60.0977 56.6242 60.3794 56.9588 60.7893 56.9588C61.1479 56.9588 61.4809 56.6757 61.4809 56.2639C61.5065 55.8778 61.2247 55.5689 60.7893 55.5689ZM60.7893 55.5689C60.4051 55.5689 60.0977 55.9035 60.0977 56.2639C60.0977 56.6242 60.3794 56.9588 60.7893 56.9588C61.1479 56.9588 61.4809 56.6757 61.4809 56.2639C61.5065 55.8778 61.2247 55.5689 60.7893 55.5689ZM60.6612 53.7672C60.3026 53.7672 59.9696 54.1018 59.9696 54.4622C59.9696 54.8225 60.3026 55.1571 60.6612 55.1571C61.0198 55.1571 61.3528 54.874 61.3528 54.4622C61.3528 54.1018 61.0198 53.7672 60.6612 53.7672ZM60.4563 52.1457C60.0977 52.1457 59.7647 52.4288 59.7647 52.8406C59.7647 53.2267 60.0464 53.5356 60.4563 53.5356C60.8661 53.5356 61.1479 53.2524 61.1479 52.8406C61.1223 52.4031 60.7893 52.1457 60.4563 52.1457ZM40.8096 38.4527C40.451 38.4527 40.118 38.7358 40.118 39.1476C40.118 39.508 40.3998 39.8426 40.8096 39.8426C41.2194 39.8426 41.5012 39.5595 41.5012 39.1476C41.5524 38.7873 41.2451 38.4527 40.8096 38.4527ZM40.8096 45.2477C40.451 45.2477 40.118 45.5308 40.118 45.9426C40.118 46.3287 40.3998 46.6376 40.8096 46.6376C41.2194 46.6376 41.5012 46.3545 41.5012 45.9426C41.5524 45.5308 41.2451 45.2477 40.8096 45.2477ZM40.8096 52.0685C40.451 52.0685 40.118 52.3516 40.118 52.7634C40.118 53.1495 40.3998 53.4583 40.8096 53.4583C41.2194 53.4583 41.5012 53.1752 41.5012 52.7634C41.5524 52.3773 41.2451 52.0685 40.8096 52.0685ZM20.0615 53.7672C19.7029 53.7672 19.3699 54.0503 19.3699 54.4622C19.3699 54.8482 19.6517 55.1571 20.0615 55.1571C20.4457 55.1571 20.7531 54.874 20.7531 54.4622C20.7275 54.1018 20.4713 53.7672 20.0615 53.7672ZM19.9334 55.5689C19.5748 55.5689 19.2418 55.852 19.2418 56.2639C19.2418 56.6242 19.5236 56.9588 19.9334 56.9588C20.3689 56.9588 20.625 56.6757 20.625 56.2639C20.5482 55.9035 20.292 55.5689 19.9334 55.5689ZM20.2664 52.1457C19.9078 52.1457 19.5748 52.4288 19.5748 52.8406C19.5748 53.2267 19.9078 53.5356 20.2664 53.5356C20.625 53.5356 20.958 53.2524 20.958 52.8406C20.958 52.4031 20.625 52.1457 20.2664 52.1457ZM20.2664 52.1457C19.9078 52.1457 19.5748 52.4288 19.5748 52.8406C19.5748 53.2267 19.9078 53.5356 20.2664 53.5356C20.625 53.5356 20.958 53.2524 20.958 52.8406C20.958 52.4031 20.625 52.1457 20.2664 52.1457ZM19.9334 55.5689C19.5748 55.5689 19.2418 55.852 19.2418 56.2639C19.2418 56.6242 19.5236 56.9588 19.9334 56.9588C20.3689 56.9588 20.625 56.6757 20.625 56.2639C20.5482 55.9035 20.292 55.5689 19.9334 55.5689ZM20.0615 53.7672C19.7029 53.7672 19.3699 54.0503 19.3699 54.4622C19.3699 54.8482 19.6517 55.1571 20.0615 55.1571C20.4457 55.1571 20.7531 54.874 20.7531 54.4622C20.7275 54.1018 20.4713 53.7672 20.0615 53.7672ZM40.8096 52.0685C40.451 52.0685 40.118 52.3516 40.118 52.7634C40.118 53.1495 40.3998 53.4583 40.8096 53.4583C41.2194 53.4583 41.5012 53.1752 41.5012 52.7634C41.5524 52.3773 41.2451 52.0685 40.8096 52.0685ZM40.8096 45.2477C40.451 45.2477 40.118 45.5308 40.118 45.9426C40.118 46.3287 40.3998 46.6376 40.8096 46.6376C41.2194 46.6376 41.5012 46.3545 41.5012 45.9426C41.5524 45.5308 41.2451 45.2477 40.8096 45.2477ZM40.8096 38.4527C40.451 38.4527 40.118 38.7358 40.118 39.1476C40.118 39.508 40.3998 39.8426 40.8096 39.8426C41.2194 39.8426 41.5012 39.5595 41.5012 39.1476C41.5524 38.7873 41.2451 38.4527 40.8096 38.4527ZM60.4563 52.1457C60.0977 52.1457 59.7647 52.4288 59.7647 52.8406C59.7647 53.2267 60.0464 53.5356 60.4563 53.5356C60.8661 53.5356 61.1479 53.2524 61.1479 52.8406C61.1223 52.4031 60.7893 52.1457 60.4563 52.1457ZM60.6612 53.7672C60.3026 53.7672 59.9696 54.1018 59.9696 54.4622C59.9696 54.8225 60.3026 55.1571 60.6612 55.1571C61.0198 55.1571 61.3528 54.874 61.3528 54.4622C61.3528 54.1018 61.0198 53.7672 60.6612 53.7672ZM60.7893 55.5689C60.4051 55.5689 60.0977 55.9035 60.0977 56.2639C60.0977 56.6242 60.3794 56.9588 60.7893 56.9588C61.1479 56.9588 61.4809 56.6757 61.4809 56.2639C61.5065 55.8778 61.2247 55.5689 60.7893 55.5689ZM60.7893 55.5689C60.4051 55.5689 60.0977 55.9035 60.0977 56.2639C60.0977 56.6242 60.3794 56.9588 60.7893 56.9588C61.1479 56.9588 61.4809 56.6757 61.4809 56.2639C61.5065 55.8778 61.2247 55.5689 60.7893 55.5689ZM60.6612 53.7672C60.3026 53.7672 59.9696 54.1018 59.9696 54.4622C59.9696 54.8225 60.3026 55.1571 60.6612 55.1571C61.0198 55.1571 61.3528 54.874 61.3528 54.4622C61.3528 54.1018 61.0198 53.7672 60.6612 53.7672ZM60.4563 52.1457C60.0977 52.1457 59.7647 52.4288 59.7647 52.8406C59.7647 53.2267 60.0464 53.5356 60.4563 53.5356C60.8661 53.5356 61.1479 53.2524 61.1479 52.8406C61.1223 52.4031 60.7893 52.1457 60.4563 52.1457ZM40.8096 38.4527C40.451 38.4527 40.118 38.7358 40.118 39.1476C40.118 39.508 40.3998 39.8426 40.8096 39.8426C41.2194 39.8426 41.5012 39.5595 41.5012 39.1476C41.5524 38.7873 41.2451 38.4527 40.8096 38.4527ZM40.8096 45.2477C40.451 45.2477 40.118 45.5308 40.118 45.9426C40.118 46.3287 40.3998 46.6376 40.8096 46.6376C41.2194 46.6376 41.5012 46.3545 41.5012 45.9426C41.5524 45.5308 41.2451 45.2477 40.8096 45.2477ZM40.8096 52.0685C40.451 52.0685 40.118 52.3516 40.118 52.7634C40.118 53.1495 40.3998 53.4583 40.8096 53.4583C41.2194 53.4583 41.5012 53.1752 41.5012 52.7634C41.5524 52.3773 41.2451 52.0685 40.8096 52.0685ZM20.0615 53.7672C19.7029 53.7672 19.3699 54.0503 19.3699 54.4622C19.3699 54.8482 19.6517 55.1571 20.0615 55.1571C20.4457 55.1571 20.7531 54.874 20.7531 54.4622C20.7275 54.1018 20.4713 53.7672 20.0615 53.7672ZM19.9334 55.5689C19.5748 55.5689 19.2418 55.852 19.2418 56.2639C19.2418 56.6242 19.5236 56.9588 19.9334 56.9588C20.3689 56.9588 20.625 56.6757 20.625 56.2639C20.5482 55.9035 20.292 55.5689 19.9334 55.5689ZM20.2664 52.1457C19.9078 52.1457 19.5748 52.4288 19.5748 52.8406C19.5748 53.2267 19.9078 53.5356 20.2664 53.5356C20.625 53.5356 20.958 53.2524 20.958 52.8406C20.958 52.4031 20.625 52.1457 20.2664 52.1457ZM20.2664 52.1457C19.9078 52.1457 19.5748 52.4288 19.5748 52.8406C19.5748 53.2267 19.9078 53.5356 20.2664 53.5356C20.625 53.5356 20.958 53.2524 20.958 52.8406C20.958 52.4031 20.625 52.1457 20.2664 52.1457ZM19.9334 55.5689C19.5748 55.5689 19.2418 55.852 19.2418 56.2639C19.2418 56.6242 19.5236 56.9588 19.9334 56.9588C20.3689 56.9588 20.625 56.6757 20.625 56.2639C20.5482 55.9035 20.292 55.5689 19.9334 55.5689ZM20.0615 53.7672C19.7029 53.7672 19.3699 54.0503 19.3699 54.4622C19.3699 54.8482 19.6517 55.1571 20.0615 55.1571C20.4457 55.1571 20.7531 54.874 20.7531 54.4622C20.7275 54.1018 20.4713 53.7672 20.0615 53.7672ZM40.8096 52.0685C40.451 52.0685 40.118 52.3516 40.118 52.7634C40.118 53.1495 40.3998 53.4583 40.8096 53.4583C41.2194 53.4583 41.5012 53.1752 41.5012 52.7634C41.5524 52.3773 41.2451 52.0685 40.8096 52.0685ZM40.8096 45.2477C40.451 45.2477 40.118 45.5308 40.118 45.9426C40.118 46.3287 40.3998 46.6376 40.8096 46.6376C41.2194 46.6376 41.5012 46.3545 41.5012 45.9426C41.5524 45.5308 41.2451 45.2477 40.8096 45.2477ZM40.8096 38.4527C40.451 38.4527 40.118 38.7358 40.118 39.1476C40.118 39.508 40.3998 39.8426 40.8096 39.8426C41.2194 39.8426 41.5012 39.5595 41.5012 39.1476C41.5524 38.7873 41.2451 38.4527 40.8096 38.4527ZM60.4563 52.1457C60.0977 52.1457 59.7647 52.4288 59.7647 52.8406C59.7647 53.2267 60.0464 53.5356 60.4563 53.5356C60.8661 53.5356 61.1479 53.2524 61.1479 52.8406C61.1223 52.4031 60.7893 52.1457 60.4563 52.1457ZM60.6612 53.7672C60.3026 53.7672 59.9696 54.1018 59.9696 54.4622C59.9696 54.8225 60.3026 55.1571 60.6612 55.1571C61.0198 55.1571 61.3528 54.874 61.3528 54.4622C61.3528 54.1018 61.0198 53.7672 60.6612 53.7672ZM60.7893 55.5689C60.4051 55.5689 60.0977 55.9035 60.0977 56.2639C60.0977 56.6242 60.3794 56.9588 60.7893 56.9588C61.1479 56.9588 61.4809 56.6757 61.4809 56.2639C61.5065 55.8778 61.2247 55.5689 60.7893 55.5689ZM60.7893 55.5689C60.4051 55.5689 60.0977 55.9035 60.0977 56.2639C60.0977 56.6242 60.3794 56.9588 60.7893 56.9588C61.1479 56.9588 61.4809 56.6757 61.4809 56.2639C61.5065 55.8778 61.2247 55.5689 60.7893 55.5689ZM60.6612 53.7672C60.3026 53.7672 59.9696 54.1018 59.9696 54.4622C59.9696 54.8225 60.3026 55.1571 60.6612 55.1571C61.0198 55.1571 61.3528 54.874 61.3528 54.4622C61.3528 54.1018 61.0198 53.7672 60.6612 53.7672ZM60.4563 52.1457C60.0977 52.1457 59.7647 52.4288 59.7647 52.8406C59.7647 53.2267 60.0464 53.5356 60.4563 53.5356C60.8661 53.5356 61.1479 53.2524 61.1479 52.8406C61.1223 52.4031 60.7893 52.1457 60.4563 52.1457ZM40.8096 38.4527C40.451 38.4527 40.118 38.7358 40.118 39.1476C40.118 39.508 40.3998 39.8426 40.8096 39.8426C41.2194 39.8426 41.5012 39.5595 41.5012 39.1476C41.5524 38.7873 41.2451 38.4527 40.8096 38.4527ZM40.8096 45.2477C40.451 45.2477 40.118 45.5308 40.118 45.9426C40.118 46.3287 40.3998 46.6376 40.8096 46.6376C41.2194 46.6376 41.5012 46.3545 41.5012 45.9426C41.5524 45.5308 41.2451 45.2477 40.8096 45.2477ZM40.8096 52.0685C40.451 52.0685 40.118 52.3516 40.118 52.7634C40.118 53.1495 40.3998 53.4583 40.8096 53.4583C41.2194 53.4583 41.5012 53.1752 41.5012 52.7634C41.5524 52.3773 41.2451 52.0685 40.8096 52.0685ZM20.0615 53.7672C19.7029 53.7672 19.3699 54.0503 19.3699 54.4622C19.3699 54.8482 19.6517 55.1571 20.0615 55.1571C20.4457 55.1571 20.7531 54.874 20.7531 54.4622C20.7275 54.1018 20.4713 53.7672 20.0615 53.7672ZM19.9334 55.5689C19.5748 55.5689 19.2418 55.852 19.2418 56.2639C19.2418 56.6242 19.5236 56.9588 19.9334 56.9588C20.3689 56.9588 20.625 56.6757 20.625 56.2639C20.5482 55.9035 20.292 55.5689 19.9334 55.5689ZM20.2664 52.1457C19.9078 52.1457 19.5748 52.4288 19.5748 52.8406C19.5748 53.2267 19.9078 53.5356 20.2664 53.5356C20.625 53.5356 20.958 53.2524 20.958 52.8406C20.958 52.4031 20.625 52.1457 20.2664 52.1457ZM60.7893 55.5689C60.4051 55.5689 60.0977 55.9035 60.0977 56.2639C60.0977 56.6242 60.3794 56.9588 60.7893 56.9588C61.1479 56.9588 61.4809 56.6757 61.4809 56.2639C61.5065 55.8778 61.2247 55.5689 60.7893 55.5689ZM60.6612 53.7672C60.3026 53.7672 59.9696 54.1018 59.9696 54.4622C59.9696 54.8225 60.3026 55.1571 60.6612 55.1571C61.0198 55.1571 61.3528 54.874 61.3528 54.4622C61.3528 54.1018 61.0198 53.7672 60.6612 53.7672ZM60.4563 52.1457C60.0977 52.1457 59.7647 52.4288 59.7647 52.8406C59.7647 53.2267 60.0464 53.5356 60.4563 53.5356C60.8661 53.5356 61.1479 53.2524 61.1479 52.8406C61.1223 52.4031 60.7893 52.1457 60.4563 52.1457ZM19.9334 55.5689C19.5748 55.5689 19.2418 55.852 19.2418 56.2639C19.2418 56.6242 19.5236 56.9588 19.9334 56.9588C20.3689 56.9588 20.625 56.6757 20.625 56.2639C20.5482 55.9035 20.292 55.5689 19.9334 55.5689ZM20.0615 53.7672C19.7029 53.7672 19.3699 54.0503 19.3699 54.4622C19.3699 54.8482 19.6517 55.1571 20.0615 55.1571C20.4457 55.1571 20.7531 54.874 20.7531 54.4622C20.7275 54.1018 20.4713 53.7672 20.0615 53.7672ZM20.2664 52.1457C19.9078 52.1457 19.5748 52.4288 19.5748 52.8406C19.5748 53.2267 19.9078 53.5356 20.2664 53.5356C20.625 53.5356 20.958 53.2524 20.958 52.8406C20.958 52.4031 20.625 52.1457 20.2664 52.1457ZM60.7893 55.5689C60.4051 55.5689 60.0977 55.9035 60.0977 56.2639C60.0977 56.6242 60.3794 56.9588 60.7893 56.9588C61.1479 56.9588 61.4809 56.6757 61.4809 56.2639C61.5065 55.8778 61.2247 55.5689 60.7893 55.5689ZM60.6612 53.7672C60.3026 53.7672 59.9696 54.1018 59.9696 54.4622C59.9696 54.8225 60.3026 55.1571 60.6612 55.1571C61.0198 55.1571 61.3528 54.874 61.3528 54.4622C61.3528 54.1018 61.0198 53.7672 60.6612 53.7672ZM60.4563 52.1457C60.0977 52.1457 59.7647 52.4288 59.7647 52.8406C59.7647 53.2267 60.0464 53.5356 60.4563 53.5356C60.8661 53.5356 61.1479 53.2524 61.1479 52.8406C61.1223 52.4031 60.7893 52.1457 60.4563 52.1457ZM40.8096 52.0685C40.451 52.0685 40.118 52.3516 40.118 52.7634C40.118 53.1495 40.3998 53.4583 40.8096 53.4583C41.2194 53.4583 41.5012 53.1752 41.5012 52.7634C41.5524 52.3773 41.2451 52.0685 40.8096 52.0685ZM40.8096 45.2477C40.451 45.2477 40.118 45.5308 40.118 45.9426C40.118 46.3287 40.3998 46.6376 40.8096 46.6376C41.2194 46.6376 41.5012 46.3545 41.5012 45.9426C41.5524 45.5308 41.2451 45.2477 40.8096 45.2477ZM40.8096 38.4527C40.451 38.4527 40.118 38.7358 40.118 39.1476C40.118 39.508 40.3998 39.8426 40.8096 39.8426C41.2194 39.8426 41.5012 39.5595 41.5012 39.1476C41.5524 38.7873 41.2451 38.4527 40.8096 38.4527ZM40.8096 38.4527C40.451 38.4527 40.118 38.7358 40.118 39.1476C40.118 39.508 40.3998 39.8426 40.8096 39.8426C41.2194 39.8426 41.5012 39.5595 41.5012 39.1476C41.5524 38.7873 41.2451 38.4527 40.8096 38.4527ZM40.8096 45.2477C40.451 45.2477 40.118 45.5308 40.118 45.9426C40.118 46.3287 40.3998 46.6376 40.8096 46.6376C41.2194 46.6376 41.5012 46.3545 41.5012 45.9426C41.5524 45.5308 41.2451 45.2477 40.8096 45.2477ZM40.8096 52.0685C40.451 52.0685 40.118 52.3516 40.118 52.7634C40.118 53.1495 40.3998 53.4583 40.8096 53.4583C41.2194 53.4583 41.5012 53.1752 41.5012 52.7634C41.5524 52.3773 41.2451 52.0685 40.8096 52.0685Z" fill="#010066"/>
<path d="M53.5403 59.5586C53.5403 59.2755 53.361 59.0696 53.1048 59.0696C52.8231 59.0696 52.6182 59.2497 52.6182 59.5071L52.6694 72.917C52.9512 72.917 53.2841 72.917 53.5659 72.917L53.5403 59.5586Z" fill="#010066"/>
</svg>
