<svg width="80" height="80" fill="none" xmlns="http://www.w3.org/2000/svg"><path d="M80 40c0 22.091-17.909 40-40 40S0 62.091 0 40 17.909 0 40 0s40 17.909 40 40Z" fill="#fff"/><path d="M61.405 28.242H22.966c-3.22 0-6.152 1.271-8.251 3.438-2.127 2.109-3.421 5.056-3.421 8.291 0 3.236 1.265 6.125 3.421 8.291a11.524 11.524 0 0 0 8.251 3.438h42.521a3.443 3.443 0 0 0 3.45-3.467c0-.953-.373-1.82-1.006-2.455a3.424 3.424 0 0 0-2.444-1.011H22.968a4.55 4.55 0 0 1-3.307-1.387c-.863-.896-1.38-1.993-1.38-3.322 0-1.242.489-2.398 1.38-3.322.863-.867 1.984-1.387 3.306-1.387h38.41c.374 0 .575.289.575.578a.56.56 0 0 1-.575.577h-38.41c-.977 0-1.84.376-2.444 1.012a3.537 3.537 0 0 0-1.006 2.455c0 .982.403 1.849 1.007 2.456a3.425 3.425 0 0 0 2.443 1.01h38.41c2.099 0 3.968-.866 5.348-2.224a7.546 7.546 0 0 0 2.213-5.373c0-1.993-.776-3.958-2.213-5.373-1.352-1.387-3.307-2.225-5.319-2.225ZM22.88 27h38.439c1.437 0 2.76.376 3.967.953.403.231.863.491 1.236.751.403.29.863.723 1.007.896a8.8 8.8 0 0 1 2.587 6.24c0 2.369-.948 4.564-2.587 6.211a7.94 7.94 0 0 1-1.811 1.387 4.888 4.888 0 0 1 3.047 1.386c.862.867 1.38 1.994 1.38 3.323 0 1.242-.489 2.397-1.38 3.322-.862.867-1.984 1.387-3.306 1.387l-42.608-.03a12.6 12.6 0 0 1-9.056-3.813C11.438 46.644 10 43.41 10 39.913a12.72 12.72 0 0 1 3.795-9.1 11.978 11.978 0 0 1 2.099-1.733c2.07-1.271 4.513-2.08 6.986-2.08Z" fill="#010066"/></svg>