<svg width="80" height="80" fill="none" xmlns="http://www.w3.org/2000/svg"><circle cx="40" cy="40" r="40" fill="#fff"/><path d="M26.098 71c-.242 0-.506-.266-.528-.377-.439-5.986-.461-11.152-.11-15.786.44-5.675 1.494-10.53 3.208-15.01.088-.221.132-.487.22-.687.44-1.108.944-2.195 1.472-3.259.549-1.153 1.098-2.106 1.933-3.503l.11-.177-.066-.4c-.286-1.485-.571-3.037-.989-4.589-.33-1.286-.637-2.46-1.076-3.48l-.33-.754-.088.82c-.11.909-.131 1.685-.153 2.35 0 .266-.022.51-.044.754 0 .133-.022.244-.022.332-.022.111-.022.2-.022.31 0 .178-.176.267-.308.267l-6.041-.044c-.088-.023-.176-.067-.22-.133-.022-.023-.044-.09-.044-.156.505-4.944.923-8.846 1.56-11.44.571-2.616 1.45-4.146 2.724-4.833.879-.51 1.801-.954 2.812-1.375.857-.399 1.845-.82 3.054-1.263a.167.167 0 0 0 .11-.045c.11 0 .22.045.241.178.286 1.418 1.143 2.77 2.417 3.79a6.936 6.936 0 0 0 4.284 1.486c1.538 0 3.01-.51 4.284-1.485 1.23-.976 2.13-2.328 2.526-3.77V8.7a.23.23 0 0 1 .22-.2l.132.067c.966.354 2.043.798 3.075 1.285a29 29 0 0 1 2.768 1.375c1.275.732 2.087 2.195 2.725 4.833.593 2.55 1.032 6.253 1.56 11.418.021.089 0 .178-.045.222a.248.248 0 0 1-.175.067l-6.064.044c-.154 0-.307-.089-.307-.266 0-.067 0-.155-.022-.266-.022-.111-.022-.244-.022-.377l-.022-.377c-.044-.798-.088-1.685-.176-2.771l-.066-.843-.351.776c-.55 1.22-.901 2.417-1.187 3.547-.417 1.552-.703 3.082-.988 4.59l-.066.355.044.066c.725 1.175 1.362 2.417 1.999 3.636.68 1.375 1.23 2.794 1.648 3.88 1.647 4.39 2.68 9.334 3.163 15.098.352 4.634.308 9.667-.154 15.808-.022.09-.088.289-.33.289H26.099V71Zm6.788-38.444c-.857 1.374-1.516 2.527-2.065 3.658-.593 1.286-1.142 2.594-1.67 3.835v.023c-1.647 4.345-2.658 9.223-3.097 14.92-.352 4.48-.308 9.312.154 15.232l.021.2h27.835l.022-.2c.44-5.853.506-10.842.154-15.232-.417-5.586-1.428-10.464-3.098-14.92a47.369 47.369 0 0 0-1.67-3.88 26.23 26.23 0 0 0-2.064-3.659.368.368 0 0 1-.022-.221v-.045c.285-1.663.593-3.348 1.032-5.121.396-1.441.989-3.326 1.933-5.233v-.044c.022-.066.11-.11.242-.155h.044a.29.29 0 0 1 .286.222c.33 2.04.373 3.48.439 4.766v.488l5.448-.044-.022-.244c-.527-4.833-.922-8.336-1.472-10.775-.527-2.35-1.296-3.747-2.438-4.479-.769-.443-1.67-.864-2.724-1.352a28.178 28.178 0 0 0-2.549-1.042l-.197-.067-.066.2a8.034 8.034 0 0 1-2.57 3.547c-1.253.998-2.9 1.574-4.548 1.574-1.67 0-3.23-.532-4.614-1.574a7.752 7.752 0 0 1-2.57-3.547l-.066-.222-.22.089c-.417.155-.878.355-1.34.554-.395.155-.79.333-1.208.488-.813.31-1.692.732-2.724 1.352-1.143.621-1.89 2.018-2.46 4.479-.55 2.439-.923 5.942-1.473 10.775l-.022.244 5.449.044v-.377c.044-1.108.131-2.682.439-4.9.022-.11.088-.221.22-.221.022 0 .044 0 .087.022.066.022.198.066.264.2.791 1.53 1.406 3.192 1.933 5.21.528 1.862.813 3.636 1.033 5.099v.044c0 .155-.022.244-.066.288Z" fill="#010066" stroke="#010066" stroke-width=".5" stroke-miterlimit="10"/></svg>