<svg width="80" height="80" fill="none" xmlns="http://www.w3.org/2000/svg"><circle cx="40" cy="40" r="40" fill="#fff"/><path d="M28.693 58.93c1.356-5.839 1.817-10.46 1.973-13.418v-.002c.162-3.224-.323-8.023-1.277-14.518l-.004-.025-.006-.024a19.416 19.416 0 0 0-.46-1.592c-.143-.412-.289-.748-.445-.98a1.133 1.133 0 0 0-.316-.33.672.672 0 0 0-.592-.078.793.793 0 0 0-.396.329 1.737 1.737 0 0 0-.182.396c-.036.109-.061.255-.081.404-.021.16-.042.362-.063.604a61.984 61.984 0 0 0-.125 1.98 419.438 419.438 0 0 0-.274 7.158c-.186 5.793-.406 14.093-.694 24.914l-.049 1.838h-3.031c-.928-10.868-1.385-19.084-1.074-24.828v-.003c.031-.638.061-1.424.096-2.323.148-3.812.374-9.643 1.015-14.753l.001-.01.001-.01c.148-1.776.886-4.03 1.955-6.488l.31-.15c.316-.153.791-.38 1.426-.676 1.18-.551 2.912-1.343 5.194-2.342.527 1.602 1.438 2.728 2.018 3.446l.115.143.012.014.012.013c2.2 2.36 5.25 2.854 6.756 2.854 1.539 0 3.748-.354 6.087-2.847.665-.665 1.417-2.008 2.157-3.96 2.064.88 3.555 1.574 4.483 2.083.653.358 1.522.968 2.617 1.844 1.224 2.762 1.838 4.908 2.146 6.285 1.075 5.493 1.234 10.64 1.356 14.603.022.688.042 1.34.065 1.953v.01c.312 5.272-.299 13.64-1.54 25.142H55.15a2431.21 2431.21 0 0 1-.209-5.934c-.187-5.445-.336-9.751-.57-12.779a506.754 506.754 0 0 1-.417-6.172l-.099-1.547c-.199-3.09-.438-6.698-.756-10.821l-.99-.053c-1.434 7.775-2.077 13.515-2.077 17.205 0 3.614.768 8.12 1.988 13.49-4.26 1.78-7.866 2.649-10.398 2.649-2.56 0-6.956-.885-12.93-2.694Z" stroke="#010066"/></svg>