<svg width="80" height="80" fill="none" xmlns="http://www.w3.org/2000/svg"><circle cx="40" cy="40" r="40" fill="#fff"/><path fill-rule="evenodd" clip-rule="evenodd" d="M50.256 54.82V36.862l1.824 2.55 6.759-6.056c-3.54-4.995-6.222-8.444-8.046-10.038-1.824-1.594-4.291-2.396-7.295-3.14l-1.824.532c-1.716.425-3.111.53-4.184.53-1.072-.105-2.574-.53-4.613-1.487-3.433 1.063-6.222 2.338-8.046 3.826-1.823 1.488-4.398 4.782-7.51 9.777l6.545 5.738 2.038-1.7.215 17.534 24.138-.106Z" fill="#fff"/><path d="M59.375 33.036c-.107-.107-.107-.107-.107-.213-.108-.212-.215-.319-.322-.531 0 0 0-.106-.107-.106-.108-.107-.108-.213-.215-.32-.214-.318-.429-.53-.536-.85-.215-.318-.43-.53-.537-.743-.536-.744-1.072-1.488-1.609-2.126-.322-.425-.536-.744-.858-1.062-.536-.744-1.18-1.488-1.824-2.232-.322-.425-.536-.744-.965-1.063-.537-.743-1.395-1.381-2.253-1.806-1.395-.85-2.897-1.488-4.398-2.02-.537-.212-1.073-.425-1.61-.53-.322-.107-.536-.107-.75-.213-.108 0-.215 0-.322.106-1.288.85-3.326 1.17-4.828 1.17-1.502 0-3.433-.32-4.828-1.17h-.429c-.214.106-.536.106-.643.213-.537.212-1.073.318-1.61.53-1.502.532-3.11 1.17-4.398 2.02-.751.531-1.502 1.063-2.146 1.806l-.107.107c-1.287 1.488-2.467 2.975-3.647 4.463-.537.531-.966 1.17-1.395 1.7l-.107.107c-.537.531-.858 1.169-1.288 1.7-.214.319-.536.637-.536 1.062v.213c0 .106 0 .212.107.319 1.073 1.062 2.146 2.231 3.326 3.294.75.744 1.502 1.488 2.36 2.126.322.318.536.53.858.743.215.107.43.319.537.426.107.106.321 0 .429-.107l1.072-1.063V55.14c0 .213.215.425.43.425h24.46c.214 0 .428-.212.428-.425V38.774l.966.956.107.107c.108.106.108.106.215.106h.321c.108 0 .108-.106.215-.106.107-.107.322-.213.429-.213.322-.212.536-.531.858-.744.751-.637 1.502-1.381 2.36-2.125 1.073-1.063 2.253-2.126 3.326-3.294.108-.107.108-.213.108-.213-.537-.106-.537-.212-.537-.212Zm-8.023-7.802c.23-.312.472-.49.728-.532.338.35.537.532.858 1.001 1.18 1.382 2.36 2.763 3.433 4.251.215.213.322.425.537.531a152.257 152.257 0 0 1-5.9 5.845v-9.107c0-.212 0-1.52.344-1.988Zm-17.295-4.738c1.288.532 2.79.744 4.184.744 1.395 0 2.897-.212 4.184-.744l.537-.212-.108.531c-.107.956-.429 1.807-.965 2.444-.966 1.063-2.36 1.382-3.648 1.382-1.394 0-2.79-.32-3.647-1.382-.537-.637-.858-1.594-.966-2.444l-.107-.531.536.212ZM25.69 37.711l-1.502 1.382-.322-.213c-.322-.318-.644-.53-.965-.744-.537-.425-.859-.743-1.288-1.168-1.072-.957-2.145-2.02-3.11-2.976-.215-.213-.43-.425-.537-.637l-.108-.107-.107-.106.108-.319c.107-.106.107-.212.214-.319.322-.531.536-.85.965-1.275l.322-.319.322.32c1.931 2.018 3.97 3.93 6.008 5.844l.107.106-.107.531Zm0-1.381a152.19 152.19 0 0 1-5.9-5.845c.214-.212.321-.425.536-.531 1.072-1.488 2.36-2.763 3.433-4.25.214-.32.536-.532.643-.851l.215-.319.322.319c.215.212.429.531.536.744.107.319.215.637.322 1.063 0 .212.108.425.108.53v9.14h-.215Zm24.54-10.84c-.214.532-.188 1.063-.188 1.595v27.842H26.441V27.085c0-.532-.108-1.063-.322-1.488-.215-.638-.537-1.17-1.073-1.488a11.378 11.378 0 0 1 2.253-1.7c1.073-.638 2.253-1.17 3.433-1.488.644-.319 1.502-.531 2.145-.637 0 .425 0 .637.108.956.107.956.536 1.913 1.072 2.657 1.073 1.275 2.682 1.594 4.292 1.594 1.502 0 3.218-.425 4.29-1.595.645-.743.966-1.7 1.074-2.656 0-.32.107-.638.107-.956.75.212 1.502.425 2.145.637 1.18.425 2.36.85 3.433 1.488.752.531 1.502 1.062 2.253 1.7-.75.213-1.206.744-1.42 1.382Zm8.18 7.758-.536.531c-1.073 1.063-2.039 2.02-3.111 2.976-.43.425-.859.744-1.288 1.169-.322.319-.536.531-.965.744l-.322.212-1.288-1.169-.214-.106v-.531l.107-.106c2.038-1.913 3.97-3.826 6.008-5.845l.322-.319c.214.213.321.425.536.531.322.425.537.85.858 1.276l.215.212-.322.425Z" fill="#010066"/><path d="M33.521 20.177v.32c.107.318.107.85.322 1.487l4.398-1.382 4.506 1.276.536-1.913-5.256-1.7-4.506 1.912Z" fill="#fff"/><path d="m43.069 22.515.536-2.763-5.578-1.7-5.15 1.7.537 2.763 4.505-1.381 5.15 1.381Zm-9.763-2.125 4.72-1.488 5.365 1.488-.43 1.381-4.934-1.487-4.399 1.487-.322-1.381Z" fill="#010066"/><path d="M38.349 14.864c2.467-.425 3.647-1.7 3.647-3.932C41.996 8.062 40.28 7 37.705 7c-1.395 0-2.253.425-2.897 1.275-.75.85-1.18 1.913-.75 3.294l.75-.318c-.322-.957 0-1.7.644-2.444.643-.638 1.287-.957 2.36-.957 2.146 0 3.433.744 3.433 3.082 0 1.913-1.073 2.87-3.326 3.188h-.322v4.144h.858l-.107-3.4Z" fill="#010066"/><path fill-rule="evenodd" clip-rule="evenodd" d="m30.13 50.151 8.796 19.128v.532h19.74l1.823-22.635-2.038-12.434.75-.319v-4.25l-20.275-.213.107 4.57-.107 11.69-8.797 3.931Z" fill="#fff"/><path fill-rule="evenodd" clip-rule="evenodd" d="M38.68 69.81a.46.46 0 0 1 .46-.46h19.526a.46.46 0 0 1 0 .921H39.14a.46.46 0 0 1-.46-.46ZM39.387 30.491v3.389a.144.144 0 0 0 .032.053.117.117 0 0 0 .033.027c.006.003.008.003.01.003h19.096a.284.284 0 0 0 .077-.01v-3.449a.144.144 0 0 0-.033-.053.115.115 0 0 0-.033-.027.022.022 0 0 0-.01-.003H39.472l-.01.003a.187.187 0 0 0-.047.03.115.115 0 0 0-.027.032c-.003.004-.003.005-.002.005Zm-.575-.732c.174-.15.411-.259.65-.259h19.096a.98.98 0 0 1 .734.341c.152.172.263.41.263.65v3.34a.8.8 0 0 1-.266.794c-.206.179-.48.259-.73.259H39.462a.979.979 0 0 1-.734-.342 1.014 1.014 0 0 1-.263-.65v-3.4a.97.97 0 0 1 .346-.733Z" fill="#010066"/><path fill-rule="evenodd" clip-rule="evenodd" d="M43.141 30.81v3.07l.003.006a.174.174 0 0 0 .03.047.117.117 0 0 0 .032.027.022.022 0 0 0 .011.003h1.61a.177.177 0 0 0 .076-.014v-3.126a.177.177 0 0 0-.032-.053.12.12 0 0 0-.033-.028.022.022 0 0 0-.011-.003h-1.6l-.008.003a.184.184 0 0 0-.049.03.114.114 0 0 0-.027.032l-.002.006Zm-.574-.733c.173-.15.41-.258.65-.258h1.61c.322 0 .574.16.733.341.152.172.263.41.263.65v3.188c0 .535-.494.886-.996.886h-1.61a.98.98 0 0 1-.733-.342 1.015 1.015 0 0 1-.263-.65V30.81c0-.324.165-.575.346-.733Zm10.23.733v3.07a.144.144 0 0 0 .032.053.116.116 0 0 0 .032.027c.006.003.009.003.011.003h1.588a.457.457 0 0 0 .098-.094v-3.046a.177.177 0 0 0-.032-.053.118.118 0 0 0-.033-.028.022.022 0 0 0-.011-.003h-1.6a.183.183 0 0 0-.058.034.117.117 0 0 0-.026.031l-.002.006Zm-.575-.733c.173-.15.41-.258.65-.258h1.61c.322 0 .574.16.733.341.152.172.263.41.263.65v3.298l-.05.098a1.422 1.422 0 0 1-.34.435.95.95 0 0 1-.606.243h-1.61a.98.98 0 0 1-.733-.342 1.015 1.015 0 0 1-.263-.65V30.81c0-.324.165-.575.346-.733ZM38.573 34.53v-.001l.46.001h.46v34.719l.172.367-.171.08v.009h-.018l-.089.041v.173l-.368-.001-.188.087-.041-.088-.324-.001.002-.688-8.756-18.776-.212-.37.445-.353 8.594-3.749.034-11.45Zm-.037 12.456-7.831 3.416.551 1.183 7.275-3.203.005-1.396Zm-6.89 5.433 6.829 14.645.053-17.675-6.883 3.03Zm28.38-5.437-1.922-12.168.909-.144 1.931 12.221-1.712 22.954-.918-.069 1.712-22.794ZM43.785 40.48v1.37l.002.007a.174.174 0 0 0 .03.046.118.118 0 0 0 .033.027.023.023 0 0 0 .011.003h10.59v-1.44a.144.144 0 0 0-.033-.053.12.12 0 0 0-.032-.027.023.023 0 0 0-.012-.003H43.872a.184.184 0 0 0-.058.034.115.115 0 0 0-.027.031c0 .002-.002.003-.002.003v.002Zm-.574-.732c.173-.15.41-.259.65-.259h10.513a.98.98 0 0 1 .734.342c.152.171.263.409.263.65v1.487a.884.884 0 0 1-.322.667v6.029c.104.198-.11.447-.295.583L49.39 53.18a.46.46 0 0 1-.65-.108l-.002.002-5.552-4.41v-6.089l-.059-.061a1.015 1.015 0 0 1-.263-.65V40.48a.97.97 0 0 1 .347-.733Zm.896 3.106v5.682l5.03 3.688 4.992-3.66v-5.71H44.107Z" fill="#010066"/></svg>