<svg width="80" height="80" fill="none" xmlns="http://www.w3.org/2000/svg"><circle cx="40" cy="40" r="40" fill="#fff"/><path d="M56.721 22.772s.023 0 .023.022l-.023-.022Zm3.611 23.505c.222-.022.421.111.487.356l-.487-.356Zm-20.911 19.12v-8.725c-1.174.089-4.408.267-7.975.178h-.022c-.266 0-.487-.022-.753-.022-.133 0-.266-.023-.399-.023-.066.112-1.417 2.938-1.417 2.938-.111.2-.4.268-.599.134l-1.727-1.068a.436.436 0 0 1-.133-.601l.797-1.492c-1.373-.133-2.437-.267-2.924-.311-.177.423-.487 1.513-.487 3.74V60.633c.022 1.335.221 2.448.775 3.294.598.89 1.661 1.514 3.5 1.625 2.282.134 5.228.29 7.642.267 1.662-.2 2.99-.245 3.722-.423Zm.443-49.837c-1.55 0-2.968.267-3.965.645-.886.356-1.44.802-1.44 1.247 0 .445.554.89 1.44 1.246.997.4 2.414.668 3.943.668 1.528 0 2.924-.267 3.943-.668.886-.356 1.44-.801 1.44-1.246 0-.445-.554-.89-1.44-1.247-.997-.423-2.37-.645-3.921-.645Zm-.443 4.652c-1.462-.022-2.813-.312-3.832-.712-1.24-.49-2.016-1.225-2.016-2.048 0-.846.753-1.558 1.993-2.048 1.086-.423 2.592-.712 4.298-.712s3.168.267 4.297.712c1.24.49 1.994 1.224 1.994 2.048 0 .846-.775 1.558-2.016 2.048-.997.4-2.348.667-3.832.712v3.672a16.51 16.51 0 0 0 2.392-.267c.776-.133 1.551-.311 2.193-.578h.022c1.263-.512 2.083-1.18 2.57-1.915.709-1.068.953-3.027.355-4.273-.4-.846-1.418-1.558-2.77-2.115-1.417-.579-3.19-.89-5.139-.89-1.949 0-3.743.356-5.139.89-1.351.557-2.37 1.269-2.769 2.115-.598 1.18-.354 3.205.355 4.274.487.712 1.284 1.357 2.57 1.914h.021c.643.267 1.418.423 2.193.578.93.134 1.817.223 2.393.267v-3.672h-.133Zm0 4.54a21.746 21.746 0 0 1-2.525-.267 13.386 13.386 0 0 1-2.349-.6h-.022c-1.44-.601-2.348-1.358-2.924-2.226a4.882 4.882 0 0 1-.487-.957c-.133.133-.354.289-.554.422-.42.29-.974.58-1.728.89-1.816.69-3.566 1.07-4.607 1.292-.133.022-.288.067-.399.089.354.556.864 1.58.953 3.072.11 1.625-.067 3.294-.133 4.073 1.063.111 3.743.4 6.822.467 3.766.067 6.912-.066 7.997-.11v-6.144h-.044Zm-8.573-4.896c-.2-1.002-.133-2.338.266-3.272.465-1.069 1.661-2.004 3.278-2.627 1.507-.6 3.39-.957 5.472-.957 2.082 0 3.965.378 5.471.957 1.617.646 2.792 1.558 3.279 2.627.42.934.465 2.248.266 3.272.066.022.288.2.775.512.377.267.886.512 1.573.801h.022c1.728.69 3.39 1.068 4.43 1.335.488.112.864.2 1.041.268.377.133.864.467 1.352.845.51.401 1.085.935 1.528 1.425l.022.022c1.24 1.38 1.706 3.517 1.839 4.319a.41.41 0 0 1 .066.088.36.36 0 0 1 .067.2c.376.424 1.174 1.559 1.64 3.317.464 1.67.464 3.317.42 3.784.288.468 1.218 2.115 1.373 4.074.178 1.803-.288 3.561-.465 4.184.377.49 1.174 1.803 1.33 4.541.11 1.58-.488 3.094-.798 3.762.022.067.022.089 0 .134.288.578 1.063 2.292 1.13 3.984.022.98-.09 1.87-.266 2.649-.2.89-.554 1.624-.886 2.047a3.731 3.731 0 0 1-.953.802l-.066 2.203c0 .112-.067.2-.111.29-.11.133-1.152 1.18-2.88 1.269h-.022c-1.905.088-2.902-.98-2.902-1.002a.455.455 0 0 1-.11-.2l-.355-1.826c-.399-.111-.687-.267-.886-.467a2.188 2.188 0 0 1-.377-.49 4.636 4.636 0 0 1-.664 1.514c-.753 1.135-2.038 1.847-4.165 2.003-2.281.134-5.272.29-7.709.267-1.794-.022-3.278-.089-4.053-.312-.776.223-2.282.29-4.054.312-2.481 0-5.472-.111-7.709-.267-2.149-.133-3.433-.868-4.165-2.003-.287-.423-.509-.957-.664-1.514-.11.178-.222.356-.377.49-.199.2-.487.356-.886.467l-.354 1.825c-.022.09-.067.134-.11.2 0 0-.998 1.07-2.903 1.002h.067c-1.728-.066-2.77-1.135-2.88-1.268a.37.37 0 0 1-.11-.29l-.067-2.203a3.73 3.73 0 0 1-.953-.802c-.354-.422-.686-1.157-.886-2.047-.2-.78-.288-1.67-.266-2.65.067-1.713.842-3.405 1.13-3.983v-.134c-.31-.668-.93-2.16-.797-3.762.177-2.782.952-4.073 1.329-4.54-.2-.646-.643-2.404-.465-4.185.177-1.959 1.13-3.606 1.373-4.074a13.856 13.856 0 0 1 .42-3.784c.466-1.758 1.264-2.871 1.64-3.316a.36.36 0 0 1 .067-.2c.022-.023.022-.067.066-.09.133-.779.598-2.915 1.839-4.318l.022-.022c.42-.467.974-.98 1.528-1.425.487-.378.975-.69 1.351-.845.2-.09.554-.178 1.042-.267 1.04-.223 2.724-.601 4.43-1.336h.022c.687-.267 1.218-.556 1.573-.801.465-.334.73-.468.775-.512ZM16.45 63.438l.022 1.558c.265.268.996.846 2.193.89 1.24.023 1.927-.466 2.148-.667l.266-1.335c-.709.089-1.55.089-2.326.066-.753-.066-1.595-.222-2.303-.512Zm4.917-.467c.089-.089.222-.111.355-.089h.022c.221-.067.398-.134.487-.223.222-.267.399-.556.554-.957.088-.311.177-.69.177-1.18v-.511c0-2.026.266-3.206.488-3.851a25.29 25.29 0 0 1-4.254-.512h-.022c-1.794-.356-3.19-1.09-3.876-1.536-.31.668-.886 2.026-.953 3.406-.022.89.066 1.736.222 2.426.177.757.465 1.358.753 1.714.354.4.841.756 1.373.98.665.288 1.418.422 2.127.467.797.066 1.661.022 2.348-.067a.356.356 0 0 1 .2-.067Zm18.054-31.207c-1.13.067-4.231.178-7.997.111-3.256-.066-5.98-.356-7-.49-.177.557-.487 1.804-.51 3.584-.066 2.004.111 3.094.2 3.473.975.2 4.297.757 7.221.868 3.19.111 6.912-.134 8.108-.223l-.022-7.323Zm-15.905-.423c-.576 0-1.528-.067-2.415-.29h-.022c-1.063-.266-1.86-.6-2.326-.845-.31.4-.997 1.38-1.44 2.916-.42 1.558-.398 3.027-.398 3.495.42.267 1.617.89 3.012 1.29 1.219.312 2.57.401 3.279.424-.089-.58-.222-1.714-.177-3.45.066-1.603.31-2.85.487-3.54Zm-4.43-1.892c.398.2 1.152.512 2.193.78h.022c.974.222 1.95.266 2.436.266.09-.712.266-2.359.133-3.962-.088-1.469-.664-2.426-.93-2.804-.266.133-.51.356-.842.579-.487.378-.997.868-1.418 1.29 0 0 0 .023-.022.023-1.019 1.18-1.462 3.094-1.572 3.828ZM39.42 39.978c-1.263.089-4.918.356-8.152.222-2.902-.111-6.158-.668-7.244-.868-.177.69-.487 2.16-.51 3.65-.066 1.826.222 3.295.355 3.807.953.178 4.01.69 7.288.801 3.478.111 7.111-.067 8.307-.111v-7.524l-.044.023Zm-16.282-.713c-.775-.022-2.193-.133-3.455-.467-1.374-.4-2.526-.98-3.08-1.291-.354.645-.952 1.914-1.085 3.406-.177 1.847.377 3.695.487 4.028.421.267 1.728 1.002 3.345 1.38h.023c1.44.312 2.857.401 3.566.468a18.008 18.008 0 0 1-.31-3.762c.044-1.536.332-2.983.51-3.762Zm16.282 9.104c-1.24.067-4.896.2-8.351.111-3.257-.11-6.247-.6-7.31-.778-.133.8-.421 2.537-.288 4.25v.023c.11 1.67.686 3.027.863 3.406.51.066 1.728.2 3.301.356.11-.2 2.282-6.077 2.326-6.121a.432.432 0 0 1 .598-.134l1.728 1.069c.133.089.222.289.2.467 0 0-.289 1.246-1.507 4.073-.11.267-.2.512-.288.757-.022.022-.022.067-.022.09h.089c.221.021.42.021.664.021h.022c3.567.112 6.845-.089 7.93-.178V48.37h.045Zm-16.503-.757a21.233 21.233 0 0 1-3.744-.467h-.022a12.187 12.187 0 0 1-3.478-1.425c-.31.468-.864 1.58-.997 3.896-.11 1.736.71 3.316.864 3.583.51.357 1.927 1.225 3.788 1.559h.022c1.728.356 3.19.467 4.032.49-.266-.69-.665-1.848-.753-3.228-.155-1.737.11-3.54.288-4.408ZM27.17 58.52l1.108.668c.288-.512.974-2.026 1.683-3.495.089-.178.177-.378.288-.6.089-.223.2-.49.288-.757v-.023c.842-1.959 1.152-2.604 1.285-3.138l-1.108-.668c-.133.423-1.262 3.317-2.215 5.342-.576 1.224-1.329 2.671-1.329 2.671Zm13.114-33.766v6.165c1.085.067 4.23.178 7.997.112 3.1-.067 5.76-.357 6.822-.468-.088-.779-.265-2.448-.133-4.073a6.642 6.642 0 0 1 .953-3.072c-.11-.022-.266-.067-.399-.089-1.063-.223-2.79-.645-4.585-1.358a8.792 8.792 0 0 1-1.728-.89c-.222-.134-.399-.29-.554-.423a4.89 4.89 0 0 1-.487.957c-.576.868-1.507 1.625-2.924 2.226h-.022c-.687.29-1.529.468-2.348.601-1.042.2-1.972.245-2.592.312Zm22.971 38.685c-.709.29-1.55.468-2.326.512-.775.023-1.617.023-2.326-.066l.266 1.335c.222.2.953.69 2.149.668a3.57 3.57 0 0 0 2.193-.89l.044-1.559Zm-5.294-.556c.022 0 .022 0 0 0a.505.505 0 0 1 .377.089c.066 0 .11.022.177.022.686.09 1.55.111 2.348.067a6.4 6.4 0 0 0 2.126-.467c.576-.223 1.064-.58 1.374-.98.288-.356.554-.957.753-1.714.177-.69.266-1.536.221-2.426-.066-1.358-.642-2.738-.952-3.405-.709.422-2.104 1.18-3.877 1.535h-.022a25.29 25.29 0 0 1-4.253.512c.2.646.487 1.825.487 3.851v.512c.023.467.089.846.178 1.18.133.4.31.69.553.957.067.111.244.2.51.267ZM40.285 31.764v7.346c1.218.089 4.918.356 8.107.222 2.924-.111 6.247-.69 7.222-.868.089-.4.266-1.514.2-3.472-.067-1.825-.355-3.072-.51-3.584-.997.111-3.766.423-7 .49-3.788.044-6.89-.067-8.02-.134Zm15.661-1.269c.488 0 1.462-.022 2.437-.267h.022c1.041-.267 1.794-.578 2.193-.779-.133-.757-.554-2.626-1.617-3.806 0 0-.022 0-.022-.022-.399-.423-.93-.935-1.418-1.291a8.184 8.184 0 0 0-.842-.579c-.288.378-.841 1.335-.93 2.805-.066 1.58.11 3.227.177 3.94Zm5.029-.244c-.466.2-1.263.556-2.326.845h-.023c-.93.2-1.86.267-2.414.29.2.69.465 1.914.51 3.606.022 1.736-.09 2.871-.178 3.45.71-.023 2.083-.111 3.279-.423a13.695 13.695 0 0 0 3.012-1.291c.023-.468.023-1.959-.398-3.495-.443-1.602-1.152-2.582-1.462-2.982Zm-20.69 9.727V47.5c1.218.067 4.829.223 8.307.111 3.278-.11 6.335-.645 7.288-.8.11-.513.398-2.004.354-3.807-.022-1.514-.354-2.938-.51-3.65-1.085.2-4.341.756-7.243.867-3.279.112-6.934-.133-8.196-.244Zm22.794-2.471c-.554.312-1.728.935-3.08 1.29-1.262.357-2.702.424-3.455.468.2.78.488 2.226.51 3.695a19.514 19.514 0 0 1-.31 3.762 19.227 19.227 0 0 0 3.566-.467h.022c1.617-.379 2.902-1.136 3.345-1.38.11-.357.665-2.204.487-4.03-.11-1.446-.753-2.715-1.085-3.338ZM40.285 48.369v7.39c1.085.09 4.364.29 7.93.178h.022c.222 0 .465-.022.665-.022h.088c-.022-.022-.022-.067-.022-.09-.088-.222-.199-.467-.288-.756-1.218-2.827-1.506-4.073-1.506-4.073-.022-.178.022-.379.2-.468L49.1 49.46a.453.453 0 0 1 .598.133c.023.023.023.09.067.134.066.2 2.17 5.787 2.26 5.988a72.525 72.525 0 0 0 3.3-.357c.2-.4.775-1.736.864-3.405v-.022c.133-1.714-.133-3.45-.288-4.252-1.063.2-4.054.69-7.31.78-3.434.133-7.067 0-8.307-.09Zm23.746-2.626a12.19 12.19 0 0 1-3.477 1.424h-.023c-1.506.312-2.968.423-3.743.468.177.89.42 2.648.288 4.43-.089 1.38-.487 2.537-.753 3.227a24.32 24.32 0 0 0 4.031-.49h.023c1.86-.356 3.278-1.224 3.787-1.558.133-.267.975-1.87.864-3.584-.133-2.337-.686-3.472-.997-3.917ZM40.285 56.672v8.725c.709.134 2.038.223 3.633.223a120.4 120.4 0 0 0 7.642-.267c1.839-.112 2.902-.69 3.5-1.625.554-.846.753-1.959.775-3.294V59.944c0-2.226-.31-3.317-.487-3.74-.487.067-1.55.178-2.924.312l.797 1.491c.111.2.067.468-.132.601l-1.728 1.069a.453.453 0 0 1-.598-.134s-1.396-2.649-1.418-2.782c-.133 0-.266.022-.399.022-.266.022-.487.022-.753.022h-.022c-3.478.112-6.734-.044-7.886-.133ZM50.54 54.29c-.775-1.803-1.24-3.094-1.44-3.762l-.974.601c.133.49.509 1.648 1.35 3.65v.023c.09.267.2.49.289.757.088.222.2.4.288.6.664 1.47 1.218 2.494 1.506 2.983l.975-.6s-1.861-3.807-1.994-4.252Z" fill="#010066"/></svg>