<svg width="80" height="80" fill="none" xmlns="http://www.w3.org/2000/svg"><circle cx="40" cy="40" r="40" fill="#fff"/><path d="M44.848 15.454c0-1.369-.522-2.577-1.407-3.467-.885-.889-2.088-1.414-3.45-1.414a4.88 4.88 0 0 0-3.449 1.414c-.885.89-1.407 2.098-1.407 3.467 0 5.154 1.974 11.014 3.926 16.852.136.48.318.958.477 1.414l-.477 1.414-8.51-11.083c-.069-.091-.091-.182-.114-.273a.654.654 0 0 1 0-.297c.023-.182 1.407-1.71 2.156-2.486.204-.228.386-.41.408-.433.137-.182.205-.365.114-.57-.023-.114-.136-.228-.227-.297a.502.502 0 0 0-.363-.068c-.522.091-1.021.205-1.543.365-.522.114-.999.274-1.498.41h-.091c-.114 0-.204-.022-.272-.114a.342.342 0 0 1-.114-.273v-.434c0-2.645 1.271-5.153 3.223-6.864 1.997-1.779 4.766-2.873 7.807-2.873 3.064 0 5.833 1.094 7.807 2.873 1.975 1.779 3.223 4.242 3.223 6.864v.434c0 .09-.068.205-.114.273a.34.34 0 0 1-.272.114h-.091a67.524 67.524 0 0 0-1.498-.41 37.577 37.577 0 0 1-1.543-.365.502.502 0 0 0-.363.069.484.484 0 0 0-.227.296c-.068.137-.023.296.023.41.023.092.068.114.113.183.091.114.227.273.386.433.704.798 2.088 2.349 2.156 2.509a.651.651 0 0 1 0 .296c-.023.091-.068.183-.113.274L39.334 37.46c2.155-6.955 5.514-14.891 5.514-22.006Zm9.192 36.602c0-.023 0-.092-.023-.114L51.362 34.61c-.023-.228-.272-.41-.5-.388-.226.023-.408.274-.385.502l2.655 17.354v17.81H38.448v-30.01l11.643-15.234c.136-.205.227-.388.295-.616a1.17 1.17 0 0 0 0-.684c-.09-.365-1.27-1.71-2.065-2.6.181.023.318.092.5.114.498.114.975.274 1.452.388a.497.497 0 0 0 .181.023h.136c.318 0 .658-.114.863-.365.227-.205.386-.502.408-.82v-.503c0-.319-.022-.684-.068-1.003l4.108 2.395c.318.205.59.41.772.707.181.273.295.57.363.912l4.947 34.891-4.04.32c-.385.022-.703.205-.953.501-.227.274-.363.616-.317 1.003.022.388.204.707.476.958.273.228.658.365.999.32l4.221-.365.136 1.003-7.013.525-1.452-9.692ZM37.586 39.764v30.148H27.26V49.09l2.178-14.367c.023-.228-.136-.48-.363-.502-.227-.023-.476.137-.499.388l-2.179 14.344c0 .023-.022.091-.022.114l-1.93 12.794-7.012-.525.136-1.003 4.221.319a1.39 1.39 0 0 0 .999-.32c.272-.227.476-.57.476-.957.023-.388-.09-.73-.317-1.004a1.362 1.362 0 0 0-.954-.501l-4.04-.342 4.97-34.892c.069-.365.182-.661.364-.912.182-.274.431-.502.772-.707l4.062-2.394c-.023.319-.068.661-.068.98v.502c.023.32.182.616.409.82.226.206.521.366.862.366.113 0 .204 0 .318-.023.476-.137.976-.274 1.452-.388.136-.023.318-.09.477-.114-.795.89-1.997 2.212-2.066 2.577a1.17 1.17 0 0 0 0 .684c.069.206.137.41.296.616l8.873 11.517c-.204.684-1.089 3.078-1.089 3.603ZM26.397 54.906v15.462c0 .273.205.479.431.479h26.758c.227 0 .431-.206.431-.48V57.872l.681 4.492c.023.228.273.41.477.388l7.898-.593c.227-.023.408-.274.386-.502l-.273-1.892-.272-1.87v-.023L57.92 22.523a2.936 2.936 0 0 0-.5-1.3 3.11 3.11 0 0 0-1.066-.957l-4.72-2.783c-.477-2.098-1.657-3.968-3.269-5.382C46.21 10.186 43.237 9 39.97 9c-3.268 0-6.241 1.186-8.397 3.101-1.657 1.46-2.792 3.307-3.268 5.428l-4.676 2.76a3.964 3.964 0 0 0-1.066.957c-.273.388-.409.798-.5 1.3l-5.015 35.325v.023l-.273 1.87-.272 1.892c-.022.228.136.48.386.502h.023l7.875.593c.227.023.431-.137.476-.388l1.135-7.457ZM41.285 41.93c-.408 0-.771.137-1.021.41a1.396 1.396 0 0 0-.409 1.027c0 .41.137.775.409 1.026.272.274.613.41 1.021.41.409 0 .772-.136 1.022-.41.272-.274.408-.616.408-1.026 0-.41-.136-.775-.408-1.026-.296-.251-.636-.41-1.022-.41Zm-.43 1.072a.498.498 0 0 1 .408-.183c.136 0 .295.069.385.183a.488.488 0 0 1 .182.388.615.615 0 0 1-.182.41.564.564 0 0 1-.385.183.609.609 0 0 1-.409-.183.535.535 0 0 1-.181-.41.88.88 0 0 1 .181-.388Zm.43 9.555c-.408 0-.771.137-1.021.41a1.396 1.396 0 0 0-.409 1.027c0 .41.137.775.409 1.026.272.274.613.41 1.021.41.409 0 .772-.136 1.022-.41.272-.274.408-.616.408-1.026 0-.41-.136-.776-.408-1.026-.296-.251-.636-.41-1.022-.41Zm-.43 1.05a.574.574 0 0 1 .408-.183c.136 0 .295.068.385.182a.502.502 0 0 1 .182.41.535.535 0 0 1-.182.411.532.532 0 0 1-.385.137.872.872 0 0 1-.409-.137c-.09-.114-.181-.228-.181-.41.022-.183.113-.297.181-.41Zm.43 9.554a1.54 1.54 0 0 0-1.021.41 1.396 1.396 0 0 0-.409 1.027c0 .388.137.776.409 1.026.272.274.613.41 1.021.41a1.54 1.54 0 0 0 1.022-.41c.272-.273.408-.615.408-1.026 0-.41-.136-.775-.408-1.026-.296-.228-.636-.41-1.022-.41Zm-.43 1.072a.574.574 0 0 1 .408-.182c.136 0 .295.068.385.182a.502.502 0 0 1 .182.41.523.523 0 0 1-.182.388.564.564 0 0 1-.385.183.608.608 0 0 1-.409-.183.569.569 0 0 1-.181-.387.861.861 0 0 1 .181-.41ZM28.757 63.07l1.883.206c.227.022.477-.137.477-.388l1.362-13.57c.022-.227-.137-.478-.409-.478l-1.884-.205c-.227-.023-.476.137-.476.41l-1.362 13.57c0 .227.159.432.409.455Zm1.52-.73-.998-.09 1.27-12.68 1 .114-1.272 12.657Zm20.902-.09-1.02.09-1.272-12.679 1.022-.114 1.27 12.702Zm-1.384 1.003 1.884-.206a.437.437 0 0 0 .386-.478l-1.362-13.57a.47.47 0 0 0-.477-.41l-1.883.205a.437.437 0 0 0-.386.48l1.361 13.568c.046.274.25.434.477.41Zm-32.068-3.809.136-1.026 4.108.365c.136 0 .272.091.363.182.09.092.113.228.113.365v.023c-.022.137-.09.274-.181.32-.091.09-.227.113-.363.113h-.023l-4.153-.342Zm44.414-1.049.136 1.026-4.13.32h-.023c-.136 0-.272-.023-.363-.114a.895.895 0 0 1-.182-.32v-.022c0-.137.023-.274.114-.365.09-.092.204-.183.363-.183l4.085-.342Zm-21.855-26.91c-.091.297-.205.593-.295.89l-.114-.32c-1.952-5.746-3.88-11.561-3.88-16.556 0-1.094.43-2.098 1.157-2.85a4.022 4.022 0 0 1 2.837-1.163c1.089 0 2.088.433 2.837 1.163a4.061 4.061 0 0 1 1.157 2.85c-.023 5.132-1.974 10.856-3.7 15.987Z" fill="#010066"/></svg>