<svg width="80" height="80" fill="none" xmlns="http://www.w3.org/2000/svg"><circle cx="40" cy="40" r="40" fill="#fff"/><path d="M66.203 55.351s.664 1.864 1.135 3.796l-5.957 1.014s-.626-1.864-1.145-3.48h.004l-6.429-19.935.94 23.414c-2.878 3.68-14.197 3.837-14.197 3.837-12.18.375-14.112-3.837-14.112-3.837l.853-23.414-6.43 19.937c-.52 1.613-1.146 3.479-1.146 3.479l-5.975-1.014c.473-1.93 1.138-3.796 1.138-3.796l8.866-31.916 9.183-3.208 1.233-2.997s5.839-2.698 13.346 0l1.227 2.997 8.623 3.207 8.866 31.917h-.023v0Z" stroke="#010066" stroke-width="1.5" stroke-miterlimit="10" stroke-linecap="round" stroke-linejoin="round"/><path d="M34.163 17.23s5.838-2.697 13.345 0l-3.562 4.225-.798.408-.799.407.163 1.697-1.627 4.285-2.14-4.285.013-1.697-1.034-.815-3.56-4.224ZM42.553 53.827c0 .1-.082.185-.185.185a.186.186 0 0 1-.184-.185c0-.106.081-.188.184-.188a.187.187 0 0 1 .185.188ZM42.626 47.105a.186.186 0 0 1-.37 0c-.001-.107.082-.187.185-.187a.18.18 0 0 1 .184.187ZM42.517 41.492a.185.185 0 1 0 0-.371.185.185 0 0 0 0 .371ZM42.96 34.584c0 .102-.08.185-.184.185a.186.186 0 0 1-.187-.184c0-.105.084-.187.188-.187.103 0 .183.082.183.186ZM43.146 28.49a.185.185 0 1 0 0-.37.185.185 0 0 0 0 .37ZM20.866 56.683c-.521 1.613-1.147 3.479-1.147 3.479l-5.975-1.014c.473-1.93 1.138-3.796 1.138-3.796l5.984 1.33ZM60.236 56.683c.518 1.613 1.145 3.479 1.145 3.479l5.957-1.014c-.47-1.93-1.135-3.796-1.135-3.796l-5.967 1.33Z" stroke="#010066" stroke-width="1.5" stroke-miterlimit="10" stroke-linecap="round" stroke-linejoin="round"/><path d="m34.163 17.231-1.233 2.996 2.57 7.115 2.224-5.887-3.56-4.224ZM47.508 17.231l1.231 2.996-2.569 7.115-2.223-5.887 3.561-4.224Z" stroke="#010066" stroke-miterlimit="10" stroke-linecap="round" stroke-linejoin="round"/><path d="M41.044 63.984c-1.125-6.363-.159-35.733-.159-35.733l-2.14-4.284.013-1.697-1.034-.815-3.56-4.224-1.234 2.997-9.183 3.208L14.88 55.35s-.665 1.864-1.138 3.796l5.975 1.014s.627-1.864 1.147-3.48l6.427-19.935-.852 23.414s1.932 4.21 14.111 3.837c.001 0 .023.006.493-.013Z" stroke="#010066" stroke-width=".5" stroke-miterlimit="10" stroke-linecap="round" stroke-linejoin="round"/><path d="M47.508 17.23c-7.507-2.697-13.345 0-13.345 0l1.435 1.702c1.974-.566 5.814-1.252 10.44.036l1.47-1.737Z" stroke="#010066" stroke-width=".5" stroke-miterlimit="10" stroke-linecap="round" stroke-linejoin="round"/></svg>