<svg width="80" height="80" fill="none" xmlns="http://www.w3.org/2000/svg"><circle cx="40" cy="40" r="40" fill="#fff"/><path d="M48.315 62.621a.472.472 0 0 0-.487-.489.472.472 0 0 0-.486.49v10.32h.947l.026-10.32ZM33.074 61.9a.472.472 0 0 0-.487-.488.472.472 0 0 0-.487.489v11.067h.948l.026-11.067ZM27.849 59.12c0-.282-.205-.437-.487-.437-.282 0-.435.206-.435.49l-.052 13.821h.897l.077-13.873Z" fill="#010066"/><path d="M20.061 53.767a.69.69 0 0 0-.691.695c0 .386.282.695.691.695a.675.675 0 0 0 .692-.695c-.026-.36-.282-.695-.692-.695Zm-.128 1.802a.69.69 0 0 0-.691.695c0 .36.282.695.691.695.436 0 .692-.283.692-.695-.077-.36-.333-.695-.692-.695Zm.333-3.423a.69.69 0 0 0-.691.695c0 .386.333.695.691.695a.69.69 0 0 0 .692-.695.674.674 0 0 0-.692-.695Zm0 0a.69.69 0 0 0-.691.695c0 .386.333.695.691.695a.69.69 0 0 0 .692-.695.674.674 0 0 0-.692-.695Zm-.333 3.423a.69.69 0 0 0-.691.695c0 .36.282.695.691.695.436 0 .692-.283.692-.695-.077-.36-.333-.695-.692-.695Zm.128-1.802a.69.69 0 0 0-.691.695c0 .386.282.695.691.695a.675.675 0 0 0 .692-.695c-.026-.36-.282-.695-.692-.695Zm20.749-1.699a.69.69 0 0 0-.692.695c0 .387.282.695.692.695s.691-.283.691-.695c.051-.386-.256-.694-.691-.694Zm0-6.82a.69.69 0 0 0-.692.695c0 .386.282.695.692.695s.691-.283.691-.695c.051-.412-.256-.695-.691-.695Zm0-6.795a.69.69 0 0 0-.692.695c0 .36.282.695.692.695s.691-.284.691-.695c.051-.36-.256-.695-.691-.695Zm19.646 13.693a.69.69 0 0 0-.691.695c0 .386.281.695.691.695.41 0 .692-.284.692-.695-.026-.438-.359-.695-.692-.695Zm.205 1.621c-.358 0-.691.335-.691.695 0 .36.333.695.691.695a.69.69 0 0 0 .692-.695c0-.36-.333-.695-.692-.695Zm.128 1.802a.707.707 0 0 0-.691.695c0 .36.281.695.691.695a.69.69 0 0 0 .692-.695c.026-.386-.256-.695-.692-.695Zm0 0a.707.707 0 0 0-.691.695c0 .36.281.695.691.695a.69.69 0 0 0 .692-.695c.026-.386-.256-.695-.692-.695Zm-.128-1.802c-.358 0-.691.335-.691.695 0 .36.333.695.691.695a.69.69 0 0 0 .692-.695c0-.36-.333-.695-.692-.695Zm-.205-1.621a.69.69 0 0 0-.691.695c0 .386.281.695.691.695.41 0 .692-.284.692-.695-.026-.438-.359-.695-.692-.695ZM40.81 38.453a.69.69 0 0 0-.692.695c0 .36.282.695.692.695s.691-.284.691-.695c.051-.36-.256-.695-.691-.695Zm0 6.795a.69.69 0 0 0-.692.695c0 .386.282.695.692.695s.691-.283.691-.695c.051-.412-.256-.695-.691-.695Zm0 6.82a.69.69 0 0 0-.692.695c0 .387.282.695.692.695s.691-.283.691-.695c.051-.386-.256-.694-.691-.694Zm-20.749 1.7a.69.69 0 0 0-.691.694c0 .386.282.695.691.695a.675.675 0 0 0 .692-.695c-.026-.36-.282-.695-.692-.695Zm-.128 1.8a.69.69 0 0 0-.691.696c0 .36.282.695.691.695.436 0 .692-.283.692-.695-.077-.36-.333-.695-.692-.695Zm.333-3.422a.69.69 0 0 0-.691.695c0 .386.333.695.691.695a.69.69 0 0 0 .692-.695.674.674 0 0 0-.692-.695Zm0 0a.69.69 0 0 0-.691.695c0 .386.333.695.691.695a.69.69 0 0 0 .692-.695.674.674 0 0 0-.692-.695Zm-.333 3.423a.69.69 0 0 0-.691.695c0 .36.282.695.691.695.436 0 .692-.283.692-.695-.077-.36-.333-.695-.692-.695Zm.128-1.802a.69.69 0 0 0-.691.695c0 .386.282.695.691.695a.675.675 0 0 0 .692-.695c-.026-.36-.282-.695-.692-.695Zm20.749-1.699a.69.69 0 0 0-.692.695c0 .387.282.695.692.695s.691-.283.691-.695c.051-.386-.256-.694-.691-.694Zm0-6.82a.69.69 0 0 0-.692.695c0 .386.282.695.692.695s.691-.283.691-.695c.051-.412-.256-.695-.691-.695Zm0-6.795a.69.69 0 0 0-.692.695c0 .36.282.695.692.695s.691-.284.691-.695c.051-.36-.256-.695-.691-.695Zm19.646 13.693a.69.69 0 0 0-.691.695c0 .386.281.695.691.695.41 0 .692-.284.692-.695-.026-.438-.359-.695-.692-.695Zm.205 1.621c-.358 0-.691.335-.691.695 0 .36.333.695.691.695a.69.69 0 0 0 .692-.695c0-.36-.333-.695-.692-.695Zm.128 1.802a.707.707 0 0 0-.691.695c0 .36.281.695.691.695a.69.69 0 0 0 .692-.695c.026-.386-.256-.695-.692-.695Zm0 0a.707.707 0 0 0-.691.695c0 .36.281.695.691.695a.69.69 0 0 0 .692-.695c.026-.386-.256-.695-.692-.695Zm-.128-1.802c-.358 0-.691.335-.691.695 0 .36.333.695.691.695a.69.69 0 0 0 .692-.695c0-.36-.333-.695-.692-.695Zm-.205-1.621a.69.69 0 0 0-.691.695c0 .386.281.695.691.695.41 0 .692-.284.692-.695-.026-.438-.359-.695-.692-.695ZM40.81 38.453a.69.69 0 0 0-.692.695c0 .36.282.695.692.695s.691-.284.691-.695c.051-.36-.256-.695-.691-.695Zm0 6.795a.69.69 0 0 0-.692.695c0 .386.282.695.692.695s.691-.283.691-.695c.051-.412-.256-.695-.691-.695Zm0 6.82a.69.69 0 0 0-.692.695c0 .387.282.695.692.695s.691-.283.691-.695c.051-.386-.256-.694-.691-.694Zm-20.749 1.7a.69.69 0 0 0-.691.694c0 .386.282.695.691.695a.675.675 0 0 0 .692-.695c-.026-.36-.282-.695-.692-.695Zm-.128 1.8a.69.69 0 0 0-.691.696c0 .36.282.695.691.695.436 0 .692-.283.692-.695-.077-.36-.333-.695-.692-.695Zm.333-3.422a.69.69 0 0 0-.691.695c0 .386.333.695.691.695a.69.69 0 0 0 .692-.695.674.674 0 0 0-.692-.695Zm0 0a.69.69 0 0 0-.691.695c0 .386.333.695.691.695a.69.69 0 0 0 .692-.695.674.674 0 0 0-.692-.695Zm-.333 3.423a.69.69 0 0 0-.691.695c0 .36.282.695.691.695.436 0 .692-.283.692-.695-.077-.36-.333-.695-.692-.695Zm.128-1.802a.69.69 0 0 0-.691.695c0 .386.282.695.691.695a.675.675 0 0 0 .692-.695c-.026-.36-.282-.695-.692-.695Zm20.749-1.699a.69.69 0 0 0-.692.695c0 .387.282.695.692.695s.691-.283.691-.695c.051-.386-.256-.694-.691-.694Zm0-6.82a.69.69 0 0 0-.692.695c0 .386.282.695.692.695s.691-.283.691-.695c.051-.412-.256-.695-.691-.695Zm0-6.795a.69.69 0 0 0-.692.695c0 .36.282.695.692.695s.691-.284.691-.695c.051-.36-.256-.695-.691-.695Zm19.646 13.693a.69.69 0 0 0-.691.695c0 .386.281.695.691.695.41 0 .692-.284.692-.695-.026-.438-.359-.695-.692-.695Zm.205 1.621c-.358 0-.691.335-.691.695 0 .36.333.695.691.695a.69.69 0 0 0 .692-.695c0-.36-.333-.695-.692-.695Zm.128 1.802a.707.707 0 0 0-.691.695c0 .36.281.695.691.695a.69.69 0 0 0 .692-.695c.026-.386-.256-.695-.692-.695Zm0 0a.707.707 0 0 0-.691.695c0 .36.281.695.691.695a.69.69 0 0 0 .692-.695c.026-.386-.256-.695-.692-.695Zm.487-1.081a.69.69 0 0 0-.692-.695.707.707 0 0 0-.691.695c0 .36.333.695.691.695.436 0 .692-.283.692-.695Zm-.82-1.004a.675.675 0 0 0 .692-.695.675.675 0 0 0-.692-.695.69.69 0 0 0-.691.695c0 .386.281.695.691.695ZM40.81 39.791a.69.69 0 0 0 .691-.695.69.69 0 0 0-.691-.695c-.41 0-.692.283-.692.695.051.386.359.695.692.695Zm0 5.457a.69.69 0 0 0-.692.695c0 .386.282.695.692.695s.691-.283.691-.695c.051-.412-.256-.695-.691-.695Zm0 6.82a.69.69 0 0 0-.692.695c0 .387.282.695.692.695s.691-.283.691-.695c.051-.386-.256-.694-.691-.694Zm-20.749 1.7a.69.69 0 0 0-.691.694c0 .386.282.695.691.695a.675.675 0 0 0 .692-.695c-.026-.36-.282-.695-.692-.695Zm-.128 1.8a.69.69 0 0 0-.691.696c0 .36.282.695.691.695.436 0 .692-.283.692-.695-.077-.36-.333-.695-.692-.695Zm.333-2.084a.69.69 0 0 0 .692-.695.675.675 0 0 0-.692-.695.69.69 0 0 0-.691.695c-.051.386.358.695.691.695Zm42.726 4.35-3.176-34.541-.051-.284c-.308-2.908-.564-5.842-3.048-7.49-.052 0-.052-.051-.052-.051l-8.53-4.659-.563-.823-.051-.052c-1.127-1.364-2.28-2.059-3.51-2.496C42.86 7.078 41.681 7 40.529 7h-.333c-1.153 0-2.331.051-3.458.386-1.204.386-2.382 1.133-3.56 2.497 0 0 0 .051-.052.051l-.563.824-8.71 4.71s-.05 0-.05.052c-2.537 1.621-2.793 4.504-3.023 7.464l-.052.231-3.227 34.49v.052c0 .283.18.437.384.489l7.377.437c.282 0 .436-.18.487-.386l.973-10.681v11.84c0 .205.205.437.436.437h4.175c1.025 0 1.896 0 2.664.051 3.202.13 4.995.13 6.096-1.364 1.204 1.364 3.305 1.364 7.121 1.313h6.097c.205 0 .435-.206.435-.438v-11.84l.974 10.682c.05.283.204.438.384.438h.051l7.377-.438c.308-.051.512-.257.461-.463ZM46.855 10.552l2.228 3.011-1.28.54c-.205.13-.334.361-.282.567.051.129.128.206.205.283l1.895.901-7.582 14.491v.052L41.014 32.3c.769-2.574 1.563-5.791 2.229-8.88 1.025-4.53 1.819-8.828 1.819-10.99 0-1.622-.436-3.012-1.307-3.912-.05-.052-.05-.13-.128-.155 1.204.36 2.254.978 3.228 2.188Zm-6.532-2.548c1.28 0 2.228.386 2.894 1.158.692.772 1.025 1.905 1.025 3.372 0 2.059-.82 6.332-1.793 10.759-.692 3.063-1.486 6.228-2.228 8.828-.897-3.037-1.845-6.872-2.562-10.373-.82-3.86-1.358-7.464-1.358-9.214 0-1.364.359-2.548 1.025-3.372.743-.72 1.716-1.158 2.997-1.158Zm-6.557 2.548c1.024-1.21 2.023-1.828 3.099-2.188-.051.052-.128.129-.154.18-.87.953-1.306 2.291-1.306 3.913 0 1.904.563 5.508 1.434 9.42.718 3.372 1.64 7.027 2.51 10.038l-.82-1.621-7.581-14.517 1.895-.901c.282-.129.333-.36.205-.566-.051-.129-.153-.206-.282-.283l-1.28-.54 2.28-2.935Zm-6.942 27.412-1.819 19.87-6.506-.36 3.15-34.104.052-.206c.282-2.497.486-4.942 2.126-6.409l3.022 16.06v5.174h-.025v-.025Zm7.198 21.105c-.82 0-1.717-.051-2.664-.051h-3.689V46.38H34.841c.205 0 .436-.206.436-.437 0-.206-.205-.438-.436-.438v.052H27.643V32.636l-3.048-16.473 6.635-3.63-.718.953c-.05.052-.05.052-.05.129-.052.206 0 .489.28.566l.872.36-1.435.695-.05.052c-.206.129-.334.36-.206.566l7.762 14.929 1.895 3.629c-.282.952-.538 1.724-.82 2.368 0 .051-.05.154-.05.206v11.067c0 2.703 0 4.736.153 6.332.128 1.493.358 2.574.717 3.372-.82 1.415-2.459 1.364-5.558 1.312ZM52.977 32.61c-.051.051-.051.051-.051.129V45.53H45.42c-.282 0-.435.206-.435.437 0 .283.18.438.435.438h7.505v12.638h-3.79c-.436 0-1.153.051-1.896.051-3.893.052-5.943.052-6.762-1.467l-.052-.051c-.384-.695-.614-1.725-.717-3.218-.128-1.518-.154-3.629-.154-6.28v-10.99l3.305-6.28c.051 0 .051-.052.051-.052l7.813-14.903v-.051c.05-.206 0-.49-.205-.567l-1.46-.695.82-.36c.05 0 .127-.051.127-.051.205-.155.205-.387.052-.618l-.692-.952 6.634 3.629-3.022 16.421Zm2.638 25.224-1.819-19.87V32.79l3.023-16.06c1.64 1.466 1.895 3.912 2.126 6.408l.051.206 3.176 34.078-6.557.412Zm4.56-1.57c0 .36.281.695.691.695a.69.69 0 0 0 .692-.695.675.675 0 0 0-.692-.695.69.69 0 0 0-.691.695Zm.486-2.497c-.358 0-.691.335-.691.695 0 .36.333.695.691.695a.69.69 0 0 0 .692-.695c0-.36-.333-.695-.692-.695Zm-.205-.283a.675.675 0 0 0 .692-.695.675.675 0 0 0-.692-.695.69.69 0 0 0-.691.695c0 .386.281.695.691.695ZM40.81 38.453a.69.69 0 0 0-.692.695c0 .36.282.695.692.695s.691-.284.691-.695c.051-.36-.256-.695-.691-.695Zm0 6.795a.69.69 0 0 0-.692.695c0 .386.282.695.692.695s.691-.283.691-.695c.051-.412-.256-.695-.691-.695Zm0 6.82a.69.69 0 0 0-.692.695c0 .387.282.695.692.695s.691-.283.691-.695c.051-.386-.256-.694-.691-.694Zm-20.749 1.7a.69.69 0 0 0-.691.694c0 .386.282.695.691.695a.675.675 0 0 0 .692-.695c-.026-.36-.282-.695-.692-.695Zm-.128 1.8a.69.69 0 0 0-.691.696c0 .36.282.695.691.695.436 0 .692-.283.692-.695-.077-.36-.333-.695-.692-.695Zm.333-3.422a.69.69 0 0 0-.691.695c0 .386.333.695.691.695a.69.69 0 0 0 .692-.695.674.674 0 0 0-.692-.695Zm0 0a.69.69 0 0 0-.691.695c0 .386.333.695.691.695a.69.69 0 0 0 .692-.695.674.674 0 0 0-.692-.695Zm-.333 3.423a.69.69 0 0 0-.691.695c0 .36.282.695.691.695.436 0 .692-.283.692-.695-.077-.36-.333-.695-.692-.695Zm.128-1.802a.69.69 0 0 0-.691.695c0 .386.282.695.691.695a.675.675 0 0 0 .692-.695c-.026-.36-.282-.695-.692-.695Zm20.749-1.699a.69.69 0 0 0-.692.695c0 .387.282.695.692.695s.691-.283.691-.695c.051-.386-.256-.694-.691-.694Zm0-6.82a.69.69 0 0 0-.692.695c0 .386.282.695.692.695s.691-.283.691-.695c.051-.412-.256-.695-.691-.695Zm0-6.795a.69.69 0 0 0-.692.695c0 .36.282.695.692.695s.691-.284.691-.695c.051-.36-.256-.695-.691-.695Zm19.646 13.693a.69.69 0 0 0-.691.695c0 .386.281.695.691.695.41 0 .692-.284.692-.695-.026-.438-.359-.695-.692-.695Zm.205 1.621c-.358 0-.691.335-.691.695 0 .36.333.695.691.695a.69.69 0 0 0 .692-.695c0-.36-.333-.695-.692-.695Zm.128 1.802a.707.707 0 0 0-.691.695c0 .36.281.695.691.695a.69.69 0 0 0 .692-.695c.026-.386-.256-.695-.692-.695Zm0 0a.707.707 0 0 0-.691.695c0 .36.281.695.691.695a.69.69 0 0 0 .692-.695c.026-.386-.256-.695-.692-.695Zm-.128-1.802c-.358 0-.691.335-.691.695 0 .36.333.695.691.695a.69.69 0 0 0 .692-.695c0-.36-.333-.695-.692-.695Zm-.205-1.621a.69.69 0 0 0-.691.695c0 .386.281.695.691.695.41 0 .692-.284.692-.695-.026-.438-.359-.695-.692-.695ZM40.81 38.453a.69.69 0 0 0-.692.695c0 .36.282.695.692.695s.691-.284.691-.695c.051-.36-.256-.695-.691-.695Zm0 6.795a.69.69 0 0 0-.692.695c0 .386.282.695.692.695s.691-.283.691-.695c.051-.412-.256-.695-.691-.695Zm0 6.82a.69.69 0 0 0-.692.695c0 .387.282.695.692.695s.691-.283.691-.695c.051-.386-.256-.694-.691-.694Zm-20.749 1.7a.69.69 0 0 0-.691.694c0 .386.282.695.691.695a.675.675 0 0 0 .692-.695c-.026-.36-.282-.695-.692-.695Zm-.128 1.8a.69.69 0 0 0-.691.696c0 .36.282.695.691.695.436 0 .692-.283.692-.695-.077-.36-.333-.695-.692-.695Zm.333-3.422a.69.69 0 0 0-.691.695c0 .386.333.695.691.695a.69.69 0 0 0 .692-.695.674.674 0 0 0-.692-.695Zm0 0a.69.69 0 0 0-.691.695c0 .386.333.695.691.695a.69.69 0 0 0 .692-.695.674.674 0 0 0-.692-.695Zm-.333 3.423a.69.69 0 0 0-.691.695c0 .36.282.695.691.695.436 0 .692-.283.692-.695-.077-.36-.333-.695-.692-.695Zm.128-1.802a.69.69 0 0 0-.691.695c0 .386.282.695.691.695a.675.675 0 0 0 .692-.695c-.026-.36-.282-.695-.692-.695Zm20.749-1.699a.69.69 0 0 0-.692.695c0 .387.282.695.692.695s.691-.283.691-.695c.051-.386-.256-.694-.691-.694Zm0-6.82a.69.69 0 0 0-.692.695c0 .386.282.695.692.695s.691-.283.691-.695c.051-.412-.256-.695-.691-.695Zm0-6.795a.69.69 0 0 0-.692.695c0 .36.282.695.692.695s.691-.284.691-.695c.051-.36-.256-.695-.691-.695Zm19.646 13.693a.69.69 0 0 0-.691.695c0 .386.281.695.691.695.41 0 .692-.284.692-.695-.026-.438-.359-.695-.692-.695Zm.205 1.621c-.358 0-.691.335-.691.695 0 .36.333.695.691.695a.69.69 0 0 0 .692-.695c0-.36-.333-.695-.692-.695Zm.128 1.802a.707.707 0 0 0-.691.695c0 .36.281.695.691.695a.69.69 0 0 0 .692-.695c.026-.386-.256-.695-.692-.695Zm0 0a.707.707 0 0 0-.691.695c0 .36.281.695.691.695a.69.69 0 0 0 .692-.695c.026-.386-.256-.695-.692-.695Zm-.128-1.802c-.358 0-.691.335-.691.695 0 .36.333.695.691.695a.69.69 0 0 0 .692-.695c0-.36-.333-.695-.692-.695Zm-.205-1.621a.69.69 0 0 0-.691.695c0 .386.281.695.691.695.41 0 .692-.284.692-.695-.026-.438-.359-.695-.692-.695ZM40.81 38.453a.69.69 0 0 0-.692.695c0 .36.282.695.692.695s.691-.284.691-.695c.051-.36-.256-.695-.691-.695Zm0 6.795a.69.69 0 0 0-.692.695c0 .386.282.695.692.695s.691-.283.691-.695c.051-.412-.256-.695-.691-.695Zm0 6.82a.69.69 0 0 0-.692.695c0 .387.282.695.692.695s.691-.283.691-.695c.051-.386-.256-.694-.691-.694Zm-20.749 1.7a.69.69 0 0 0-.691.694c0 .386.282.695.691.695a.675.675 0 0 0 .692-.695c-.026-.36-.282-.695-.692-.695Zm-.128 1.8a.69.69 0 0 0-.691.696c0 .36.282.695.691.695.436 0 .692-.283.692-.695-.077-.36-.333-.695-.692-.695Zm.333-3.422a.69.69 0 0 0-.691.695c0 .386.333.695.691.695a.69.69 0 0 0 .692-.695.674.674 0 0 0-.692-.695Zm0 0a.69.69 0 0 0-.691.695c0 .386.333.695.691.695a.69.69 0 0 0 .692-.695.674.674 0 0 0-.692-.695Zm-.333 3.423a.69.69 0 0 0-.691.695c0 .36.282.695.691.695.436 0 .692-.283.692-.695-.077-.36-.333-.695-.692-.695Zm.128-1.802a.69.69 0 0 0-.691.695c0 .386.282.695.691.695a.675.675 0 0 0 .692-.695c-.026-.36-.282-.695-.692-.695Zm20.749-1.699a.69.69 0 0 0-.692.695c0 .387.282.695.692.695s.691-.283.691-.695c.051-.386-.256-.694-.691-.694Zm0-6.82a.69.69 0 0 0-.692.695c0 .386.282.695.692.695s.691-.283.691-.695c.051-.412-.256-.695-.691-.695Zm0-6.795a.69.69 0 0 0-.692.695c0 .36.282.695.692.695s.691-.284.691-.695c.051-.36-.256-.695-.691-.695Zm19.646 13.693a.69.69 0 0 0-.691.695c0 .386.281.695.691.695.41 0 .692-.284.692-.695-.026-.438-.359-.695-.692-.695Zm.205 1.621c-.358 0-.691.335-.691.695 0 .36.333.695.691.695a.69.69 0 0 0 .692-.695c0-.36-.333-.695-.692-.695Zm.128 1.802a.707.707 0 0 0-.691.695c0 .36.281.695.691.695a.69.69 0 0 0 .692-.695c.026-.386-.256-.695-.692-.695Zm0 0a.707.707 0 0 0-.691.695c0 .36.281.695.691.695a.69.69 0 0 0 .692-.695c.026-.386-.256-.695-.692-.695Zm-.128-1.802c-.358 0-.691.335-.691.695 0 .36.333.695.691.695a.69.69 0 0 0 .692-.695c0-.36-.333-.695-.692-.695Zm-.205-1.621a.69.69 0 0 0-.691.695c0 .386.281.695.691.695.41 0 .692-.284.692-.695-.026-.438-.359-.695-.692-.695ZM40.81 38.453a.69.69 0 0 0-.692.695c0 .36.282.695.692.695s.691-.284.691-.695c.051-.36-.256-.695-.691-.695Zm0 6.795a.69.69 0 0 0-.692.695c0 .386.282.695.692.695s.691-.283.691-.695c.051-.412-.256-.695-.691-.695Zm0 6.82a.69.69 0 0 0-.692.695c0 .387.282.695.692.695s.691-.283.691-.695c.051-.386-.256-.694-.691-.694Zm-20.749 1.7a.69.69 0 0 0-.691.694c0 .386.282.695.691.695a.675.675 0 0 0 .692-.695c-.026-.36-.282-.695-.692-.695Zm-.128 1.8a.69.69 0 0 0-.691.696c0 .36.282.695.691.695.436 0 .692-.283.692-.695-.077-.36-.333-.695-.692-.695Zm.333-3.422a.69.69 0 0 0-.691.695c0 .386.333.695.691.695a.69.69 0 0 0 .692-.695.674.674 0 0 0-.692-.695Zm40.523 3.423a.707.707 0 0 0-.691.695c0 .36.281.695.691.695a.69.69 0 0 0 .692-.695c.026-.386-.256-.695-.692-.695Zm-.128-1.802c-.358 0-.691.335-.691.695 0 .36.333.695.691.695a.69.69 0 0 0 .692-.695c0-.36-.333-.695-.692-.695Zm-.205-1.621a.69.69 0 0 0-.691.695c0 .386.281.695.691.695.41 0 .692-.284.692-.695-.026-.438-.359-.695-.692-.695Zm-40.523 3.423a.69.69 0 0 0-.691.695c0 .36.282.695.691.695.436 0 .692-.283.692-.695-.077-.36-.333-.695-.692-.695Zm.128-1.802a.69.69 0 0 0-.691.695c0 .386.282.695.691.695a.675.675 0 0 0 .692-.695c-.026-.36-.282-.695-.692-.695Zm.205-1.621a.69.69 0 0 0-.691.695c0 .386.333.695.691.695a.69.69 0 0 0 .692-.695.674.674 0 0 0-.692-.695Zm40.523 3.423a.707.707 0 0 0-.691.695c0 .36.281.695.691.695a.69.69 0 0 0 .692-.695c.026-.386-.256-.695-.692-.695Zm-.128-1.802c-.358 0-.691.335-.691.695 0 .36.333.695.691.695a.69.69 0 0 0 .692-.695c0-.36-.333-.695-.692-.695Zm-.205-1.621a.69.69 0 0 0-.691.695c0 .386.281.695.691.695.41 0 .692-.284.692-.695-.026-.438-.359-.695-.692-.695Zm-19.646-.078a.69.69 0 0 0-.692.695c0 .387.282.695.692.695s.691-.283.691-.695c.051-.386-.256-.694-.691-.694Zm0-6.82a.69.69 0 0 0-.692.695c0 .386.282.695.692.695s.691-.283.691-.695c.051-.412-.256-.695-.691-.695Zm0-6.795a.69.69 0 0 0-.692.695c0 .36.282.695.692.695s.691-.284.691-.695c.051-.36-.256-.695-.691-.695Zm0 0a.69.69 0 0 0-.692.695c0 .36.282.695.692.695s.691-.284.691-.695c.051-.36-.256-.695-.691-.695Zm0 6.795a.69.69 0 0 0-.692.695c0 .386.282.695.692.695s.691-.283.691-.695c.051-.412-.256-.695-.691-.695Zm0 6.82a.69.69 0 0 0-.692.695c0 .387.282.695.692.695s.691-.283.691-.695c.051-.386-.256-.694-.691-.694Z" fill="#010066"/><path d="M53.54 59.559c0-.283-.179-.49-.435-.49-.282 0-.487.18-.487.438l.051 13.41h.897l-.026-13.358Z" fill="#010066"/></svg>