<svg width="80" height="80" fill="none" xmlns="http://www.w3.org/2000/svg"><circle cx="40" cy="40" r="40" fill="#fff"/><path d="M53.675 39.121c0-.027 0-.083.028-.11l3.305-17.852-7.134-3.958.772 1.024a.513.513 0 0 1-.083.665.209.209 0 0 1-.11.055l-.937.387 1.543.775c.193.111.303.388.193.637v.028l-8.374 16.19s0 .028-.027.028l-3.58 6.753V55.7c0 2.879.027 5.12.137 6.754.11 1.605.385 2.712.771 3.487l.028.028c.936 1.605 3.057 1.605 7.299 1.55.77 0 1.542-.028 2.038-.028h4.049V53.818h-8.07a.478.478 0 0 1-.496-.499c0-.276.192-.498.495-.498h8.071l.082-13.7ZM40.62 46.788a.713.713 0 0 0 .716-.72.713.713 0 0 0-.716-.72.713.713 0 0 0-.716.72c-.028.388.33.72.716.72Zm0 7.334a.713.713 0 0 0 .716-.72c0-.443-.303-.72-.716-.72a.713.713 0 0 0-.716.72c-.028.416.33.72.716.72Zm0 7.39a.713.713 0 0 0 .716-.72.713.713 0 0 0-.716-.72.713.713 0 0 0-.716.72c0 .415.33.72.716.72Zm21.18.055a.713.713 0 0 1-.715-.72c0-.415.303-.72.716-.72s.716.305.716.72c.055.36-.276.72-.716.72Zm.221 1.827a.713.713 0 0 1-.716-.72c0-.388.303-.72.716-.72.386 0 .716.305.716.72s-.33.72-.716.72Zm.22 1.91a.713.713 0 0 1-.716-.72c0-.388.303-.72.716-.72s.717.305.717.72c0 .387-.303.72-.717.72Zm-43.877-3.737a.713.713 0 0 0 .717-.72.696.696 0 0 0-.716-.72.713.713 0 0 0-.717.72c-.055.36.303.72.716.72Zm-.22 1.827a.713.713 0 0 0 .716-.72.713.713 0 0 0-.716-.72.713.713 0 0 0-.716.72c0 .415.303.72.716.72Zm-.193 1.91a.713.713 0 0 0 .716-.72.713.713 0 0 0-.716-.72.713.713 0 0 0-.716.72c0 .387.33.72.716.72Zm36.688-20.51 1.956 21.45 7.024-.387-3.443-36.81-.028-.277c-.275-2.684-.496-5.341-2.286-6.947l-3.25 17.354.027 5.618Zm3.113-24.271c.027 0 .027.027.055.027 2.7 1.744 3.002 4.927 3.25 8.054l.028.277 3.47 37.336v.027a.451.451 0 0 1-.44.499l-7.988.498c-.276.027-.496-.139-.496-.443l-1.02-11.569v12.787a.478.478 0 0 1-.495.498h-6.583c-4.159.028-6.39.028-7.684-1.44-1.212 1.606-3.14 1.55-6.638 1.468-.827-.028-1.708-.028-2.865-.028h-4.407a.478.478 0 0 1-.496-.498V55.229l-1.019 11.569a.502.502 0 0 1-.496.443l-7.987-.498a.503.503 0 0 1-.441-.499v-.027l3.498-37.253.028-.277c.275-3.183.578-6.366 3.305-8.054.027-.055.055-.055.055-.055l9.2-5.065.633-.858c.027 0 .027-.027.027-.027 1.267-1.467 2.535-2.27 3.829-2.685 1.267-.388 2.506-.443 3.746-.443h.33c1.267 0 2.534.083 3.774.498 1.35.443 2.589 1.218 3.829 2.685l.027.027.633.858 9.338 4.955ZM34.147 52.904c.275 0 .496.194.496.498a.478.478 0 0 1-.496.498H26.38v13.673H30.4c.964 0 1.956.027 2.865.027 3.332.084 5.095.111 6.032-1.356-.386-.858-.661-2.048-.772-3.68-.137-1.717-.137-3.958-.137-6.864V43.688c0-.056.027-.139.027-.194.276-.664.551-1.522.854-2.546l-2.038-3.903-8.4-16.218c-.111-.194-.029-.498.192-.637l.027-.027 1.515-.775-.936-.415c-.248-.083-.33-.388-.248-.61 0-.027.027-.055.055-.082l.771-1.024-7.161 3.93 3.333 17.851v13.893h.055l7.712-.027Zm-8.676-8.11v-5.59l-3.25-17.38c-1.763 1.605-2.039 4.262-2.287 6.918l-.027.277-3.443 36.81 7.024.388 1.983-21.422Zm13.496-6.503a151.973 151.973 0 0 1-2.7-10.85c-.88-4.261-1.514-8.164-1.514-10.212 0-1.744.496-3.21 1.35-4.262.055-.056.082-.11.137-.194-1.157.388-2.258 1.024-3.333 2.353l-2.368 3.238 1.35.581c.082.028.192.11.275.277.11.194.027.498-.193.636l-2.038.969 8.18 15.72.854 1.744Zm-1.79-11.07c.771 3.791 1.845 7.942 2.81 11.236.77-2.823 1.68-6.227 2.423-9.576 1.074-4.843 1.928-9.41 1.928-11.652 0-1.494-.386-2.768-1.157-3.598-.688-.775-1.762-1.273-3.14-1.273-1.377 0-2.506.443-3.167 1.273-.771.858-1.157 2.104-1.157 3.598 0 1.965.633 5.84 1.46 9.991Zm9.915-12.04c-1.019-1.273-2.175-1.965-3.305-2.325.028.056.083.083.11.139.937 1.024 1.35 2.518 1.35 4.262 0 2.325-.854 7.002-1.956 11.9-.77 3.322-1.597 6.754-2.423 9.577l1.129-2.048v-.028l8.18-15.72-2.065-1.024a.281.281 0 0 1-.193-.277c-.083-.277.027-.498.275-.637l1.35-.58-2.452-3.239Z" fill="#010066"/></svg>