<svg width="80" height="80" viewBox="0 0 80 80" fill="none" xmlns="http://www.w3.org/2000/svg">
<circle cx="40" cy="40" r="40" fill="white"/>
<path d="M56.7214 22.7716C56.7214 22.7716 56.7436 22.7716 56.7436 22.7939L56.7214 22.7716ZM60.3322 46.2769C60.5537 46.2546 60.7531 46.3882 60.8195 46.633L60.3322 46.2769ZM39.4209 65.3972V56.6717C38.2469 56.7608 35.0127 56.9389 31.4463 56.8498C31.4463 56.8498 31.4463 56.8498 31.4241 56.8498C31.1583 56.8498 30.9368 56.8276 30.671 56.8276C30.538 56.8276 30.4051 56.8053 30.2722 56.8053C30.2058 56.9166 28.8545 59.7435 28.8545 59.7435C28.7437 59.9438 28.4558 60.0106 28.2564 59.877L26.5286 58.8086C26.3292 58.675 26.2627 58.4079 26.3957 58.2076L27.1931 56.7163C25.8197 56.5827 24.7564 56.4492 24.2691 56.4046C24.0919 56.8276 23.7817 57.9182 23.7817 60.1441V60.1664C23.7817 60.2999 23.7817 60.478 23.7817 60.6338C23.8039 61.9693 24.0033 63.0823 24.5571 63.9281C25.1552 64.8185 26.2184 65.4417 28.057 65.553C30.3387 65.6866 33.2849 65.8424 35.6994 65.8201C37.3608 65.6198 38.6899 65.5753 39.4209 65.3972ZM39.8639 15.5598C38.3133 15.5598 36.8956 15.8269 35.8988 16.2053C35.0127 16.5614 34.4589 17.0066 34.4589 17.4518C34.4589 17.8969 35.0127 18.3421 35.8988 18.6983C36.8956 19.0989 38.3133 19.366 39.8418 19.366C41.3703 19.366 42.7658 19.0989 43.7848 18.6983C44.6709 18.3421 45.2247 17.8969 45.2247 17.4518C45.2247 17.0066 44.6709 16.5614 43.7848 16.2053C42.788 15.7823 41.4146 15.5598 39.8639 15.5598ZM39.4209 20.2118C37.9589 20.1896 36.6076 19.9002 35.5886 19.4996C34.3481 19.0099 33.5728 18.2753 33.5728 17.4518C33.5728 16.6059 34.326 15.8936 35.5665 15.404C36.6519 14.981 38.1583 14.6917 39.8639 14.6917C41.5696 14.6917 43.0316 14.9588 44.1614 15.404C45.4019 15.8936 46.155 16.6282 46.155 17.4518C46.155 18.2976 45.3797 19.0099 44.1392 19.4996C43.1424 19.9002 41.7911 20.1673 40.307 20.2118V23.8845C40.8829 23.8623 41.769 23.7955 42.6994 23.6174C43.4747 23.4839 44.25 23.3058 44.8924 23.0387H44.9145C46.1772 22.5268 46.9968 21.859 47.4841 21.1245C48.193 20.056 48.4367 18.0973 47.8386 16.8508C47.4398 16.0049 46.4209 15.2927 45.0696 14.7362C43.6519 14.1575 41.8798 13.8458 39.9304 13.8458C37.981 13.8458 36.1867 14.202 34.7912 14.7362C33.4399 15.2927 32.4209 16.0049 32.0222 16.8508C31.4241 18.0305 31.6678 20.056 32.3766 21.1245C32.864 21.8367 33.6614 22.4822 34.9462 23.0387H34.9684C35.6108 23.3058 36.3861 23.4616 37.1614 23.6174C38.0918 23.751 38.9779 23.84 39.5538 23.8845V20.2118H39.4209ZM39.4209 24.7526C38.7785 24.7304 37.8703 24.6413 36.8956 24.4855C36.0538 24.352 35.2342 24.1294 34.5475 23.8845H34.5254C33.0855 23.2836 32.1773 22.5268 31.6013 21.6587C31.402 21.347 31.2247 21.0132 31.114 20.7015C30.9811 20.8351 30.7596 20.9909 30.5602 21.1245C30.1393 21.4138 29.5855 21.7032 28.8324 22.0148C27.0159 22.7048 25.2659 23.0832 24.2248 23.3058C24.0919 23.3281 23.9368 23.3726 23.8261 23.3949C24.1805 23.9513 24.69 24.9752 24.7786 26.4666C24.8893 28.0915 24.7121 29.7609 24.6457 30.5399C25.709 30.6512 28.3893 30.9406 31.4684 31.0074C35.2342 31.0741 38.3798 30.9406 39.4652 30.8961V24.7526H39.4209V24.7526ZM30.8482 19.8557C30.6488 18.8541 30.7153 17.5185 31.114 16.5837C31.5792 15.5152 32.7754 14.5804 34.3924 13.9571C35.8988 13.3561 37.7817 13 39.8639 13C41.9462 13 43.8291 13.3784 45.3354 13.9571C46.9525 14.6026 48.1266 15.5152 48.6139 16.5837C49.0348 17.5185 49.0791 18.8318 48.8797 19.8557C48.9462 19.878 49.1677 20.056 49.655 20.3677C50.0316 20.6348 50.5411 20.8796 51.2278 21.169C51.2278 21.169 51.2278 21.169 51.2499 21.169C52.9778 21.859 54.6392 22.2374 55.6803 22.5045C56.1676 22.6158 56.5442 22.7048 56.7214 22.7716C57.098 22.9052 57.5854 23.239 58.0727 23.6174C58.5822 24.0181 59.1581 24.5523 59.6012 25.042L59.6233 25.0643C60.8638 26.4443 61.329 28.5812 61.4619 29.3825C61.4841 29.4047 61.4841 29.4047 61.5284 29.4715C61.5727 29.5383 61.5948 29.6051 61.5948 29.6718C61.9714 30.0948 62.7689 31.23 63.2341 32.9884C63.6992 34.6578 63.6992 36.305 63.6549 36.7724C63.9429 37.2398 64.8733 38.887 65.0284 40.8457C65.2056 42.6487 64.7404 44.4072 64.5632 45.0304C64.9397 45.5201 65.7372 46.8334 65.8923 49.5712C66.003 51.1516 65.4049 52.6652 65.0948 53.3329C65.117 53.3997 65.117 53.422 65.0948 53.4665C65.3828 54.0452 66.1581 55.7591 66.2245 57.4508C66.2467 58.4302 66.1359 59.3205 65.9587 60.0996C65.7594 60.99 65.4049 61.7245 65.0727 62.1474C64.8068 62.459 64.4967 62.7261 64.1201 62.9487L64.0537 65.1523C64.0537 65.2636 63.9872 65.3527 63.9429 65.4417C63.8322 65.5753 62.791 66.6214 61.0632 66.7105H61.041C59.136 66.7995 58.1392 65.7311 58.1392 65.7088C58.0727 65.642 58.0505 65.5753 58.0284 65.5085L57.674 63.6833C57.2752 63.572 56.9873 63.4162 56.7879 63.2158C56.655 63.0823 56.5221 62.9265 56.4113 62.7261C56.2784 63.2826 56.0569 63.7723 55.7468 64.2397C54.9936 65.3749 53.7088 66.0872 51.5822 66.243C49.3006 66.3766 46.3101 66.5324 43.8734 66.5101C42.0791 66.4879 40.5949 66.4211 39.8196 66.1985C39.0443 66.4211 37.538 66.4879 35.7659 66.5101C33.2849 66.5101 30.2944 66.3988 28.057 66.243C25.9083 66.1095 24.6235 65.3749 23.8925 64.2397C23.6045 63.8168 23.383 63.2826 23.228 62.7261C23.1172 62.9042 23.0064 63.0823 22.8514 63.2158C22.652 63.4162 22.364 63.572 21.9653 63.6833L21.6109 65.5085C21.5887 65.5975 21.5444 65.642 21.5001 65.7088C21.5001 65.7088 20.5033 66.7772 18.5982 66.7105H18.6647C16.9368 66.6437 15.8957 65.5753 15.785 65.4417C15.6963 65.3527 15.6742 65.2636 15.6742 65.1523L15.6077 62.9487C15.2312 62.7261 14.921 62.459 14.6552 62.1474C14.3008 61.7245 13.9685 60.99 13.7691 60.0996C13.5698 59.3205 13.4812 58.4302 13.5033 57.4508C13.5698 55.7369 14.3451 54.0452 14.6331 53.4665C14.6331 53.3997 14.6331 53.3774 14.6331 53.3329C14.3229 52.6652 13.7027 51.1738 13.8356 49.5712C14.0128 46.7888 14.7881 45.4978 15.1647 45.0304C14.9653 44.3849 14.5223 42.6265 14.6995 40.8457C14.8767 38.887 15.8293 37.2398 16.0729 36.7724C16.0508 36.305 16.0508 34.6578 16.4938 32.9884C16.959 31.23 17.7565 30.117 18.133 29.6718C18.133 29.6051 18.1552 29.5383 18.1995 29.4715C18.2217 29.4492 18.2217 29.4047 18.266 29.3825C18.3989 28.6034 18.8641 26.4666 20.1046 25.0643L20.1267 25.042C20.5476 24.5746 21.1014 24.0626 21.6552 23.6174C22.1425 23.239 22.6299 22.9274 23.0064 22.7716C23.2058 22.6826 23.5602 22.5935 24.0476 22.5045C25.0887 22.2819 26.7722 21.9035 28.4779 21.169C28.4779 21.169 28.4779 21.169 28.5001 21.169C29.1868 20.9019 29.7184 20.6125 30.0729 20.3677C30.538 20.0338 30.8039 19.9002 30.8482 19.8557ZM16.4495 63.4384L16.4717 64.9965C16.7375 65.2636 17.4685 65.8424 18.6647 65.8869C19.9052 65.9091 20.5919 65.4195 20.8134 65.2191L21.0792 63.8836C20.3704 63.9726 19.5286 63.9726 18.7533 63.9504C18.0001 63.8836 17.1584 63.7278 16.4495 63.4384ZM21.3672 62.971C21.4558 62.882 21.5887 62.8597 21.7216 62.882C21.7438 62.882 21.7438 62.882 21.7438 62.882C21.9653 62.8152 22.1425 62.7484 22.2311 62.6594C22.4526 62.3923 22.6299 62.1029 22.7849 61.7022C22.8735 61.3906 22.9621 61.0122 22.9621 60.5225C22.9621 60.3444 22.9621 60.1664 22.9621 60.0106C22.9621 57.985 23.228 56.8053 23.4495 56.1598C22.6077 56.1375 21.0349 56.0262 19.1963 55.6478H19.1742C17.3799 55.2917 15.9843 54.5572 15.2976 54.112C14.9875 54.7798 14.4115 56.1375 14.3451 57.5176C14.3229 58.4079 14.4115 59.2538 14.5666 59.9438C14.7438 60.7006 15.0318 61.3016 15.3198 61.6577C15.6742 62.0584 16.1615 62.4145 16.6932 62.6371C17.3577 62.9265 18.1109 63.06 18.8197 63.1045C19.6172 63.1713 20.4811 63.1268 21.1678 63.0378C21.2343 62.9932 21.3007 62.971 21.3672 62.971ZM39.4209 31.7642C38.2912 31.8309 35.1899 31.9422 31.4241 31.8755C28.1678 31.8087 25.4431 31.5193 24.4241 31.3858C24.2469 31.9422 23.9368 33.1887 23.9147 34.9694C23.8482 36.9727 24.0254 38.0634 24.114 38.4418C25.0887 38.6421 28.4115 39.1986 31.3355 39.3099C34.5254 39.4212 38.2469 39.1763 39.4431 39.0873L39.4209 31.7642ZM23.5159 31.3412C22.94 31.3412 21.9875 31.2745 21.1014 31.0519C21.0792 31.0519 21.0792 31.0519 21.0792 31.0519C20.0159 30.7848 19.2185 30.4509 18.7533 30.206C18.4432 30.6067 17.7565 31.5861 17.3134 33.1219C16.8925 34.6801 16.9147 36.1491 16.9147 36.6166C17.3356 36.8837 18.5318 37.5069 19.9273 37.9076C21.1457 38.2192 22.4969 38.3082 23.2058 38.3305C23.1172 37.7518 22.9843 36.6166 23.0286 34.8804C23.095 33.2778 23.3387 32.0313 23.5159 31.3412ZM19.0856 29.4492C19.4843 29.6496 20.2375 29.9612 21.2786 30.2283C21.3007 30.2283 21.3007 30.2283 21.3007 30.2283C22.2754 30.4509 23.2501 30.4954 23.7374 30.4954C23.8261 29.7831 24.0033 28.136 23.8704 26.5333C23.7817 25.0643 23.2058 24.1071 22.94 23.7287C22.6742 23.8623 22.4305 24.0849 22.0982 24.3075C21.6109 24.6859 21.1014 25.1756 20.6805 25.5985C20.6805 25.5985 20.6805 25.6207 20.6583 25.6207C19.6394 26.8004 19.1963 28.7147 19.0856 29.4492ZM39.4209 39.9777C38.1583 40.0667 34.5032 40.3338 31.269 40.2002C28.3672 40.0889 25.1109 39.5325 24.0254 39.3322C23.8482 40.0222 23.5381 41.4913 23.5159 42.9826C23.4495 44.8078 23.7374 46.2769 23.8704 46.7888C24.8229 46.9669 27.8798 47.4789 31.1583 47.5902C34.6361 47.7015 38.269 47.5234 39.4652 47.4789V39.9554L39.4209 39.9777ZM23.1393 39.2654C22.364 39.2431 20.9463 39.1318 19.6837 38.7979C18.3103 38.3973 17.1584 37.8186 16.6046 37.5069C16.2501 38.1524 15.652 39.4212 15.5191 40.9125C15.3419 42.76 15.8957 44.6075 16.0065 44.9414C16.4274 45.2085 17.7343 45.943 19.3514 46.3214C19.3514 46.3214 19.3514 46.3214 19.3735 46.3214C20.8134 46.633 22.2311 46.7221 22.94 46.7888C22.8071 46.0988 22.5856 44.6743 22.6299 43.0271C22.6742 41.4913 22.9621 40.0444 23.1393 39.2654ZM39.4209 48.3692C38.1804 48.436 34.5254 48.5695 31.0697 48.4805C27.8134 48.3692 24.8229 47.8795 23.7596 47.7015C23.6267 48.5028 23.3387 50.239 23.4716 51.9529V51.9751C23.5824 53.6446 24.1583 55.0023 24.3355 55.3807C24.845 55.4475 26.0634 55.5811 27.6362 55.7369C27.7469 55.5366 29.9178 49.6602 29.9621 49.6157C30.095 49.4154 30.3608 49.3486 30.5602 49.4822L32.288 50.5506C32.4209 50.6396 32.5095 50.8399 32.4874 51.018C32.4874 51.018 32.1994 52.2645 30.9811 55.0914C30.8703 55.3585 30.7817 55.6033 30.6931 55.8482C30.671 55.8704 30.671 55.9149 30.671 55.9372H30.7596C30.9811 55.9595 31.1804 55.9595 31.4241 55.9595C31.4463 55.9595 31.4463 55.9595 31.4463 55.9595C35.0127 56.0708 38.2912 55.8704 39.3766 55.7814V48.3692H39.4209V48.3692ZM22.9178 47.6124C22.1425 47.5902 20.6805 47.4789 19.1742 47.145H19.152C17.5349 46.7666 16.2501 46.0766 15.6742 45.7204C15.3641 46.1879 14.8103 47.3008 14.6774 49.6157C14.5666 51.3519 15.3862 52.9323 15.5413 53.1994C16.0508 53.5555 17.4685 54.4236 19.3292 54.7575H19.3514C21.0792 55.1136 22.5412 55.2249 23.383 55.2472C23.1172 54.5572 22.7185 53.3997 22.6299 52.0197C22.4748 50.2835 22.7406 48.4805 22.9178 47.6124ZM27.171 58.5192L28.2786 59.187C28.5665 58.675 29.2532 57.1614 29.9621 55.6924C30.0507 55.5143 30.1393 55.314 30.2501 55.0914C30.3387 54.8688 30.4494 54.6017 30.538 54.3346C30.538 54.3346 30.538 54.3346 30.538 54.3123C31.3798 52.3535 31.6899 51.708 31.8228 51.1738L30.7153 50.5061C30.5823 50.929 29.4526 53.8226 28.5001 55.8482C27.9241 57.0724 27.171 58.5192 27.171 58.5192ZM40.2848 24.7526V30.9183C41.3703 30.9851 44.5158 31.0964 48.2816 31.0296C51.3829 30.9628 54.0411 30.6735 55.1044 30.5622C55.0158 29.7831 54.8385 28.1137 54.9714 26.4888C55.0601 25.042 55.5695 23.9958 55.924 23.4171C55.8132 23.3949 55.6582 23.3503 55.5252 23.3281C54.462 23.1055 52.7341 22.6826 50.9398 21.9703C50.1867 21.6809 49.655 21.3693 49.212 21.0799C48.9905 20.9464 48.8133 20.7906 48.6582 20.657C48.5474 20.9686 48.3702 21.3025 48.1709 21.6142C47.5949 22.4822 46.6645 23.239 45.2468 23.84H45.2247C44.538 24.1294 43.6962 24.3075 42.8766 24.441C41.8354 24.6413 40.9051 24.6859 40.2848 24.7526ZM63.2562 63.4384C62.5474 63.7278 61.7056 63.9059 60.9303 63.9504C60.155 63.9726 59.3132 63.9726 58.6043 63.8836L58.8702 65.2191C59.0917 65.4195 59.8227 65.9091 61.0189 65.8869C62.1929 65.8201 62.9461 65.2414 63.2119 64.9965L63.2562 63.4384ZM57.9619 62.882C57.9841 62.882 57.9841 62.882 57.9619 62.882C58.117 62.8597 58.2499 62.9042 58.3385 62.971C58.405 62.971 58.4493 62.9932 58.5157 62.9932C59.2024 63.0823 60.0664 63.1045 60.8638 63.06C61.5727 63.0378 62.3258 62.8597 62.9904 62.5926C63.5663 62.37 64.0537 62.0139 64.3638 61.6132C64.6518 61.2571 64.9176 60.6561 65.117 59.8993C65.2942 59.2093 65.3828 58.3634 65.3385 57.4731C65.272 56.1153 64.6961 54.7352 64.386 54.0675C63.6771 54.4904 62.2815 55.2472 60.5094 55.6033H60.4872C58.6708 55.9817 57.0537 56.093 56.2341 56.1153C56.4335 56.7608 56.7214 57.9405 56.7214 59.966C56.7214 60.1441 56.7214 60.3222 56.7214 60.478C56.7436 60.9454 56.81 61.3238 56.8987 61.6577C57.0316 62.0584 57.2088 62.3477 57.4524 62.6148C57.5189 62.7261 57.6961 62.8152 57.9619 62.882ZM40.2848 31.7642V39.1096C41.5032 39.1986 45.2025 39.4657 48.3924 39.3322C51.3164 39.2209 54.6392 38.6421 55.6138 38.4641C55.7025 38.0634 55.8797 36.9505 55.8132 34.9917C55.7468 33.1665 55.4588 31.92 55.3037 31.408C54.3069 31.5193 51.5379 31.8309 48.3038 31.8977C44.5158 31.9422 41.4146 31.8309 40.2848 31.7642ZM55.9461 30.4954C56.4335 30.4954 57.4081 30.4731 58.3828 30.2283H58.405C59.4461 29.9612 60.1993 29.6496 60.598 29.4492C60.4651 28.6924 60.0442 26.8227 58.9809 25.643C58.9809 25.643 58.9588 25.643 58.9588 25.6207C58.56 25.1978 58.0284 24.6859 57.5411 24.3297C57.2531 24.1071 56.9651 23.9068 56.6993 23.751C56.4113 24.1294 55.8575 25.0865 55.7689 26.5556C55.7025 28.136 55.8797 29.7831 55.9461 30.4954ZM60.9746 30.2506C60.5094 30.4509 59.7119 30.807 58.6486 31.0964C58.6265 31.0964 58.6265 31.0964 58.6265 31.0964C57.6961 31.2967 56.7657 31.3635 56.2119 31.3858C56.4113 32.0758 56.6771 33.3 56.7214 34.9917C56.7436 36.7279 56.6328 37.8631 56.5442 38.4418C57.2531 38.4195 58.6265 38.3305 59.8227 38.0189C61.2404 37.6182 62.4144 36.9727 62.8353 36.7279C62.8575 36.2604 62.8575 34.7691 62.4366 33.2332C61.9936 31.6306 61.2847 30.6512 60.9746 30.2506ZM40.2848 39.9777V47.5011C41.5032 47.5679 45.1139 47.7237 48.5917 47.6124C51.8702 47.5011 54.9271 46.9669 55.8797 46.8111C55.9904 46.2992 56.2784 44.8078 56.2341 43.0049C56.2119 41.4913 55.8797 40.0667 55.7246 39.3544C54.6392 39.5547 51.3829 40.1112 48.481 40.2225C45.2025 40.3338 41.5475 40.0889 40.2848 39.9777ZM63.079 37.5069C62.5252 37.8186 61.3512 38.4418 59.9999 38.7979C58.7373 39.1541 57.2974 39.2209 56.5442 39.2654C56.7436 40.0444 57.0316 41.4913 57.0537 42.9603C57.0759 44.6297 56.8765 46.032 56.7436 46.7221C57.4968 46.6998 58.8702 46.5885 60.31 46.2546C60.31 46.2546 60.31 46.2546 60.3322 46.2546C61.9493 45.8762 63.2341 45.1194 63.6771 44.8746C63.7879 44.5184 64.3417 42.671 64.1644 40.8457C64.0537 39.3989 63.4113 38.1302 63.079 37.5069ZM40.2848 48.3692V55.7591C41.3703 55.8482 44.6487 56.0485 48.2152 55.9372H48.2373C48.4588 55.9372 48.7025 55.915 48.9019 55.915H48.9905C48.9683 55.8927 48.9683 55.8482 48.9683 55.8259C48.8797 55.6033 48.769 55.3585 48.6803 55.0691C47.462 52.2422 47.174 50.9958 47.174 50.9958C47.1519 50.8177 47.1962 50.6174 47.3734 50.5283L49.1012 49.4599C49.3006 49.3486 49.5664 49.3931 49.6993 49.5935C49.7215 49.6157 49.7215 49.6825 49.7658 49.727C49.8322 49.9273 51.9367 55.5143 52.0253 55.7146C53.598 55.5811 54.8164 55.4253 55.3259 55.3585C55.5252 54.9578 56.1012 53.6223 56.1898 51.9529V51.9306C56.3227 50.2167 56.0569 48.4805 55.9018 47.6792C54.8385 47.8795 51.848 48.3692 48.5917 48.4583C45.1582 48.5918 41.5253 48.4583 40.2848 48.3692ZM64.0315 45.7427C63.4556 46.0988 62.1708 46.7888 60.5537 47.1672H60.5315C59.0252 47.4789 57.5632 47.5902 56.7879 47.6347C56.9651 48.525 57.2088 50.2835 57.0759 52.0642C56.9873 53.4442 56.5885 54.6017 56.3227 55.2917C57.1202 55.2694 58.6265 55.1582 60.3543 54.802H60.3765C62.2372 54.4459 63.6549 53.5778 64.1644 53.2439C64.2973 52.9768 65.1391 51.3742 65.0284 49.6602C64.8954 47.3231 64.3416 46.1879 64.0315 45.7427ZM40.2848 56.6717V65.3972C40.9937 65.5307 42.3228 65.6198 43.9177 65.6198C46.3323 65.6198 49.3227 65.5085 51.5601 65.3527C53.3987 65.2414 54.462 64.6627 55.0601 63.7278C55.6138 62.882 55.8132 61.769 55.8354 60.4335C55.8354 60.2999 55.8354 60.1441 55.8354 59.966V59.9438C55.8354 57.7179 55.5252 56.6272 55.348 56.2043C54.8607 56.2711 53.7974 56.3824 52.424 56.5159L53.2215 58.0073C53.3322 58.2076 53.2879 58.4747 53.0885 58.6083L51.3607 59.6767C51.1613 59.788 50.8955 59.7435 50.7626 59.5431C50.7626 59.5431 49.3671 56.8943 49.3449 56.7608C49.212 56.7608 49.0791 56.783 48.9462 56.783C48.6803 56.8053 48.4588 56.8053 48.193 56.8053H48.1709C44.693 56.9166 41.4367 56.7608 40.2848 56.6717ZM50.5411 54.2901C49.7658 52.4871 49.3006 51.1961 49.1012 50.5283L48.1266 51.1293C48.2595 51.619 48.636 52.7765 49.4778 54.7798V54.802C49.5664 55.0691 49.6772 55.2917 49.7658 55.5588C49.8544 55.7814 49.9651 55.9595 50.0538 56.1598C50.7183 57.6289 51.2721 58.6528 51.5601 59.1425L52.5348 58.5415C52.5348 58.5415 50.674 54.7352 50.5411 54.2901Z" fill="#010066"/>
</svg>
