<svg width="104" height="104" fill="none" xmlns="http://www.w3.org/2000/svg"><path d="M32.332 47.128c-.742 0-1.344.715-1.344 1.598 0 .882.602 1.598 1.344 1.598.742 0 1.344-.716 1.344-1.598 0-.883-.602-1.598-1.344-1.598ZM43.068 50.324c.742 0 1.344-.716 1.344-1.598 0-.883-.602-1.598-1.344-1.598-.742 0-1.344.715-1.344 1.598 0 .882.602 1.598 1.344 1.598ZM60.409 39.673h3.102a1.04 1.04 0 0 0 0-2.078h-3.102a1.039 1.039 0 1 0 0 2.078Z" fill="#010066"/><path d="m54.65 73.24-6.975-2.927v-3.052l-.002-.04c3.545-2.46 6.139-6.177 7.368-10.543a5.656 5.656 0 0 0 5.392-5.644 5.94 5.94 0 0 0-1.901-4.336 5.377 5.377 0 0 0-.49-.394c.037-.47.065-.935.089-1.397l.002.001c.412-5.987-.95-10.55-.95-10.55-2.098-7.746-7.105-11.241-10.936-12.809a20.477 20.477 0 0 0-7.855-1.544h-.095c-.595-.021-8.395-.188-14.086 5.735-4.44 4.62-6.307 11.592-5.553 20.722a5.648 5.648 0 0 0 3.055 10.216c1.35 4.793 4.347 8.798 8.365 11.188v2.312l-7.295 3.063A20.805 20.805 0 0 0 10 92.469v1.384c0 2.028 1.532 4.939 8.828 7.286 5.327 1.714 12.39 2.658 19.889 2.658 7.498 0 14.561-.944 19.889-2.658 7.295-2.347 8.827-5.258 8.827-7.286V92.47A20.807 20.807 0 0 0 54.65 73.24Zm3.705-22.206a3.579 3.579 0 0 1-2.85 3.498c.068-.454.12-.891.158-1.272a1.038 1.038 0 1 0-2.067-.209 20.94 20.94 0 0 1-.34 2.263c-.01.03-.023.058-.03.089a17.41 17.41 0 0 1-4.618 8.345c1.006-2.088 1.437-4.267 1.618-5.885l.034-.158c1.605-7.538 3.522-10.245 4.44-10.245h.025-.001c.053.003.106.002.159-.002a2.89 2.89 0 0 1 2.252.778 3.83 3.83 0 0 1 1.22 2.798Zm-5.75-13.439h3.102a1.039 1.039 0 0 1 0 2.078h-3.102a1.039 1.039 0 1 1 0-2.078ZM23.528 55.403c-.005-.023-.015-.044-.022-.066a20.81 20.81 0 0 1-.345-2.286 1.04 1.04 0 0 0-2.068.209c.039.381.09.819.158 1.273a3.57 3.57 0 0 1 .603-7.065c.948.162 2.797 2.93 4.353 10.237.031.148.047.22.064.28.2 1.803.66 3.568 1.364 5.24a17.565 17.565 0 0 1-4.107-7.822Zm4.612-1.316a3.765 3.765 0 0 0-.559.391c-.826-3.163-1.752-5.504-2.779-7.022 4.053-.246 11.648-1.538 20.306-7.191a1.664 1.664 0 0 1 2.225.348c1.34 1.684 3.266 3.88 5.399 5.595-1.455 1.277-2.74 4.037-3.844 8.26a3.769 3.769 0 0 0-.545-.38c-3.338-1.897-6.725-2.911-10.07-3.015h-.064c-3.344.104-6.732 1.118-10.069 3.014Zm16.856 3.336a.774.774 0 0 1-.435-.133c-6.752-4.56-12.146-.233-12.372-.046a.78.78 0 0 1-.996-1.199 11.553 11.553 0 0 1 4.202-2.017c2.352-.606 6.002-.756 10.038 1.97a.78.78 0 0 1-.437 1.425Zm.601 10.292v5.521c0 1.387-2.874 2.938-6.72 2.938-3.847 0-6.72-1.55-6.72-2.938v-4.61c1.71 1.027 3.743 1.544 6.084 1.544 2.953 0 5.413-.827 7.356-2.455Zm19.758 26.138c0 3.72-10.94 7.866-26.638 7.866-15.699 0-26.639-4.145-26.639-7.866V92.47a18.733 18.733 0 0 1 11.509-17.313l6.491-2.724v.804c0 2.86 3.783 5.016 8.799 5.016s8.798-2.156 8.798-5.016v-.67l6.171 2.59A18.733 18.733 0 0 1 65.355 92.47v1.384ZM94.8 31.86a7.428 7.428 0 0 0-1.41-4.359l1.184-1.484a1.038 1.038 0 1 0-1.624-1.295l-1.01 1.266a7.465 7.465 0 0 0-11.91 7.453H69.318a2.836 2.836 0 0 0-2.833 2.833v5.8a2.837 2.837 0 0 0 2.833 2.834h5.724l.23 2.682a2.929 2.929 0 0 0 2.934 2.694h2.83l.164 2.03a2.643 2.643 0 0 0 2.62 2.416h4.7a2.628 2.628 0 0 0 2.62-2.848L90.05 38.895l-.008-.075a7.48 7.48 0 0 0 4.76-6.96ZM72.43 42.83h-3.11a.757.757 0 0 1-.756-.755v-5.8a.757.757 0 0 1 .755-.756h3.111v7.311Zm5.777 5.377a.863.863 0 0 1-.865-.794l-.214-2.505h1.59a2.051 2.051 0 0 1 2.035 1.876l.115 1.422h-2.66Zm9.125-10.954a5.392 5.392 0 1 1 3.314-9.641l-3.47 4.35-1.329-1.589a1.04 1.04 0 0 0-1.594 1.333l2.145 2.565a1.04 1.04 0 0 0 .797.372h.013a1.037 1.037 0 0 0 .8-.39l4.018-5.04a5.39 5.39 0 0 1-4.694 8.04Z" fill="#010066"/></svg>