<svg width="104" height="104" viewBox="0 0 104 104" fill="none" xmlns="http://www.w3.org/2000/svg">
<path d="M83.639 66.1C83.249 65.701 82.619 65.701 82.229 66.1C81.839 66.48 81.839 67.121 82.229 67.51C82.419 67.71 82.679 67.8 82.929 67.8C83.189 67.8 83.439 67.71 83.639 67.51C84.029 67.12 84.029 66.479 83.639 66.1Z" fill="#010066"/>
<path d="M81.5191 68.22C81.1291 67.83 80.4991 67.83 80.0991 68.22C79.7091 68.61 79.7091 69.241 80.0991 69.63C80.2991 69.83 80.5591 69.92 80.8091 69.92C81.0691 69.92 81.3191 69.83 81.5191 69.63C81.9091 69.24 81.9091 68.609 81.5191 68.22Z" fill="#010066"/>
<path d="M73.739 74.5801C73.349 74.9701 73.349 75.6001 73.739 75.9901C73.939 76.1891 74.189 76.2901 74.449 76.2901C74.699 76.2901 74.959 76.1891 75.149 75.9901C75.549 75.5991 75.549 74.9691 75.149 74.5801C74.769 74.1891 74.129 74.1891 73.739 74.5801Z" fill="#010066"/>
<path d="M75.8589 72.46C75.4689 72.85 75.4689 73.48 75.8589 73.87C76.0589 74.069 76.3089 74.17 76.5689 74.17C76.8189 74.17 77.0789 74.069 77.2789 73.87C77.6689 73.479 77.6689 72.849 77.2789 72.46C76.8789 72.069 76.2489 72.069 75.8589 72.46Z" fill="#010066"/>
<path d="M77.979 70.3401C77.589 70.7301 77.589 71.3601 77.979 71.7501C78.179 71.9501 78.429 72.0501 78.689 72.0501C78.949 72.0501 79.199 71.9501 79.399 71.7501C79.789 71.3591 79.789 70.7291 79.399 70.3401C79.009 69.9501 78.369 69.9501 77.979 70.3401Z" fill="#010066"/>
<path d="M85.0491 65.6801C85.3091 65.6801 85.5691 65.5801 85.7591 65.3901C86.1491 65.0001 86.1491 64.3601 85.7591 63.9701C85.3691 63.5901 84.7391 63.5901 84.3491 63.9701C83.9591 64.3601 83.9591 65.0001 84.3491 65.3901C84.5391 65.5801 84.7991 65.6801 85.0491 65.6801Z" fill="#010066"/>
<path d="M86.469 61.8501C86.079 62.2411 86.079 62.8801 86.469 63.2701C86.659 63.4601 86.919 63.5601 87.179 63.5601C87.429 63.5601 87.689 63.4601 87.879 63.2701C88.269 62.8801 88.269 62.2411 87.879 61.8501C87.489 61.4601 86.859 61.4601 86.469 61.8501Z" fill="#010066"/>
<path d="M88.5891 59.729C88.1991 60.12 88.1991 60.75 88.5891 61.149C88.7791 61.339 89.0391 61.439 89.2991 61.439C89.5491 61.439 89.8091 61.339 89.9991 61.149C90.3891 60.75 90.3891 60.12 89.9991 59.729C89.6091 59.34 88.9791 59.34 88.5891 59.729Z" fill="#010066"/>
<path d="M85.0091 60.7291C85.2591 60.7291 85.5191 60.6291 85.7091 60.4391C86.1091 60.0401 86.1091 59.4101 85.7091 59.0191C85.3191 58.6291 84.6891 58.6291 84.2991 59.0191C83.9091 59.4101 83.9091 60.0401 84.2991 60.4391C84.4991 60.6301 84.7491 60.7291 85.0091 60.7291Z" fill="#010066"/>
<path d="M80.7591 64.97C81.0191 64.97 81.2791 64.87 81.4691 64.68C81.8591 64.29 81.8591 63.65 81.4691 63.26C81.0791 62.87 80.4491 62.87 80.0591 63.26C79.6691 63.65 79.6691 64.29 80.0591 64.68C80.2491 64.87 80.5091 64.97 80.7591 64.97Z" fill="#010066"/>
<path d="M87.129 58.6089C87.379 58.6089 87.639 58.5089 87.839 58.3089C88.229 57.9189 88.229 57.2889 87.839 56.8989C87.449 56.5089 86.809 56.5089 86.419 56.8989C86.029 57.2899 86.029 57.9199 86.419 58.3089C86.619 58.5099 86.869 58.6089 87.129 58.6089Z" fill="#010066"/>
<path d="M88.5391 54.78C88.1491 55.17 88.1491 55.8 88.5391 56.189C88.7391 56.389 88.9891 56.4791 89.2491 56.4791C89.5091 56.4791 89.7591 56.389 89.9591 56.189C90.3491 55.799 90.3491 55.169 89.9591 54.78C89.5691 54.39 88.9291 54.39 88.5391 54.78Z" fill="#010066"/>
<path d="M73.689 69.6299C73.299 70.0199 73.299 70.6499 73.689 71.0399C73.889 71.2399 74.149 71.3299 74.399 71.3299C74.659 71.3299 74.909 71.2399 75.109 71.0399C75.499 70.6489 75.499 70.0189 75.109 69.6299C74.719 69.2399 74.089 69.2399 73.689 69.6299Z" fill="#010066"/>
<path d="M82.889 62.8499C83.139 62.8499 83.399 62.7499 83.589 62.5599C83.979 62.1699 83.979 61.5309 83.589 61.1399C83.199 60.7499 82.569 60.7499 82.179 61.1399C81.789 61.5309 81.789 62.1699 82.179 62.5599C82.369 62.7499 82.629 62.8499 82.889 62.8499Z" fill="#010066"/>
<path d="M75.8089 67.51C75.4289 67.9 75.4289 68.531 75.8089 68.92C76.0089 69.109 76.2689 69.21 76.5189 69.21C76.7789 69.21 77.0289 69.109 77.2289 68.92C77.6189 68.53 77.6189 67.899 77.2289 67.51C76.8389 67.109 76.2089 67.109 75.8089 67.51Z" fill="#010066"/>
<path d="M78.639 67.0899C78.899 67.0899 79.159 66.9899 79.349 66.7999C79.739 66.4099 79.739 65.7699 79.349 65.3799C78.959 64.9899 78.329 64.9899 77.939 65.3799C77.549 65.7699 77.549 66.4099 77.939 66.7999C78.129 66.9899 78.389 67.0899 78.639 67.0899Z" fill="#010066"/>
<path d="M78.9691 62.18C79.3591 61.79 79.3591 61.15 78.9691 60.76C78.5791 60.37 77.9491 60.37 77.5591 60.76C77.1691 61.15 77.1691 61.79 77.5591 62.18C77.7591 62.37 78.0091 62.47 78.2691 62.47C78.5191 62.47 78.7791 62.37 78.9691 62.18Z" fill="#010066"/>
<path d="M84.629 56.0999C84.889 56.0999 85.139 56.0099 85.339 55.8099C85.729 55.4199 85.729 54.7899 85.339 54.3999C84.949 54.0099 84.309 54.0099 83.919 54.3999C83.529 54.7909 83.529 55.4209 83.919 55.8099C84.119 56.0099 84.369 56.0999 84.629 56.0999Z" fill="#010066"/>
<path d="M92.409 45.9099C92.019 46.2999 92.019 46.9389 92.409 47.3299C92.599 47.5189 92.859 47.6199 93.119 47.6199C93.369 47.6199 93.629 47.5189 93.819 47.3299C94.209 46.9389 94.209 46.2999 93.819 45.9099C93.429 45.5199 92.799 45.5199 92.409 45.9099Z" fill="#010066"/>
<path d="M79.679 60.0599C79.879 60.2499 80.129 60.3499 80.389 60.3499C80.639 60.3499 80.899 60.2499 81.089 60.0599C81.489 59.6609 81.489 59.0309 81.089 58.6399C80.699 58.2499 80.069 58.2499 79.679 58.6399C79.289 59.0299 79.289 59.6599 79.679 60.0599Z" fill="#010066"/>
<path d="M86.0391 52.28C85.6491 52.67 85.6491 53.3 86.0391 53.689C86.2391 53.889 86.4991 53.9791 86.7491 53.9791C87.0091 53.9791 87.2591 53.889 87.4591 53.689C87.8491 53.299 87.8491 52.669 87.4591 52.28C87.0691 51.89 86.4391 51.89 86.0391 52.28Z" fill="#010066"/>
<path d="M74.7291 66.42C75.1191 66.03 75.1191 65.399 74.7291 65C74.3391 64.609 73.7091 64.609 73.3191 65C72.9291 65.399 72.9291 66.03 73.3191 66.42C73.5091 66.609 73.7691 66.71 74.0191 66.71C74.2791 66.71 74.5391 66.609 74.7291 66.42Z" fill="#010066"/>
<path d="M76.149 64.5899C76.399 64.5899 76.659 64.4899 76.849 64.2999C77.239 63.9099 77.239 63.2699 76.849 62.8799C76.459 62.4899 75.829 62.4899 75.439 62.8799C75.049 63.2699 75.049 63.9099 75.439 64.2999C75.629 64.4899 75.889 64.5899 76.149 64.5899Z" fill="#010066"/>
<path d="M83.2191 57.93C83.6091 57.54 83.6091 56.91 83.2191 56.52C82.8291 56.13 82.1891 56.13 81.7991 56.52C81.4091 56.911 81.4091 57.541 81.7991 57.93C81.9991 58.13 82.2491 58.23 82.5091 58.23C82.7691 58.229 83.0191 58.13 83.2191 57.93Z" fill="#010066"/>
<path d="M88.869 51.859C89.129 51.859 89.379 51.769 89.579 51.569C89.969 51.179 89.969 50.549 89.579 50.149C89.189 49.769 88.559 49.769 88.169 50.149C87.779 50.549 87.779 51.179 88.169 51.569C88.359 51.77 88.619 51.859 88.869 51.859Z" fill="#010066"/>
<path d="M80.5091 55.2291C80.7591 55.2291 81.0191 55.1291 81.2191 54.9291C81.6091 54.5391 81.6091 53.9091 81.2191 53.5191C80.8291 53.1291 80.1891 53.1291 79.7991 53.5191C79.4091 53.9101 79.4091 54.5401 79.7991 54.9291C79.9991 55.1301 80.2491 55.2291 80.5091 55.2291Z" fill="#010066"/>
<path d="M76.2691 59.47C76.5191 59.47 76.7791 59.37 76.9691 59.18C77.3591 58.79 77.3591 58.15 76.9691 57.76C76.5791 57.37 75.9491 57.37 75.5591 57.76C75.1691 58.15 75.1691 58.79 75.5591 59.18C75.7491 59.37 76.0091 59.47 76.2691 59.47Z" fill="#010066"/>
<path d="M74.149 61.5899C74.399 61.5899 74.659 61.4899 74.849 61.2999C75.239 60.9099 75.239 60.2699 74.849 59.8799C74.459 59.4899 73.829 59.4899 73.439 59.8799C73.049 60.2699 73.049 60.9099 73.439 61.2999C73.629 61.4899 73.889 61.5899 74.149 61.5899Z" fill="#010066"/>
<path d="M88.9891 46.7401C89.2491 46.7401 89.5091 46.6391 89.6991 46.4501C90.0891 46.0591 90.0891 45.4291 89.6991 45.0301C89.3091 44.6391 88.6791 44.6391 88.2891 45.0301C87.8991 45.4291 87.8991 46.0591 88.2891 46.4501C88.4791 46.6401 88.7391 46.7401 88.9891 46.7401Z" fill="#010066"/>
<path d="M69.199 64.1299C68.809 64.5199 68.809 65.1499 69.199 65.5399C69.389 65.7399 69.649 65.8299 69.899 65.8299C70.159 65.8299 70.419 65.7399 70.609 65.5399C70.999 65.1489 70.999 64.5189 70.609 64.1299C70.219 63.7399 69.589 63.7399 69.199 64.1299Z" fill="#010066"/>
<path d="M82.629 53.0999C82.889 53.0999 83.139 53.0099 83.339 52.8099C83.729 52.4199 83.729 51.7899 83.339 51.3999C82.949 51.0099 82.309 51.0099 81.919 51.3999C81.529 51.7909 81.529 52.4209 81.919 52.8099C82.119 53.0099 82.369 53.0999 82.629 53.0999Z" fill="#010066"/>
<path d="M90.409 42.9099C90.019 43.3089 90.019 43.9389 90.409 44.3299C90.599 44.5189 90.859 44.6199 91.119 44.6199C91.369 44.6199 91.629 44.5189 91.819 44.3299C92.209 43.9389 92.209 43.3089 91.819 42.9099C91.429 42.5199 90.799 42.5199 90.409 42.9099Z" fill="#010066"/>
<path d="M86.869 48.859C87.129 48.859 87.389 48.7689 87.579 48.5689C87.969 48.1789 87.969 47.5489 87.579 47.1599C87.189 46.7689 86.559 46.7689 86.169 47.1599C85.779 47.5499 85.779 48.1799 86.169 48.5689C86.359 48.7699 86.619 48.859 86.869 48.859Z" fill="#010066"/>
<path d="M84.7491 50.9791C85.0091 50.9791 85.2591 50.8891 85.4591 50.6891C85.8491 50.2991 85.8491 49.6691 85.4591 49.2801C85.0691 48.8891 84.4391 48.8891 84.0391 49.2801C83.6491 49.6701 83.6491 50.3001 84.0391 50.6891C84.2391 50.8901 84.4991 50.9791 84.7491 50.9791Z" fill="#010066"/>
<path d="M78.389 57.3499C78.639 57.3499 78.899 57.2499 79.089 57.0599C79.489 56.6609 79.489 56.0309 79.089 55.6399C78.699 55.2499 78.069 55.2499 77.679 55.6399C77.289 56.0309 77.289 56.6609 77.679 57.0599C77.879 57.2499 78.129 57.3499 78.389 57.3499Z" fill="#010066"/>
<path d="M78.389 52.3499C78.639 52.3499 78.899 52.2499 79.099 52.0599C79.489 51.6609 79.489 51.0309 79.099 50.6399C78.709 50.2499 78.069 50.2499 77.679 50.6399C77.289 51.0309 77.289 51.6609 77.679 52.0599C77.879 52.2499 78.129 52.3499 78.389 52.3499Z" fill="#010066"/>
<path d="M76.2691 54.47C76.5191 54.47 76.7791 54.37 76.9691 54.18C77.3591 53.79 77.3591 53.15 76.9691 52.76C76.5791 52.37 75.9491 52.37 75.5591 52.76C75.1691 53.15 75.1691 53.79 75.5591 54.18C75.7491 54.37 76.0091 54.47 76.2691 54.47Z" fill="#010066"/>
<path d="M84.7491 45.9791C85.0091 45.9791 85.2591 45.8891 85.4591 45.6891C85.8491 45.2991 85.8491 44.6691 85.4591 44.2801C85.0691 43.8891 84.4391 43.8891 84.0391 44.2801C83.6491 44.6701 83.6491 45.3001 84.0391 45.6891C84.2391 45.8901 84.4991 45.9791 84.7491 45.9791Z" fill="#010066"/>
<path d="M86.869 43.859C87.129 43.859 87.389 43.7689 87.579 43.5689C87.969 43.1789 87.969 42.5489 87.579 42.1599C87.189 41.7689 86.559 41.7689 86.169 42.1599C85.779 42.5499 85.779 43.1799 86.169 43.5689C86.359 43.7699 86.619 43.859 86.869 43.859Z" fill="#010066"/>
<path d="M74.149 56.5899C74.399 56.5899 74.659 56.4899 74.849 56.2999C75.239 55.9099 75.239 55.2699 74.849 54.8799C74.459 54.4899 73.829 54.4899 73.439 54.8799C73.049 55.2699 73.049 55.9099 73.439 56.2999C73.629 56.4899 73.889 56.5899 74.149 56.5899Z" fill="#010066"/>
<path d="M82.629 48.0999C82.889 48.0999 83.139 48.0099 83.339 47.8099C83.729 47.4199 83.729 46.7899 83.339 46.3999C82.949 46.0099 82.309 46.0099 81.919 46.3999C81.529 46.7909 81.529 47.4209 81.919 47.8099C82.119 48.0099 82.369 48.0999 82.629 48.0999Z" fill="#010066"/>
<path d="M69.1989 59.1299C68.7989 59.5199 68.7989 60.1499 69.1989 60.5399C69.3889 60.7399 69.6489 60.8299 69.8989 60.8299C70.1589 60.8299 70.4089 60.7399 70.6089 60.5399C70.9989 60.1489 70.9989 59.5189 70.6089 59.1299C70.2189 58.7399 69.5889 58.7399 69.1989 59.1299Z" fill="#010066"/>
<path d="M80.5091 50.2291C80.7691 50.2291 81.0191 50.1291 81.2191 49.9291C81.6091 49.5391 81.6091 48.9091 81.2191 48.5191C80.8291 48.1291 80.1891 48.1291 79.7991 48.5191C79.4091 48.9101 79.4091 49.5401 79.7991 49.9291C79.9991 50.1301 80.2491 50.2291 80.5091 50.2291Z" fill="#010066"/>
<path d="M69.189 54.1299C68.799 54.5199 68.799 55.1499 69.189 55.5399C69.389 55.7399 69.649 55.8299 69.899 55.8299C70.159 55.8299 70.419 55.7399 70.609 55.5399C70.999 55.1489 70.999 54.5189 70.609 54.1299C70.219 53.7399 69.589 53.7399 69.189 54.1299Z" fill="#010066"/>
<path d="M82.629 43.0999C82.889 43.0999 83.139 43.0099 83.339 42.8099C83.729 42.4199 83.729 41.7899 83.339 41.3999C82.949 41.0099 82.309 41.0099 81.919 41.3999C81.529 41.7909 81.529 42.4209 81.919 42.8099C82.119 43.0099 82.369 43.0999 82.629 43.0999Z" fill="#010066"/>
<path d="M80.5091 45.2291C80.7691 45.2291 81.0191 45.1291 81.2191 44.9391C81.6091 44.5401 81.6091 43.9101 81.2191 43.5191C80.8291 43.1291 80.1891 43.1291 79.7991 43.5191C79.4091 43.9101 79.4091 44.5401 79.7991 44.9391C79.9991 45.1301 80.2491 45.2291 80.5091 45.2291Z" fill="#010066"/>
<path d="M78.389 47.3499C78.639 47.3499 78.899 47.2499 79.099 47.0599C79.489 46.6699 79.489 46.0309 79.099 45.6399C78.709 45.2499 78.069 45.2499 77.679 45.6399C77.289 46.0309 77.289 46.6699 77.679 47.0599C77.879 47.2499 78.129 47.3499 78.389 47.3499Z" fill="#010066"/>
<path d="M76.2691 49.47C76.5191 49.47 76.7791 49.37 76.9691 49.18C77.3691 48.79 77.3691 48.15 76.9691 47.76C76.5791 47.37 75.9491 47.37 75.5591 47.76C75.1691 48.15 75.1691 48.79 75.5591 49.18C75.7491 49.37 76.0091 49.47 76.2691 49.47Z" fill="#010066"/>
<path d="M74.149 51.5899C74.399 51.5899 74.659 51.4899 74.849 51.2999C75.239 50.9099 75.239 50.2699 74.849 49.8799C74.459 49.4899 73.829 49.4899 73.439 49.8799C73.049 50.2699 73.049 50.9099 73.439 51.2999C73.629 51.4899 73.889 51.5899 74.149 51.5899Z" fill="#010066"/>
<path d="M74.149 46.5899C74.399 46.5899 74.659 46.4899 74.849 46.2999C75.239 45.9099 75.239 45.2699 74.849 44.8799C74.459 44.4899 73.829 44.4899 73.439 44.8799C73.049 45.2699 73.049 45.9099 73.439 46.2999C73.629 46.4899 73.889 46.5899 74.149 46.5899Z" fill="#010066"/>
<path d="M71.3191 47.01C70.9291 47.4 70.9291 48.031 71.3191 48.42C71.5091 48.62 71.7691 48.71 72.0191 48.71C72.2791 48.71 72.5391 48.62 72.7291 48.42C73.1191 48.03 73.1191 47.399 72.7291 47.01C72.3391 46.62 71.7091 46.62 71.3191 47.01Z" fill="#010066"/>
<path d="M76.2691 44.47C76.5191 44.47 76.7791 44.37 76.9691 44.18C77.3591 43.79 77.3591 43.15 76.9691 42.76C76.5791 42.37 75.9491 42.37 75.5591 42.76C75.1691 43.15 75.1691 43.79 75.5591 44.18C75.7591 44.37 76.0091 44.47 76.2691 44.47Z" fill="#010066"/>
<path d="M81.919 36.3989C81.529 36.7899 81.529 37.4199 81.919 37.8089C82.119 38.0089 82.369 38.1089 82.629 38.1089C82.889 38.1089 83.139 38.0089 83.339 37.8089C83.729 37.4189 83.729 36.7889 83.339 36.3989C82.949 36.0099 82.309 36.0099 81.919 36.3989Z" fill="#010066"/>
<path d="M84.0391 34.28C83.6491 34.67 83.6491 35.3 84.0391 35.689C84.2391 35.889 84.4991 35.979 84.7491 35.979C85.0091 35.979 85.2591 35.889 85.4591 35.689C85.8491 35.299 85.8491 34.669 85.4591 34.28C85.0691 33.89 84.4291 33.89 84.0391 34.28Z" fill="#010066"/>
<path d="M88.9891 31.7399C89.2491 31.7399 89.5091 31.6389 89.6991 31.4499C90.0891 31.0589 90.0891 30.4289 89.6991 30.0299C89.3091 29.6489 88.6791 29.6489 88.2891 30.0299C87.8991 30.4289 87.8991 31.0589 88.2891 31.4499C88.4791 31.6399 88.7391 31.7399 88.9891 31.7399Z" fill="#010066"/>
<path d="M86.169 32.149C85.779 32.549 85.779 33.179 86.169 33.569C86.359 33.769 86.619 33.859 86.869 33.859C87.129 33.859 87.389 33.769 87.579 33.569C87.969 33.179 87.969 32.549 87.579 32.149C87.189 31.77 86.559 31.77 86.169 32.149Z" fill="#010066"/>
<path d="M69.199 49.1299C68.809 49.5199 68.809 50.1499 69.199 50.5399C69.389 50.7399 69.649 50.8299 69.899 50.8299C70.159 50.8299 70.409 50.7399 70.609 50.5399C70.999 50.1489 70.999 49.5189 70.609 49.1299C70.219 48.7399 69.589 48.7399 69.199 49.1299Z" fill="#010066"/>
<path d="M69.1989 44.1299C68.7989 44.5199 68.7989 45.1499 69.1989 45.5399C69.3889 45.7399 69.6489 45.8299 69.8989 45.8299C70.1589 45.8299 70.4089 45.7399 70.6089 45.5399C70.9989 45.1489 70.9989 44.5189 70.6089 44.1299C70.2189 43.7399 69.5889 43.7399 69.1989 44.1299Z" fill="#010066"/>
<path d="M79.7991 33.52C79.4091 33.911 79.4091 34.541 79.7991 34.93C79.9991 35.13 80.2491 35.23 80.5091 35.23C80.7691 35.23 81.0191 35.13 81.2191 34.93C81.6091 34.54 81.6091 33.91 81.2191 33.52C80.8291 33.13 80.1891 33.13 79.7991 33.52Z" fill="#010066"/>
<path d="M77.679 35.6399C77.289 36.0309 77.289 36.6699 77.679 37.0599C77.879 37.2499 78.129 37.3499 78.389 37.3499C78.639 37.3499 78.899 37.2499 79.099 37.0599C79.489 36.6699 79.489 36.0309 79.099 35.6399C78.699 35.2499 78.069 35.2499 77.679 35.6399Z" fill="#010066"/>
<path d="M86.8691 28.859C87.1291 28.859 87.3791 28.769 87.5791 28.569C87.9691 28.179 87.9691 27.549 87.5791 27.149C87.1891 26.769 86.5591 26.769 86.1691 27.149C85.7691 27.549 85.7691 28.179 86.1691 28.569C86.3591 28.77 86.6191 28.859 86.8691 28.859Z" fill="#010066"/>
<path d="M71.3191 42C70.9291 42.39 70.9291 43.03 71.3191 43.42C71.5091 43.609 71.7691 43.71 72.0191 43.71C72.2791 43.71 72.5391 43.609 72.7291 43.42C73.1191 43.03 73.1191 42.39 72.7291 42C72.3391 41.609 71.7091 41.609 71.3191 42Z" fill="#010066"/>
<path d="M84.0391 29.28C83.6491 29.67 83.6491 30.3 84.0391 30.689C84.2391 30.889 84.4991 30.979 84.7491 30.979C85.0091 30.979 85.2591 30.889 85.4591 30.689C85.8491 30.299 85.8491 29.669 85.4591 29.28C85.0691 28.89 84.4291 28.89 84.0391 29.28Z" fill="#010066"/>
<path d="M81.919 31.3989C81.529 31.7899 81.529 32.4199 81.919 32.8089C82.119 33.0089 82.369 33.1089 82.629 33.1089C82.889 33.1089 83.139 33.0089 83.339 32.8089C83.729 32.4189 83.729 31.7889 83.339 31.3989C82.949 31.0099 82.309 31.0099 81.919 31.3989Z" fill="#010066"/>
<path d="M79.6289 30.109C79.8189 30.299 80.0789 30.399 80.3389 30.399C80.5889 30.399 80.8489 30.299 81.0389 30.109C81.4289 29.719 81.4289 29.08 81.0389 28.689C80.6489 28.299 80.0189 28.299 79.6289 28.689C79.2389 29.08 79.2389 29.72 79.6289 30.109Z" fill="#010066"/>
<path d="M75.3889 32.93C74.9989 33.32 74.9989 33.96 75.3889 34.35C75.5789 34.54 75.8389 34.64 76.0889 34.64C76.3489 34.64 76.6089 34.54 76.7989 34.35C77.1889 33.96 77.1889 33.32 76.7989 32.93C76.4089 32.54 75.7789 32.54 75.3889 32.93Z" fill="#010066"/>
<path d="M81.749 27.9791C81.949 28.1791 82.199 28.2801 82.459 28.2801C82.709 28.2801 82.969 28.1791 83.169 27.9791C83.559 27.5891 83.559 26.9591 83.169 26.5691C82.769 26.1791 82.139 26.1791 81.749 26.5691C81.359 26.9601 81.359 27.5901 81.749 27.9791Z" fill="#010066"/>
<path d="M78.2191 32.5201C78.4691 32.5201 78.729 32.4201 78.919 32.2301C79.309 31.8401 79.309 31.2011 78.919 30.8101C78.529 30.4201 77.8991 30.4201 77.5091 30.8101C77.1191 31.2011 77.1191 31.8401 77.5091 32.2301C77.6991 32.4201 77.9591 32.5201 78.2191 32.5201Z" fill="#010066"/>
<path d="M84.5789 26.16C84.8389 26.16 85.0889 26.059 85.2889 25.859C85.6789 25.469 85.6789 24.839 85.2889 24.45C84.8989 24.059 84.2589 24.059 83.8689 24.45C83.4789 24.84 83.4789 25.47 83.8689 25.859C84.0689 26.06 84.3189 26.16 84.5789 26.16Z" fill="#010066"/>
<path d="M75.119 29.609C74.729 29.229 74.099 29.229 73.709 29.609C73.319 30.009 73.319 30.639 73.709 31.03C73.899 31.229 74.159 31.319 74.409 31.319C74.669 31.319 74.919 31.229 75.119 31.03C75.509 30.64 75.509 30.01 75.119 29.609Z" fill="#010066"/>
<path d="M76.5291 29.2C76.7891 29.2 77.0491 29.099 77.2391 28.91C77.6291 28.519 77.6291 27.889 77.2391 27.49C76.8491 27.099 76.2191 27.099 75.8291 27.49C75.4391 27.889 75.4391 28.519 75.8291 28.91C76.0191 29.1 76.2791 29.2 76.5291 29.2Z" fill="#010066"/>
<path d="M78.659 27.0799C78.909 27.0799 79.169 26.9789 79.359 26.7899C79.749 26.3989 79.749 25.7599 79.359 25.3699C78.969 24.9789 78.339 24.9789 77.949 25.3699C77.559 25.7599 77.559 26.3989 77.949 26.7899C78.139 26.9789 78.399 27.0799 78.659 27.0799Z" fill="#010066"/>
<path d="M80.7791 24.96C81.0291 24.96 81.2891 24.859 81.4791 24.67C81.8691 24.28 81.8691 23.64 81.4791 23.25C81.0891 22.859 80.4591 22.859 80.0691 23.25C79.6791 23.64 79.6791 24.28 80.0691 24.67C80.2591 24.859 80.5191 24.96 80.7791 24.96Z" fill="#010066"/>
<path d="M86.159 68.58C86.349 68.769 86.609 68.8699 86.859 68.8699C87.119 68.8699 87.379 68.769 87.569 68.58C87.959 68.189 87.959 67.5499 87.569 67.1599C87.179 66.7689 86.549 66.7689 86.159 67.1599C85.769 67.5499 85.769 68.189 86.159 68.58Z" fill="#010066"/>
<path d="M74.139 81.5999C74.389 81.5999 74.649 81.4999 74.839 81.3099C75.239 80.9109 75.239 80.2809 74.839 79.8899C74.449 79.4999 73.819 79.4999 73.429 79.8899C73.039 80.2809 73.039 80.9109 73.429 81.3099C73.629 81.4999 73.879 81.5999 74.139 81.5999Z" fill="#010066"/>
<path d="M81.919 71.399C81.529 71.799 81.529 72.429 81.919 72.819C82.109 73.019 82.369 73.109 82.619 73.109C82.879 73.109 83.129 73.019 83.329 72.819C83.719 72.429 83.719 71.799 83.329 71.399C82.939 71.02 82.309 71.02 81.919 71.399Z" fill="#010066"/>
<path d="M78.379 77.3589C78.639 77.3589 78.889 77.2589 79.089 77.0589C79.479 76.6689 79.479 76.0389 79.089 75.6489C78.699 75.2589 78.059 75.2589 77.669 75.6489C77.279 76.0399 77.279 76.6699 77.669 77.0589C77.869 77.2599 78.119 77.3589 78.379 77.3589Z" fill="#010066"/>
<path d="M88.9891 66.7501C89.2391 66.7501 89.4991 66.6491 89.6891 66.4601C90.0791 66.0691 90.0791 65.4301 89.6891 65.0401C89.2991 64.6491 88.6691 64.6491 88.2791 65.0401C87.8891 65.4301 87.8891 66.0691 88.2791 66.4601C88.4691 66.6491 88.7291 66.7501 88.9891 66.7501Z" fill="#010066"/>
<path d="M75.5491 79.1891C75.7491 79.3791 75.9991 79.4791 76.2591 79.4791C76.5091 79.4791 76.7691 79.3791 76.9691 79.1891C77.3591 78.7901 77.3591 78.1601 76.9691 77.7691C76.5791 77.3791 75.9391 77.3791 75.5491 77.7691C75.1591 78.1601 75.1591 78.7901 75.5491 79.1891Z" fill="#010066"/>
<path d="M84.7391 70.9899C84.9991 70.9899 85.2591 70.8989 85.4491 70.6999C85.8391 70.3089 85.8391 69.6789 85.4491 69.2799C85.0591 68.8989 84.4291 68.8989 84.0391 69.2799C83.6491 69.6789 83.6491 70.3089 84.0391 70.6999C84.2291 70.8989 84.4891 70.9899 84.7391 70.9899Z" fill="#010066"/>
<path d="M77.9392 80.51C77.5492 80.89 77.5391 81.52 77.9291 81.92C78.1291 82.12 78.3791 82.22 78.6391 82.22C78.8991 82.22 79.1492 82.13 79.3392 81.94C79.7392 81.55 79.7391 80.92 79.3591 80.52C78.9691 80.13 78.3392 80.12 77.9392 80.51Z" fill="#010066"/>
<path d="M84.3691 74.21C83.9791 74.59 83.9691 75.23 84.3591 75.62C84.5491 75.819 84.8091 75.92 85.0691 75.92C85.3191 75.92 85.5791 75.83 85.7691 75.64C86.1691 75.25 86.1691 74.62 85.7891 74.22C85.3991 73.83 84.7691 73.819 84.3691 74.21Z" fill="#010066"/>
<path d="M87.929 72.1201C87.539 71.7291 86.909 71.7201 86.509 72.1091C86.119 72.5001 86.109 73.1301 86.499 73.5191C86.699 73.7191 86.959 73.8191 87.219 73.8191C87.469 73.8191 87.719 73.7291 87.909 73.5401C88.309 73.1491 88.319 72.5201 87.929 72.1201Z" fill="#010066"/>
<path d="M73.659 84.71C73.259 85.09 73.259 85.73 73.639 86.12C73.839 86.319 74.099 86.42 74.359 86.42C74.609 86.42 74.859 86.33 75.059 86.14C75.449 85.75 75.459 85.11 75.069 84.72C74.689 84.33 74.049 84.319 73.659 84.71Z" fill="#010066"/>
<path d="M75.799 82.5999C75.409 82.9909 75.399 83.6299 75.789 84.0199C75.979 84.2199 76.239 84.3199 76.499 84.3199C76.749 84.3199 77.009 84.2299 77.199 84.0309C77.599 83.6499 77.599 83.0199 77.209 82.6209C76.829 82.2289 76.199 82.2199 75.799 82.5999Z" fill="#010066"/>
<path d="M88.659 70.01C88.259 70.4 88.259 71.031 88.639 71.42C88.839 71.62 89.099 71.72 89.359 71.72C89.609 71.72 89.859 71.63 90.059 71.44C90.449 71.05 90.459 70.42 90.069 70.02C89.689 69.63 89.049 69.62 88.659 70.01Z" fill="#010066"/>
<path d="M77.2091 87.5301C76.8191 87.1391 76.1791 87.1391 75.7891 87.5301C75.3991 87.9201 75.3991 88.5501 75.7891 88.9391C75.9891 89.1391 76.2391 89.2401 76.4991 89.2401C76.7491 89.2401 77.0091 89.1391 77.2091 88.9391C77.5991 88.5501 77.5991 87.9201 77.2091 87.5301Z" fill="#010066"/>
<path d="M87.8089 76.9199C87.4189 76.5299 86.7889 76.5299 86.3989 76.9199C86.0089 77.3099 86.0089 77.9499 86.3989 78.3399C86.5889 78.5299 86.8489 78.6299 87.1089 78.6299C87.3589 78.6299 87.6189 78.5299 87.8089 78.3399C88.1989 77.9499 88.1989 77.3099 87.8089 76.9199Z" fill="#010066"/>
<path d="M77.909 85.4099C77.519 85.7999 77.519 86.4299 77.909 86.8189C78.109 87.0189 78.359 87.1089 78.619 87.1089C78.879 87.1089 79.129 87.0189 79.329 86.8189C79.719 86.4289 79.719 85.7989 79.329 85.4099C78.939 85.0199 78.299 85.0199 77.909 85.4099Z" fill="#010066"/>
<path d="M84.2791 80.4601C84.4691 80.6491 84.7291 80.7501 84.9791 80.7501C85.2391 80.7501 85.4991 80.6491 85.6891 80.4601C86.0791 80.0691 86.0791 79.4391 85.6891 79.0401C85.2991 78.6491 84.6691 78.6491 84.2791 79.0401C83.8891 79.4391 83.8891 80.0691 84.2791 80.4601Z" fill="#010066"/>
<path d="M88.5191 74.8001C88.1291 75.1901 88.1291 75.8301 88.5191 76.2201C88.7091 76.4101 88.9691 76.5101 89.2291 76.5101C89.4791 76.5101 89.7391 76.4101 89.9291 76.2201C90.3191 75.8301 90.3191 75.1901 89.9291 74.8001C89.5391 74.4101 88.9091 74.4101 88.5191 74.8001Z" fill="#010066"/>
<path d="M74.379 91.3589C74.629 91.3589 74.889 91.2589 75.079 91.0589C75.469 90.6689 75.469 90.0389 75.079 89.6489C74.689 89.2589 74.059 89.2589 73.669 89.6489C73.279 90.0399 73.279 90.6699 73.669 91.0589C73.869 91.2599 74.119 91.3589 74.379 91.3589Z" fill="#010066"/>
<path d="M87.669 82.0601C87.279 81.6701 86.6491 81.6701 86.2591 82.0601C85.8691 82.4511 85.8691 83.0901 86.2591 83.4801C86.4491 83.6701 86.7091 83.7701 86.9691 83.7701C87.2191 83.7701 87.479 83.6701 87.669 83.4801C88.059 83.0901 88.059 82.4501 87.669 82.0601Z" fill="#010066"/>
<path d="M84.8389 85.89C85.0989 85.89 85.3589 85.7899 85.5489 85.5999C85.9389 85.2099 85.9389 84.57 85.5489 84.18C85.1589 83.79 84.5289 83.79 84.1389 84.18C83.7489 84.57 83.7489 85.2099 84.1389 85.5999C84.3289 85.7899 84.5889 85.89 84.8389 85.89Z" fill="#010066"/>
<path d="M74.9391 94.7901C74.5491 94.3991 73.9191 94.3991 73.5291 94.7901C73.1391 95.1801 73.1391 95.8101 73.5291 96.2001C73.7291 96.3991 73.9791 96.5001 74.2391 96.5001C74.4891 96.5001 74.7491 96.3991 74.9391 96.2001C75.3291 95.8101 75.3291 95.1801 74.9391 94.7901Z" fill="#010066"/>
<path d="M76.3589 94.3699C76.6089 94.3699 76.8689 94.2799 77.0689 94.0799C77.4589 93.6889 77.4589 93.0589 77.0689 92.6699C76.6789 92.2799 76.0389 92.2799 75.6489 92.6699C75.2589 93.0599 75.2589 93.6899 75.6489 94.0799C75.8489 94.2799 76.0989 94.3699 76.3589 94.3699Z" fill="#010066"/>
<path d="M88.3789 79.939C87.9889 80.33 87.9889 80.969 88.3789 81.359C88.5689 81.549 88.8289 81.649 89.0889 81.649C89.3389 81.649 89.5989 81.549 89.7889 81.359C90.1789 80.969 90.1789 80.33 89.7889 79.939C89.3989 79.55 88.7689 79.55 88.3789 79.939Z" fill="#010066"/>
<path d="M77.7691 90.5501C77.3791 90.9401 77.3791 91.5701 77.7691 91.9601C77.9691 92.1601 78.2191 92.2501 78.4791 92.2501C78.7391 92.2501 78.9891 92.1601 79.1891 91.9601C79.5791 91.5691 79.5791 90.9391 79.1891 90.5501C78.7991 90.1601 78.1591 90.1601 77.7691 90.5501Z" fill="#010066"/>
<path d="M88.1289 85.189C87.7389 85.58 87.7389 86.21 88.1289 86.599C88.3289 86.799 88.5889 86.889 88.8389 86.889C89.0989 86.889 89.3489 86.799 89.5489 86.599C89.9389 86.209 89.9389 85.579 89.5489 85.189C89.1589 84.8 88.5289 84.8 88.1289 85.189Z" fill="#010066"/>
<path d="M77.5291 95.7901C77.1391 96.1801 77.1391 96.8191 77.5291 97.2101C77.7191 97.3991 77.9791 97.5001 78.2391 97.5001C78.4891 97.5001 78.7491 97.3991 78.9391 97.2101C79.3291 96.8191 79.3291 96.1801 78.9391 95.7901C78.5491 95.3991 77.9191 95.3991 77.5291 95.7901Z" fill="#010066"/>
<path d="M86.0091 87.3101C85.6191 87.7011 85.6191 88.3311 86.0091 88.7201C86.2091 88.9201 86.4591 89.0201 86.7191 89.0201C86.9791 89.0201 87.2291 88.9201 87.4291 88.7201C87.8191 88.3301 87.8191 87.7001 87.4291 87.3101C87.0391 86.9201 86.3991 86.9201 86.0091 87.3101Z" fill="#010066"/>
<path d="M85.3089 89.43C84.9189 89.04 84.2789 89.04 83.8889 89.43C83.4989 89.82 83.4989 90.4509 83.8889 90.8399C84.0889 91.0399 84.3389 91.14 84.5989 91.14C84.8589 91.14 85.1089 91.0399 85.3089 90.8399C85.6989 90.4499 85.6989 89.819 85.3089 89.43Z" fill="#010066"/>
<path d="M75.409 97.9099C75.019 98.2999 75.019 98.9389 75.409 99.3299C75.599 99.5189 75.859 99.6199 76.109 99.6199C76.369 99.6199 76.629 99.5189 76.819 99.3299C77.209 98.9389 77.209 98.2999 76.819 97.9099C76.429 97.5199 75.799 97.5199 75.409 97.9099Z" fill="#010066"/>
<path d="M86.8091 92.9301C86.4191 92.5311 85.7891 92.5311 85.3991 92.9301C84.9991 93.3201 84.9991 93.9511 85.3991 94.3401C85.5891 94.5401 85.8491 94.6301 86.0991 94.6301C86.3591 94.6301 86.6091 94.5401 86.8091 94.3401C87.1991 93.9501 87.1991 93.3191 86.8091 92.9301Z" fill="#010066"/>
<path d="M88.9291 90.8001C88.5391 90.4101 87.9091 90.4101 87.5191 90.8001C87.1291 91.1901 87.1291 91.8301 87.5191 92.2201C87.7091 92.4101 87.9691 92.5101 88.2191 92.5101C88.4791 92.5101 88.7391 92.4101 88.9291 92.2201C89.3191 91.8301 89.3191 91.1891 88.9291 90.8001Z" fill="#010066"/>
<path d="M84.999 98.3191C84.609 98.7101 84.609 99.3401 84.999 99.7291C85.199 99.9291 85.449 100.019 85.709 100.019C85.969 100.019 86.219 99.9291 86.419 99.7291C86.809 99.3391 86.809 98.7091 86.419 98.3191C86.029 97.9301 85.389 97.9301 84.999 98.3191Z" fill="#010066"/>
<path d="M89.249 95.4899C89.439 95.6789 89.699 95.7799 89.949 95.7799C90.209 95.7799 90.469 95.6789 90.659 95.4899C91.049 95.0989 91.049 94.4689 90.659 94.0689C90.269 93.6889 89.639 93.6889 89.249 94.0689C88.859 94.4699 88.859 95.0999 89.249 95.4899Z" fill="#010066"/>
<path d="M87.1189 96.2C86.7289 96.59 86.7289 97.22 87.1189 97.609C87.3189 97.809 87.5789 97.899 87.8289 97.899C88.0889 97.899 88.3389 97.809 88.5389 97.609C88.9289 97.219 88.9289 96.589 88.5389 96.2C88.1489 95.81 87.5089 95.81 87.1189 96.2Z" fill="#010066"/>
<path d="M92 39C91.046 39 90.152 38.671 89.442 38.077C91.623 36.065 93 33.194 93 30C93 23.935 88.065 19 82 19C76.996 19 72.77 22.361 71.441 26.942C71.33 27.123 71.275 27.322 71.29 27.526C71.106 28.323 70.999 29.148 70.999 30C70.999 30.859 71.108 31.692 71.295 32.495C71.302 32.625 71.335 32.75 71.391 32.869C71.941 34.898 73.054 36.691 74.557 38.077C73.847 38.671 72.953 39 71.999 39C68.69 39 65.999 41.691 65.999 45V65C65.999 67.967 68.166 70.432 70.999 70.91V97.5C70.999 100.809 73.69 103.5 76.999 103.5C79.085 103.5 80.923 102.429 81.999 100.81C83.075 102.429 84.913 103.5 86.999 103.5C90.308 103.5 92.999 100.809 92.999 97.5V70.91C95.832 70.431 97.999 67.967 97.999 65V45C98 41.691 95.308 39 92 39ZM82.358 21.019C82.301 21.055 82.238 21.08 82.189 21.13C81.799 21.52 81.799 22.15 82.189 22.55C82.389 22.74 82.639 22.84 82.899 22.84C83.149 22.84 83.409 22.74 83.609 22.55C83.991 22.157 83.993 21.546 83.626 21.154C84.586 21.331 85.495 21.654 86.323 22.11C86.201 22.159 86.088 22.232 85.99 22.33C85.6 22.72 85.6 23.35 85.99 23.74C86.19 23.939 86.45 24.04 86.7 24.04C86.96 24.04 87.21 23.939 87.41 23.74C87.603 23.547 87.7 23.295 87.701 23.042C88.323 23.552 88.87 24.147 89.336 24.804C88.983 24.675 88.573 24.746 88.29 25.031C87.9 25.421 87.9 26.06 88.29 26.451C88.48 26.64 88.74 26.741 88.99 26.741C89.25 26.741 89.51 26.64 89.7 26.451C89.869 26.281 89.951 26.062 89.973 25.84C90.283 26.431 90.523 27.062 90.696 27.721C90.594 27.769 90.494 27.826 90.409 27.911C90.019 28.301 90.019 28.94 90.409 29.331C90.564 29.485 90.769 29.564 90.979 29.594C90.985 29.73 91 29.864 91 30.001C91 30.987 90.834 31.936 90.54 32.824C90.498 32.855 90.448 32.872 90.41 32.911C90.17 33.15 90.096 33.481 90.151 33.794C89.969 34.185 89.763 34.563 89.528 34.92C89.142 34.675 88.629 34.7 88.29 35.031C87.905 35.426 87.904 36.045 88.28 36.436C88.034 36.675 87.773 36.898 87.501 37.108C87.109 36.785 86.536 36.794 86.17 37.161C85.917 37.414 85.845 37.765 85.921 38.09C84.734 38.667 83.407 39.001 82.001 39.001C81.819 39.001 81.643 38.984 81.464 38.974C81.42 38.809 81.35 38.651 81.22 38.521C80.83 38.131 80.19 38.131 79.8 38.521C79.75 38.571 79.725 38.632 79.688 38.689C77.779 38.18 76.12 37.063 74.931 35.552C74.891 35.373 74.819 35.2 74.68 35.061C74.62 35.001 74.546 34.967 74.477 34.926C73.547 33.509 73.001 31.819 73.001 30.001C73.001 28.627 73.32 27.328 73.873 26.162C74.036 26.265 74.212 26.331 74.4 26.331C74.66 26.331 74.91 26.241 75.11 26.041C75.5 25.65 75.5 25.02 75.11 24.631C75.048 24.569 74.972 24.534 74.9 24.491C75.129 24.197 75.37 23.911 75.633 23.647C75.679 23.745 75.732 23.839 75.81 23.92C76.01 24.12 76.27 24.21 76.52 24.21C76.78 24.21 77.03 24.12 77.23 23.92C77.62 23.53 77.62 22.899 77.23 22.51C77.2 22.481 77.162 22.469 77.13 22.444C77.439 22.244 77.762 22.066 78.095 21.905C78.262 22.018 78.449 22.091 78.64 22.091C78.9 22.091 79.16 22.001 79.35 21.801C79.482 21.669 79.552 21.507 79.595 21.337C80.362 21.124 81.167 21.001 82.001 21.001C82.121 21 82.238 21.014 82.358 21.019ZM93 68.858V67.267C93.188 67.427 93.407 67.519 93.639 67.519C93.899 67.519 94.149 67.429 94.339 67.24C94.739 66.849 94.739 66.219 94.359 65.819C93.986 65.447 93.401 65.432 93 65.769V62.464C93.076 62.482 93.15 62.509 93.229 62.509C93.489 62.509 93.739 62.409 93.939 62.209C94.329 61.818 94.329 61.188 93.939 60.799C93.685 60.545 93.328 60.474 93 60.551V57.012C93.166 57.119 93.346 57.189 93.539 57.189C93.799 57.189 94.049 57.099 94.249 56.899C94.639 56.509 94.639 55.879 94.249 55.49C93.91 55.15 93.389 55.124 93 55.377V52.092C93.154 52.181 93.32 52.24 93.489 52.24C93.749 52.24 93.999 52.149 94.199 51.95C94.589 51.559 94.589 50.929 94.199 50.54C93.871 50.212 93.382 50.176 93 50.399V50C93 49.447 92.552 49 92 49C91.979 49 91.96 49.011 91.939 49.013C92.034 48.673 91.964 48.295 91.699 48.031C91.309 47.64 90.679 47.64 90.289 48.031C89.899 48.421 89.899 49.06 90.289 49.451C90.479 49.64 90.739 49.741 90.999 49.741C91.018 49.741 91.036 49.731 91.055 49.73C91.03 49.818 91 49.905 91 50.001V52.439C90.876 52.488 90.759 52.561 90.659 52.661C90.269 53.051 90.269 53.681 90.659 54.07C90.762 54.173 90.877 54.244 91 54.292V57.418C90.896 57.466 90.794 57.524 90.709 57.61C90.319 58.001 90.319 58.631 90.709 59.02C90.796 59.108 90.897 59.167 91 59.217V62.649C90.781 62.671 90.567 62.753 90.399 62.92C90.009 63.31 90.009 63.94 90.399 64.34C90.57 64.503 90.78 64.584 91 64.609V67.779C90.931 67.819 90.858 67.851 90.799 67.911C90.409 68.301 90.399 68.931 90.789 69.32C90.85 69.384 90.927 69.421 91 69.465V72.456C90.869 72.504 90.744 72.576 90.639 72.681C90.249 73.071 90.249 73.702 90.639 74.101C90.746 74.204 90.87 74.275 91 74.323V77.569C90.817 77.607 90.641 77.679 90.499 77.821C90.109 78.212 90.109 78.842 90.499 79.231C90.644 79.376 90.818 79.45 91 79.49V82.783C90.733 82.773 90.464 82.862 90.259 83.061C89.869 83.461 89.869 84.091 90.259 84.481C90.449 84.671 90.709 84.771 90.959 84.771C90.973 84.771 90.986 84.763 91 84.763V88.648C90.608 88.301 90.015 88.306 89.639 88.681C89.249 89.071 89.249 89.711 89.639 90.101C89.829 90.291 90.089 90.391 90.349 90.391C90.58 90.391 90.815 90.297 91 90.133V97.501C91 98.183 90.813 98.814 90.511 99.376C90.488 99.346 90.477 99.31 90.449 99.281C90.059 98.9 89.429 98.9 89.039 99.281C88.649 99.68 88.649 100.31 89.039 100.701C89.093 100.755 89.161 100.784 89.224 100.823C88.905 101.037 88.546 101.19 88.171 101.305C87.783 101.043 87.262 101.067 86.92 101.41C86.897 101.432 86.888 101.463 86.868 101.486C84.725 101.415 83.001 99.66 83.001 97.5V95.874C83.027 96.087 83.106 96.296 83.27 96.46C83.47 96.66 83.72 96.75 83.98 96.75C84.24 96.75 84.49 96.66 84.69 96.46C85.08 96.069 85.08 95.439 84.69 95.05C84.3 94.66 83.66 94.66 83.27 95.05C83.106 95.214 83.027 95.422 83.001 95.636V93.088C83.065 93.047 83.133 93.017 83.19 92.96C83.58 92.569 83.58 91.939 83.19 91.55C83.134 91.494 83.065 91.465 83.001 91.425V87.955C83.156 87.909 83.305 87.839 83.43 87.72C83.82 87.33 83.82 86.69 83.43 86.3C83.307 86.177 83.157 86.107 83.001 86.062V82.843C83.211 82.813 83.416 82.735 83.57 82.58C83.96 82.189 83.96 81.55 83.57 81.16C83.41 81 83.208 80.923 83.001 80.893V78.005C83.227 77.989 83.449 77.91 83.63 77.739C84.02 77.348 84.03 76.718 83.64 76.318C83.466 76.139 83.235 76.05 83.001 76.034V75C83.001 74.447 82.553 74 82.001 74C81.809 74 81.641 74.068 81.488 74.162C81.471 73.933 81.385 73.706 81.21 73.53C80.82 73.139 80.18 73.139 79.79 73.53C79.4 73.92 79.4 74.55 79.79 74.939C79.99 75.139 80.24 75.229 80.5 75.229C80.678 75.229 80.845 75.168 81.001 75.078V78.164C80.682 78.094 80.339 78.161 80.09 78.41C79.69 78.79 79.69 79.43 80.07 79.819C80.27 80.019 80.53 80.12 80.79 80.12C80.861 80.12 80.931 80.096 81.001 80.081V83.048C80.665 82.957 80.293 83.027 80.03 83.29C79.64 83.68 79.64 84.31 80.03 84.7C80.23 84.899 80.49 84.99 80.74 84.99C80.83 84.99 80.915 84.964 81.001 84.941V88.22C80.633 88.065 80.189 88.128 79.89 88.419C79.5 88.818 79.5 89.449 79.89 89.839C80.09 90.039 80.35 90.129 80.6 90.129C80.739 90.129 80.874 90.099 81.001 90.044V93.624C80.6 93.292 80.02 93.3 79.65 93.669C79.26 94.059 79.26 94.689 79.65 95.089C79.85 95.279 80.1 95.379 80.36 95.379C80.584 95.379 80.811 95.287 81.001 95.134V97.394C80.855 97.653 80.822 97.956 80.927 98.23C80.85 98.641 80.702 99.022 80.51 99.379C80.487 99.351 80.477 99.316 80.45 99.289C80.06 98.898 79.42 98.898 79.03 99.289C78.64 99.679 78.64 100.309 79.03 100.699C79.086 100.755 79.154 100.785 79.217 100.825C78.898 101.038 78.54 101.19 78.165 101.305C77.777 101.041 77.254 101.064 76.91 101.409C76.888 101.431 76.88 101.461 76.86 101.484C76.165 101.46 75.52 101.255 74.958 100.92C75.015 100.608 74.94 100.279 74.7 100.039C74.438 99.776 74.07 99.706 73.737 99.797C73.361 99.265 73.126 98.636 73.048 97.957C73.138 97.703 73.12 97.426 73.002 97.183V93.127C73.322 92.753 73.322 92.205 73.002 91.831V88.11C73.267 87.761 73.271 87.287 73.002 86.927V82.78C73.004 82.738 73.004 82.699 73.002 82.657V78.144C73.014 78.133 73.029 78.129 73.041 78.119C73.421 77.728 73.421 77.089 73.041 76.699C73.029 76.687 73.014 76.684 73.002 76.674V73.143C73.373 72.756 73.373 72.152 73.002 71.765V62.826C73.011 62.751 73.011 62.679 73.002 62.603V57.825C73.011 57.749 73.011 57.678 73.002 57.601V52.825C73.011 52.749 73.011 52.678 73.002 52.601V50C73.002 49.447 72.554 49 72.002 49C71.45 49 71.002 49.447 71.002 50V67.417C70.878 67.684 70.878 67.983 71.002 68.247V68.858C70.065 68.614 69.259 68.05 68.721 67.277C68.841 66.928 68.77 66.528 68.492 66.25C68.393 66.15 68.277 66.078 68.154 66.029C68.066 65.698 68.003 65.358 68.003 65V62.916C68.18 62.874 68.351 62.801 68.492 62.66C68.882 62.269 68.882 61.639 68.492 61.25C68.354 61.111 68.181 61.04 68.003 61V57.909C68.18 57.87 68.351 57.801 68.492 57.66C68.882 57.269 68.882 56.639 68.492 56.25C68.354 56.111 68.181 56.04 68.003 56V52.916C68.18 52.874 68.351 52.801 68.492 52.66C68.882 52.269 68.882 51.639 68.492 51.25C68.354 51.111 68.181 51.04 68.003 51V47.916C68.18 47.874 68.351 47.801 68.492 47.66C68.882 47.269 68.882 46.639 68.492 46.25C68.354 46.111 68.181 46.04 68.003 46V45C68.003 42.794 69.797 41 72.003 41C72.413 41 72.814 40.951 73.204 40.873C73.25 41.028 73.32 41.178 73.442 41.3C73.632 41.49 73.892 41.59 74.152 41.59C74.402 41.59 74.662 41.49 74.852 41.3C75.157 40.995 75.215 40.54 75.043 40.168C75.399 39.958 75.734 39.71 76.043 39.426C76.119 39.444 76.194 39.47 76.272 39.47C76.313 39.47 76.353 39.451 76.395 39.446C77.007 39.811 77.656 40.117 78.336 40.359C78.098 40.372 77.863 40.46 77.682 40.64C77.292 41.031 77.292 41.67 77.682 42.06C77.882 42.25 78.132 42.35 78.392 42.35C78.642 42.35 78.902 42.25 79.102 42.06C79.492 41.67 79.492 41.031 79.102 40.64C79.072 40.611 79.034 40.599 79.001 40.574C79.957 40.845 80.961 41.001 82.002 41.001C82.75 41.001 83.481 40.925 84.187 40.781C84.357 40.905 84.553 40.98 84.751 40.98C85.011 40.98 85.261 40.89 85.461 40.69C85.56 40.591 85.633 40.476 85.682 40.354C86.444 40.083 87.166 39.731 87.84 39.307C88.056 39.514 88.285 39.705 88.528 39.877C88.445 39.921 88.361 39.962 88.292 40.03C87.902 40.42 87.902 41.059 88.292 41.45C88.482 41.639 88.742 41.74 89.002 41.74C89.252 41.74 89.512 41.639 89.702 41.45C89.922 41.229 90.004 40.931 89.976 40.642C90.62 40.874 91.306 40.999 92.003 40.999C92.128 40.999 92.246 41.024 92.368 41.036C92.169 41.412 92.215 41.884 92.532 42.209C92.722 42.398 92.982 42.499 93.242 42.499C93.492 42.499 93.752 42.398 93.942 42.209C94.097 42.055 94.173 41.863 94.208 41.667C94.922 42.141 95.462 42.841 95.756 43.66C95.365 43.425 94.865 43.456 94.532 43.789C94.142 44.179 94.142 44.818 94.532 45.209C94.732 45.398 94.982 45.499 95.242 45.499C95.492 45.499 95.752 45.398 95.952 45.209C95.974 45.186 95.983 45.155 96.003 45.13V48.196C95.641 48.044 95.208 48.113 94.912 48.409C94.522 48.799 94.522 49.438 94.912 49.829C95.102 50.018 95.362 50.119 95.612 50.119C95.746 50.119 95.879 50.091 96.003 50.039V53.143C95.648 53.015 95.235 53.086 94.952 53.37C94.562 53.76 94.562 54.39 94.952 54.78C95.152 54.979 95.402 55.069 95.662 55.069C95.779 55.069 95.893 55.045 96.003 55.006V58.641C95.61 58.302 95.015 58.308 94.642 58.68C94.252 59.07 94.252 59.701 94.642 60.09C94.842 60.29 95.092 60.39 95.352 60.39C95.589 60.39 95.813 60.296 96.003 60.13V63.467C95.684 63.394 95.341 63.461 95.092 63.71C94.692 64.1 94.682 64.73 95.072 65.12C95.272 65.319 95.532 65.42 95.792 65.42C95.85 65.42 95.906 65.398 95.964 65.388C95.796 67.071 94.597 68.442 93 68.858Z" fill="#010066"/>
<path d="M32 39C31.046 39 30.152 38.671 29.442 38.077C31.623 36.065 33 33.194 33 30C33 23.935 28.065 19 22 19C15.935 19 11 23.935 11 30C11 33.194 12.377 36.065 14.558 38.077C13.848 38.671 12.953 39 12 39C8.691 39 6 41.691 6 45V65C6 67.967 8.167 70.432 11 70.91V97.5C11 100.809 13.691 103.5 17 103.5C19.086 103.5 20.924 102.429 22 100.81C23.076 102.429 24.914 103.5 27 103.5C30.309 103.5 33 100.809 33 97.5V70.91C35.833 70.431 38 67.967 38 65V45C38 41.691 35.308 39 32 39ZM13 30C13 25.037 17.038 21 22 21C26.962 21 31 25.037 31 30C31 34.963 26.962 39 22 39C17.038 39 13 34.963 13 30ZM36 65C36 66.858 34.72 68.411 33 68.858V50C33 49.447 32.552 49 32 49C31.448 49 31 49.447 31 50V97.5C31 99.706 29.206 101.5 27 101.5C24.794 101.5 23 99.706 23 97.5V75C23 74.447 22.552 74 22 74C21.448 74 21 74.447 21 75V97.5C21 99.706 19.206 101.5 17 101.5C14.794 101.5 13 99.706 13 97.5V50C13 49.447 12.552 49 12 49C11.448 49 11 49.447 11 50V68.858C9.28 68.411 8 66.858 8 65V45C8 42.794 9.794 41 12 41C13.584 41 15.054 40.389 16.165 39.308C17.859 40.374 19.855 41 22 41C24.145 41 26.141 40.374 27.835 39.309C28.945 40.389 30.416 41 32 41C34.206 41 36 42.794 36 45V65Z" fill="#010066"/>
<path d="M67.707 79.293L62.707 74.293C62.316 73.902 61.684 73.902 61.293 74.293C60.902 74.684 60.902 75.316 61.293 75.707L64.607 79.021C64.57 79.017 64.538 79 64.5 79H39.5C39.462 79 39.429 79.018 39.393 79.021L42.707 75.707C43.098 75.316 43.098 74.684 42.707 74.293C42.316 73.902 41.684 73.902 41.293 74.293L36.293 79.293C35.902 79.684 35.902 80.316 36.293 80.707L41.293 85.707C41.488 85.902 41.744 86 42 86C42.256 86 42.512 85.902 42.707 85.707C43.098 85.316 43.098 84.684 42.707 84.293L39.393 80.979C39.43 80.983 39.462 81 39.5 81H64.5C64.538 81 64.571 80.982 64.607 80.979L61.293 84.293C60.902 84.684 60.902 85.316 61.293 85.707C61.488 85.902 61.744 86 62 86C62.256 86 62.512 85.902 62.707 85.707L67.707 80.707C68.097 80.316 68.097 79.684 67.707 79.293ZM38.414 80L38.521 79.893C38.517 79.93 38.5 79.962 38.5 80C38.5 80.038 38.518 80.07 38.521 80.107L38.414 80ZM65.478 79.893L65.585 80L65.478 80.107C65.482 80.07 65.499 80.038 65.499 80C65.499 79.962 65.482 79.93 65.478 79.893Z" fill="#8C8C8C"/>
</svg>
