<svg width="104" height="104" fill="none" xmlns="http://www.w3.org/2000/svg"><path d="M52.638 45.788c.782 0 1.416-.753 1.416-1.683s-.634-1.685-1.416-1.685c-.782 0-1.417.754-1.417 1.684 0 .93.635 1.684 1.417 1.684ZM40.503 45.788c.782 0 1.416-.753 1.416-1.683s-.634-1.685-1.416-1.685c-.782 0-1.416.754-1.416 1.684 0 .93.634 1.684 1.416 1.684Z" fill="#010066"/><path d="M75.992 70.33a16.778 16.778 0 0 0-5.09.787l-.048-.045c-5.562-5.56-2.475-12.507-2.342-12.798a.875.875 0 0 0 .022-.051c.254-.632 6.165-15.619 1.083-27.465a1.069 1.069 0 0 0-.021-.047c-3.564-7.303-9.404-10.642-13.676-12.157-4.42-1.568-8.046-1.556-8.477-1.55-.434-.014-4.069-.081-8.495 1.459-4.278 1.488-10.124 4.823-13.679 12.255a1.185 1.185 0 0 0-.018.04c-5.082 11.846.83 26.833 1.084 27.465l.022.05c.033.072 3.247 7.21-2.342 12.799-.899.846-1.806 1.589-2.685 2.307-4.25 3.475-7.92 6.477-7.92 18.112 0 3.397 3.594 6.354 10.393 8.553 6.235 2.016 14.475 3.139 23.24 3.171l.031.002.026-.002.334.002c7.007 0 13.688-.7 19.302-1.992a16.84 16.84 0 0 0 21.5-2.503A16.834 16.834 0 0 0 75.993 70.33Zm-28.918-5.743c-3.467 0-9.441-1.444-10.488-11.113a1.832 1.832 0 0 1 .91-1.793c.309-.175.622-.342.933-.503a9.648 9.648 0 0 0 1.763-.184 8.77 8.77 0 0 0 4.996-2.982l1.163-1.385a.73.73 0 0 1 1.138.026l.703.922a8.832 8.832 0 0 0 7.328 3.501c.377.191.756.392 1.132.605a1.83 1.83 0 0 1 .91 1.793c-1.047 9.67-7.02 11.113-10.488 11.113ZM35.236 48.18l.009-7.858c5.575-1.861 13.964-3.177 23.669.199v7.315a2.586 2.586 0 0 1-.408.256 9.69 9.69 0 0 1-1.242.519 6.437 6.437 0 0 1-1.605.319 6.69 6.69 0 0 1-5.767-2.65l-.702-.921a2.865 2.865 0 0 0-4.477-.105l-1.162 1.385a6.625 6.625 0 0 1-3.772 2.258 7.48 7.48 0 0 1-1.625.145 5.683 5.683 0 0 1-2.919-.862Zm12.907 52.896v-34.39a13.13 13.13 0 0 0 2.755-.476l-.004.004s1.635-.329 4.781-2.096l.298-.17c.121-.07.245-.14.37-.215h-.003a17.61 17.61 0 0 0 5.804-5.509 17.186 17.186 0 0 0 2.717-9.383v-2.667a8.351 8.351 0 0 0-4.352-7.335l-.01-.006-.007-.004a1.076 1.076 0 0 0-.128-.058l-.012-.006c-11.024-4.066-20.514-2.36-26.534-.212-.08.03-.156.07-.227.117l-.01.005a8.354 8.354 0 0 0-4.368 7.344v2.667a16.867 16.867 0 0 0 6.692 13.656s3.055 2.672 6.934 3.742h-.001a12.84 12.84 0 0 0 3.167.602v34.384c-8.156-.113-15.76-1.189-21.545-3.06-5.58-1.804-8.912-4.24-8.912-6.518 0-10.622 3.149-13.197 7.135-16.457.911-.745 1.852-1.515 2.81-2.418l.021-.02a13.07 13.07 0 0 0 3.92-10.135 14.98 14.98 0 0 0-1.123-5.054c-.238-.606-5.74-14.947-1.104-25.786 2.587-5.397 6.748-9.136 12.367-11.113 4.245-1.493 7.78-1.368 7.815-1.366h.073c.034-.001 3.57-.07 7.818 1.453 5.621 2.014 9.787 5.725 12.383 11.03 4.634 10.84-.87 25.183-1.105 25.782a14.985 14.985 0 0 0-1.124 5.054 13.026 13.026 0 0 0 3.33 9.5 16.824 16.824 0 0 0-4.211 27.55c-4.888.981-10.515 1.524-16.41 1.564Zm27.85.793a14.697 14.697 0 0 1-13.582-9.075 14.7 14.7 0 1 1 28.281-5.626 14.717 14.717 0 0 1-14.7 14.701Z" fill="#010066"/><path d="M84.084 80.812c-1.573-.569-4.455-1.854-6.097-4.067a2.543 2.543 0 0 0-1.954-1.036.989.989 0 0 0-.216 0 2.544 2.544 0 0 0-1.955 1.036c-1.641 2.213-4.524 3.498-6.096 4.067a2.58 2.58 0 0 0-1.689 2.649c.915 10.492 6.344 13.852 8.635 14.81a3.122 3.122 0 0 0 2.426 0c2.291-.958 7.72-4.318 8.635-14.81a2.58 2.58 0 0 0-1.69-2.649ZM70.18 84.85c.709 5.547 3.095 7.956 4.766 8.98l-.002.041v2.351c-2.164-1.091-6.16-4.26-6.916-12.93a.619.619 0 0 1 .404-.636c1.638-.593 4.541-1.89 6.512-4.14v2.518c0 .06.006.122.018.182-1.374 1.268-3.02 2.112-4.191 2.607a.979.979 0 0 0-.591 1.027Zm13.64-1.558c-.756 8.67-4.752 11.839-6.916 12.93v-2.35l-.002-.042c1.67-1.024 4.057-3.433 4.766-8.98a.98.98 0 0 0-.591-1.027c-1.172-.495-2.817-1.34-4.191-2.607a.985.985 0 0 0 .017-.182v-2.519c1.971 2.25 4.875 3.548 6.513 4.14a.618.618 0 0 1 .404.637ZM59.262 59.807c-.17.61-.526 1.15-1.038 1.524C56.346 62.699 51.46 66 48 66c-3.325 0-9.415-3.047-12.13-4.5a3.823 3.823 0 0 1-1.836-2.25l-.103-.333c-1.474-4.735 1.97-9.57 6.927-9.725L47 49l6.408.427c4.431.296 7.47 4.59 6.277 8.867l-.423 1.513Z" fill="#010066"/></svg>