<svg width="104" height="104" fill="none" xmlns="http://www.w3.org/2000/svg"><path d="M83.639 66.1a.98.98 0 0 0-1.41 0 .996.996 0 0 0 0 1.41c.19.2.45.29.7.29a.996.996 0 0 0 .71-1.7ZM81.52 68.22c-.39-.39-1.02-.39-1.42 0a.996.996 0 0 0 .71 1.7.996.996 0 0 0 .71-1.7ZM73.739 74.58a.996.996 0 0 0 0 1.41.974.974 0 0 0 1.41 0 .978.978 0 0 0 0-1.41.994.994 0 0 0-1.41 0ZM75.859 72.46a.996.996 0 0 0 0 1.41c.2.199.45.3.71.3.25 0 .51-.101.71-.3a.996.996 0 0 0 0-1.41 1.006 1.006 0 0 0-1.42 0ZM77.979 70.34a.996.996 0 0 0 0 1.41.992.992 0 0 0 1.42 0 .996.996 0 0 0 0-1.41c-.39-.39-1.03-.39-1.42 0ZM85.05 65.68c.26 0 .52-.1.71-.29.39-.39.39-1.03 0-1.42-.39-.38-1.02-.38-1.41 0-.39.39-.39 1.03 0 1.42.19.19.45.29.7.29ZM86.469 61.85c-.39.391-.39 1.03 0 1.42a1.001 1.001 0 0 0 1.41 0c.39-.39.39-1.029 0-1.42a.996.996 0 0 0-1.41 0ZM88.59 59.729a1.008 1.008 0 0 0 0 1.42 1.001 1.001 0 0 0 1.41 0c.39-.399.39-1.029 0-1.42a.998.998 0 0 0-1.41 0ZM85.01 60.73c.25 0 .51-.1.7-.29a.99.99 0 0 0 0-1.42.996.996 0 0 0-1.41 0 1.008 1.008 0 0 0 0 1.42c.2.19.45.29.71.29ZM80.76 64.97c.26 0 .52-.1.71-.29.39-.39.39-1.03 0-1.42a.996.996 0 0 0-1.41 0c-.39.39-.39 1.03 0 1.42.19.19.45.29.7.29ZM87.129 58.609c.25 0 .51-.1.71-.3a.996.996 0 0 0 0-1.41c-.39-.39-1.03-.39-1.42 0a.996.996 0 0 0 0 1.41c.2.2.45.3.71.3ZM88.54 54.78a.995.995 0 0 0 .71 1.7.995.995 0 0 0 .71-1.7c-.39-.39-1.03-.39-1.42 0ZM73.689 69.63a.996.996 0 0 0 .71 1.7.996.996 0 0 0 .71-1.7c-.39-.39-1.02-.39-1.42 0ZM82.889 62.85c.25 0 .51-.1.7-.29.39-.39.39-1.03 0-1.42a.996.996 0 0 0-1.41 0c-.39.39-.39 1.03 0 1.42.19.19.45.29.71.29ZM75.809 67.51c-.38.39-.38 1.021 0 1.41.2.189.46.29.71.29.26 0 .51-.101.71-.29a.996.996 0 0 0 0-1.41.988.988 0 0 0-1.42 0ZM78.639 67.09c.26 0 .52-.1.71-.29.39-.39.39-1.03 0-1.42a.996.996 0 0 0-1.41 0c-.39.39-.39 1.03 0 1.42.19.19.45.29.7.29ZM78.97 62.18c.39-.39.39-1.03 0-1.42a.996.996 0 0 0-1.41 0c-.39.39-.39 1.03 0 1.42a1.001 1.001 0 0 0 1.41 0ZM84.629 56.1a.996.996 0 0 0 .71-1.7c-.39-.39-1.03-.39-1.42 0a.996.996 0 0 0 .71 1.7ZM92.409 45.91c-.39.39-.39 1.029 0 1.42a1.005 1.005 0 0 0 1.41 0c.39-.391.39-1.03 0-1.42a.996.996 0 0 0-1.41 0ZM79.679 60.06a1.001 1.001 0 0 0 1.41 0 .99.99 0 0 0 0-1.42.996.996 0 0 0-1.41 0c-.39.39-.39 1.02 0 1.42ZM86.04 52.28a.995.995 0 0 0 .71 1.7.995.995 0 0 0 .71-1.7c-.39-.39-1.02-.39-1.42 0ZM74.73 66.42c.39-.39.39-1.021 0-1.42a.994.994 0 0 0-1.41 0c-.39.399-.39 1.03 0 1.42a1.005 1.005 0 0 0 1.41 0ZM76.149 64.59c.25 0 .51-.1.7-.29.39-.39.39-1.03 0-1.42a.996.996 0 0 0-1.41 0c-.39.39-.39 1.03 0 1.42.19.19.45.29.71.29ZM83.22 57.93a.996.996 0 0 0 0-1.41c-.39-.39-1.03-.39-1.42 0a.996.996 0 0 0 0 1.41.992.992 0 0 0 1.42 0ZM88.869 51.859c.26 0 .51-.09.71-.29.39-.39.39-1.02 0-1.42-.39-.38-1.02-.38-1.41 0-.39.4-.39 1.03 0 1.42.19.201.45.29.7.29ZM80.51 55.23c.25 0 .51-.1.71-.3a.996.996 0 0 0 0-1.41c-.39-.39-1.03-.39-1.42 0a.996.996 0 0 0 0 1.41c.2.2.45.3.71.3ZM76.27 59.47c.25 0 .51-.1.7-.29.39-.39.39-1.03 0-1.42a.996.996 0 0 0-1.41 0c-.39.39-.39 1.03 0 1.42.19.19.45.29.71.29ZM74.149 61.59c.25 0 .51-.1.7-.29.39-.39.39-1.03 0-1.42a.996.996 0 0 0-1.41 0c-.39.39-.39 1.03 0 1.42.19.19.45.29.71.29ZM88.99 46.74c.26 0 .52-.1.71-.29.39-.39.39-1.02 0-1.42a.994.994 0 0 0-1.41 0 1.008 1.008 0 0 0 0 1.42c.19.19.45.29.7.29ZM69.199 64.13a.996.996 0 0 0 0 1.41c.19.2.45.29.7.29.26 0 .52-.09.71-.29a.996.996 0 1 0-1.41-1.41ZM82.629 53.1a.996.996 0 0 0 .71-1.7c-.39-.39-1.03-.39-1.42 0a.996.996 0 0 0 .71 1.7ZM90.409 42.91a1.008 1.008 0 0 0 0 1.42 1.005 1.005 0 0 0 1.41 0c.39-.391.39-1.021 0-1.42a.996.996 0 0 0-1.41 0ZM86.869 48.859c.26 0 .52-.09.71-.29a.995.995 0 0 0 0-1.41.994.994 0 0 0-1.41 0 .995.995 0 0 0 0 1.41c.19.2.45.29.7.29ZM84.75 50.98a.995.995 0 0 0 .71-1.699 1.006 1.006 0 0 0-1.42 0 .995.995 0 0 0 .71 1.698ZM78.389 57.35c.25 0 .51-.1.7-.29a.99.99 0 0 0 0-1.42.996.996 0 0 0-1.41 0 1.008 1.008 0 0 0 0 1.42c.2.19.45.29.71.29ZM78.389 52.35c.25 0 .51-.1.71-.29.39-.4.39-1.03 0-1.42-.39-.39-1.03-.39-1.42 0a1.008 1.008 0 0 0 0 1.42c.2.19.45.29.71.29ZM76.27 54.47c.25 0 .51-.1.7-.29.39-.39.39-1.03 0-1.42a.996.996 0 0 0-1.41 0c-.39.39-.39 1.03 0 1.42.19.19.45.29.71.29ZM84.75 45.98a.995.995 0 0 0 .71-1.699 1.006 1.006 0 0 0-1.42 0 .995.995 0 0 0 .71 1.698ZM86.869 43.859c.26 0 .52-.09.71-.29a.995.995 0 0 0 0-1.41.994.994 0 0 0-1.41 0 .995.995 0 0 0 0 1.41c.19.2.45.29.7.29ZM74.149 56.59c.25 0 .51-.1.7-.29.39-.39.39-1.03 0-1.42a.996.996 0 0 0-1.41 0c-.39.39-.39 1.03 0 1.42.19.19.45.29.71.29ZM82.629 48.1a.996.996 0 0 0 .71-1.7c-.39-.39-1.03-.39-1.42 0a.996.996 0 0 0 .71 1.7ZM69.199 59.13c-.4.39-.4 1.02 0 1.41.19.2.45.29.7.29a.996.996 0 1 0-.7-1.7ZM80.51 50.23c.26 0 .51-.1.71-.3a.996.996 0 0 0 0-1.41c-.39-.39-1.03-.39-1.42 0a.996.996 0 0 0 0 1.41c.2.2.45.3.71.3ZM69.189 54.13a.996.996 0 0 0 .71 1.7c.26 0 .52-.09.71-.29a.996.996 0 0 0 0-1.41c-.39-.39-1.02-.39-1.42 0ZM82.629 43.1a.996.996 0 0 0 .71-1.7c-.39-.39-1.03-.39-1.42 0a.996.996 0 0 0 .71 1.7ZM80.51 45.23c.26 0 .51-.1.71-.29.39-.4.39-1.03 0-1.42-.39-.39-1.03-.39-1.42 0a1.008 1.008 0 0 0 0 1.42c.2.19.45.29.71.29ZM78.389 47.35c.25 0 .51-.1.71-.29.39-.39.39-1.03 0-1.42-.39-.39-1.03-.39-1.42 0-.39.39-.39 1.03 0 1.42.2.19.45.29.71.29ZM76.27 49.47c.25 0 .51-.1.7-.29a.99.99 0 0 0 0-1.42.996.996 0 0 0-1.41 0c-.39.39-.39 1.03 0 1.42.19.19.45.29.71.29ZM74.149 51.59c.25 0 .51-.1.7-.29.39-.39.39-1.03 0-1.42a.996.996 0 0 0-1.41 0c-.39.39-.39 1.03 0 1.42.19.19.45.29.71.29ZM74.149 46.59c.25 0 .51-.1.7-.29.39-.39.39-1.03 0-1.42a.996.996 0 0 0-1.41 0c-.39.39-.39 1.03 0 1.42.19.19.45.29.71.29ZM71.32 47.01a.996.996 0 0 0 0 1.41c.19.2.45.29.7.29.26 0 .52-.09.71-.29a.996.996 0 1 0-1.41-1.41ZM76.27 44.47c.25 0 .51-.1.7-.29.39-.39.39-1.03 0-1.42a.996.996 0 0 0-1.41 0c-.39.39-.39 1.03 0 1.42.2.19.45.29.71.29ZM81.919 36.399a.996.996 0 0 0 0 1.41.992.992 0 0 0 1.42 0 .996.996 0 0 0 0-1.41 1.01 1.01 0 0 0-1.42 0ZM84.04 34.28a.995.995 0 0 0 .71 1.699.995.995 0 0 0 .71-1.699c-.39-.39-1.03-.39-1.42 0ZM88.99 31.74c.26 0 .52-.101.71-.29.39-.391.39-1.021 0-1.42a1.013 1.013 0 0 0-1.41 0 1.008 1.008 0 0 0 0 1.42c.19.19.45.29.7.29ZM86.169 32.149c-.39.4-.39 1.03 0 1.42.19.2.45.29.7.29.26 0 .52-.09.71-.29.39-.39.39-1.02 0-1.42a1.016 1.016 0 0 0-1.41 0ZM69.199 49.13a.996.996 0 0 0 0 1.41c.19.2.45.29.7.29a.996.996 0 1 0-.7-1.7ZM69.199 44.13c-.4.39-.4 1.02 0 1.41.19.2.45.29.7.29a.996.996 0 1 0-.7-1.7ZM79.8 33.52a.996.996 0 0 0 0 1.41.992.992 0 0 0 1.42 0 .996.996 0 0 0 0-1.41c-.39-.39-1.03-.39-1.42 0ZM77.679 35.64c-.39.39-.39 1.03 0 1.42.2.19.45.29.71.29.25 0 .51-.1.71-.29.39-.39.39-1.03 0-1.42-.4-.39-1.03-.39-1.42 0ZM86.87 28.859c.26 0 .51-.09.71-.29.39-.39.39-1.02 0-1.42-.39-.38-1.02-.38-1.41 0a.99.99 0 0 0 0 1.42c.19.201.45.29.7.29ZM71.32 42c-.39.39-.39 1.03 0 1.42a1.005 1.005 0 0 0 1.41 0c.39-.39.39-1.03 0-1.42a.994.994 0 0 0-1.41 0ZM84.04 29.28a.995.995 0 0 0 .71 1.699.995.995 0 0 0 .71-1.699c-.39-.39-1.03-.39-1.42 0ZM81.919 31.399a.996.996 0 0 0 0 1.41.992.992 0 0 0 1.42 0 .996.996 0 0 0 0-1.41 1.01 1.01 0 0 0-1.42 0ZM79.629 30.109a1.001 1.001 0 0 0 1.41 0c.39-.39.39-1.029 0-1.42a.996.996 0 0 0-1.41 0 1.008 1.008 0 0 0 0 1.42ZM75.389 32.93c-.39.39-.39 1.03 0 1.42a1.001 1.001 0 0 0 1.41 0c.39-.39.39-1.03 0-1.42a.996.996 0 0 0-1.41 0ZM81.749 27.98c.2.2.45.3.71.3.25 0 .51-.1.71-.3a.996.996 0 0 0 0-1.41c-.4-.39-1.03-.39-1.42 0a.996.996 0 0 0 0 1.41ZM78.22 32.52a1 1 0 0 0 .699-.29c.39-.39.39-1.029 0-1.42a.996.996 0 0 0-1.41 0c-.39.391-.39 1.03 0 1.42.19.19.45.29.71.29ZM84.579 26.16c.26 0 .51-.101.71-.301a.995.995 0 0 0 0-1.409 1.006 1.006 0 0 0-1.42 0 .995.995 0 0 0 0 1.409c.2.201.45.301.71.301ZM75.119 29.609c-.39-.38-1.02-.38-1.41 0-.39.4-.39 1.03 0 1.421.19.199.45.289.7.289.26 0 .51-.09.71-.289.39-.39.39-1.02 0-1.421ZM76.53 29.2c.26 0 .52-.101.71-.29.39-.391.39-1.021 0-1.42a.994.994 0 0 0-1.41 0 1.008 1.008 0 0 0 0 1.42c.19.19.45.29.7.29ZM78.659 27.08c.25 0 .51-.101.7-.29.39-.391.39-1.03 0-1.42a.994.994 0 0 0-1.41 0c-.39.39-.39 1.029 0 1.42.19.189.45.29.71.29ZM80.78 24.96c.25 0 .51-.101.7-.29.39-.39.39-1.03 0-1.42a.994.994 0 0 0-1.41 0c-.39.39-.39 1.03 0 1.42.19.189.45.29.71.29ZM86.159 68.58a1.005 1.005 0 0 0 1.41 0c.39-.391.39-1.03 0-1.42a.994.994 0 0 0-1.41 0c-.39.39-.39 1.029 0 1.42ZM74.139 81.6c.25 0 .51-.1.7-.29a.99.99 0 0 0 0-1.42.996.996 0 0 0-1.41 0 1.008 1.008 0 0 0 0 1.42c.2.19.45.29.71.29ZM81.919 71.399c-.39.4-.39 1.03 0 1.42.19.2.45.29.7.29.26 0 .51-.09.71-.29.39-.39.39-1.02 0-1.42a1.016 1.016 0 0 0-1.41 0ZM78.379 77.359c.26 0 .51-.1.71-.3a.996.996 0 0 0 0-1.41c-.39-.39-1.03-.39-1.42 0a.996.996 0 0 0 0 1.41c.2.2.45.3.71.3ZM88.99 66.75c.25 0 .51-.1.7-.29.39-.39.39-1.03 0-1.42a.994.994 0 0 0-1.41 0c-.39.39-.39 1.03 0 1.42.19.19.45.29.71.29ZM75.55 79.19c.2.19.45.29.71.29.25 0 .51-.1.71-.29.39-.4.39-1.03 0-1.42-.39-.39-1.03-.39-1.42 0a1.008 1.008 0 0 0 0 1.42ZM84.74 70.99a.97.97 0 0 0 .71-.29c.39-.391.39-1.021 0-1.42a1.013 1.013 0 0 0-1.41 0 1.008 1.008 0 0 0 0 1.42c.19.199.45.29.7.29ZM77.94 80.51a.996.996 0 0 0-.01 1.41c.2.2.45.3.71.3.26 0 .51-.09.7-.28.4-.39.4-1.02.02-1.42-.39-.39-1.02-.4-1.42-.01ZM84.37 74.21a.996.996 0 0 0-.01 1.41c.19.199.45.3.71.3.25 0 .51-.09.7-.28.4-.39.4-1.02.02-1.42a1.007 1.007 0 0 0-1.42-.01ZM87.929 72.12c-.39-.39-1.02-.4-1.42-.01a.996.996 0 0 0-.01 1.41c.2.2.46.3.72.3.25 0 .5-.09.69-.28a1 1 0 0 0 .02-1.42ZM73.659 84.71a.996.996 0 0 0 .7 1.71c.25 0 .5-.09.7-.28.39-.39.4-1.03.01-1.42a.995.995 0 0 0-1.41-.01ZM75.799 82.6c-.39.39-.4 1.03-.01 1.42.19.2.45.3.71.3.25 0 .51-.09.7-.29.4-.38.4-1.01.01-1.41a1.003 1.003 0 0 0-1.41-.02ZM88.659 70.01a.996.996 0 0 0 .7 1.71c.25 0 .5-.09.7-.28.39-.39.4-1.02.01-1.42a.996.996 0 0 0-1.41-.01ZM77.21 87.53a1.006 1.006 0 0 0-1.42 0 .995.995 0 0 0 0 1.41c.2.2.45.3.71.3.25 0 .51-.1.71-.3a.995.995 0 0 0 0-1.41ZM87.809 76.92a.996.996 0 0 0-1.41 0c-.39.39-.39 1.03 0 1.42a1.001 1.001 0 0 0 1.41 0c.39-.39.39-1.03 0-1.42ZM77.909 85.41a.995.995 0 0 0 .71 1.699.995.995 0 0 0 .71-1.699c-.39-.39-1.03-.39-1.42 0ZM84.28 80.46a1.005 1.005 0 0 0 1.41 0c.39-.39.39-1.02 0-1.42a.994.994 0 0 0-1.41 0 1.008 1.008 0 0 0 0 1.42ZM88.52 74.8c-.39.39-.39 1.03 0 1.42a1.001 1.001 0 0 0 1.41 0c.39-.39.39-1.03 0-1.42a.996.996 0 0 0-1.41 0ZM74.379 91.359c.25 0 .51-.1.7-.3a.996.996 0 1 0-1.41-1.41.996.996 0 0 0 0 1.41c.2.2.45.3.71.3ZM87.669 82.06a.996.996 0 0 0-1.41 0c-.39.391-.39 1.03 0 1.42a1 1 0 0 0 1.41 0c.39-.39.39-1.03 0-1.42ZM84.839 85.89c.26 0 .52-.1.71-.29.39-.39.39-1.03 0-1.42a.996.996 0 0 0-1.41 0c-.39.39-.39 1.03 0 1.42.19.19.45.29.7.29ZM74.94 94.79a.994.994 0 0 0-1.41 0 .996.996 0 0 0 0 1.41.974.974 0 0 0 1.41 0 .996.996 0 0 0 0-1.41ZM76.359 94.37a.996.996 0 0 0 .71-1.7c-.39-.39-1.03-.39-1.42 0a.996.996 0 0 0 .71 1.7ZM88.379 79.939c-.39.391-.39 1.03 0 1.42a1.001 1.001 0 0 0 1.41 0c.39-.39.39-1.029 0-1.42a.998.998 0 0 0-1.41 0ZM77.77 90.55a.996.996 0 0 0 .71 1.7.996.996 0 0 0 .71-1.7c-.39-.39-1.03-.39-1.42 0ZM88.129 85.189a.996.996 0 0 0 .71 1.7.996.996 0 0 0 .71-1.7 1.01 1.01 0 0 0-1.42 0ZM77.53 95.79c-.39.39-.39 1.03 0 1.42a1.005 1.005 0 0 0 1.41 0c.39-.39.39-1.03 0-1.42a.994.994 0 0 0-1.41 0ZM86.01 87.31a.996.996 0 0 0 0 1.41.992.992 0 0 0 1.42 0 .996.996 0 0 0 0-1.41c-.39-.39-1.03-.39-1.42 0ZM85.309 89.43c-.39-.39-1.03-.39-1.42 0a.996.996 0 0 0 0 1.41.993.993 0 0 0 1.42 0 .996.996 0 0 0 0-1.41ZM75.409 97.91c-.39.39-.39 1.029 0 1.42a1.005 1.005 0 0 0 1.41 0c.39-.391.39-1.03 0-1.42a.996.996 0 0 0-1.41 0ZM86.81 92.93a.98.98 0 0 0-1.41 0 .978.978 0 0 0 0 1.41c.19.2.45.29.7.29a.996.996 0 0 0 .71-1.7ZM88.93 90.8a.996.996 0 0 0-1.41 0c-.39.39-.39 1.03 0 1.42a1.001 1.001 0 0 0 1.41 0c.39-.39.39-1.03 0-1.42ZM84.999 98.32a.996.996 0 0 0 .71 1.699.996.996 0 0 0 .71-1.7 1.01 1.01 0 0 0-1.42 0ZM89.249 95.49a1.005 1.005 0 0 0 1.41 0 1.01 1.01 0 0 0 0-1.421c-.39-.38-1.02-.38-1.41 0a1.01 1.01 0 0 0 0 1.42ZM87.119 96.2a.995.995 0 0 0 .71 1.699.995.995 0 0 0 .71-1.699c-.39-.39-1.03-.39-1.42 0Z" fill="#010066"/><path d="M92 39a3.962 3.962 0 0 1-2.558-.923C91.623 36.065 93 33.194 93 30c0-6.065-4.935-11-11-11-5.004 0-9.23 3.361-10.559 7.942a.973.973 0 0 0-.151.584A10.969 10.969 0 0 0 70.999 30c0 .859.109 1.692.296 2.495a1 1 0 0 0 .096.374 10.998 10.998 0 0 0 3.166 5.208 3.962 3.962 0 0 1-2.558.923c-3.309 0-6 2.691-6 6v20c0 2.967 2.167 5.432 5 5.91V97.5c0 3.309 2.691 6 6 6a5.998 5.998 0 0 0 5-2.69 5.998 5.998 0 0 0 5 2.69c3.309 0 6-2.691 6-6V70.91c2.833-.479 5-2.943 5-5.91V45A6.005 6.005 0 0 0 92 39Zm-9.642-17.981c-.057.036-.12.061-.169.111-.39.39-.39 1.02 0 1.42.2.19.45.29.71.29.25 0 .51-.1.71-.29a1.008 1.008 0 0 0 .017-1.396c.96.177 1.869.5 2.697.956a.996.996 0 0 0-.333 1.63c.2.199.46.3.71.3.26 0 .51-.101.71-.3a.989.989 0 0 0 .291-.698 9.026 9.026 0 0 1 1.635 1.762.989.989 0 0 0-1.046.227c-.39.39-.39 1.029 0 1.42a1.005 1.005 0 0 0 1.41 0 .99.99 0 0 0 .273-.611c.31.591.55 1.222.723 1.881a.989.989 0 0 0-.287.19c-.39.39-.39 1.029 0 1.42.155.154.36.233.57.263.006.136.021.27.021.407a8.97 8.97 0 0 1-.46 2.823c-.042.031-.092.048-.13.087a.986.986 0 0 0-.259.883 8.797 8.797 0 0 1-.623 1.126 1 1 0 0 0-1.238.111 1.007 1.007 0 0 0-.01 1.405 9.067 9.067 0 0 1-.779.672.986.986 0 0 0-1.331.053.98.98 0 0 0-.249.929 8.94 8.94 0 0 1-3.92.911c-.182 0-.358-.017-.537-.027a.973.973 0 0 0-.244-.453c-.39-.39-1.03-.39-1.42 0-.05.05-.075.111-.112.168a9.01 9.01 0 0 1-4.757-3.137.973.973 0 0 0-.251-.491c-.06-.06-.134-.094-.203-.135a8.945 8.945 0 0 1-1.476-4.925c0-1.374.319-2.673.872-3.839a.986.986 0 0 0 .527.169.996.996 0 0 0 .71-1.7c-.062-.062-.138-.097-.21-.14.229-.294.47-.58.733-.844a.984.984 0 0 0 .177.273c.2.2.46.29.71.29a.996.996 0 0 0 .71-1.7c-.03-.029-.068-.041-.1-.066.309-.2.632-.378.965-.539a.985.985 0 0 0 .545.186c.26 0 .52-.09.71-.29a.97.97 0 0 0 .245-.464 8.973 8.973 0 0 1 2.406-.336c.12-.001.237.013.357.018ZM93 68.858v-1.591a.977.977 0 0 0 1.339-.027c.4-.391.4-1.021.02-1.421a1.002 1.002 0 0 0-1.359-.05v-3.305c.076.018.15.045.229.045.26 0 .51-.1.71-.3a.996.996 0 0 0 0-1.41.991.991 0 0 0-.939-.248v-3.539a.995.995 0 0 0 .539.177.995.995 0 0 0 .71-1.699.993.993 0 0 0-1.249-.113v-3.285c.154.089.32.148.489.148a.996.996 0 0 0 .71-1.7.981.981 0 0 0-1.199-.141V50a1 1 0 0 0-1-1c-.021 0-.04.011-.061.013a.995.995 0 0 0-.24-.982.994.994 0 0 0-1.41 0c-.39.39-.39 1.029 0 1.42.19.189.45.29.71.29.019 0 .037-.01.056-.011-.025.088-.055.175-.055.271v2.438a.995.995 0 0 0 0 1.853v3.126a.968.968 0 0 0-.291.192.996.996 0 0 0 0 1.41c.087.088.188.147.291.197v3.432a.975.975 0 0 0-.601.271c-.39.39-.39 1.02 0 1.42.171.163.381.244.601.269v3.17c-.069.04-.142.072-.201.132a.995.995 0 0 0-.01 1.409c.061.064.138.101.211.145v2.991a.982.982 0 0 0-.361.225c-.39.39-.39 1.021 0 1.42.107.103.231.174.361.222v3.246a.962.962 0 0 0-.501.252.996.996 0 0 0 0 1.41.982.982 0 0 0 .501.259v3.293a1 1 0 0 0-.741.278c-.39.4-.39 1.03 0 1.42.19.19.45.29.7.29.014 0 .027-.008.041-.008v3.885a.99.99 0 0 0-1.361.033c-.39.39-.39 1.03 0 1.42.19.19.45.29.71.29a.996.996 0 0 0 .651-.258v7.368a3.94 3.94 0 0 1-.489 1.875c-.023-.03-.034-.066-.062-.095a1.013 1.013 0 0 0-1.41 0 1.008 1.008 0 0 0 0 1.42c.054.054.122.083.185.122a3.966 3.966 0 0 1-1.053.482.98.98 0 0 0-1.251.105c-.023.022-.032.053-.052.076a3.996 3.996 0 0 1-3.867-3.986v-1.626a.977.977 0 0 0 .269.586c.2.2.45.29.71.29a.996.996 0 0 0 .71-1.7c-.39-.39-1.03-.39-1.42 0a.975.975 0 0 0-.269.586v-2.548c.064-.041.132-.071.189-.128a.996.996 0 0 0 0-1.41c-.056-.056-.125-.085-.189-.125v-3.47c.155-.046.304-.116.429-.235.39-.39.39-1.03 0-1.42a.968.968 0 0 0-.429-.238v-3.219a.982.982 0 0 0 .569-.263c.39-.391.39-1.03 0-1.42a.982.982 0 0 0-.569-.267v-2.888a1 1 0 0 0 .629-.266c.39-.391.4-1.021.01-1.421a.973.973 0 0 0-.639-.284V75a1 1 0 0 0-1-1 .97.97 0 0 0-.513.162.988.988 0 0 0-.278-.632 1.006 1.006 0 0 0-1.42 0 .995.995 0 0 0 .71 1.699c.178 0 .345-.061.501-.151v3.086c-.319-.07-.662-.003-.911.246a.995.995 0 0 0 .7 1.71c.071 0 .141-.024.211-.039v2.967a.992.992 0 0 0-.971.242.996.996 0 0 0 .71 1.7c.09 0 .175-.026.261-.049v3.279a1.026 1.026 0 0 0-1.111.199.998.998 0 0 0 1.111 1.625v3.58a1 1 0 0 0-1.351.045c-.39.39-.39 1.02 0 1.42.2.19.45.29.71.29.224 0 .451-.092.641-.245v2.26a.981.981 0 0 0-.074.836 3.96 3.96 0 0 1-.417 1.149c-.023-.028-.033-.063-.06-.09a1.006 1.006 0 0 0-1.42 0 .996.996 0 0 0 0 1.41c.056.056.124.086.187.126a3.986 3.986 0 0 1-1.052.48.98.98 0 0 0-1.255.104c-.022.022-.03.052-.05.075a3.967 3.967 0 0 1-1.902-.564.977.977 0 0 0-.258-.881.979.979 0 0 0-.963-.242 3.953 3.953 0 0 1-.689-1.84c.09-.254.072-.531-.046-.774v-4.056a.995.995 0 0 0 0-1.296V88.11a.974.974 0 0 0 0-1.183V82.78a1.261 1.261 0 0 0 0-.123v-4.513c.012-.011.027-.015.039-.025.38-.391.38-1.03 0-1.42-.012-.012-.027-.015-.039-.025v-3.531a.992.992 0 0 0 0-1.378v-8.939a.924.924 0 0 0 0-.223v-4.778a.933.933 0 0 0 0-.224v-4.776a.933.933 0 0 0 0-.224V50a1 1 0 1 0-2 0v17.417a.972.972 0 0 0 0 .83v.611a4.002 4.002 0 0 1-2.281-1.581.99.99 0 0 0-.567-1.248A3.98 3.98 0 0 1 68.003 65v-2.084a.992.992 0 0 0 .489-.256.996.996 0 0 0 0-1.41.965.965 0 0 0-.489-.25v-3.091a.956.956 0 0 0 .489-.249.996.996 0 0 0 0-1.41.965.965 0 0 0-.489-.25v-3.084a.992.992 0 0 0 .489-.256.996.996 0 0 0 0-1.41.965.965 0 0 0-.489-.25v-3.084a.992.992 0 0 0 .489-.256.996.996 0 0 0 0-1.41.965.965 0 0 0-.489-.25v-1c0-2.206 1.794-4 4-4 .41 0 .811-.049 1.201-.127a.981.981 0 0 0 .238.427 1.001 1.001 0 0 0 1.41 0c.305-.305.363-.76.191-1.132.356-.21.691-.458 1-.742.076.018.151.044.229.044.041 0 .081-.019.123-.024.612.365 1.261.671 1.941.913a.993.993 0 0 0-.654.281c-.39.391-.39 1.03 0 1.42.2.19.45.29.71.29.25 0 .51-.1.71-.29.39-.39.39-1.029 0-1.42-.03-.029-.068-.041-.101-.066.956.271 1.96.427 3.001.427.748 0 1.479-.076 2.185-.22.17.124.366.199.564.199a.982.982 0 0 0 .931-.626 10.925 10.925 0 0 0 2.158-1.047c.216.207.445.398.688.57-.083.044-.167.085-.236.153-.39.39-.39 1.029 0 1.42a1.005 1.005 0 0 0 1.41 0 .993.993 0 0 0 .274-.808c.644.232 1.33.357 2.027.357.125 0 .243.025.365.037a1 1 0 0 0 .164 1.173 1.005 1.005 0 0 0 1.41 0 .986.986 0 0 0 .266-.542 4.009 4.009 0 0 1 1.548 1.993c-.391-.235-.891-.204-1.224.129-.39.39-.39 1.029 0 1.42.2.189.45.29.71.29.25 0 .51-.101.71-.29.022-.023.031-.054.051-.079v3.066a.995.995 0 0 0-1.091.213c-.39.39-.39 1.029 0 1.42.19.189.45.29.7.29.134 0 .267-.028.391-.08v3.104a1 1 0 0 0-1.051.227.996.996 0 0 0 .71 1.699c.117 0 .231-.024.341-.063v3.635a1.002 1.002 0 0 0-1.361.039.996.996 0 0 0 0 1.41c.2.2.45.3.71.3a.986.986 0 0 0 .651-.26v3.337a.962.962 0 0 0-.911.243.987.987 0 0 0-.02 1.41c.2.199.46.3.72.3.058 0 .114-.022.172-.032A3.994 3.994 0 0 1 93 68.858ZM32 39a3.962 3.962 0 0 1-2.558-.923C31.623 36.065 33 33.194 33 30c0-6.065-4.935-11-11-11s-11 4.935-11 11c0 3.194 1.377 6.065 3.558 8.077A3.964 3.964 0 0 1 12 39c-3.309 0-6 2.691-6 6v20c0 2.967 2.167 5.432 5 5.91V97.5c0 3.309 2.691 6 6 6a5.998 5.998 0 0 0 5-2.69 5.998 5.998 0 0 0 5 2.69c3.309 0 6-2.691 6-6V70.91c2.833-.479 5-2.943 5-5.91V45c0-3.309-2.692-6-6-6Zm-19-9c0-4.963 4.038-9 9-9s9 4.037 9 9-4.038 9-9 9-9-4.037-9-9Zm23 35c0 1.858-1.28 3.411-3 3.858V50a1 1 0 1 0-2 0v47.5c0 2.206-1.794 4-4 4s-4-1.794-4-4V75a1 1 0 1 0-2 0v22.5c0 2.206-1.794 4-4 4s-4-1.794-4-4V50a1 1 0 1 0-2 0v18.858c-1.72-.447-3-2-3-3.858V45c0-2.206 1.794-4 4-4a5.932 5.932 0 0 0 4.165-1.692A10.917 10.917 0 0 0 22 41c2.145 0 4.141-.626 5.835-1.691A5.934 5.934 0 0 0 32 41c2.206 0 4 1.794 4 4v20Z" fill="#010066"/><path d="m67.707 79.293-5-5a.999.999 0 1 0-1.414 1.414l3.314 3.314c-.037-.004-.069-.021-.107-.021h-25c-.038 0-.071.018-.107.021l3.314-3.314a.999.999 0 1 0-1.414-1.414l-5 5a.999.999 0 0 0 0 1.414l5 5a.997.997 0 0 0 1.414 0 .999.999 0 0 0 0-1.414l-3.314-3.314c.037.004.069.021.107.021h25c.038 0 .071-.018.107-.021l-3.314 3.314a.999.999 0 1 0 1.414 1.414l5-5a1 1 0 0 0 0-1.414ZM38.414 80l.107-.107c-.004.037-.021.069-.021.107 0 .038.018.07.021.107L38.414 80Zm27.064-.107.107.107-.107.107c.004-.037.021-.069.021-.107 0-.038-.017-.07-.021-.107Z" fill="#8C8C8C"/></svg>