<svg width="152" height="152" fill="none" xmlns="http://www.w3.org/2000/svg"><path d="M102.956 23.537H54.384c-4.069 0-7.774 1.574-10.426 4.255a14.253 14.253 0 0 0-4.323 10.262c0 4.004 1.598 7.58 4.323 10.261 2.652 2.646 6.358 4.255 10.426 4.255h53.731c1.235 0 2.325-.5 3.088-1.252a4.235 4.235 0 0 0 1.271-3.039c0-1.18-.472-2.252-1.271-3.039a4.374 4.374 0 0 0-3.088-1.251H54.384c-1.598 0-3.088-.608-4.178-1.716-1.09-1.109-1.743-2.467-1.743-4.112 0-1.538.617-2.968 1.743-4.112 1.09-1.072 2.507-1.716 4.178-1.716h48.536c.472 0 .726.358.726.715 0 .465-.363.715-.726.715H54.384c-1.235 0-2.325.465-3.088 1.252a4.332 4.332 0 0 0-1.271 3.039c0 1.215.508 2.288 1.271 3.039.8.786 1.89 1.251 3.088 1.251h48.536c2.652 0 5.013-1.072 6.757-2.753 1.744-1.716 2.797-4.04 2.797-6.65 0-2.467-.981-4.899-2.797-6.65-1.708-1.717-4.178-2.754-6.721-2.754ZM54.276 22h48.571c1.816 0 3.488.465 5.013 1.18.509.286 1.09.608 1.563.93.508.357 1.089.893 1.271 1.108 2.034 2.002 3.27 4.72 3.27 7.723 0 2.932-1.199 5.649-3.27 7.687-.654.644-1.417 1.251-2.289 1.716a6.232 6.232 0 0 1 3.851 1.716c1.09 1.073 1.744 2.467 1.744 4.112 0 1.538-.618 2.968-1.744 4.112-1.09 1.072-2.506 1.716-4.178 1.716l-53.839-.036c-4.505 0-8.574-1.823-11.444-4.72C39.816 46.314 38 42.309 38 37.983c0-4.433 1.853-8.438 4.795-11.262.8-.823 1.708-1.538 2.652-2.146C48.063 23.001 51.151 22 54.275 22ZM102.956 55.537H54.384c-4.069 0-7.774 1.574-10.426 4.255a14.253 14.253 0 0 0-4.323 10.262c0 4.004 1.598 7.58 4.323 10.261 2.652 2.646 6.358 4.255 10.426 4.255h53.731c1.235 0 2.325-.5 3.088-1.252a4.235 4.235 0 0 0 1.271-3.039c0-1.18-.472-2.252-1.271-3.039a4.374 4.374 0 0 0-3.088-1.251H54.384c-1.598 0-3.088-.608-4.178-1.716-1.09-1.109-1.743-2.467-1.743-4.112 0-1.537.617-2.968 1.743-4.112 1.09-1.073 2.507-1.716 4.178-1.716h48.536c.472 0 .726.358.726.715 0 .465-.363.715-.726.715H54.384c-1.235 0-2.325.465-3.088 1.251a4.332 4.332 0 0 0-1.271 3.04c0 1.215.508 2.288 1.271 3.039.8.786 1.89 1.251 3.088 1.251h48.536c2.652 0 5.013-1.072 6.757-2.753 1.744-1.716 2.797-4.04 2.797-6.65 0-2.467-.981-4.899-2.797-6.65-1.708-1.717-4.178-2.754-6.721-2.754ZM54.276 54h48.571c1.816 0 3.488.465 5.013 1.18.509.286 1.09.608 1.563.93.508.357 1.089.893 1.271 1.108 2.034 2.002 3.27 4.72 3.27 7.723 0 2.932-1.199 5.649-3.27 7.687-.654.644-1.417 1.251-2.289 1.716a6.232 6.232 0 0 1 3.851 1.716c1.09 1.073 1.744 2.467 1.744 4.112 0 1.538-.618 2.968-1.744 4.112-1.09 1.072-2.506 1.716-4.178 1.716l-53.839-.036c-4.505 0-8.574-1.823-11.444-4.72C39.816 78.314 38 74.309 38 69.983c0-4.433 1.853-8.438 4.795-11.262.8-.823 1.708-1.538 2.652-2.146C48.063 55.001 51.151 54 54.275 54ZM102.956 87.585H54.384c-4.069 0-7.774 1.623-10.426 4.388-2.688 2.692-4.323 6.453-4.323 10.582 0 4.13 1.598 7.817 4.323 10.582a14.488 14.488 0 0 0 10.426 4.388h53.731a4.33 4.33 0 0 0 3.088-1.29 4.44 4.44 0 0 0 1.271-3.134 4.44 4.44 0 0 0-1.271-3.135 4.307 4.307 0 0 0-3.088-1.29H54.384a5.72 5.72 0 0 1-4.178-1.77c-1.09-1.143-1.743-2.544-1.743-4.24 0-1.586.617-3.06 1.743-4.24 1.09-1.106 2.507-1.77 4.178-1.77h48.536c.472 0 .726.369.726.737a.71.71 0 0 1-.726.738H54.384c-1.235 0-2.325.48-3.088 1.29-.835.848-1.271 2.028-1.271 3.134 0 1.254.508 2.36 1.271 3.134.8.812 1.89 1.291 3.088 1.291h48.536c2.652 0 5.013-1.106 6.757-2.839a9.68 9.68 0 0 0 2.797-6.858c0-2.544-.981-5.052-2.797-6.858-1.708-1.77-4.178-2.84-6.721-2.84ZM54.276 86h48.571c1.816 0 3.488.48 5.013 1.217.509.295 1.09.627 1.563.958.508.37 1.089.922 1.271 1.143a11.29 11.29 0 0 1 3.27 7.965c0 3.023-1.199 5.825-3.27 7.927-.654.664-1.417 1.291-2.289 1.77 1.454.11 2.798.737 3.851 1.77 1.09 1.106 1.744 2.544 1.744 4.24 0 1.585-.618 3.06-1.744 4.24-1.09 1.106-2.506 1.77-4.178 1.77l-53.839-.037c-4.505 0-8.574-1.88-11.444-4.867-2.979-3.023-4.795-7.153-4.795-11.614 0-4.573 1.853-8.702 4.795-11.615.8-.848 1.708-1.585 2.652-2.212C48.063 87.032 51.151 86 54.275 86Z" fill="#010066"/></svg>