<svg width="119" height="147" fill="none" xmlns="http://www.w3.org/2000/svg"><path d="M67.61 24.523v.643c.309.644.309 1.718.928 3.005l12.693-2.79 13.002 2.576 1.548-3.864-15.17-3.434-13.002 3.864h.001Z" fill="#fff"/><path d="m94.841 29.817 2.817-5.581-16.603-3.577-15.324 3.578 2.234 5.58 12.772-2.675 15.325 2.907-1.22-.232Zm-27.833-4.24 14.048-3.13 15.963 3.13-1.64 3.175-14.323-3.398-13.09 3.13-.958-2.906Z" fill="#010066"/><path d="M81.64 14.77c4.635-.8 6.851-3.194 6.851-7.385 0-5.39-3.224-7.385-8.06-7.385-2.62 0-4.23.798-5.44 2.395-1.41 1.597-2.216 3.593-1.41 6.187l1.41-.599c-.604-1.796 0-3.193 1.21-4.59 1.208-1.198 2.417-1.796 4.432-1.796 4.03 0 6.447 1.397 6.447 5.788 0 3.592-2.014 5.388-6.246 5.987h-.604v7.784h1.612l-.202-6.387Z" fill="#010066"/><path d="m104.918 51.367-.99-.052c-2.691 14.592-3.893 25.341-3.893 32.232 0 6.815 1.467 15.357 3.804 25.596-8.173 3.45-15.131 5.153-20.037 5.153-4.934 0-13.38-1.719-24.803-5.198 2.613-11.126 3.492-19.921 3.788-25.524v-.001c.302-6.008-.602-14.981-2.394-27.181l-.004-.025-.006-.024c-.301-1.199-.585-2.181-.853-2.954-.265-.763-.525-1.352-.785-1.741a1.7 1.7 0 0 0-.467-.492.824.824 0 0 0-.73-.102c-.243.084-.408.27-.52.442a2.845 2.845 0 0 0-.294.643 4.031 4.031 0 0 0-.133.678c-.04.29-.078.663-.116 1.113-.077.902-.154 2.138-.233 3.704-.16 3.135-.328 7.612-.514 13.435-.35 10.879-.764 26.466-1.304 46.789l-.103 3.879h-6.524c-1.767-20.609-2.643-36.2-2.052-47.091v-.003c.057-1.194.114-2.666.18-4.35.277-7.158.702-18.136 1.91-27.754v-.01l.001-.01c.288-3.445 1.723-7.786 3.771-12.472l.06-.03.669-.325c.596-.287 1.49-.714 2.684-1.27a455.641 455.641 0 0 1 10.214-4.6c.931 3.175 2.716 5.383 3.862 6.8l.212.264.012.014.013.013c4.015 4.307 9.604 5.22 12.367 5.22 2.796 0 6.822-.633 11.116-5.213 1.227-1.225 2.678-3.824 4.115-7.717 4.1 1.74 7.056 3.11 8.882 4.113 1.275.7 2.96 1.885 5.062 3.57 2.342 5.268 3.514 9.362 4.101 11.99 2.028 10.358 2.328 20.064 2.557 27.509.04 1.29.078 2.512.122 3.658l.001.01c.59 10.003-.579 25.884-2.937 47.684h-5.943c-.152-4.119-.285-7.982-.409-11.58-.352-10.22-.63-18.294-1.068-23.97-.247-3.2-.495-7.065-.785-11.597l-.186-2.905c-.374-5.804-.822-12.577-1.42-20.318Z" fill="#EFF6FD" stroke="#010066"/><path fill-rule="evenodd" clip-rule="evenodd" d="M62.458 117.984v-33.73l3.425 4.79 12.694-11.376c-6.649-9.38-11.686-15.857-15.111-18.85-3.425-2.994-8.059-4.501-13.7-5.898l-3.425.998c-3.224.799-5.844.998-7.858.998-2.015-.2-4.836-.998-8.664-2.795-6.447 1.996-11.686 4.391-15.111 7.186-3.425 2.794-8.26 8.98-14.104 18.361l12.29 10.777 3.829-3.193.403 32.931 45.333-.2v.001Z" fill="#fff"/><path d="M79.584 77.07c-.202-.2-.202-.2-.202-.4-.201-.4-.402-.599-.604-.998 0 0 0-.2-.201-.2-.202-.199-.202-.398-.403-.598-.403-.599-.806-.998-1.007-1.597-.404-.599-.807-.998-1.008-1.397-1.007-1.397-2.014-2.794-3.022-3.992-.605-.798-1.008-1.397-1.612-1.995-1.007-1.397-2.216-2.794-3.425-4.191-.605-.799-1.007-1.398-1.813-1.996-1.008-1.397-2.62-2.595-4.231-3.393-2.62-1.597-5.44-2.794-8.261-3.792-1.007-.4-2.014-.799-3.022-.998-.605-.2-1.008-.2-1.41-.4-.203 0-.404 0-.605.2-2.418 1.597-6.246 2.196-9.067 2.196-2.82 0-6.447-.6-9.066-2.195h-.806c-.403.199-1.008.199-1.209.399-1.008.398-2.015.598-3.022.998-2.821.997-5.843 2.195-8.26 3.791-1.411.998-2.822 1.996-4.03 3.393l-.202.2c-2.418 2.794-4.634 5.588-6.85 8.383-1.008.997-1.813 2.195-2.62 3.193l-.201.199c-1.007.998-1.612 2.195-2.418 3.194C.604 75.672 0 76.27 0 77.069v.399c0 .2 0 .4.201.599 2.015 1.996 4.03 4.19 6.246 6.187 1.41 1.397 2.821 2.794 4.433 3.992.604.598 1.007.997 1.611 1.397.404.199.807.598 1.008.798.201.2.604 0 .806-.2l2.015-1.995v30.336c0 .399.402.798.805.798h45.938c.403 0 .806-.399.806-.798V87.846l1.813 1.796.202.2c.201.2.201.2.403.2h.603c.202 0 .202-.2.403-.2.202-.2.605-.4.806-.4.605-.398 1.008-.997 1.612-1.396 1.41-1.197 2.82-2.595 4.433-3.992 2.014-1.995 4.23-3.992 6.246-6.186.201-.2.201-.4.201-.4-1.007-.2-1.007-.399-1.007-.399ZM64.516 62.417c.43-.587.886-.92 1.367-1 .635.658 1.008 1 1.612 1.88 2.217 2.595 4.433 5.19 6.448 7.984.403.4.604.798 1.007.998A286.21 286.21 0 0 1 63.87 83.257V66.153c0-.4 0-2.854.647-3.735ZM32.035 53.52c2.418.998 5.239 1.397 7.858 1.397 2.619 0 5.44-.399 7.857-1.397l1.008-.399-.202.998c-.2 1.796-.806 3.393-1.813 4.59-1.813 1.996-4.432 2.595-6.85 2.595-2.62 0-5.239-.599-6.85-2.595-1.008-1.197-1.612-2.993-1.814-4.59l-.202-.998 1.008.4ZM16.32 85.851l-2.82 2.594-.605-.399c-.604-.598-1.209-.998-1.813-1.397-1.008-.798-1.612-1.397-2.418-2.195-2.015-1.796-4.03-3.792-5.843-5.589-.403-.399-.806-.798-1.007-1.197l-.202-.2-.201-.199.201-.599c.202-.2.202-.4.403-.599.605-.997 1.007-1.596 1.813-2.395l.605-.598.604.599c3.627 3.791 7.455 7.384 11.284 10.977l.2.199-.2.998Zm0-2.595A285.932 285.932 0 0 1 5.24 72.28c.403-.399.604-.798 1.007-.998 2.015-2.794 4.433-5.189 6.447-7.983.404-.598 1.008-.998 1.21-1.596l.402-.6.605.6c.403.399.806.998 1.007 1.397.202.599.403 1.197.605 1.995 0 .4.202.799.202.998v17.164h-.404ZM62.41 62.9c-.403.998-.354 1.996-.354 2.994v52.29H17.731v-52.29c0-.998-.202-1.996-.605-2.794-.403-1.198-1.007-2.196-2.015-2.794 1.21-1.198 2.821-2.396 4.231-3.194 2.015-1.197 4.231-2.195 6.448-2.794 1.209-.599 2.82-.998 4.03-1.197 0 .798 0 1.197.201 1.796.201 1.796 1.007 3.592 2.014 4.99 2.015 2.395 5.037 2.993 8.06 2.993 2.82 0 6.044-.798 8.059-2.994 1.209-1.397 1.813-3.193 2.014-4.99 0-.598.202-1.197.202-1.795 1.41.399 2.821.798 4.03 1.197 2.216.798 4.432 1.597 6.447 2.794 1.41.998 2.82 1.996 4.231 3.194-1.41.399-2.265 1.397-2.668 2.594Zm15.36 14.57-1.006.997c-2.015 1.996-3.828 3.792-5.843 5.59-.806.797-1.612 1.396-2.418 2.194-.604.6-1.007.998-1.813 1.397l-.604.4-2.418-2.196-.403-.2v-.997l.202-.2c3.827-3.593 7.454-7.185 11.282-10.977l.605-.599c.403.4.604.799 1.007.998.604.798 1.008 1.597 1.612 2.395l.403.399-.605.798Z" fill="#010066"/><path d="M31.029 52.92v.599c.2.599.2 1.597.603 2.794l8.261-2.595 8.462 2.395 1.008-3.592-9.873-3.194-8.462 3.593Z" fill="#fff"/><path d="m48.96 57.31 1.007-5.188-10.478-3.194-9.67 3.194 1.007 5.188 8.462-2.594 9.671 2.594Zm-18.335-3.99 8.865-2.795 10.074 2.794-.806 2.595-9.268-2.794-8.26 2.793-.605-2.594Z" fill="#010066"/><path d="M40.094 42.941c4.635-.798 6.851-3.193 6.851-7.384 0-5.39-3.224-7.385-8.06-7.385-2.62 0-4.231.799-5.44 2.395-1.41 1.597-2.216 3.593-1.41 6.187l1.41-.599c-.604-1.796 0-3.193 1.209-4.59 1.209-1.197 2.418-1.796 4.433-1.796 4.03 0 6.446 1.397 6.446 5.788 0 3.592-2.014 5.388-6.245 5.987h-.604v7.784h1.611l-.201-6.387Z" fill="#010066"/><path fill-rule="evenodd" clip-rule="evenodd" d="m24.658 109.213 16.521 35.925v.998h37.072l3.425-42.511-3.828-23.351 1.41-.599v-7.983l-38.079-.4.202 8.583-.202 21.954-16.521 7.384Z" fill="#fff"/><path fill-rule="evenodd" clip-rule="evenodd" d="M40.718 146.135c0-.477.387-.864.864-.864h36.67a.864.864 0 1 1 0 1.729h-36.67a.865.865 0 0 1-.864-.865ZM42.043 72.29v6.364a.33.33 0 0 0 .06.1.223.223 0 0 0 .062.05.041.041 0 0 0 .02.006H78.05c.05 0 .1-.007.143-.02v-6.477a.334.334 0 0 0-.06-.1.222.222 0 0 0-.062-.05.042.042 0 0 0-.021-.006H42.206a.346.346 0 0 0-.108.063.215.215 0 0 0-.051.06c-.005.008-.004.01-.004.01Zm-1.078-1.376c.325-.282.771-.486 1.22-.486H78.05a1.84 1.84 0 0 1 1.378.641c.285.322.494.768.494 1.221v6.27c.141.612-.105 1.152-.5 1.494-.387.334-.902.485-1.372.485H42.186a1.839 1.839 0 0 1-1.378-.641c-.285-.322-.494-.768-.494-1.221V72.29c0-.609.31-1.08.65-1.376Z" fill="#010066"/><path fill-rule="evenodd" clip-rule="evenodd" d="M49.095 72.89v5.764a.332.332 0 0 0 .06.1.218.218 0 0 0 .062.05.041.041 0 0 0 .02.006h3.023c.07 0 .116-.014.143-.027v-5.87a.334.334 0 0 0-.06-.1.222.222 0 0 0-.062-.052.04.04 0 0 0-.021-.006h-3.003a.304.304 0 0 0-.158.123c-.005.008-.004.01-.004.011Zm-1.078-1.378c.325-.282.77-.485 1.22-.485h3.023c.606 0 1.079.302 1.378.641.285.323.494.768.494 1.221v5.987c0 1.004-.928 1.663-1.872 1.663h-3.023a1.839 1.839 0 0 1-1.378-.641c-.284-.322-.493-.768-.493-1.221v-5.788c0-.609.31-1.08.65-1.377Zm19.21 1.377v5.765a.33.33 0 0 0 .06.1.22.22 0 0 0 .063.05.042.042 0 0 0 .02.006h2.982a.422.422 0 0 0 .06-.044.858.858 0 0 0 .124-.132v-5.722l-.005-.012a.333.333 0 0 0-.056-.088.222.222 0 0 0-.061-.05.04.04 0 0 0-.02-.007H67.39a.35.35 0 0 0-.108.063.213.213 0 0 0-.05.06c-.005.008-.004.01-.004.011Zm-1.077-1.377c.325-.282.77-.485 1.22-.485h3.023c.606 0 1.079.302 1.378.641.285.323.494.768.494 1.221v6.193l-.093.184a2.671 2.671 0 0 1-.64.818c-.262.223-.656.455-1.139.455h-3.022a1.839 1.839 0 0 1-1.378-.641c-.285-.322-.494-.768-.494-1.221v-5.788c0-.609.31-1.08.65-1.377ZM40.516 79.875v-.003l.864.003h.865v65.205l.321.69-.321.15v.016h-.034l-.167.078v.324l-.69-.002-.354.165-.078-.166-.608-.002.004-1.293-16.444-35.262-.399-.697.836-.66 16.14-7.042.065-21.504Zm-.071 23.393-14.707 6.417 1.035 2.22 13.664-6.015.008-2.622Zm-12.94 10.205 12.826 27.503.1-33.195-12.927 5.692Zm53.301-10.212-3.61-22.852 1.707-.27 3.627 22.952-3.216 43.109-1.724-.129 3.216-42.81ZM50.304 91.049v2.574a.332.332 0 0 0 .06.1.223.223 0 0 0 .061.05.042.042 0 0 0 .022.006h19.888v-2.704a.33.33 0 0 0-.06-.1.22.22 0 0 0-.062-.051.042.042 0 0 0-.022-.006H50.467a.35.35 0 0 0-.109.063.214.214 0 0 0-.05.06l-.004.006v.002Zm-1.078-1.374c.325-.282.771-.486 1.22-.486h19.745a1.84 1.84 0 0 1 1.379.641c.285.323.493.768.493 1.221v2.794c0 .484-.235.893-.508 1.163-.03.03-.062.06-.096.089v11.322c.194.372-.206.841-.555 1.096L60.83 114.9a.865.865 0 0 1-1.208-.186l-.013-.018-.003.004-10.427-8.281V94.983a2.04 2.04 0 0 1-.11-.116c-.286-.323-.494-.768-.494-1.221V91.05c0-.61.31-1.08.65-1.376Zm1.682 5.833v10.672l9.447 6.925 9.375-6.873V95.508H50.908Z" fill="#010066"/></svg>