<svg width="152" height="152" fill="none" xmlns="http://www.w3.org/2000/svg"><path d="M79.015 44.018v28.11c14.851 0 18.564-12.198 18.033-14.32-.424-1.697-12.199-9.9-18.033-13.79ZM3.17 125.698c1.272-4.668 13.613-17.503 19.624-23.337 18.245 13.578 42.254 6.718 51.978 1.591 4.95 4.773 15.381 15.063 17.503 18.033 2.122 2.97 1.59 4.774 1.06 5.304a84.2 84.2 0 0 1-13.494 6.75 85.732 85.732 0 0 1-18.334 4.919c-18.705 2.869-35.865-.632-46.669-4.919-7.698-3.055-12.168-6.509-11.668-8.341ZM19.081 44.549v28.11C4.231 72.66.518 60.46 1.048 58.34c.424-1.698 12.2-9.9 18.033-13.79Z" fill="#fff"/><path d="M23.324 103.422c10.608 10.607 46.144 6.364 50.918 1.06 1.017-1.131 1.832-4.648 2.479-9.547-21.354 11.032-47.204 4.597-57.46 0 .788 3.543 2.07 6.493 4.063 8.487Z" fill="#fff"/><path fill-rule="evenodd" clip-rule="evenodd" d="M62.914 39.182c.11.262.204.554.282.863.182.725.295 1.621.316 2.62.043 1.997-.28 4.45-1.202 6.837-.922 2.39-2.448 4.73-4.82 6.472-2.374 1.744-5.564 2.865-9.768 2.865-3.375 0-6.015-.84-8.052-2.234-2.035-1.392-3.434-3.313-4.366-5.424-1.74-3.946-1.865-8.602-1.428-11.911-.55.088-1.287.28-2.168.559-1.227.39-2.676.931-4.18 1.537a153.126 153.126 0 0 0-7.947 3.498v.139c.655 2.138.766 5.37.64 9.183-.102 3.072-.362 6.573-.64 10.262v8.211a.5.5 0 0 1-.5.5h-.11c-.454 7.675-.567 15.401.724 21.422 5.115 2.255 13.972 4.929 24.173 5.717 10.278.794 21.883-.33 32.391-5.688 1.734-13.378 2.247-36.79 2.256-50.25-6.387-2.465-10.475-3.84-12.99-4.555-1.228-.35-2.069-.539-2.611-.623ZM78.91 72.618c.034.007.069.01.105.01 7.582 0 12.362-3.121 15.171-6.547 1.4-1.706 2.305-3.482 2.829-4.975.261-.746.43-1.427.514-2 .083-.558.095-1.058.004-1.419a1.724 1.724 0 0 0-.287-.563 5.771 5.771 0 0 0-.492-.58 20.85 20.85 0 0 0-1.558-1.44c-1.268-1.08-2.972-2.394-4.839-3.771-3.734-2.755-8.143-5.783-11.064-7.73a.498.498 0 0 0-.097-.051c-6.583-2.548-10.799-3.969-13.397-4.709-1.296-.369-2.204-.573-2.808-.66a3.813 3.813 0 0 0-.737-.05c-.095.005-.202.02-.303.055a.678.678 0 0 0-.216.124c-7.819 4.15-13.773 4.26-18.148 3.295-2.204-.486-4.023-1.248-5.5-1.93-.301-.138-.594-.276-.873-.408a53.06 53.06 0 0 0-1.103-.511c-.57-.253-1.1-.46-1.566-.537-.395-.066-.872-.039-1.385.041a14.32 14.32 0 0 0-1.742.406c-1.269.369-2.75.92-4.267 1.547-3.036 1.253-6.259 2.825-8.301 3.89a.483.483 0 0 0-.046.028c-2.921 1.947-7.33 4.975-11.065 7.73-1.866 1.377-3.57 2.691-4.839 3.771a20.866 20.866 0 0 0-1.557 1.44 5.762 5.762 0 0 0-.492.58c-.123.171-.238.364-.288.563-.09.361-.079.862.004 1.42a11.1 11.1 0 0 0 .515 2c.523 1.492 1.43 3.268 2.828 4.975 2.67 3.254 7.118 6.236 14.06 6.524-.46 7.79-.572 15.729.803 21.908.651 2.93 1.646 5.506 3.127 7.49-3.003 2.939-7.298 7.334-11.07 11.602-2.002 2.266-3.863 4.503-5.306 6.471-1.428 1.949-2.492 3.693-2.837 4.959-.187.685.114 1.41.612 2.077.51.686 1.307 1.419 2.336 2.171 2.062 1.507 5.146 3.153 9.02 4.69 10.873 4.315 28.123 7.833 46.928 4.948a86.244 86.244 0 0 0 18.44-4.947 84.833 84.833 0 0 0 13.575-6.791.496.496 0 0 0 .09-.071c.792-.791 1.17-2.901-1.006-5.949-1.09-1.525-4.262-4.872-7.742-8.4a587.646 587.646 0 0 0-9.662-9.549c.052-.114.103-.232.153-.354.24-.594.465-1.317.674-2.147.418-1.66.787-3.785 1.111-6.243.794-6.008 1.336-14.083 1.694-22.383Zm.605-27.664v26.67c6.976-.133 11.331-3.047 13.898-6.177 1.32-1.609 2.17-3.28 2.658-4.672.244-.695.395-1.315.47-1.816.076-.515.065-.86.022-1.03l-.006-.016a.57.57 0 0 0-.022-.047 1.447 1.447 0 0 0-.1-.158 4.811 4.811 0 0 0-.407-.476 19.94 19.94 0 0 0-1.48-1.367c-1.242-1.057-2.925-2.355-4.784-3.727-3.4-2.509-7.367-5.248-10.249-7.184ZM39.12 109.971c4.368.831 8.736.987 12.893.699a60.476 60.476 0 0 0 7.123-.931 69.51 69.51 0 0 0 6.742-1.206c2.101-.493 3.95-1.06 5.432-1.677 1.468-.61 2.63-1.291 3.303-2.039.05-.056.1-.117.149-.18a589.015 589.015 0 0 1 9.466 9.359c3.504 3.552 6.608 6.835 7.64 8.28 1.99 2.784 1.431 4.275 1.146 4.624a83.79 83.79 0 0 1-13.221 6.621c-.305-.073-.652-.25-1.04-.55-.438-.339-.9-.814-1.38-1.405-.957-1.182-1.94-2.782-2.883-4.558-1.885-3.548-3.573-7.728-4.55-10.493a.5.5 0 1 0-.943.333c.988 2.795 2.695 7.024 4.61 10.629.956 1.801 1.974 3.465 2.99 4.719.508.627 1.025 1.164 1.544 1.566.119.091.239.177.36.256a85.305 85.305 0 0 1-16.932 4.424c-.175-.089-.405-.28-.684-.62-.324-.393-.67-.934-1.034-1.6-.724-1.33-1.48-3.102-2.212-5.051-1.463-3.896-2.808-8.44-3.599-11.435a.5.5 0 0 0-.967.255c.797 3.016 2.152 7.594 3.63 11.531.738 1.967 1.513 3.788 2.27 5.179.378.694.76 1.295 1.14 1.756.049.061.1.12.15.177-7.727 1.08-15.17 1.079-21.982.4.22-.248.428-.557.628-.901.303-.52.608-1.161.913-1.886.609-1.45 1.228-3.272 1.815-5.206 1.177-3.87 2.24-8.233 2.861-11.071a.5.5 0 1 0-.977-.213c-.617 2.82-1.674 7.155-2.84 10.993-.584 1.92-1.191 3.705-1.781 5.11a15.671 15.671 0 0 1-.855 1.77c-.279.479-.52.784-.712.937a.5.5 0 0 0-.186.347c-8.222-.919-15.474-2.814-21.126-4.953.869-.568 1.771-1.388 2.671-2.35 1.257-1.342 2.548-3.004 3.782-4.756 2.468-3.506 4.733-7.411 6.067-9.941a.5.5 0 1 0-.885-.466c-1.319 2.501-3.562 6.368-6 9.831-1.219 1.731-2.48 3.353-3.694 4.649-1.146 1.224-2.215 2.121-3.136 2.568-3.731-1.495-6.663-3.073-8.601-4.49-.989-.722-1.697-1.387-2.125-1.96-.44-.591-.511-.985-.448-1.217.291-1.067 1.247-2.678 2.679-4.631 1.417-1.933 3.256-4.145 5.249-6.4 3.724-4.215 7.967-8.559 10.955-11.486.141.159.287.314.436.463 2.753 2.754 7.077 4.504 12.012 5.523 1.335.276 2.72.499 4.137.673Zm35.063-6.276c.105-.187.212-.413.321-.681.218-.536.429-1.211.631-2.014.352-1.396.672-3.152.961-5.19-10.556 5.201-22.108 6.272-32.305 5.485-9.875-.763-18.515-3.272-23.81-5.502.62 2.413 1.493 4.477 2.679 6.086a.5.5 0 0 1 .432.081c5.084 3.783 10.625 5.961 16.182 7.023 3.76.462 7.763.58 11.678.436a86.766 86.766 0 0 0 8.026-.668c6.254-1.196 11.63-3.222 15.205-5.056ZM18.58 64.41l-.029.389-.187 2.501c-.118 1.59-.233 3.21-.335 4.838-6.655-.272-10.848-3.114-13.347-6.16-1.319-1.61-2.17-3.28-2.657-4.672a10.11 10.11 0 0 1-.47-1.816c-.076-.516-.065-.86-.023-1.03l.006-.017a1.434 1.434 0 0 1 .123-.205c.093-.129.228-.288.406-.476.357-.375.859-.837 1.48-1.367 1.242-1.057 2.925-2.355 4.785-3.727 3.4-2.509 7.367-5.248 10.248-7.183V64.41ZM34.875 39.34c-.431 3.194-.31 7.687 1.344 11.439.873 1.977 2.165 3.736 4.015 5.002 1.849 1.264 4.286 2.059 7.488 2.059 4.017 0 6.993-1.068 9.177-2.671 2.186-1.607 3.61-3.775 4.478-6.026a17.325 17.325 0 0 0 1.135-6.456c-.02-.94-.126-1.76-.286-2.398a4.155 4.155 0 0 0-.335-.929c-7.87 4.099-13.966 4.23-18.52 3.225-2.305-.509-4.198-1.304-5.704-1.998l-.9-.422a49.421 49.421 0 0 0-1.061-.492c-.317-.141-.592-.253-.83-.333Z" fill="#010066"/><path opacity=".8" fill-rule="evenodd" clip-rule="evenodd" d="M60.435 74.622a5.208 5.208 0 0 1 4.621 5.193 5.207 5.207 0 0 1-4.62 5.193c.197.553.305 1.15.305 1.772 0 2.884-2.32 5.222-5.18 5.222a5.164 5.164 0 0 1-4.316-2.335 5.163 5.163 0 0 1-4.316 2.335c-2.86 0-5.18-2.34-5.18-5.222 0-.623.108-1.22.305-1.772a5.208 5.208 0 0 1-4.621-5.193 5.208 5.208 0 0 1 4.62-5.193 5.253 5.253 0 0 1-.304-1.771c0-2.883 2.318-5.223 5.18-5.223 1.8 0 3.388.926 4.316 2.335a5.164 5.164 0 0 1 4.315-2.335c2.86 0 5.18 2.34 5.18 5.223 0 .622-.108 1.218-.305 1.77Z" fill="#EF5DA8"/><path d="M53.682 78.19a4.875 4.875 0 1 1-9.75 0 4.875 4.875 0 0 1 9.75 0Z" fill="#EFF6FD"/><path fill-rule="evenodd" clip-rule="evenodd" d="M58.466 83.668a5.69 5.69 0 0 0 0-10.956 5.688 5.688 0 0 0-9.659-5.003 5.688 5.688 0 0 0-9.658 5.002 5.69 5.69 0 0 0 0 10.955 5.688 5.688 0 0 0 9.658 5.005 5.687 5.687 0 0 0 9.659-5.002v-.001Zm-1.773-10.6a.813.813 0 0 0 .678 1.082 4.062 4.062 0 0 1 0 8.08.812.812 0 0 0-.678 1.082 4.062 4.062 0 0 1-7.208 3.623.812.812 0 0 0-1.354 0 4.062 4.062 0 0 1-7.208-3.623.813.813 0 0 0-.68-1.082 4.062 4.062 0 0 1 0-8.08.813.813 0 0 0 .678-1.082 4.063 4.063 0 0 1 7.209-3.623.812.812 0 0 0 1.353 0 4.062 4.062 0 0 1 7.208 3.623h.002Z" fill="#010066"/><path d="M80.589 45.815c-5.198 5.682-15.913 17.207-17.192 17.857-1.6.811-6.397-2.435-6.397-4.059 0-1.623 21.59-43.83 30.386-45.859 2.67-.616 5.525-.858 8.396-.942.045-.002.09-.004.135-.003 5.921-.163 11.9.333 16.467-.403.481-.227.948-.33 1.39-.275 6.796-1.624 20.39 11.769 37.182 46.265.267 1.758-.559 5.276-5.997 5.276l-17.592-17.857c2.133 10.552 3.071 30.32 2.399 47.077-.338 8.448-2.892 16.822-3.447 23.13-.49 5.581-.551 8.394-1.75 9.337-1.581 1.242-8.796 3.652-10.795-1.624-.515-1.358-1.189-4.493-1.961-8.441-2.224-11.383-5.26-29.522-7.635-31.33-2.365 8.358-6.216 22.352-8.396 31.33-1.136 4.68-1.47 7.961-1.6 8.441-.4 1.493-8.395 4.87-11.594 0-.593-.902-1.296-3.688-1.999-7.713-3.09-17.686-6.188-59.297 0-70.207Z" fill="#fff"/><path fill-rule="evenodd" clip-rule="evenodd" d="M119.823 14.247c-2.443-1.535-4.424-1.99-5.933-1.63-.438.104-.89.194-1.354.27-.653.322-1.369.915-2.112 1.71-.761.816-1.526 1.816-2.255 2.888-1.427 2.1-2.692 4.443-3.491 6.122V83.74c.323.33.61.834.874 1.414.327.72.657 1.644.986 2.72.66 2.153 1.335 4.962 2.003 8.058.906 4.2 1.804 8.957 2.635 13.355.244 1.291.482 2.551.712 3.758.376-1.244.841-2.491 1.393-3.613.86-1.751 1.975-3.292 3.367-3.966a3.398 3.398 0 0 1 2.322-.264c.819.194 1.645.685 2.479 1.486 1.44 1.383 2.969 3.753 4.587 7.391.292-2.17.749-4.53 1.228-6.999.122-.632.246-1.27.369-1.915.749-3.935 1.466-8.11 1.634-12.294.67-16.736-.268-36.452-2.388-46.95a232.067 232.067 0 0 1-1.751-8.015c-.58-2.924-1.059-5.75-1.059-7.108a.5.5 0 1 1 1 0c0 1.24.453 3.96 1.039 6.914a235.811 235.811 0 0 0 1.713 7.85l17.346 17.607c2.472-.043 3.819-.86 4.535-1.783.728-.939.869-2.069.77-2.843-8.373-17.19-15.936-29.099-22.236-36.501-3.156-3.708-5.979-6.267-8.413-7.796Zm8.34 33.088 16.44 16.688a.5.5 0 0 0 .356.149c2.832 0 4.562-.922 5.533-2.172.954-1.23 1.108-2.696.959-3.68a.52.52 0 0 0-.045-.143C143 40.91 135.382 28.897 128.997 21.395c-3.191-3.75-6.09-6.391-8.642-7.995-2.504-1.573-4.741-2.188-6.613-1.775-.508-.042-1.015.077-1.505.298-2.224.351-4.801.41-7.577.4-.828-.004-1.675-.014-2.534-.024-2.03-.023-4.13-.048-6.215.01-.05 0-.1 0-.151.004-2.884.084-5.773.328-8.487.954-1.236.285-2.617 1.247-4.061 2.61-1.46 1.377-3.043 3.222-4.682 5.367-3.279 4.29-6.813 9.826-10.066 15.338a303.108 303.108 0 0 0-8.398 15.238 151.72 151.72 0 0 0-2.575 5.23c-.305.66-.545 1.207-.71 1.617a8.282 8.282 0 0 0-.195.524 1.48 1.48 0 0 0-.086.422c0 .32.116.634.272.916.159.287.379.576.633.855.51.557 1.194 1.116 1.92 1.59s1.517.878 2.246 1.11c.696.223 1.465.332 2.052.034.131-.067.284-.18.435-.303.161-.13.352-.297.569-.495.433-.395.983-.927 1.618-1.56a255.938 255.938 0 0 0 4.641-4.785 816.953 816.953 0 0 0 8.083-8.657c-.92 2.762-1.537 6.393-1.923 10.536-.534 5.739-.63 12.538-.436 19.537.388 13.999 1.937 28.847 3.487 37.717.352 2.019.706 3.736 1.049 5.066.336 1.306.676 2.306 1.024 2.836 1.76 2.68 4.818 3.041 7.35 2.604a11.67 11.67 0 0 0 3.365-1.122 6.23 6.23 0 0 0 1.141-.749c.282-.242.55-.54.64-.878.04-.154.09-.485.154-.907l.014-.095c.066-.438.15-1.008.264-1.692.24-1.457.605-3.435 1.17-5.759 2.096-8.634 5.741-21.917 8.12-30.353.08.146.165.316.254.51.301.663.616 1.541.94 2.598.647 2.112 1.315 4.888 1.981 7.977.904 4.187 1.797 8.92 2.627 13.311.394 2.087.773 4.097 1.133 5.934.767 3.93 1.449 7.116 1.983 8.524.544 1.434 1.455 2.369 2.55 2.923 1.082.547 2.313.706 3.494.655 1.182-.052 2.343-.317 3.308-.647.956-.327 1.762-.733 2.219-1.092.397-.311.669-.755.87-1.289.2-.532.342-1.187.457-1.959.169-1.13.289-2.577.437-4.363.054-.647.112-1.338.176-2.075.23-2.606.804-5.569 1.426-8.779.123-.635.248-1.28.372-1.934.751-3.941 1.48-8.177 1.651-12.441.639-15.955-.177-34.66-2.103-45.577Zm-24.485 36.56V23.59c-.72-1.772-1.96-4.356-3.4-6.503-.732-1.093-1.504-2.054-2.27-2.736-.773-.69-1.477-1.038-2.085-1.043l-.127.003c-2.506.073-4.983.267-7.327.723 1.7 1.503 3.952 3.623 5.94 5.771 1.151 1.243 2.221 2.503 3.047 3.665.816 1.146 1.433 2.25 1.615 3.173.09.452.154 1.38.204 2.646.05 1.282.087 2.95.113 4.908.05 3.917.056 9.006.032 14.51-.046 11.012-.206 23.696-.34 32.017a.5.5 0 0 1-1-.016c.134-8.319.294-20.999.34-32.004.024-5.504.019-10.586-.032-14.494a192.745 192.745 0 0 0-.112-4.881c-.051-1.286-.115-2.132-.186-2.492-.138-.701-.646-1.66-1.449-2.788-.791-1.113-1.83-2.338-2.965-3.564-2.183-2.359-4.695-4.69-6.416-6.18-.922.29-2.057 1.066-3.362 2.298-1.405 1.326-2.951 3.124-4.573 5.247-3.244 4.245-6.756 9.742-10 15.239a302.186 302.186 0 0 0-8.37 15.186A150.483 150.483 0 0 0 58.4 57.47a35.685 35.685 0 0 0-.69 1.57 7.379 7.379 0 0 0-.17.458c-.029.087-.037.126-.039.132.005.087.041.224.147.415.11.198.277.423.497.664.44.482 1.055.989 1.728 1.428.673.44 1.382.797 2.003.995.653.209 1.083.202 1.296.094.029-.015.11-.068.258-.188.14-.113.315-.265.524-.456.418-.382.956-.901 1.586-1.53a255.42 255.42 0 0 0 4.622-4.766c3.459-3.641 7.4-7.903 9.999-10.742.204-.525.415-1.472.617-2.72a84.29 84.29 0 0 0 .576-4.508c.346-3.291.604-6.875.736-9.169a.5.5 0 1 1 .998.058 212.291 212.291 0 0 1-.74 9.215 85.142 85.142 0 0 1-.583 4.563c-.21 1.303-.447 2.396-.715 3.027a.482.482 0 0 1-.025.052c-1.49 2.626-2.451 7.177-2.982 12.885-.53 5.684-.626 12.439-.433 19.417.366 13.181 1.764 27.115 3.216 36.049.792-1.532 1.732-3.117 2.757-4.53 1.33-1.836 2.846-3.436 4.41-4.216.792-.394 1.62-.591 2.454-.476.838.116 1.627.539 2.345 1.288 1.177 1.227 2.197 3.361 3.015 6.625 2.228-8.93 5.68-21.463 7.872-29.21Zm-8.408 31.388c-.873-4.362-2.007-6.867-3.201-8.112-.59-.616-1.182-.91-1.76-.989-.583-.08-1.207.05-1.87.38-1.344.67-2.743 2.109-4.048 3.908-1.263 1.741-2.401 3.767-3.282 5.622.341 1.937.68 3.572 1.005 4.833.34 1.319.647 2.163.892 2.536 1.439 2.19 3.978 2.575 6.344 2.168a10.652 10.652 0 0 0 3.07-1.022c.405-.213.728-.428.955-.623.245-.209.315-.343.325-.378.022-.085.062-.339.133-.808l.012-.084c.066-.439.152-1.014.266-1.706.24-1.452.602-3.416 1.16-5.725Zm3.008-102.009c.134.105.266.215.396.331.854.761 1.679 1.798 2.435 2.926 1.25 1.866 2.347 4.034 3.103 5.756.805-1.598 1.907-3.564 3.13-5.364.746-1.098 1.543-2.143 2.351-3.008.257-.275.518-.534.78-.773-1.814.16-3.78.189-5.817.18-.844-.003-1.699-.013-2.563-.023-1.258-.015-2.534-.03-3.815-.025ZM125.81 116.1c-1.863-4.541-3.561-7.255-5.055-8.688-.748-.719-1.422-1.094-2.017-1.236a2.4 2.4 0 0 0-1.655.192c-1.079.522-2.069 1.803-2.906 3.507-.811 1.652-1.437 3.614-1.854 5.427.767 3.917 1.425 6.959 1.917 8.257.456 1.203 1.196 1.945 2.066 2.385.882.446 1.928.596 2.999.549 1.069-.047 2.134-.288 3.028-.594.904-.309 1.593-.671 1.926-.932.203-.16.388-.422.551-.855.164-.435.293-1.009.404-1.755.163-1.095.28-2.493.427-4.263.051-.618.106-1.282.169-1.994Z" fill="#010066"/></svg>