<svg width="152" height="151" fill="none" xmlns="http://www.w3.org/2000/svg"><path d="M147.838 98.563s1.367 3.837 2.337 7.813l-12.261 2.085s-1.287-3.836-2.356-7.16h.008l-13.23-41.027 1.933 48.185c-5.922 7.575-29.217 7.896-29.217 7.896-25.065.773-29.041-7.896-29.041-7.896l1.755-48.185-13.23 41.029c-1.072 3.32-2.361 7.16-2.361 7.16l-12.297-2.085c.974-3.974 2.343-7.813 2.343-7.813l18.245-65.683 18.9-6.601 2.538-6.168s12.014-5.552 27.463 0l2.525 6.168 17.748 6.6 18.245 65.684h-.047v-.002Z" fill="#EFF6FD"/><path fill-rule="evenodd" clip-rule="evenodd" d="m82.48 20.681-2.42 5.885a.75.75 0 0 1-.447.423l-18.53 6.471-18.139 65.306a.71.71 0 0 1-.016.051l-.001.003-.003.007-.01.032-.045.126a94.792 94.792 0 0 0-2.065 6.789l10.863 1.843.014-.043a652.368 652.368 0 0 0 2.14-6.501l13.231-41.029a.75.75 0 0 1 1.463.258l-1.747 47.976c.023.038.051.083.086.135.134.2.36.502.712.87.703.736 1.912 1.745 3.902 2.743 3.983 1.999 11.11 3.963 23.561 3.58l.013-.001h.015l.048-.001.192-.004a92.445 92.445 0 0 0 3.439-.162 97.623 97.623 0 0 0 8.588-.931c3.257-.51 6.672-1.251 9.625-2.324 2.853-1.036 5.183-2.348 6.559-3.977l-1.921-47.902a.75.75 0 0 1 1.463-.26l13.23 41.027a.706.706 0 0 1 .027.11 616.175 616.175 0 0 0 2.101 6.391l.013.042 10.829-1.842a86.517 86.517 0 0 0-1.322-4.566 95.108 95.108 0 0 0-.571-1.74l-.166-.483-.044-.126-.002-.006a.733.733 0 0 1-.057-.285v-.003l.002-.056-18.07-65.056-17.389-6.467a.753.753 0 0 1-.433-.419l-2.398-5.858c-7.46-2.615-14.08-2.605-18.853-1.933-2.42.34-4.364.85-5.698 1.273a24.169 24.169 0 0 0-1.768.634Zm66.155 77.888.142.415c.145.425.348 1.034.581 1.767a84.475 84.475 0 0 1 1.545 5.447.75.75 0 0 1-.603.917l-12.26 2.086a.75.75 0 0 1-.837-.501l-.001-.003-.217-.65a569.53 569.53 0 0 1-2.141-6.516.694.694 0 0 1-.027-.109l-11.512-35.699 1.713 42.706a.75.75 0 0 1-.159.492c-1.611 2.061-4.338 3.561-7.398 4.672-3.079 1.119-6.599 1.878-9.905 2.396a99.143 99.143 0 0 1-8.723.946 92.414 92.414 0 0 1-2.741.141c-.328.012-.584.019-.758.024l-.2.004-.053.001h-.012c-12.61.388-20.003-1.595-24.273-3.738-2.138-1.072-3.488-2.182-4.315-3.048a8.036 8.036 0 0 1-.874-1.072 4.628 4.628 0 0 1-.253-.425l-.016-.031-.005-.011-.002-.005-.001-.002.68-.314-.68.313a.75.75 0 0 1-.069-.34l1.559-42.779-11.57 35.881a664.943 664.943 0 0 1-2.146 6.515l-.218.652-.711-.238.711.238a.751.751 0 0 1-.837.502l-12.296-2.086a.75.75 0 0 1-.603-.918 85.504 85.504 0 0 1 1.55-5.445 94.956 94.956 0 0 1 .753-2.263l.046-.131.007-.02 18.238-65.66a.75.75 0 0 1 .475-.506l18.581-6.49 2.41-5.857a.75.75 0 0 1 .38-.395l.314.68-.315-.68.005-.002.009-.004.03-.014.114-.05c.099-.042.242-.102.429-.175.373-.147.919-.348 1.62-.57a36.706 36.706 0 0 1 5.942-1.329c5.03-.707 12.022-.706 19.883 2.119.2.072.36.225.441.422l2.4 5.863 17.44 6.487c.225.084.396.27.461.502l18.245 65.684a.79.79 0 0 1 .027.204Z" fill="#010066"/><path d="M81.901 20.113s12.015-5.552 27.464 0l-7.331 8.693-3.286 1.677.335 3.492-3.348 8.818-4.404-8.818.027-3.492-2.128-1.677-7.329-8.693Z" fill="#ED78B4"/><path fill-rule="evenodd" clip-rule="evenodd" d="m83.144 20.423 6.61 7.841 2.068 1.63a.75.75 0 0 1 .286.595l-.026 3.312 3.56 7.126 2.678-7.054-.318-3.318a.75.75 0 0 1 .406-.74l3.151-1.608 6.528-7.742c-7.169-2.372-13.522-2.341-18.143-1.691-2.42.34-4.363.85-5.697 1.273-.434.138-.803.266-1.103.376Zm6.591-3.135c5.03-.707 12.023-.706 19.884 2.119a.75.75 0 0 1 .32 1.19l-7.331 8.692a.76.76 0 0 1-.233.185l-2.831 1.445.286 2.985a.75.75 0 0 1-.045.338l-3.348 8.817a.75.75 0 0 1-1.373.069L90.66 34.31a.75.75 0 0 1-.079-.341l.024-3.125-1.84-1.45a.751.751 0 0 1-.108-.106l-7.329-8.693a.75.75 0 0 1 .259-1.164l.314.68-.313-.68.003-.002.01-.004.03-.014.114-.05c.098-.042.242-.102.429-.175.373-.147.918-.348 1.62-.57a36.706 36.706 0 0 1 5.942-1.329ZM98.786 95.79a.37.37 0 0 0 .37-.364.367.367 0 0 0-.37-.368v.732Zm0-.732-.008.732a.366.366 0 0 1 .008-.732Zm-1.13.368a1.13 1.13 0 0 1 1.13-1.136h.008a1.134 1.134 0 0 1-.008 2.268c-.636 0-1.13-.523-1.13-1.132ZM98.937 81.958a.372.372 0 0 0 .366-.366c0-.21-.168-.37-.366-.37a.37.37 0 0 0-.37.37c0 .079.03.175.108.253a.375.375 0 0 0 .262.113Zm-1.134-.366c0-.642.515-1.134 1.134-1.134.64 0 1.129.509 1.129 1.134 0 .612-.493 1.13-1.129 1.13a1.133 1.133 0 0 1-1.134-1.13ZM99.092 70.028a.368.368 0 1 0 0-.737.368.368 0 0 0 0 .737Zm-1.131-.368a1.132 1.132 0 1 1 2.263 0 1.132 1.132 0 0 1-2.263 0ZM99.627 56.192a.367.367 0 0 0 .364-.366.367.367 0 0 0-.364-.37.374.374 0 0 0-.373.37c0 .184.158.366.373.366Zm-1.136-.366c0-.638.517-1.134 1.136-1.134.641 0 1.127.519 1.127 1.134 0 .611-.488 1.13-1.127 1.13a1.133 1.133 0 0 1-1.136-1.13ZM100.388 43.272a.368.368 0 1 0 0-.735.368.368 0 0 0 0 .735Zm-1.132-.368a1.132 1.132 0 1 1 2.264 0 1.132 1.132 0 0 1-2.263 0Z" fill="#010066"/><path d="M54.535 101.303c-1.071 3.32-2.36 7.16-2.36 7.16l-12.297-2.085c.974-3.974 2.343-7.813 2.343-7.813l12.314 2.738Z" fill="#ED78B4"/><path fill-rule="evenodd" clip-rule="evenodd" d="M41.515 98.314a.75.75 0 0 1 .87-.48l12.313 2.737a.752.752 0 0 1 .551.963 665.22 665.22 0 0 1-2.145 6.515l-.218.652-.711-.238.71.238a.751.751 0 0 1-.836.502l-12.296-2.086a.748.748 0 0 1-.603-.918 85.438 85.438 0 0 1 1.55-5.445 95.845 95.845 0 0 1 .752-2.263l.046-.131.013-.034.004-.012.706.252-.706-.252Zm1.196 1.129-.009.026a94.792 94.792 0 0 0-1.898 6.305l10.863 1.843.014-.043.56-1.682c.385-1.16.865-2.614 1.327-4.035L42.71 99.443Z" fill="#010066"/><path d="M135.557 101.303c1.068 3.32 2.357 7.16 2.357 7.16l12.261-2.085c-.97-3.974-2.337-7.813-2.337-7.813l-12.281 2.738Z" fill="#ED78B4"/><path fill-rule="evenodd" clip-rule="evenodd" d="m148.545 98.314-.707.252.707-.252.004.012.012.034.046.132a99.873 99.873 0 0 1 .751 2.263 85.454 85.454 0 0 1 1.545 5.445.747.747 0 0 1-.603.917l-12.26 2.086a.75.75 0 0 1-.837-.501l.711-.239-.711.239-.219-.653-.56-1.685a606.055 606.055 0 0 1-1.581-4.831.75.75 0 0 1 .551-.962l12.281-2.737a.75.75 0 0 1 .87.48Zm-10.124 9.302 10.829-1.842a86.737 86.737 0 0 0-1.322-4.565 96.22 96.22 0 0 0-.58-1.766l-10.824 2.413c.46 1.422.939 2.876 1.324 4.036.227.687.422 1.27.559 1.682l.014.042Z" fill="#010066"/><path d="m81.901 20.113-2.538 6.166 5.29 14.641 4.577-12.114-7.329-8.693Z" fill="#ED78B4"/><path fill-rule="evenodd" clip-rule="evenodd" d="M81.786 19.372a.75.75 0 0 1 .689.257l7.328 8.693a.75.75 0 0 1 .129.749l-4.578 12.114a.75.75 0 0 1-1.407-.01l-5.29-14.641a.75.75 0 0 1 .013-.54l2.538-6.167a.75.75 0 0 1 .578-.455Zm.338 2.169-1.957 4.755 4.501 12.46 3.705-9.803-6.249-7.412Z" fill="#010066"/><path d="m109.365 20.113 2.534 6.166-5.287 14.641-4.575-12.114 7.328-8.693Z" fill="#ED78B4"/><path fill-rule="evenodd" clip-rule="evenodd" d="M109.481 19.372c.259.04.478.213.578.456l2.534 6.166a.75.75 0 0 1 .011.54l-5.287 14.64a.75.75 0 0 1-1.407.011l-4.575-12.114a.75.75 0 0 1 .128-.749l7.329-8.693a.75.75 0 0 1 .689-.257Zm-6.587 9.58 3.702 9.804 4.499-12.46-1.953-4.754-6.248 7.41Z" fill="#010066"/><path fill-rule="evenodd" clip-rule="evenodd" d="M109.482 19.37c.259.04.478.214.577.456l2.401 5.864 17.439 6.486c.226.084.397.271.461.503l18.243 65.686a.762.762 0 0 1 .027.2 101.117 101.117 0 0 1 .725 2.189 86.065 86.065 0 0 1 1.546 5.446.75.75 0 0 1-.603.917l-12.263 2.086a.751.751 0 0 1-.837-.501l.711-.239-.711.239-.218-.653-.56-1.685a584.145 584.145 0 0 1-1.579-4.831.822.822 0 0 1-.026-.109l-11.512-35.699 1.713 42.706a.747.747 0 0 1-.159.492c-1.413 1.806-3.68 3.178-6.262 4.233-2.595 1.061-5.586 1.833-8.53 2.398-5.891 1.128-11.69 1.441-13.976 1.524a.75.75 0 0 1-.766-.619c-.59-3.341-.9-9.633-1.039-17.13-.139-7.52-.107-16.311-.003-24.688a1724.227 1724.227 0 0 1 .704-31.85.75.75 0 0 1 .05-.267l3.285-8.653-.318-3.318a.75.75 0 0 1 .405-.74l3.152-1.609 7.233-8.577a.75.75 0 0 1 .69-.257Zm26.823 81.814a578.015 578.015 0 0 0 2.098 6.39l.014.042 10.83-1.842a87.711 87.711 0 0 0-1.322-4.565 96.068 96.068 0 0 0-.737-2.224l-.044-.126-.011-.032-.004-.01a.766.766 0 0 1-.041-.303l-18.07-65.065-17.389-6.467a.748.748 0 0 1-.433-.42l-2.056-5.021-6.532 7.746a.76.76 0 0 1-.233.185l-2.831 1.445.286 2.985a.75.75 0 0 1-.045.337l-3.304 8.702c-.024.758-.138 4.337-.27 9.518-.15 5.87-.327 13.83-.43 22.2-.104 8.37-.136 17.145.003 24.641.13 7.041.41 12.903.911 16.252 2.584-.115 7.807-.46 13.087-1.472 2.891-.553 5.776-1.303 8.246-2.312 2.367-.968 4.283-2.147 5.477-3.56l-1.921-47.901a.75.75 0 0 1 1.464-.26l13.23 41.026a.747.747 0 0 1 .027.111Z" fill="#010066"/><path fill-rule="evenodd" clip-rule="evenodd" d="M81.786 19.372a.75.75 0 0 1 .689.257l7.28 8.635 2.067 1.63a.75.75 0 0 1 .286.595l-.026 3.312 4.324 8.657a.75.75 0 0 1 .079.36l-.75-.025.75.024v.003l-.022.678-.059 1.94c-.05 1.677-.118 4.088-.193 7.023-.15 5.868-.327 13.83-.43 22.198-.104 8.37-.136 17.145.003 24.641.14 7.518.45 13.692 1.016 16.898a.752.752 0 0 1-.708.88c-.486.02-.747.027-.89.029h-.155l-.01-.001c-12.594.383-19.979-1.599-24.246-3.74-2.137-1.072-3.488-2.182-4.314-3.047a8.036 8.036 0 0 1-.874-1.072 4.628 4.628 0 0 1-.254-.425l-.015-.031-.006-.011-.002-.005v-.002c-.001-.001-.001-.001.68-.314l-.681.313a.753.753 0 0 1-.068-.34l1.558-42.778-11.568 35.877a569.7 569.7 0 0 1-2.145 6.517l-.218.652a.752.752 0 0 1-.837.501l-12.296-2.086a.751.751 0 0 1-.603-.918 85.356 85.356 0 0 1 1.55-5.446 94.253 94.253 0 0 1 .752-2.262l.046-.131.008-.02L59.74 32.68a.75.75 0 0 1 .476-.507l18.58-6.49 2.41-5.857a.75.75 0 0 1 .579-.455Zm-30.12 88.242.014-.042a726.984 726.984 0 0 0 2.14-6.501l13.227-41.027a.75.75 0 0 1 1.464.258l-1.748 47.976c.023.038.052.083.086.134.135.201.36.503.713.871.702.736 1.912 1.744 3.902 2.743 3.983 1.998 11.11 3.962 23.56 3.58l.023-.001a.778.778 0 0 1 .064.003l.072-.001h.004c-.503-3.497-.775-9.377-.903-16.279-.139-7.519-.107-16.31-.003-24.687a1724.09 1724.09 0 0 1 .683-31.19l.016-.493-4.32-8.647a.75.75 0 0 1-.079-.341l.024-3.125-1.84-1.45a.746.746 0 0 1-.108-.106l-6.532-7.748-2.068 5.025a.75.75 0 0 1-.447.423L61.082 33.46l-18.14 65.304a.784.784 0 0 1-.016.051l-.003.01-.011.032-.044.126a92.46 92.46 0 0 0-.739 2.223 87.28 87.28 0 0 0-1.326 4.566l10.863 1.842Z" fill="#010066"/><path d="M109.365 20.113c-15.449-5.552-27.463 0-27.463 0l2.953 3.5c4.062-1.164 11.963-2.575 21.486.074l3.024-3.574Z" fill="#ED78B4"/><path fill-rule="evenodd" clip-rule="evenodd" d="M89.736 17.288c5.03-.707 12.022-.706 19.883 2.119a.752.752 0 0 1 .319 1.19l-3.024 3.575a.751.751 0 0 1-.774.238c-9.35-2.602-17.105-1.215-21.079-.075a.75.75 0 0 1-.78-.238l-2.953-3.5a.75.75 0 0 1 .259-1.165l.314.68-.313-.68.003-.002.01-.004.03-.014.114-.05c.098-.042.242-.102.429-.175.373-.147.918-.348 1.62-.57a36.706 36.706 0 0 1 5.942-1.329Zm-6.592 3.135 1.973 2.339c4.2-1.14 11.825-2.355 20.96.076l2.008-2.374c-7.168-2.37-13.52-2.34-18.14-1.69-2.42.34-4.364.85-5.698 1.273-.434.137-.803.266-1.103.376Z" fill="#010066"/><path d="M138.838 102.563s1.367 3.837 2.337 7.813l-12.261 2.085s-1.287-3.836-2.356-7.16h.008l-13.23-41.027 1.933 48.185c-5.922 7.575-29.217 7.896-29.217 7.896-25.065.773-29.041-7.896-29.041-7.896l1.755-48.185-13.23 41.029c-1.072 3.32-2.361 7.16-2.361 7.16l-12.297-2.085c.974-3.974 2.343-7.812 2.343-7.812l18.245-65.684 18.9-6.601 2.538-6.168s12.014-5.552 27.463 0l2.525 6.168 17.748 6.6 18.245 65.685h-.047v-.003Z" fill="#EFF6FD"/><path fill-rule="evenodd" clip-rule="evenodd" d="m73.48 24.681-2.42 5.885a.75.75 0 0 1-.447.423l-18.53 6.471-18.139 65.306a.517.517 0 0 1-.016.051l-.001.003-.003.007-.01.032-.045.126a94.482 94.482 0 0 0-2.065 6.789l10.863 1.843.014-.043a652.368 652.368 0 0 0 2.14-6.501l13.231-41.029a.75.75 0 0 1 1.463.258l-1.747 47.976c.023.038.051.083.086.135.134.2.36.502.712.87.703.736 1.912 1.745 3.902 2.743 3.983 1.999 11.11 3.963 23.561 3.58l.013-.001h.015l.048-.001.192-.004a92.445 92.445 0 0 0 3.439-.162 97.586 97.586 0 0 0 8.588-.931c3.257-.51 6.672-1.251 9.625-2.324 2.853-1.036 5.183-2.348 6.559-3.977l-1.921-47.902a.75.75 0 0 1 1.463-.26l13.23 41.027a.706.706 0 0 1 .027.11 616.175 616.175 0 0 0 2.101 6.391l.013.042 10.829-1.842a86.517 86.517 0 0 0-1.322-4.566 95.681 95.681 0 0 0-.571-1.74l-.166-.483-.044-.126-.002-.006a.732.732 0 0 1-.057-.285v-.003l.002-.056-18.07-65.056-17.389-6.467a.753.753 0 0 1-.433-.419L99.8 24.707c-7.46-2.615-14.08-2.605-18.853-1.933-2.42.34-4.364.85-5.698 1.273a24.169 24.169 0 0 0-1.768.634Zm66.155 77.888.142.415c.145.425.348 1.034.581 1.767a84.475 84.475 0 0 1 1.545 5.447.75.75 0 0 1-.603.917l-12.26 2.086a.75.75 0 0 1-.837-.501l-.001-.003-.217-.65a569.53 569.53 0 0 1-2.141-6.516.694.694 0 0 1-.027-.109l-11.512-35.699 1.713 42.706a.75.75 0 0 1-.159.492c-1.611 2.061-4.338 3.561-7.398 4.672-3.079 1.119-6.599 1.878-9.905 2.396-3.311.518-6.431.797-8.723.946a92.414 92.414 0 0 1-2.741.141c-.328.012-.584.019-.758.024l-.2.004-.053.001h-.012c-12.61.388-20.003-1.595-24.273-3.738-2.138-1.072-3.488-2.182-4.315-3.048a8.036 8.036 0 0 1-.874-1.072 4.628 4.628 0 0 1-.253-.425l-.016-.031-.005-.011-.002-.005-.001-.002.68-.314-.68.313a.75.75 0 0 1-.069-.34l1.558-42.779-11.57 35.881a664.943 664.943 0 0 1-2.145 6.515l-.218.652-.711-.238.711.238a.751.751 0 0 1-.837.502l-12.296-2.086a.75.75 0 0 1-.603-.918 85.504 85.504 0 0 1 1.55-5.445 95.351 95.351 0 0 1 .753-2.263l.046-.131.007-.02 18.238-65.66a.75.75 0 0 1 .475-.506l18.581-6.49 2.41-5.857a.75.75 0 0 1 .38-.395l.314.68-.315-.68.005-.002.009-.004.03-.014.114-.05c.099-.042.242-.102.429-.175.373-.147.919-.348 1.62-.57a36.706 36.706 0 0 1 5.942-1.329c5.03-.707 12.022-.706 19.883 2.119.2.072.36.225.441.422l2.4 5.863 17.44 6.487c.225.084.396.27.461.502l18.245 65.684a.789.789 0 0 1 .027.204Z" fill="#010066"/><path d="M72.901 24.113s12.015-5.552 27.464 0l-7.33 8.693-3.287 1.677.335 3.492-3.348 8.818-4.404-8.818.027-3.492-2.128-1.677-7.329-8.693Z" fill="#ED78B4"/><path fill-rule="evenodd" clip-rule="evenodd" d="m74.144 24.423 6.61 7.841 2.068 1.63a.75.75 0 0 1 .286.595l-.026 3.312 3.56 7.126 2.678-7.054-.318-3.318a.75.75 0 0 1 .406-.74l3.15-1.608 6.529-7.742c-7.17-2.372-13.522-2.341-18.143-1.691-2.42.34-4.363.85-5.697 1.273-.434.138-.803.266-1.103.376Zm6.591-3.135c5.03-.707 12.023-.706 19.884 2.119a.75.75 0 0 1 .32 1.19l-7.331 8.692a.75.75 0 0 1-.233.185l-2.831 1.445.286 2.985a.75.75 0 0 1-.045.338l-3.348 8.817a.75.75 0 0 1-1.373.069L81.66 38.31a.75.75 0 0 1-.079-.341l.024-3.125-1.84-1.45a.751.751 0 0 1-.108-.106l-7.329-8.693a.75.75 0 0 1 .259-1.164l.314.68-.313-.68.003-.002.01-.004.03-.014.114-.05c.098-.042.242-.102.429-.175.373-.147.918-.348 1.62-.57a36.706 36.706 0 0 1 5.942-1.329ZM89.786 99.79a.37.37 0 0 0 .37-.364.367.367 0 0 0-.37-.368v.732Zm0-.732-.008.732a.366.366 0 0 1 .008-.732Zm-1.13.368a1.13 1.13 0 0 1 1.13-1.136h.008a1.134 1.134 0 0 1-.008 2.268c-.636 0-1.13-.523-1.13-1.132ZM89.937 85.958a.372.372 0 0 0 .366-.366c0-.21-.168-.37-.366-.37a.37.37 0 0 0-.37.37c0 .079.03.175.108.253a.375.375 0 0 0 .262.113Zm-1.134-.366c0-.642.515-1.134 1.134-1.134.64 0 1.13.509 1.13 1.134a1.13 1.13 0 0 1-1.13 1.13 1.133 1.133 0 0 1-1.134-1.13ZM90.092 74.028a.368.368 0 1 0 0-.737.368.368 0 0 0 0 .737Zm-1.131-.368a1.132 1.132 0 1 1 2.263 0 1.132 1.132 0 0 1-2.263 0ZM90.627 60.192a.367.367 0 0 0 .364-.366.367.367 0 0 0-.364-.37.374.374 0 0 0-.373.37c0 .184.158.366.373.366Zm-1.136-.366c0-.638.517-1.134 1.136-1.134.642 0 1.127.519 1.127 1.134 0 .611-.488 1.13-1.127 1.13a1.133 1.133 0 0 1-1.136-1.13ZM91.388 47.272a.368.368 0 1 0 0-.737.368.368 0 0 0 0 .737Zm-1.132-.368a1.132 1.132 0 1 1 2.264 0 1.132 1.132 0 0 1-2.263 0Z" fill="#010066"/><path d="M45.535 105.303c-1.071 3.32-2.36 7.16-2.36 7.16l-12.297-2.085c.974-3.974 2.343-7.812 2.343-7.812l12.314 2.737Z" fill="#ED78B4"/><path fill-rule="evenodd" clip-rule="evenodd" d="M32.515 102.314a.75.75 0 0 1 .87-.481l12.313 2.738a.752.752 0 0 1 .551.963 665.22 665.22 0 0 1-2.145 6.515l-.218.652-.711-.238.71.238a.751.751 0 0 1-.836.502l-12.296-2.086a.748.748 0 0 1-.603-.918 85.438 85.438 0 0 1 1.55-5.445 96.247 96.247 0 0 1 .753-2.263l.045-.131.013-.034.004-.012.706.252-.706-.252Zm1.196 1.129a94.482 94.482 0 0 0-1.907 6.331l10.863 1.843.014-.043.56-1.682c.385-1.16.865-2.614 1.327-4.035l-10.857-2.414Z" fill="#010066"/><path d="M126.557 105.303c1.068 3.32 2.357 7.16 2.357 7.16l12.261-2.085c-.97-3.974-2.337-7.812-2.337-7.812l-12.281 2.737Z" fill="#ED78B4"/><path fill-rule="evenodd" clip-rule="evenodd" d="m139.545 102.314-.707.252.707-.252.004.012.012.034.046.131a100.543 100.543 0 0 1 .751 2.263 85.454 85.454 0 0 1 1.545 5.446.747.747 0 0 1-.603.917l-12.26 2.086a.75.75 0 0 1-.837-.501l.711-.239-.711.239-.219-.653-.56-1.685a606.055 606.055 0 0 1-1.581-4.831.75.75 0 0 1 .551-.962l12.281-2.738a.75.75 0 0 1 .87.481Zm-10.124 9.302 10.829-1.842a86.737 86.737 0 0 0-1.322-4.565 95.681 95.681 0 0 0-.571-1.74l-.009-.026-10.824 2.413c.46 1.422.939 2.876 1.324 4.036.227.687.422 1.27.559 1.682l.014.042Z" fill="#010066"/><path d="m72.901 24.113-2.538 6.166 5.29 14.641 4.577-12.114-7.329-8.693Z" fill="#ED78B4"/><path fill-rule="evenodd" clip-rule="evenodd" d="M72.786 23.372a.75.75 0 0 1 .689.257l7.328 8.693a.75.75 0 0 1 .129.749l-4.578 12.114a.75.75 0 0 1-1.407-.01l-5.29-14.641a.75.75 0 0 1 .013-.54l2.538-6.167a.75.75 0 0 1 .578-.455Zm.338 2.169-1.957 4.755 4.501 12.46 3.705-9.803-6.249-7.412Z" fill="#010066"/><path d="m100.365 24.113 2.534 6.166-5.287 14.641-4.575-12.114 7.328-8.693Z" fill="#ED78B4"/><path fill-rule="evenodd" clip-rule="evenodd" d="M100.481 23.372c.259.04.478.213.578.456l2.534 6.166a.75.75 0 0 1 .011.54l-5.287 14.64a.75.75 0 0 1-1.407.011l-4.575-12.114a.75.75 0 0 1 .128-.749l7.329-8.693a.75.75 0 0 1 .689-.257Zm-6.587 9.58 3.702 9.804 4.499-12.46-1.953-4.754-6.248 7.41Z" fill="#010066"/><path fill-rule="evenodd" clip-rule="evenodd" d="M100.482 23.37c.259.04.478.214.577.456l2.401 5.864 17.439 6.486c.226.084.397.271.461.503l18.243 65.686a.759.759 0 0 1 .027.2l.145.421c.144.426.347 1.035.58 1.768a86.065 86.065 0 0 1 1.546 5.446.75.75 0 0 1-.603.917l-12.263 2.086a.751.751 0 0 1-.837-.501l.711-.239-.711.239-.218-.653-.56-1.685a584.145 584.145 0 0 1-1.579-4.831.822.822 0 0 1-.026-.109l-11.512-35.699 1.713 42.706a.747.747 0 0 1-.159.492c-1.413 1.806-3.68 3.178-6.262 4.233-2.595 1.061-5.586 1.833-8.53 2.398-5.89 1.128-11.69 1.441-13.976 1.524a.75.75 0 0 1-.766-.619c-.59-3.341-.9-9.633-1.039-17.131-.139-7.519-.107-16.31-.003-24.687a1724.227 1724.227 0 0 1 .704-31.85.75.75 0 0 1 .05-.267l3.285-8.653-.318-3.318a.75.75 0 0 1 .405-.74l3.152-1.609 7.233-8.577a.75.75 0 0 1 .69-.257Zm26.823 81.814a578.015 578.015 0 0 0 2.098 6.39l.014.042 10.83-1.842a87.711 87.711 0 0 0-1.322-4.565 96.235 96.235 0 0 0-.737-2.224l-.044-.127-.011-.031-.004-.01a.767.767 0 0 1-.041-.303l-18.07-65.065-17.389-6.467a.748.748 0 0 1-.433-.42l-2.056-5.021-6.532 7.746a.751.751 0 0 1-.233.185l-2.831 1.445.286 2.985a.75.75 0 0 1-.045.337l-3.304 8.702c-.024.758-.138 4.337-.27 9.518-.15 5.87-.327 13.83-.43 22.2-.104 8.37-.136 17.145.003 24.641.13 7.041.41 12.903.911 16.252 2.584-.115 7.807-.46 13.087-1.472 2.891-.553 5.776-1.303 8.246-2.312 2.367-.968 4.283-2.147 5.477-3.56l-1.921-47.901a.75.75 0 0 1 1.464-.26l13.23 41.026a.747.747 0 0 1 .027.111Z" fill="#010066"/><path fill-rule="evenodd" clip-rule="evenodd" d="M72.786 23.372a.75.75 0 0 1 .689.257l7.28 8.635 2.067 1.63a.75.75 0 0 1 .286.595l-.026 3.312 4.324 8.657a.75.75 0 0 1 .079.36l-.75-.025.75.024v.003l-.022.678-.059 1.94c-.05 1.677-.118 4.088-.193 7.023-.15 5.868-.327 13.83-.43 22.198-.104 8.37-.136 17.145.003 24.641.14 7.518.45 13.692 1.016 16.898a.752.752 0 0 1-.708.88c-.486.02-.747.027-.89.029h-.155l-.01-.001c-12.594.383-19.979-1.599-24.246-3.74-2.137-1.072-3.488-2.182-4.314-3.047a8.036 8.036 0 0 1-.874-1.072 4.628 4.628 0 0 1-.254-.425l-.015-.031-.006-.011-.002-.005v-.002c-.001-.001-.001-.001.68-.314l-.681.313a.753.753 0 0 1-.068-.34l1.558-42.778-11.568 35.877a569.7 569.7 0 0 1-2.145 6.517l-.218.652a.752.752 0 0 1-.837.501l-12.296-2.086a.751.751 0 0 1-.603-.918 85.356 85.356 0 0 1 1.55-5.446 95.351 95.351 0 0 1 .752-2.262l.046-.131.008-.021L50.74 36.681a.75.75 0 0 1 .476-.507l18.58-6.49 2.41-5.857a.75.75 0 0 1 .579-.455Zm-30.12 88.242.014-.042a726.984 726.984 0 0 0 2.14-6.501l13.227-41.027a.75.75 0 0 1 1.464.258l-1.748 47.976c.023.038.052.083.086.134.135.201.36.503.713.871.702.736 1.912 1.744 3.902 2.743 3.983 1.998 11.11 3.962 23.56 3.58l.023-.001a.778.778 0 0 1 .064.003l.072-.001h.004c-.503-3.497-.775-9.377-.903-16.279-.139-7.519-.107-16.31-.003-24.687a1724.09 1724.09 0 0 1 .683-31.19l.016-.493-4.32-8.647a.75.75 0 0 1-.079-.341l.024-3.125-1.84-1.45a.746.746 0 0 1-.108-.106l-6.532-7.748-2.068 5.025a.75.75 0 0 1-.447.423L52.082 37.46l-18.14 65.304a.835.835 0 0 1-.016.051l-.003.01-.011.032-.044.126a79.055 79.055 0 0 0-.74 2.223 87.28 87.28 0 0 0-1.325 4.566l10.863 1.842Z" fill="#010066"/><path d="M100.365 24.113c-15.449-5.552-27.463 0-27.463 0l2.953 3.5c4.062-1.164 11.963-2.575 21.486.074l3.024-3.574Z" fill="#ED78B4"/><path fill-rule="evenodd" clip-rule="evenodd" d="M80.736 21.288c5.03-.707 12.022-.706 19.883 2.119a.752.752 0 0 1 .319 1.19l-3.024 3.575a.75.75 0 0 1-.774.238c-9.35-2.602-17.105-1.215-21.079-.075a.75.75 0 0 1-.78-.238l-2.953-3.5a.75.75 0 0 1 .259-1.165l.314.68-.313-.68.003-.002.01-.004.03-.014.114-.05c.098-.042.242-.102.429-.175.373-.147.918-.348 1.62-.57a36.706 36.706 0 0 1 5.942-1.329Zm-6.592 3.135 1.973 2.339c4.2-1.14 11.825-2.355 20.96.076l2.008-2.374c-7.168-2.37-13.52-2.34-18.14-1.69-2.42.34-4.364.85-5.698 1.273-.434.137-.803.266-1.103.376Z" fill="#010066"/><path d="M132.838 106.563s1.367 3.837 2.337 7.813l-12.261 2.085s-1.287-3.836-2.356-7.16h.008l-13.23-41.027 1.933 48.185c-5.922 7.575-29.217 7.896-29.217 7.896-25.065.773-29.041-7.896-29.041-7.896l1.755-48.185-13.23 41.029c-1.072 3.32-2.361 7.16-2.361 7.16l-12.297-2.085c.974-3.974 2.343-7.812 2.343-7.812l18.245-65.684 18.9-6.601 2.538-6.168s12.014-5.552 27.464 0l2.524 6.168 17.748 6.6 18.245 65.685h-.047v-.003Z" fill="#EFF6FD"/><path fill-rule="evenodd" clip-rule="evenodd" d="m67.48 28.681-2.42 5.885a.75.75 0 0 1-.447.423l-18.53 6.471-18.139 65.306a.517.517 0 0 1-.016.051l-.001.003-.003.007-.01.032-.045.126a94.482 94.482 0 0 0-2.065 6.789l10.863 1.843.014-.043a652.368 652.368 0 0 0 2.14-6.501l13.231-41.029a.75.75 0 0 1 1.463.258l-1.747 47.976c.023.038.051.083.086.135.134.2.36.502.712.87.703.736 1.912 1.745 3.902 2.743 3.983 1.999 11.11 3.963 23.561 3.58l.013-.001h.015l.048-.001.192-.004a92.445 92.445 0 0 0 3.439-.162 97.586 97.586 0 0 0 8.588-.931c3.257-.51 6.672-1.251 9.625-2.324 2.853-1.036 5.183-2.348 6.559-3.977l-1.921-47.902a.75.75 0 0 1 1.463-.26l13.23 41.027a.706.706 0 0 1 .027.11 616.175 616.175 0 0 0 2.101 6.391l.013.042 10.829-1.842a86.517 86.517 0 0 0-1.322-4.566 95.681 95.681 0 0 0-.571-1.74l-.166-.483-.044-.126-.002-.006a.732.732 0 0 1-.057-.285v-.003l.002-.056-18.07-65.056-17.389-6.467a.75.75 0 0 1-.433-.419L93.8 28.707c-7.46-2.615-14.08-2.605-18.853-1.933-2.42.34-4.364.85-5.698 1.273a24.169 24.169 0 0 0-1.768.634Zm66.155 77.888.142.415c.145.425.348 1.034.581 1.767a84.475 84.475 0 0 1 1.545 5.447.75.75 0 0 1-.603.917l-12.26 2.086a.75.75 0 0 1-.837-.501l-.001-.003-.217-.65a569.53 569.53 0 0 1-2.141-6.516.694.694 0 0 1-.027-.109l-11.512-35.699 1.713 42.706a.75.75 0 0 1-.159.492c-1.611 2.061-4.338 3.561-7.398 4.672-3.08 1.119-6.599 1.878-9.905 2.396-3.311.518-6.431.797-8.723.946a92.414 92.414 0 0 1-2.741.141c-.328.012-.584.019-.758.024l-.2.004-.053.001h-.012c-12.61.388-20.003-1.595-24.273-3.738-2.138-1.072-3.488-2.182-4.315-3.048a8.036 8.036 0 0 1-.874-1.072 4.628 4.628 0 0 1-.253-.425l-.016-.031-.005-.011-.002-.005-.001-.002.68-.314-.68.313a.75.75 0 0 1-.069-.34l1.558-42.779-11.57 35.881a664.943 664.943 0 0 1-2.145 6.515l-.218.652-.711-.238.711.238a.751.751 0 0 1-.837.502l-12.296-2.086a.75.75 0 0 1-.603-.918 85.504 85.504 0 0 1 1.55-5.445 95.351 95.351 0 0 1 .753-2.263l.046-.131.007-.02 18.238-65.66a.75.75 0 0 1 .475-.506l18.581-6.49 2.41-5.857a.75.75 0 0 1 .38-.395l.314.68-.315-.68.005-.002.009-.004.03-.014.114-.05c.099-.042.242-.102.429-.175.373-.147.919-.348 1.62-.57a36.706 36.706 0 0 1 5.942-1.329c5.03-.707 12.022-.706 19.883 2.119.2.072.36.225.44.422l2.401 5.864 17.44 6.486c.225.084.396.27.461.502l18.245 65.684a.789.789 0 0 1 .027.204Z" fill="#010066"/><path d="M66.901 28.113s12.015-5.552 27.464 0l-7.33 8.693-3.287 1.677.335 3.492-3.348 8.818-4.404-8.818.027-3.492-2.128-1.677-7.329-8.693Z" fill="#ED78B4"/><path fill-rule="evenodd" clip-rule="evenodd" d="m68.144 28.423 6.61 7.841 2.068 1.63a.75.75 0 0 1 .286.595l-.026 3.312 3.56 7.126 2.678-7.054-.318-3.318a.75.75 0 0 1 .406-.74l3.15-1.608 6.529-7.742c-7.17-2.372-13.522-2.341-18.143-1.691-2.42.34-4.363.85-5.697 1.273-.434.138-.803.266-1.103.376Zm6.591-3.135c5.03-.707 12.023-.706 19.884 2.119a.75.75 0 0 1 .32 1.19l-7.331 8.692a.75.75 0 0 1-.233.185l-2.831 1.445.286 2.985a.75.75 0 0 1-.045.338l-3.348 8.817a.75.75 0 0 1-1.373.069L75.66 42.31a.75.75 0 0 1-.079-.341l.024-3.125-1.84-1.45a.751.751 0 0 1-.108-.106l-7.329-8.693a.75.75 0 0 1 .259-1.164l.314.68-.313-.68.003-.002.01-.004.03-.014.114-.05c.098-.042.242-.102.429-.175.373-.147.918-.348 1.62-.57a36.706 36.706 0 0 1 5.942-1.329ZM83.786 103.79c.212 0 .37-.176.37-.364a.367.367 0 0 0-.37-.368v.732Zm0-.732-.008.732a.366.366 0 0 1 .008-.732Zm-1.13.368a1.13 1.13 0 0 1 1.13-1.136h.008a1.134 1.134 0 0 1-.008 2.268c-.636 0-1.13-.523-1.13-1.132ZM83.937 89.958a.372.372 0 0 0 .366-.366c0-.21-.168-.37-.366-.37a.37.37 0 0 0-.37.37c0 .079.03.175.108.253a.375.375 0 0 0 .262.113Zm-1.134-.366c0-.642.515-1.134 1.134-1.134.64 0 1.13.509 1.13 1.134a1.13 1.13 0 0 1-1.13 1.13 1.133 1.133 0 0 1-1.134-1.13ZM84.092 78.028a.368.368 0 1 0 0-.737.368.368 0 0 0 0 .737Zm-1.131-.368a1.132 1.132 0 1 1 2.263 0 1.132 1.132 0 0 1-2.263 0ZM84.627 64.192a.367.367 0 0 0 .364-.366.367.367 0 0 0-.364-.37.374.374 0 0 0-.373.37c0 .184.158.366.373.366Zm-1.136-.366c0-.638.517-1.134 1.136-1.134.642 0 1.127.519 1.127 1.134 0 .611-.488 1.13-1.127 1.13a1.133 1.133 0 0 1-1.136-1.13ZM85.388 51.272a.368.368 0 1 0 0-.737.368.368 0 0 0 0 .737Zm-1.132-.368a1.132 1.132 0 1 1 2.264 0 1.132 1.132 0 0 1-2.263 0Z" fill="#010066"/><path d="M39.535 109.303c-1.071 3.32-2.36 7.16-2.36 7.16l-12.297-2.085c.974-3.974 2.343-7.812 2.343-7.812l12.314 2.737Z" fill="#ED78B4"/><path fill-rule="evenodd" clip-rule="evenodd" d="M26.515 106.314a.75.75 0 0 1 .87-.481l12.313 2.738a.752.752 0 0 1 .551.963 665.22 665.22 0 0 1-2.145 6.515l-.218.652-.711-.238.71.238a.751.751 0 0 1-.836.502l-12.296-2.086a.748.748 0 0 1-.603-.918 85.438 85.438 0 0 1 1.55-5.445 96.247 96.247 0 0 1 .753-2.263l.045-.131.012-.034.005-.012.706.252-.706-.252Zm1.196 1.129-.009.026a94.482 94.482 0 0 0-1.898 6.305l10.863 1.843.014-.043.56-1.682c.385-1.16.865-2.614 1.327-4.035l-10.857-2.414Z" fill="#010066"/><path d="M120.557 109.303c1.068 3.32 2.357 7.16 2.357 7.16l12.261-2.085c-.97-3.974-2.337-7.812-2.337-7.812l-12.281 2.737Z" fill="#ED78B4"/><path fill-rule="evenodd" clip-rule="evenodd" d="m133.545 106.314-.707.252.707-.252.004.012.012.034.046.131a100.543 100.543 0 0 1 .751 2.263 85.454 85.454 0 0 1 1.545 5.446.747.747 0 0 1-.603.917l-12.26 2.086a.75.75 0 0 1-.837-.501l.711-.239-.711.239-.219-.653-.56-1.685a606.055 606.055 0 0 1-1.581-4.831.75.75 0 0 1 .551-.962l12.281-2.738a.75.75 0 0 1 .87.481Zm-10.124 9.302 10.829-1.842a86.737 86.737 0 0 0-1.322-4.565 95.681 95.681 0 0 0-.571-1.74l-.009-.026-10.824 2.413c.46 1.422.939 2.876 1.324 4.036.227.687.422 1.27.559 1.682l.014.042Z" fill="#010066"/><path d="m66.901 28.113-2.538 6.166 5.29 14.641 4.577-12.114-7.329-8.693Z" fill="#ED78B4"/><path fill-rule="evenodd" clip-rule="evenodd" d="M66.786 27.372a.75.75 0 0 1 .689.257l7.328 8.693a.75.75 0 0 1 .129.749l-4.578 12.114a.75.75 0 0 1-1.407-.01l-5.29-14.642a.75.75 0 0 1 .013-.54l2.538-6.166a.75.75 0 0 1 .578-.455Zm.338 2.169-1.957 4.755 4.501 12.46 3.705-9.803-6.249-7.412Z" fill="#010066"/><path d="m94.365 28.113 2.534 6.166-5.287 14.641-4.575-12.114 7.328-8.693Z" fill="#ED78B4"/><path fill-rule="evenodd" clip-rule="evenodd" d="M94.481 27.372a.75.75 0 0 1 .578.456l2.534 6.165a.75.75 0 0 1 .011.54l-5.287 14.642a.75.75 0 0 1-1.407.01l-4.575-12.114a.75.75 0 0 1 .128-.749l7.329-8.693a.75.75 0 0 1 .69-.257Zm-6.587 9.58 3.702 9.804 4.5-12.46-1.955-4.754-6.247 7.41Z" fill="#010066"/><path fill-rule="evenodd" clip-rule="evenodd" d="M94.482 27.37a.75.75 0 0 1 .577.456l2.4 5.864 17.44 6.486c.226.084.397.271.461.503l18.243 65.686a.759.759 0 0 1 .027.2l.145.421c.144.426.347 1.035.58 1.768a86.065 86.065 0 0 1 1.546 5.446.75.75 0 0 1-.603.917l-12.263 2.086a.751.751 0 0 1-.837-.501l.711-.239-.711.239-.218-.653-.56-1.685a584.145 584.145 0 0 1-1.579-4.831.822.822 0 0 1-.026-.109l-11.512-35.699 1.713 42.706a.747.747 0 0 1-.159.492c-1.413 1.806-3.68 3.178-6.262 4.233-2.595 1.061-5.586 1.833-8.53 2.398-5.89 1.128-11.69 1.441-13.976 1.524a.75.75 0 0 1-.766-.619c-.59-3.341-.9-9.633-1.039-17.131-.139-7.519-.107-16.31-.003-24.687a1724.227 1724.227 0 0 1 .704-31.85.75.75 0 0 1 .05-.267l3.285-8.653-.318-3.318a.75.75 0 0 1 .405-.74l3.152-1.609 7.233-8.577a.75.75 0 0 1 .69-.257Zm26.823 81.814a578.015 578.015 0 0 0 2.098 6.39l.014.042 10.83-1.842a87.711 87.711 0 0 0-1.322-4.565 96.235 96.235 0 0 0-.737-2.224l-.044-.127-.011-.031-.004-.01a.767.767 0 0 1-.041-.303l-18.07-65.065-17.39-6.467a.75.75 0 0 1-.432-.42l-2.056-5.021-6.532 7.746a.751.751 0 0 1-.233.185l-2.831 1.445.286 2.985a.75.75 0 0 1-.045.337l-3.304 8.702c-.024.758-.138 4.337-.27 9.518-.15 5.87-.327 13.83-.43 22.2-.104 8.37-.136 17.145.003 24.641.13 7.041.41 12.903.911 16.252 2.584-.115 7.807-.46 13.087-1.472 2.891-.553 5.776-1.303 8.246-2.312 2.367-.968 4.283-2.147 5.477-3.56l-1.921-47.901a.75.75 0 0 1 1.464-.26l13.23 41.026a.747.747 0 0 1 .027.111Z" fill="#010066"/><path fill-rule="evenodd" clip-rule="evenodd" d="M66.786 27.372a.75.75 0 0 1 .689.257l7.28 8.635 2.067 1.63a.75.75 0 0 1 .286.595l-.026 3.312 4.324 8.657a.75.75 0 0 1 .079.36l-.75-.025.75.024v.003l-.022.678-.059 1.94c-.05 1.677-.118 4.088-.193 7.023-.15 5.868-.327 13.83-.43 22.198-.104 8.37-.136 17.145.003 24.641.14 7.518.45 13.692 1.016 16.898a.752.752 0 0 1-.708.88c-.486.02-.747.027-.89.029h-.155l-.01-.001c-12.594.383-19.979-1.599-24.246-3.74-2.137-1.072-3.488-2.182-4.314-3.047a8.036 8.036 0 0 1-.874-1.072 4.628 4.628 0 0 1-.254-.425l-.015-.031-.006-.011-.002-.005v-.002c-.001-.001-.001-.001.68-.314l-.681.313a.753.753 0 0 1-.068-.34l1.558-42.778-11.568 35.877a569.7 569.7 0 0 1-2.145 6.517l-.218.652a.752.752 0 0 1-.837.501l-12.296-2.086a.751.751 0 0 1-.603-.918 85.356 85.356 0 0 1 1.55-5.446 95.351 95.351 0 0 1 .752-2.262l.046-.131.008-.021L44.74 40.681a.75.75 0 0 1 .476-.507l18.58-6.49 2.41-5.857a.75.75 0 0 1 .579-.455Zm-30.12 88.242.014-.042a726.984 726.984 0 0 0 2.14-6.501l13.227-41.027a.75.75 0 0 1 1.464.258l-1.748 47.976c.023.038.052.083.086.134.135.201.36.503.713.871.702.736 1.912 1.744 3.902 2.743 3.983 1.998 11.11 3.962 23.56 3.58l.023-.001a.778.778 0 0 1 .064.003l.072-.001h.004c-.503-3.497-.775-9.377-.903-16.279-.139-7.519-.107-16.31-.003-24.687a1724.09 1724.09 0 0 1 .683-31.19l.016-.493-4.32-8.647a.75.75 0 0 1-.079-.341l.024-3.125-1.84-1.45a.746.746 0 0 1-.108-.106l-6.532-7.748-2.068 5.025a.75.75 0 0 1-.447.423L46.082 41.46l-18.14 65.304a.835.835 0 0 1-.015.051l-.004.01-.011.032-.045.126a79.055 79.055 0 0 0-.738 2.223 87.28 87.28 0 0 0-1.326 4.566l10.863 1.842Z" fill="#010066"/><path d="M94.365 28.113c-15.449-5.552-27.463 0-27.463 0l2.953 3.5c4.062-1.164 11.963-2.575 21.486.074l3.024-3.574Z" fill="#ED78B4"/><path fill-rule="evenodd" clip-rule="evenodd" d="M74.736 25.288c5.03-.707 12.022-.706 19.883 2.119a.75.75 0 0 1 .319 1.19l-3.024 3.575a.75.75 0 0 1-.774.238c-9.35-2.602-17.105-1.215-21.079-.075a.75.75 0 0 1-.78-.238l-2.953-3.5a.75.75 0 0 1 .259-1.165l.314.68-.313-.68.003-.002.01-.004.03-.014.114-.05c.098-.042.242-.102.429-.175.373-.147.918-.348 1.62-.57a36.706 36.706 0 0 1 5.942-1.329Zm-6.592 3.135 1.973 2.339c4.2-1.14 11.825-2.355 20.96.076l2.008-2.374c-7.168-2.37-13.52-2.34-18.14-1.69-2.42.34-4.364.85-5.698 1.273-.434.137-.803.266-1.103.376Z" fill="#010066"/><path d="M126.838 108.563s1.367 3.837 2.337 7.813l-12.261 2.085s-1.287-3.836-2.356-7.16h.008l-13.23-41.027 1.933 48.185c-5.922 7.575-29.217 7.896-29.217 7.896-25.065.773-29.041-7.896-29.041-7.896l1.755-48.185-13.23 41.029c-1.072 3.32-2.361 7.16-2.361 7.16l-12.297-2.085c.974-3.974 2.343-7.812 2.343-7.812l18.245-65.684 18.9-6.601 2.538-6.168s12.014-5.552 27.464 0l2.524 6.168 17.748 6.6 18.245 65.685h-.047v-.003Z" fill="#EFF6FD"/><path fill-rule="evenodd" clip-rule="evenodd" d="m61.48 30.681-2.42 5.885a.75.75 0 0 1-.447.423l-18.53 6.471-18.139 65.306a.517.517 0 0 1-.016.051l-.001.003-.003.007-.01.032-.045.126a94.482 94.482 0 0 0-2.065 6.789l10.863 1.843.014-.043.56-1.682a652.368 652.368 0 0 0 1.58-4.819l13.231-41.029a.75.75 0 0 1 1.463.258l-1.747 47.976c.023.038.051.083.086.135.134.2.36.502.712.87.703.736 1.912 1.745 3.902 2.743 3.983 1.999 11.11 3.963 23.561 3.58l.013-.001h.015l.048-.001.192-.004a92.445 92.445 0 0 0 3.439-.162 97.586 97.586 0 0 0 8.588-.931c3.257-.51 6.672-1.251 9.625-2.324 2.853-1.036 5.183-2.348 6.559-3.977l-1.921-47.902a.75.75 0 0 1 1.463-.26l13.23 41.027a.706.706 0 0 1 .027.11 616.175 616.175 0 0 0 2.101 6.391l.013.042 10.829-1.842a86.517 86.517 0 0 0-1.322-4.566 95.681 95.681 0 0 0-.571-1.74l-.166-.483-.044-.126-.002-.006a.732.732 0 0 1-.057-.285v-.003l.002-.056-18.07-65.056-17.389-6.467a.75.75 0 0 1-.433-.419L87.8 30.707c-7.46-2.615-14.08-2.605-18.853-1.933-2.42.34-4.364.85-5.698 1.273a24.169 24.169 0 0 0-1.768.634Zm66.155 77.888.142.415c.145.425.348 1.034.581 1.767a84.475 84.475 0 0 1 1.545 5.447.75.75 0 0 1-.603.917l-12.26 2.086a.75.75 0 0 1-.837-.501l-.001-.003-.217-.65a569.53 569.53 0 0 1-2.141-6.516.694.694 0 0 1-.027-.109l-11.512-35.699 1.713 42.706a.75.75 0 0 1-.159.492c-1.611 2.061-4.338 3.561-7.398 4.672-3.08 1.119-6.599 1.878-9.905 2.396-3.311.518-6.431.797-8.723.946a92.414 92.414 0 0 1-2.741.141c-.328.012-.584.019-.758.024l-.2.004-.053.001h-.012c-12.61.388-20.003-1.595-24.273-3.738-2.138-1.072-3.488-2.182-4.315-3.048a8.036 8.036 0 0 1-.874-1.072 4.628 4.628 0 0 1-.253-.425l-.016-.031-.005-.011-.002-.005-.001-.002.68-.314-.68.313a.75.75 0 0 1-.069-.34l1.558-42.779-11.57 35.881a664.943 664.943 0 0 1-2.145 6.515l-.218.652-.711-.238.711.238a.751.751 0 0 1-.837.502l-12.296-2.086a.75.75 0 0 1-.603-.918 85.504 85.504 0 0 1 1.55-5.445 95.351 95.351 0 0 1 .753-2.263l.046-.131.007-.02 18.238-65.66a.75.75 0 0 1 .475-.506l18.581-6.49 2.41-5.857a.75.75 0 0 1 .38-.395l.314.68-.315-.68.005-.002.009-.004.03-.014.114-.05c.099-.042.242-.102.429-.175.373-.147.919-.348 1.62-.57a36.706 36.706 0 0 1 5.942-1.329c5.03-.707 12.022-.706 19.883 2.119.2.072.36.225.44.422l2.401 5.864 17.44 6.486c.225.084.396.27.461.502l18.245 65.684a.789.789 0 0 1 .027.204Z" fill="#010066"/><path d="M60.901 30.113s12.015-5.552 27.464 0l-7.33 8.693-3.287 1.677.335 3.492-3.348 8.818-4.404-8.818.027-3.492-2.128-1.677-7.329-8.693Z" fill="#ED78B4"/><path fill-rule="evenodd" clip-rule="evenodd" d="m62.144 30.423 6.61 7.841 2.068 1.63a.75.75 0 0 1 .286.595l-.026 3.312 3.56 7.126 2.678-7.054-.318-3.318a.75.75 0 0 1 .406-.74l3.15-1.608 6.529-7.742c-7.17-2.372-13.522-2.341-18.143-1.691-2.42.34-4.363.85-5.697 1.273-.434.138-.803.266-1.103.376Zm6.592-3.135c5.03-.707 12.022-.706 19.883 2.119a.75.75 0 0 1 .32 1.19l-7.331 8.692a.75.75 0 0 1-.233.185l-2.831 1.445.286 2.985a.75.75 0 0 1-.045.338l-3.348 8.817a.75.75 0 0 1-1.373.069L69.66 44.31a.75.75 0 0 1-.079-.341l.024-3.125-1.84-1.45a.751.751 0 0 1-.108-.106l-7.329-8.693a.75.75 0 0 1 .259-1.164l.314.68-.313-.68.003-.002.01-.004.03-.014.114-.05c.098-.042.242-.102.429-.175.373-.147.918-.348 1.62-.57a36.706 36.706 0 0 1 5.942-1.329ZM77.786 105.79c.212 0 .37-.176.37-.364a.367.367 0 0 0-.37-.368v.732Zm0-.732-.008.732a.366.366 0 0 1 .008-.732Zm-1.13.368a1.13 1.13 0 0 1 1.13-1.136h.008a1.134 1.134 0 0 1-.008 2.268c-.636 0-1.13-.523-1.13-1.132ZM77.937 91.958a.372.372 0 0 0 .366-.366c0-.21-.168-.37-.366-.37a.37.37 0 0 0-.37.37c0 .079.03.175.108.253a.375.375 0 0 0 .262.113Zm-1.134-.366c0-.642.515-1.134 1.134-1.134.64 0 1.13.509 1.13 1.134a1.13 1.13 0 0 1-1.13 1.13 1.133 1.133 0 0 1-1.134-1.13ZM78.092 80.028a.368.368 0 1 0 0-.737.368.368 0 0 0 0 .737Zm-1.131-.368a1.132 1.132 0 1 1 2.263 0 1.132 1.132 0 0 1-2.263 0ZM78.627 66.192a.367.367 0 0 0 .364-.366.367.367 0 0 0-.364-.37.374.374 0 0 0-.373.37c0 .184.158.366.373.366Zm-1.136-.366c0-.638.517-1.134 1.136-1.134.642 0 1.127.519 1.127 1.134 0 .611-.488 1.13-1.127 1.13a1.133 1.133 0 0 1-1.136-1.13ZM79.388 53.272a.368.368 0 1 0 0-.737.368.368 0 0 0 0 .737Zm-1.132-.368a1.132 1.132 0 1 1 2.264 0 1.132 1.132 0 0 1-2.263 0Z" fill="#010066"/><path d="M33.535 111.303a763.82 763.82 0 0 1-2.36 7.16l-12.297-2.085c.974-3.974 2.343-7.812 2.343-7.812l12.314 2.737Z" fill="#ED78B4"/><path fill-rule="evenodd" clip-rule="evenodd" d="M20.515 108.314a.75.75 0 0 1 .87-.481l12.313 2.738a.752.752 0 0 1 .551.963 665.22 665.22 0 0 1-2.145 6.515l-.218.652-.711-.238.71.238a.751.751 0 0 1-.836.502l-12.296-2.086a.748.748 0 0 1-.603-.918 85.438 85.438 0 0 1 1.55-5.445 96.247 96.247 0 0 1 .753-2.263l.045-.131.012-.034.005-.012.706.252-.706-.252Zm1.196 1.129-.009.026a94.482 94.482 0 0 0-1.898 6.305l10.863 1.843.014-.043.56-1.682c.385-1.16.865-2.614 1.327-4.035l-10.857-2.414Z" fill="#010066"/><path d="M114.557 111.303c1.068 3.32 2.357 7.16 2.357 7.16l12.261-2.085c-.97-3.974-2.337-7.812-2.337-7.812l-12.281 2.737Z" fill="#ED78B4"/><path fill-rule="evenodd" clip-rule="evenodd" d="m127.545 108.314-.707.252.707-.252.004.012.012.034.046.131a100.543 100.543 0 0 1 .751 2.263 85.454 85.454 0 0 1 1.545 5.446.747.747 0 0 1-.603.917l-12.26 2.086a.75.75 0 0 1-.837-.501l.711-.239-.711.239-.219-.653-.56-1.685a606.055 606.055 0 0 1-1.581-4.831.75.75 0 0 1 .551-.962l12.281-2.738a.75.75 0 0 1 .87.481Zm-10.124 9.302 10.829-1.842a86.737 86.737 0 0 0-1.322-4.565 95.681 95.681 0 0 0-.571-1.74l-.009-.026-10.824 2.413c.46 1.422.939 2.876 1.324 4.036.227.687.422 1.27.559 1.682l.014.042Z" fill="#010066"/><path d="m60.901 30.113-2.538 6.166 5.29 14.641 4.577-12.114-7.329-8.693Z" fill="#ED78B4"/><path fill-rule="evenodd" clip-rule="evenodd" d="M60.786 29.372a.75.75 0 0 1 .689.257l7.328 8.693a.75.75 0 0 1 .129.749l-4.578 12.114a.75.75 0 0 1-1.407-.01l-5.29-14.642a.75.75 0 0 1 .013-.54l2.538-6.166a.75.75 0 0 1 .578-.455Zm.338 2.169-1.957 4.755 4.501 12.46 3.705-9.803-6.249-7.412Z" fill="#010066"/><path d="m88.365 30.113 2.534 6.166-5.287 14.641-4.575-12.114 7.328-8.693Z" fill="#ED78B4"/><path fill-rule="evenodd" clip-rule="evenodd" d="M88.481 29.372a.75.75 0 0 1 .578.456l2.534 6.166a.75.75 0 0 1 .011.54l-5.287 14.64a.75.75 0 0 1-1.407.011l-4.575-12.114a.75.75 0 0 1 .128-.749l7.329-8.693a.75.75 0 0 1 .69-.257Zm-6.587 9.58 3.702 9.804 4.5-12.46-1.955-4.754-6.247 7.41Z" fill="#010066"/><path fill-rule="evenodd" clip-rule="evenodd" d="M88.482 29.37a.75.75 0 0 1 .577.456l2.4 5.864 17.44 6.486c.226.084.397.271.461.503l18.243 65.686a.759.759 0 0 1 .027.2l.145.421c.144.426.347 1.035.58 1.768a86.065 86.065 0 0 1 1.546 5.446.75.75 0 0 1-.603.917l-12.263 2.086a.751.751 0 0 1-.837-.501l.711-.239-.711.239-.218-.653-.56-1.685a584.145 584.145 0 0 1-1.579-4.831.822.822 0 0 1-.026-.109l-11.512-35.699 1.713 42.706a.747.747 0 0 1-.159.492c-1.413 1.806-3.68 3.178-6.262 4.233-2.595 1.061-5.586 1.833-8.53 2.398-5.89 1.128-11.69 1.441-13.976 1.524a.75.75 0 0 1-.766-.619c-.59-3.341-.9-9.633-1.039-17.131-.139-7.519-.107-16.31-.003-24.687a1724.227 1724.227 0 0 1 .704-31.85.75.75 0 0 1 .05-.267l3.285-8.653-.318-3.318a.75.75 0 0 1 .405-.74l3.152-1.609 7.233-8.577a.75.75 0 0 1 .69-.257Zm26.823 81.814a578.015 578.015 0 0 0 2.098 6.39l.014.042 10.83-1.842a87.711 87.711 0 0 0-1.322-4.565 96.235 96.235 0 0 0-.737-2.224l-.044-.127-.011-.031-.004-.01a.767.767 0 0 1-.041-.303l-18.07-65.065-17.39-6.467a.75.75 0 0 1-.432-.42l-2.056-5.021-6.532 7.746a.753.753 0 0 1-.233.185l-2.831 1.445.286 2.985a.75.75 0 0 1-.045.337l-3.304 8.702c-.024.758-.138 4.337-.27 9.518-.15 5.87-.327 13.83-.43 22.2-.104 8.37-.136 17.145.003 24.641.13 7.041.41 12.903.911 16.252 2.584-.115 7.807-.46 13.087-1.472 2.891-.553 5.776-1.303 8.246-2.312 2.367-.968 4.283-2.147 5.477-3.56l-1.921-47.901a.75.75 0 0 1 1.464-.26l13.23 41.026a.747.747 0 0 1 .027.111Z" fill="#010066"/><path fill-rule="evenodd" clip-rule="evenodd" d="M60.786 29.372a.75.75 0 0 1 .689.257l7.28 8.635 2.067 1.63a.75.75 0 0 1 .286.595l-.026 3.312 4.324 8.657a.75.75 0 0 1 .079.36l-.75-.025.75.024v.003l-.022.678-.059 1.94c-.05 1.677-.118 4.088-.193 7.023-.15 5.868-.327 13.83-.43 22.198-.104 8.37-.136 17.145.003 24.641.14 7.518.45 13.692 1.016 16.898a.752.752 0 0 1-.708.88c-.486.02-.747.027-.89.029h-.155l-.01-.001c-12.594.383-19.979-1.599-24.246-3.74-2.137-1.072-3.488-2.182-4.314-3.047a8.036 8.036 0 0 1-.874-1.072 4.628 4.628 0 0 1-.254-.425l-.015-.031-.006-.011-.002-.005v-.002c-.001-.001-.001-.001.68-.314l-.681.313a.753.753 0 0 1-.068-.34l1.558-42.778-11.568 35.877a569.7 569.7 0 0 1-2.145 6.517l-.218.652a.752.752 0 0 1-.837.501l-12.296-2.086a.751.751 0 0 1-.603-.918 85.356 85.356 0 0 1 1.55-5.446 95.351 95.351 0 0 1 .752-2.262l.046-.131.008-.021L38.74 42.681a.75.75 0 0 1 .476-.507l18.58-6.49 2.41-5.857a.75.75 0 0 1 .579-.455Zm-30.12 88.242.014-.042a726.984 726.984 0 0 0 2.14-6.501l13.227-41.027a.75.75 0 0 1 1.464.258l-1.748 47.976c.023.038.052.083.086.134.135.201.36.503.713.871.702.736 1.912 1.744 3.902 2.743 3.983 1.998 11.11 3.962 23.56 3.58l.023-.001a.778.778 0 0 1 .064.003l.072-.001h.004c-.503-3.497-.775-9.377-.903-16.279-.139-7.519-.107-16.31-.003-24.687a1724.073 1724.073 0 0 1 .683-31.19l.016-.493-4.32-8.647a.75.75 0 0 1-.079-.341l.024-3.125-1.84-1.45a.746.746 0 0 1-.108-.106l-6.532-7.748-2.068 5.025a.75.75 0 0 1-.447.423L40.082 43.46l-18.14 65.304a.835.835 0 0 1-.015.051l-.004.01-.011.032-.045.126a79.055 79.055 0 0 0-.738 2.223 87.28 87.28 0 0 0-1.326 4.566l10.863 1.842Z" fill="#010066"/><path d="M88.365 30.113c-15.449-5.552-27.463 0-27.463 0l2.953 3.5c4.062-1.164 11.963-2.575 21.486.074l3.024-3.574Z" fill="#ED78B4"/><path fill-rule="evenodd" clip-rule="evenodd" d="M68.736 27.288c5.03-.707 12.022-.706 19.883 2.119a.75.75 0 0 1 .319 1.19l-3.024 3.575a.75.75 0 0 1-.774.238c-9.35-2.602-17.105-1.215-21.079-.075a.75.75 0 0 1-.78-.238l-2.953-3.5a.75.75 0 0 1 .259-1.165l.314.68-.313-.68.003-.002.01-.004.03-.014.114-.05c.098-.042.242-.102.429-.175.373-.147.918-.348 1.62-.57a36.706 36.706 0 0 1 5.942-1.329Zm-6.592 3.135 1.973 2.339c4.2-1.14 11.825-2.355 20.96.076l2.008-2.374c-7.168-2.37-13.52-2.34-18.14-1.69-2.42.34-4.364.85-5.698 1.273-.434.137-.803.266-1.103.376Z" fill="#010066"/><path d="M119.838 110.563s1.367 3.837 2.337 7.813l-12.261 2.085s-1.287-3.836-2.357-7.16h.009l-13.23-41.027 1.933 48.185c-5.922 7.575-29.217 7.896-29.217 7.896-25.065.773-29.041-7.896-29.041-7.896l1.755-48.185-13.23 41.029c-1.072 3.32-2.361 7.16-2.361 7.16l-12.297-2.085c.974-3.974 2.343-7.812 2.343-7.812l18.245-65.684 18.9-6.601 2.538-6.168s12.014-5.552 27.463 0l2.525 6.168 17.748 6.6 18.245 65.685h-.047v-.003Z" fill="#FFFFF4"/><path fill-rule="evenodd" clip-rule="evenodd" d="m54.48 32.681-2.421 5.885a.75.75 0 0 1-.446.423l-18.53 6.471-18.14 65.306a.685.685 0 0 1-.015.052l-.001.002-.003.007-.011.032-.044.126a94.482 94.482 0 0 0-2.065 6.789l10.863 1.843.014-.043.56-1.682a657.128 657.128 0 0 0 1.58-4.819l13.231-41.029a.75.75 0 0 1 1.463.258l-1.747 47.977c.023.037.051.082.086.134.134.2.36.502.712.87.703.736 1.912 1.745 3.902 2.743 3.983 1.999 11.11 3.963 23.56 3.58l.014-.001.003.001.012-.001.048-.001.192-.004a92.463 92.463 0 0 0 3.439-.162 97.586 97.586 0 0 0 8.588-.931c3.257-.51 6.672-1.251 9.625-2.324 2.853-1.035 5.182-2.348 6.559-3.977l-1.921-47.902a.75.75 0 0 1 1.463-.26l13.23 41.027a.706.706 0 0 1 .027.11 809.505 809.505 0 0 0 2.1 6.391l.014.042 10.829-1.842a86.517 86.517 0 0 0-1.322-4.566 95.681 95.681 0 0 0-.571-1.74l-.166-.483-.045-.126-.002-.006a.75.75 0 0 1-.056-.285v-.003l.002-.056-18.07-65.056-17.39-6.467a.75.75 0 0 1-.432-.419L80.8 32.707c-7.46-2.615-14.08-2.605-18.853-1.933-2.42.34-4.364.85-5.698 1.273a24.21 24.21 0 0 0-1.768.634Zm66.155 77.888.142.415c.145.425.347 1.034.581 1.767a85.312 85.312 0 0 1 1.545 5.447.75.75 0 0 1-.603.917l-12.26 2.086a.75.75 0 0 1-.837-.501l-.001-.003-.217-.65a569.53 569.53 0 0 1-2.141-6.516.694.694 0 0 1-.027-.109L95.305 77.723l1.713 42.706a.751.751 0 0 1-.159.492c-1.611 2.061-4.339 3.561-7.398 4.672-3.08 1.119-6.599 1.878-9.906 2.396-3.31.518-6.43.797-8.722.946a92.418 92.418 0 0 1-3.5.165l-.2.004-.052.001h-.012c-12.611.388-20.003-1.595-24.273-3.738-2.138-1.072-3.489-2.182-4.315-3.048a8.036 8.036 0 0 1-.874-1.072 4.628 4.628 0 0 1-.253-.425l-.016-.031-.005-.011-.002-.005-.001-.002c0-.001-.001-.001.68-.314l-.681.313a.753.753 0 0 1-.068-.34l1.558-42.779-11.57 35.881a664.943 664.943 0 0 1-2.145 6.515l-.218.652-.711-.238.71.238a.751.751 0 0 1-.836.502l-12.296-2.086a.75.75 0 0 1-.603-.918 85.438 85.438 0 0 1 1.55-5.445 96.247 96.247 0 0 1 .753-2.263l.045-.131.008-.02 18.237-65.66a.75.75 0 0 1 .476-.506l18.581-6.49 2.41-5.857a.75.75 0 0 1 .38-.395l.314.68-.315-.68.005-.002.008-.004.032-.014.113-.05c.099-.042.242-.102.429-.175.373-.147.919-.348 1.62-.57a36.693 36.693 0 0 1 5.942-1.329c5.03-.707 12.022-.706 19.883 2.119.2.072.36.225.44.422l2.4 5.864 17.44 6.486c.226.084.397.27.462.502l18.244 65.684a.749.749 0 0 1 .028.204Z" fill="#010066"/><path d="M53.901 32.113s12.015-5.552 27.464 0l-7.33 8.693-3.287 1.677.335 3.492-3.348 8.818-4.404-8.818.027-3.492-2.128-1.677-7.329-8.693Z" fill="#FFFFF4"/><path fill-rule="evenodd" clip-rule="evenodd" d="m55.144 32.423 6.61 7.841 2.068 1.63a.75.75 0 0 1 .286.595l-.026 3.312 3.56 7.126 2.678-7.054-.318-3.318a.75.75 0 0 1 .405-.74l3.151-1.608 6.529-7.742c-7.17-2.372-13.522-2.341-18.143-1.691-2.42.34-4.364.85-5.697 1.273-.434.138-.803.266-1.103.376Zm6.591-3.135c5.03-.707 12.022-.706 19.884 2.119a.75.75 0 0 1 .32 1.19l-7.331 8.692a.75.75 0 0 1-.233.185l-2.831 1.445.286 2.985a.75.75 0 0 1-.046.338l-3.348 8.817a.75.75 0 0 1-1.372.069l-4.404-8.817a.75.75 0 0 1-.079-.341l.024-3.125-1.84-1.45a.746.746 0 0 1-.108-.106l-7.329-8.693a.75.75 0 0 1 .259-1.164l.314.68-.314-.68h.002l.002-.002.01-.004.03-.014.114-.05c.098-.042.242-.102.428-.175.374-.147.92-.348 1.62-.57a36.696 36.696 0 0 1 5.942-1.329ZM70.786 107.79c.212 0 .37-.176.37-.364a.367.367 0 0 0-.37-.368v.732Zm0-.732-.008.732a.366.366 0 0 1 .008-.732Zm-1.13.368a1.13 1.13 0 0 1 1.13-1.136h.008a1.134 1.134 0 0 1-.008 2.268c-.636 0-1.13-.523-1.13-1.132ZM70.937 93.958a.372.372 0 0 0 .366-.366c0-.21-.168-.37-.366-.37a.37.37 0 0 0-.37.37c0 .079.03.175.108.253a.375.375 0 0 0 .262.113Zm-1.134-.366c0-.642.515-1.134 1.134-1.134.64 0 1.13.509 1.13 1.134a1.13 1.13 0 0 1-1.13 1.13 1.133 1.133 0 0 1-1.134-1.13ZM71.092 82.028a.368.368 0 1 0 0-.737.368.368 0 0 0 0 .737Zm-1.131-.368a1.132 1.132 0 1 1 2.263 0 1.132 1.132 0 0 1-2.263 0ZM71.627 68.192a.367.367 0 0 0 .364-.366.366.366 0 0 0-.364-.37.374.374 0 0 0-.373.37c0 .184.157.366.373.366Zm-1.136-.366c0-.638.517-1.134 1.136-1.134.641 0 1.127.519 1.127 1.134 0 .611-.488 1.13-1.127 1.13a1.134 1.134 0 0 1-1.136-1.13ZM72.388 55.272a.368.368 0 1 0 0-.737.368.368 0 0 0 0 .737Zm-1.132-.368a1.132 1.132 0 1 1 2.264 0 1.132 1.132 0 0 1-2.264 0Z" fill="#010066"/><path d="M26.535 113.303c-1.071 3.32-2.36 7.16-2.36 7.16l-12.297-2.085c.974-3.974 2.343-7.812 2.343-7.812l12.314 2.737Z" fill="#FFFFF4"/><path fill-rule="evenodd" clip-rule="evenodd" d="M13.515 110.314a.75.75 0 0 1 .869-.481l12.314 2.738a.752.752 0 0 1 .551.963 669.866 669.866 0 0 1-2.145 6.515l-.218.652-.712-.238.712.238a.751.751 0 0 1-.837.502l-12.296-2.086a.75.75 0 0 1-.603-.918 85.57 85.57 0 0 1 1.55-5.445 95.351 95.351 0 0 1 .752-2.263l.046-.131.012-.034.005-.012.706.252-.706-.252Zm1.196 1.129a93.59 93.59 0 0 0-1.907 6.331l10.863 1.843.014-.043.56-1.682c.385-1.16.865-2.614 1.327-4.035l-10.857-2.414Z" fill="#010066"/><path d="M107.557 113.303c1.068 3.32 2.357 7.16 2.357 7.16l12.26-2.085c-.969-3.974-2.336-7.812-2.336-7.812l-12.281 2.737Z" fill="#FFFFF4"/><path fill-rule="evenodd" clip-rule="evenodd" d="m120.545 110.314-.707.252.707-.252.004.012.012.034.046.132a93.963 93.963 0 0 1 .75 2.262 84.933 84.933 0 0 1 1.546 5.446.75.75 0 0 1-.603.917l-12.261 2.086a.75.75 0 0 1-.836-.501l.711-.239-.711.239-.219-.653-.56-1.685a606.055 606.055 0 0 1-1.581-4.831.75.75 0 0 1 .551-.962l12.281-2.737a.749.749 0 0 1 .87.48Zm-10.124 9.302 10.829-1.842a86.737 86.737 0 0 0-1.322-4.565 95.681 95.681 0 0 0-.571-1.74l-.009-.026-10.824 2.413c.46 1.422.939 2.876 1.324 4.036.227.687.422 1.27.559 1.682l.014.042Z" fill="#010066"/><path d="m53.901 32.113-2.538 6.166 5.29 14.641 4.577-12.114-7.329-8.693Z" fill="#FFFFF4"/><path fill-rule="evenodd" clip-rule="evenodd" d="M53.785 31.372a.75.75 0 0 1 .69.257l7.328 8.693a.75.75 0 0 1 .128.749l-4.577 12.114a.75.75 0 0 1-1.407-.01l-5.29-14.642a.75.75 0 0 1 .013-.54l2.538-6.166a.75.75 0 0 1 .578-.455Zm.34 2.169-1.958 4.755 4.501 12.46 3.705-9.803-6.249-7.412Z" fill="#010066"/><path d="m81.365 32.113 2.534 6.166-5.287 14.641-4.575-12.114 7.328-8.693Z" fill="#FFFFF4"/><path fill-rule="evenodd" clip-rule="evenodd" d="M81.481 31.372a.75.75 0 0 1 .578.456l2.534 6.166a.75.75 0 0 1 .011.54l-5.287 14.64a.75.75 0 0 1-1.407.011l-4.575-12.114a.75.75 0 0 1 .128-.749l7.329-8.693a.75.75 0 0 1 .689-.257Zm-6.587 9.58 3.702 9.804 4.5-12.46-1.955-4.754-6.247 7.41Z" fill="#010066"/><path fill-rule="evenodd" clip-rule="evenodd" d="M81.481 31.37a.75.75 0 0 1 .578.456l2.4 5.864 17.44 6.486c.226.084.397.271.461.503l18.243 65.686a.759.759 0 0 1 .027.2l.145.421c.144.426.346 1.035.579 1.768a86.01 86.01 0 0 1 1.547 5.446.75.75 0 0 1-.603.917l-12.263 2.086a.751.751 0 0 1-.837-.501l.711-.239-.711.239-.218-.653a584.145 584.145 0 0 1-2.139-6.516.822.822 0 0 1-.026-.109L95.303 77.725l1.713 42.706a.748.748 0 0 1-.16.492c-1.412 1.806-3.68 3.178-6.261 4.233-2.595 1.061-5.586 1.834-8.53 2.398-5.891 1.128-11.69 1.441-13.976 1.524a.75.75 0 0 1-.766-.619c-.59-3.341-.9-9.633-1.039-17.131-.139-7.519-.107-16.31-.004-24.687a1724.059 1724.059 0 0 1 .705-31.85.75.75 0 0 1 .05-.267l3.285-8.653-.318-3.318a.75.75 0 0 1 .405-.74l3.151-1.609 7.234-8.577a.75.75 0 0 1 .69-.257Zm26.823 81.814a575.81 575.81 0 0 0 2.099 6.39l.014.042 10.83-1.842a88.707 88.707 0 0 0-1.322-4.565 96.235 96.235 0 0 0-.737-2.224l-.044-.126-.011-.032-.004-.01a.747.747 0 0 1-.041-.303l-18.071-65.065-17.388-6.467a.75.75 0 0 1-.433-.42l-2.056-5.021-6.532 7.746a.75.75 0 0 1-.233.185l-2.831 1.445.286 2.985a.75.75 0 0 1-.046.337l-3.303 8.702c-.025.758-.138 4.337-.27 9.519-.15 5.869-.327 13.83-.43 22.2-.104 8.37-.136 17.144.003 24.64.13 7.041.41 12.903.911 16.252 2.584-.115 7.807-.46 13.087-1.472 2.891-.553 5.776-1.303 8.246-2.312 2.366-.968 4.283-2.147 5.477-3.56l-1.92-47.901a.75.75 0 0 1 1.462-.26l13.231 41.026c.012.037.02.074.026.111Z" fill="#010066"/><path fill-rule="evenodd" clip-rule="evenodd" d="M53.785 31.372a.75.75 0 0 1 .69.257l7.28 8.635 2.067 1.63a.75.75 0 0 1 .286.595l-.026 3.312 4.324 8.657a.75.75 0 0 1 .079.36l-.75-.025.75.025v.002l-.022.678-.059 1.94a1724.22 1724.22 0 0 0-.624 29.222c-.103 8.37-.135 17.144.004 24.64.14 7.518.45 13.692 1.016 16.898a.751.751 0 0 1-.708.88c-.486.02-.747.027-.89.029h-.155l-.01-.001c-12.595.383-19.979-1.599-24.246-3.74-2.137-1.072-3.488-2.182-4.314-3.047a8.036 8.036 0 0 1-.874-1.072 4.628 4.628 0 0 1-.254-.425l-.015-.031-.006-.011-.002-.005v-.002c-.001 0-.002-.001.68-.314l-.681.313a.752.752 0 0 1-.068-.34l1.558-42.778-11.568 35.877a576.96 576.96 0 0 1-2.145 6.517l-.219.652a.752.752 0 0 1-.836.501l-12.296-2.086a.751.751 0 0 1-.603-.918 85.361 85.361 0 0 1 1.55-5.446 95.988 95.988 0 0 1 .752-2.262l.046-.131.007-.021 18.238-65.656a.75.75 0 0 1 .476-.507l18.58-6.49 2.41-5.857a.75.75 0 0 1 .578-.455Zm-30.12 88.242.015-.042a726.984 726.984 0 0 0 2.14-6.5l13.227-41.028a.75.75 0 0 1 1.464.258l-1.748 47.976c.023.038.052.083.086.135.135.2.36.502.713.87.702.736 1.912 1.744 3.902 2.743 3.983 1.998 11.11 3.962 23.56 3.58l.023-.001.055.002.008.001.073-.001h.004c-.503-3.497-.775-9.377-.903-16.279-.139-7.519-.107-16.31-.003-24.687a1722.257 1722.257 0 0 1 .683-31.19l.016-.493-4.32-8.647a.75.75 0 0 1-.079-.341l.024-3.125-1.84-1.45a.751.751 0 0 1-.109-.106l-6.532-7.748-2.067 5.025a.75.75 0 0 1-.447.423L33.081 45.46l-18.14 65.304a.772.772 0 0 1-.016.051l-.003.01-.011.032-.045.126-.166.484a90.65 90.65 0 0 0-.573 1.739 87.288 87.288 0 0 0-1.325 4.566l10.863 1.842Z" fill="#010066"/><path d="M81.365 32.113c-15.45-5.552-27.464 0-27.464 0l2.953 3.5c4.063-1.164 11.964-2.575 21.487.074l3.024-3.574Z" fill="#FFFFF4"/><path fill-rule="evenodd" clip-rule="evenodd" d="M61.735 29.288c5.03-.707 12.022-.706 19.884 2.119a.75.75 0 0 1 .319 1.19l-3.025 3.575a.75.75 0 0 1-.773.238c-9.351-2.602-17.105-1.214-21.079-.075a.75.75 0 0 1-.78-.238l-2.953-3.5a.75.75 0 0 1 .259-1.165l.314.68-.314-.68h.002l.002-.002.01-.004.03-.014.114-.05c.098-.042.242-.102.428-.175.374-.147.92-.348 1.62-.57a36.696 36.696 0 0 1 5.942-1.329Zm-6.59 3.135 1.972 2.34c4.2-1.14 11.824-2.356 20.96.075l2.008-2.373c-7.168-2.372-13.52-2.341-18.14-1.691-2.421.34-4.365.85-5.698 1.273-.434.138-.803.266-1.103.376Z" fill="#010066"/></svg>