<svg width="119" height="147" viewBox="0 0 119 147" fill="none" xmlns="http://www.w3.org/2000/svg">
<path d="M67.6101 24.5227V25.1664C67.9189 25.8101 67.9189 26.8837 68.5379 28.1711L81.2307 25.3808L94.2331 27.9567L95.7806 24.0928L80.6117 20.6588L67.6094 24.5227H67.6101Z" fill="white"/>
<path d="M94.8413 29.8172L97.6584 24.236L81.0551 20.6588L65.731 24.2365L67.9654 29.8172L80.7367 27.142L96.0616 30.0486L94.8413 29.8172ZM67.0078 25.5776L81.0559 22.4476L97.0192 25.5776L95.3789 28.7521L81.0559 25.3543L67.9654 28.4837L67.0078 25.5776Z" fill="#010066"/>
<path d="M81.6406 14.7692C86.2751 13.9708 88.4914 11.5755 88.4914 7.38459C88.4909 1.99555 85.2669 0 80.4315 0C77.8119 0 76.2004 0.798414 74.9913 2.39524C73.5813 3.99158 72.7751 5.98761 73.5813 8.58172L74.9913 7.98316C74.387 6.18697 74.9913 4.7895 76.2004 3.39301C77.409 2.19539 78.6181 1.59683 80.633 1.59683C84.6626 1.59683 87.0799 2.99381 87.0799 7.38459C87.0799 10.977 85.0655 12.7732 80.8344 13.3717H80.2301V21.1555H81.8416L81.6401 14.7692H81.6406Z" fill="#010066"/>
<path d="M104.918 51.3669L103.928 51.3147C101.237 65.9072 100.035 76.6562 100.035 83.5474C100.035 90.3622 101.502 98.904 103.839 109.143C95.6661 112.593 88.7077 114.296 83.8023 114.296C78.8677 114.296 70.4216 112.577 58.9987 109.098C61.6122 97.9717 62.4911 89.1769 62.7872 83.5738L62.7873 83.5725C63.0888 77.5651 62.1847 68.5915 60.3927 56.3916L60.389 56.3668L60.3829 56.3425C60.082 55.1441 59.7977 54.1616 59.5297 53.3894C59.2646 52.6257 59.0051 52.0371 58.7445 51.6477C58.6154 51.4549 58.4628 51.2751 58.2779 51.1558C58.0775 51.0265 57.8193 50.9593 57.5481 51.0539C57.3053 51.1385 57.1396 51.3242 57.0276 51.4962C56.9115 51.6745 56.8161 51.8952 56.7344 52.1394C56.6804 52.3006 56.6383 52.5384 56.6008 52.8175C56.5618 53.1079 56.5234 53.4798 56.4851 53.9304C56.4085 54.8322 56.3311 56.0676 56.2517 57.6344C56.0926 60.7689 55.9244 65.2462 55.7376 71.0687C55.3885 81.948 54.9742 97.5349 54.4341 117.858C54.4003 119.132 54.3659 120.425 54.331 121.737H47.8068C46.0405 101.128 45.1643 85.5377 45.7553 74.6459L45.7555 74.6427C45.8125 73.4491 45.8695 71.9769 45.9347 70.2937C46.2118 63.1348 46.6367 52.1566 47.8441 42.5391L47.8453 42.5288L47.8462 42.5184C48.1337 39.0735 49.5694 34.7333 51.6171 30.0469C51.6353 30.0379 51.6551 30.0282 51.6765 30.0177C51.8249 29.945 52.0481 29.8362 52.346 29.6925C52.9418 29.4051 53.8363 28.9782 55.0296 28.4212C57.3271 27.3486 60.7321 25.7933 65.2444 23.8215C66.1754 26.9965 67.9601 29.2046 69.1061 30.6224C69.1796 30.7134 69.2505 30.8011 69.3184 30.8856L69.3299 30.9L69.3425 30.9134C73.3578 35.2202 78.9467 36.1321 81.7104 36.1321C84.5061 36.1321 88.5317 35.5005 92.8263 30.9199C94.0532 29.695 95.5039 27.0963 96.9409 23.2029C101.041 24.9434 103.997 26.3138 105.823 27.3157L105.823 27.3157C107.098 28.0153 108.783 29.2009 110.885 30.8865C113.227 36.1543 114.399 40.2476 114.986 42.8768C117.014 53.2336 117.314 62.94 117.543 70.3846C117.583 71.6747 117.621 72.8969 117.665 74.0428L117.666 74.053C118.256 84.0558 117.087 99.9372 114.729 121.737H108.786C108.634 117.618 108.501 113.755 108.377 110.157C108.025 99.9365 107.747 91.8633 107.309 86.1874C107.062 82.9861 106.814 79.1216 106.524 74.5895C106.464 73.65 106.402 72.6819 106.338 71.685C105.964 65.8808 105.516 59.1078 104.918 51.3669Z" fill="#EFF6FD" stroke="#010066"/>
<path fill-rule="evenodd" clip-rule="evenodd" d="M62.4582 117.984V84.2543L65.8835 89.0443L78.5769 77.6682C71.928 68.288 66.8912 61.8106 63.4658 58.8173C60.0409 55.8235 55.407 54.3168 49.7653 52.9198L46.3405 53.918C43.1165 54.7165 40.4974 54.9158 38.4825 54.9158C36.4682 54.716 33.6471 53.918 29.8194 52.1214C23.3715 54.1174 18.1332 56.5122 14.7079 59.3066C11.283 62.1006 6.44757 68.2875 0.604492 77.6682L12.8949 88.4453L16.7227 85.2516L17.1256 118.183L62.4587 117.983L62.4582 117.984Z" fill="white"/>
<path d="M79.5843 77.0692C79.3824 76.8699 79.3824 76.8699 79.3824 76.67C79.181 76.2708 78.9796 76.0714 78.7781 75.6722C78.7781 75.6722 78.7781 75.4729 78.5767 75.4729C78.3752 75.273 78.3752 75.0737 78.1738 74.8738C77.7709 74.2753 77.3681 73.8761 77.1666 73.277C76.7633 72.6784 76.3604 72.2792 76.159 71.88C75.1518 70.483 74.1446 69.0861 73.137 67.8884C72.5322 67.09 72.1293 66.4915 71.525 65.8929C70.5178 64.4959 69.3087 63.0985 68.0996 61.7015C67.4953 60.9031 67.0925 60.3045 66.2867 59.7059C65.2791 58.309 63.6671 57.1113 62.0556 56.3129C59.4365 54.7161 56.6154 53.519 53.7948 52.5207C52.7876 52.1215 51.7805 51.7223 50.7728 51.5229C50.168 51.3236 49.7651 51.3236 49.3623 51.1237C49.1604 51.1237 48.9594 51.1237 48.758 51.3236C46.3398 52.9204 42.512 53.519 39.691 53.519C36.8704 53.519 33.2441 52.9199 30.6249 51.3236H29.8187C29.4158 51.5229 28.8115 51.5229 28.6101 51.7228C27.6024 52.1215 26.5953 52.3213 25.5876 52.7205C22.767 53.7183 19.745 54.9159 17.3273 56.5123C15.9168 57.5105 14.5062 58.5083 13.2976 59.9053L13.0957 60.1051C10.6785 62.8991 8.46222 65.6931 6.24595 68.4875C5.23828 69.4853 4.43254 70.6829 3.62631 71.6807L3.42488 71.88C2.41771 72.8783 1.8134 74.0754 1.00717 75.0737C0.604303 75.6722 0 76.2703 0 77.0687V77.4679C0 77.6678 0 77.8671 0.201434 78.067C2.21578 80.0625 4.23111 82.2579 6.44738 84.2535C7.85742 85.6509 9.26796 87.0479 10.8799 88.2455C11.4842 88.8441 11.8871 89.2433 12.4914 89.6425C12.8948 89.8419 13.2976 90.2411 13.4991 90.4409C13.7005 90.6403 14.1034 90.4409 14.3048 90.2411L16.3196 88.2455V118.582C16.3196 118.981 16.7225 119.38 17.1254 119.38H63.0628C63.4656 119.38 63.869 118.981 63.869 118.582V87.8463L65.6819 89.6425L65.8839 89.8419C66.0853 90.0417 66.0853 90.0417 66.2867 90.0417H66.8905C67.092 90.0417 67.092 89.8419 67.2934 89.8419C67.4953 89.6425 67.8977 89.4427 68.0991 89.4427C68.7039 89.044 69.1068 88.4449 69.7111 88.0457C71.1216 86.8486 72.5317 85.4511 74.1436 84.0541C76.1585 82.0586 78.3747 80.0625 80.3896 77.8676C80.5915 77.6678 80.5915 77.4679 80.5915 77.4679C79.5838 77.2686 79.5843 77.0692 79.5843 77.0692ZM64.5157 62.4181C64.9466 61.8308 65.4022 61.4972 65.8833 61.4179C66.5182 62.0762 66.891 62.4181 67.4953 63.2988C69.7116 65.8934 71.9279 68.488 73.9427 71.2819C74.3456 71.6812 74.547 72.0804 74.9504 72.2797C71.3236 76.0719 67.6968 79.6643 63.869 83.2567V66.153C63.869 65.7538 63.869 63.2988 64.5157 62.4181ZM32.035 53.5194C34.4532 54.5172 37.2737 54.9164 39.8929 54.9164C42.512 54.9164 45.3326 54.5172 47.7503 53.5194L48.758 53.1202L48.556 54.118C48.3551 55.9142 47.7503 57.511 46.7431 58.7082C44.9297 60.7042 42.3106 61.3028 39.8924 61.3028C37.2737 61.3028 34.6541 60.7042 33.0426 58.7082C32.035 57.511 31.4307 55.7148 31.2292 54.118L31.0273 53.1202L32.035 53.5194ZM16.3201 85.8508L13.4996 88.4454L12.8953 88.0462C12.2905 87.4476 11.6862 87.0484 11.0819 86.6492C10.0742 85.8508 9.46988 85.2522 8.66365 84.4538C6.64931 82.6576 4.63447 80.6616 2.82107 78.8654C2.4182 78.4662 2.01533 78.067 1.8139 77.6683L1.61197 77.4684L1.41053 77.2691L1.61246 76.67C1.8139 76.4707 1.8139 76.2708 2.01533 76.0714C2.61963 75.0737 3.0225 74.4746 3.82824 73.6762L4.43304 73.0776L5.03734 73.6767C8.66414 77.4684 12.4919 81.0608 16.3206 84.6537L16.5216 84.853L16.3201 85.8508ZM16.3201 83.2562C12.4919 79.6638 8.86558 76.0714 5.23877 72.2792C5.64164 71.88 5.84308 71.4808 6.24644 71.2815C8.26078 68.4875 10.679 66.0923 12.6933 63.2983C13.0967 62.6997 13.701 62.3005 13.9024 61.7015L14.3053 61.1029L14.9096 61.7015C15.313 62.1007 15.7158 62.6997 15.9173 63.0985C16.1187 63.6975 16.3201 64.2961 16.5216 65.0945C16.5216 65.4937 16.7235 65.8929 16.7235 66.0923V83.2562H16.3201ZM62.4097 62.8991C62.0068 63.8969 62.0561 64.8951 62.0561 65.8929V118.183H17.7307V65.8929C17.7307 64.8951 17.5287 63.8969 17.1259 63.0985C16.723 61.9013 16.1187 60.9031 15.1115 60.3045C16.3201 59.1069 17.9321 57.9093 19.3421 57.1108C21.357 55.9137 23.5733 54.9159 25.7895 54.3169C26.9986 53.7183 28.6106 53.3191 29.8192 53.1198C29.8192 53.9182 29.8192 54.3169 30.0211 54.9159C30.2221 56.7121 31.0283 58.5083 32.0355 59.9053C34.0503 62.3005 37.0723 62.8991 40.0948 62.8991C42.9154 62.8991 46.1393 62.1007 48.1537 59.9053C49.3628 58.5083 49.9671 56.7116 50.1685 54.9159C50.1685 54.3169 50.3704 53.7183 50.3704 53.1198C51.7805 53.519 53.191 53.9182 54.3996 54.3169C56.6159 55.1153 58.8322 55.9137 60.847 57.1113C62.2575 58.1091 63.6676 59.1069 65.0781 60.305C63.6676 60.7037 62.8126 61.7015 62.4097 62.8991ZM77.7709 77.4684L76.7638 78.4662C74.7494 80.4622 72.936 82.2584 70.9212 84.0551C70.115 84.853 69.3092 85.4516 68.503 86.25C67.8987 86.8491 67.4958 87.2478 66.6901 87.647L66.0858 88.0462L63.6676 85.8508L63.2647 85.6514V84.6537L63.4666 84.4538C67.2944 80.8614 70.9212 77.2691 74.7489 73.4769L75.3537 72.8783C75.7566 73.2775 75.958 73.6767 76.3609 73.8761C76.9652 74.6745 77.3686 75.4729 77.9729 76.2713L78.3757 76.67L77.7709 77.4684Z" fill="#010066"/>
<path d="M31.0286 52.9204V53.5189C31.2295 54.1175 31.2295 55.1158 31.6324 56.3129L39.8932 53.7183L48.3554 56.1135L49.3626 52.5207L39.4903 49.3275L31.0281 52.9204H31.0286Z" fill="white"/>
<path d="M48.9593 57.3108L49.967 52.1216L39.4894 48.9285L29.8191 52.1221L30.8263 57.3103L39.2885 54.7157L48.9593 57.3103V57.3108ZM30.6248 53.3193L39.4899 50.5253L49.5636 53.3193L48.7579 55.9139L39.4899 53.1199L31.2291 55.9134L30.6248 53.3188V53.3193Z" fill="#010066"/>
<path d="M40.0942 42.9414C44.7287 42.143 46.945 39.7477 46.945 35.5568C46.9445 30.1677 43.7206 28.1722 38.8851 28.1722C36.2655 28.1722 34.654 28.9706 33.4449 30.5674C32.0349 32.1638 31.2287 34.1598 32.0349 36.7539L33.4449 36.1553C32.8406 34.3592 33.4449 32.9617 34.654 31.5652C35.8626 30.3676 37.0717 29.769 39.0866 29.769C43.1163 29.769 45.5335 31.166 45.5335 35.5568C45.5335 39.1491 43.5191 40.9453 39.288 41.5439H38.6837V49.3277H40.2952L40.0938 42.9414H40.0942Z" fill="#010066"/>
<path fill-rule="evenodd" clip-rule="evenodd" d="M24.6577 109.213L41.1793 145.138V146.136H78.2511L81.6765 103.625L77.8482 80.2738L79.2588 79.6752V71.6921L41.1793 71.2929L41.3807 79.8751L41.1793 101.829L24.6577 109.213Z" fill="white"/>
<path fill-rule="evenodd" clip-rule="evenodd" d="M40.7178 146.135C40.7178 145.658 41.1048 145.271 41.5822 145.271H78.2511C78.7285 145.271 79.1155 145.658 79.1155 146.135C79.1155 146.613 78.7285 147 78.2511 147H41.5822C41.1048 147 40.7178 146.613 40.7178 146.135Z" fill="#010066"/>
<path fill-rule="evenodd" clip-rule="evenodd" d="M42.043 72.2901C42.043 72.2901 42.043 72.2901 42.043 72.2901V78.6537C42.0441 78.6569 42.0456 78.6611 42.0478 78.6662C42.0588 78.6924 42.0779 78.7244 42.1034 78.7533C42.1286 78.7817 42.151 78.7972 42.1649 78.8043C42.1762 78.81 42.1813 78.8103 42.1858 78.8103H78.049C78.0989 78.8103 78.1485 78.803 78.1922 78.7905V72.3135C78.1911 72.3103 78.1896 72.3062 78.1875 72.3012C78.1764 72.275 78.1573 72.2429 78.1318 72.214C78.1066 72.1855 78.084 72.1699 78.07 72.1628C78.0587 72.1571 78.0534 72.1567 78.049 72.1567H42.2056C42.2016 72.158 42.1958 72.16 42.1883 72.1631C42.1601 72.1747 42.1268 72.1944 42.0973 72.2199C42.0682 72.2452 42.0532 72.267 42.047 72.2791C42.0424 72.288 42.043 72.29 42.043 72.2901ZM40.9649 70.9136C41.2901 70.6318 41.736 70.4279 42.1858 70.4279H78.049C78.6545 70.4279 79.1274 70.7301 79.4271 71.0691C79.7118 71.3912 79.921 71.8368 79.921 72.2901V78.5604C80.0624 79.1723 79.8156 79.7117 79.421 80.0536C79.0344 80.3885 78.5189 80.5391 78.049 80.5391H42.1858C41.5802 80.5391 41.1073 80.2369 40.8077 79.8978C40.523 79.5755 40.3142 79.13 40.3142 78.6769V72.2901C40.3142 71.681 40.6239 71.2092 40.9649 70.9136Z" fill="#010066"/>
<path fill-rule="evenodd" clip-rule="evenodd" d="M49.0948 72.8892C49.0948 72.8893 49.0948 72.8892 49.0948 72.8892V78.6537C49.0959 78.6569 49.0974 78.6611 49.0995 78.6662C49.1106 78.6924 49.1297 78.7245 49.1552 78.7533C49.1803 78.7818 49.2028 78.7973 49.2167 78.8043C49.2279 78.81 49.2331 78.8104 49.2375 78.8104H52.26C52.3303 78.8104 52.3761 78.7961 52.4028 78.7834V72.9124C52.4017 72.9092 52.4001 72.905 52.398 72.8998C52.3869 72.8735 52.3677 72.8413 52.3422 72.8124C52.317 72.7839 52.2945 72.7684 52.2806 72.7613C52.2694 72.7556 52.2644 72.7553 52.26 72.7553H49.2573C49.2534 72.7566 49.2476 72.7586 49.2401 72.7616C49.2119 72.7733 49.1786 72.793 49.1492 72.8185C49.1201 72.8437 49.1051 72.8656 49.0988 72.8777C49.0944 72.8863 49.0947 72.8887 49.0948 72.8892ZM48.0166 71.5124C48.3417 71.2304 48.7877 71.0266 49.2375 71.0266H52.26C52.8659 71.0266 53.3388 71.3291 53.6383 71.6683C53.9229 71.9907 54.1316 72.4363 54.1316 72.8892V78.8763C54.1316 79.8799 53.204 80.5391 52.26 80.5391H49.2375C48.632 80.5391 48.159 80.2369 47.8595 79.8978C47.5748 79.5755 47.366 79.13 47.366 78.677V72.8892C47.366 72.2801 47.6755 71.8082 48.0166 71.5124ZM67.2278 72.8892C67.2278 72.8893 67.2278 72.8892 67.2278 72.8892V78.6537C67.2289 78.6569 67.2305 78.6611 67.2326 78.6662C67.2436 78.6924 67.2627 78.7245 67.2882 78.7533C67.3134 78.7818 67.3358 78.7973 67.3497 78.8043C67.361 78.81 67.3661 78.8104 67.3706 78.8104H70.352C70.3653 78.8027 70.3859 78.7891 70.4126 78.7664C70.4548 78.7306 70.4973 78.6847 70.5359 78.6341V72.9124C70.5347 72.9092 70.5332 72.905 70.531 72.8998C70.5199 72.8735 70.5008 72.8413 70.4753 72.8124C70.4501 72.7839 70.4276 72.7684 70.4137 72.7613C70.4025 72.7556 70.3974 72.7553 70.3931 72.7553H67.3904C67.3864 72.7566 67.3806 72.7586 67.3731 72.7616C67.3449 72.7733 67.3117 72.793 67.2822 72.8185C67.2531 72.8437 67.2381 72.8656 67.2319 72.8777C67.2274 72.8863 67.2277 72.8887 67.2278 72.8892ZM66.1496 71.5124C66.4748 71.2304 66.9207 71.0266 67.3706 71.0266H70.3931C70.9989 71.0266 71.4719 71.3291 71.7713 71.6683C72.0559 71.9907 72.2646 72.4363 72.2646 72.8892V79.0821L72.172 79.2657C72.0238 79.5593 71.8035 79.8533 71.5318 80.0841C71.2696 80.3068 70.8759 80.5391 70.3931 80.5391H67.3706C66.765 80.5391 66.2921 80.2369 65.9925 79.8978C65.7078 79.5755 65.499 79.13 65.499 78.677V72.8892C65.499 72.2801 65.8085 71.8082 66.1496 71.5124Z" fill="#010066"/>
<path fill-rule="evenodd" clip-rule="evenodd" d="M40.5158 79.8749L40.5158 79.8723L41.3802 79.8749H42.2446V145.08L42.5664 145.77L42.2446 145.92V145.936H42.2105L42.0441 146.014L42.0431 146.338L41.3534 146.336L40.9997 146.501L40.9221 146.335L40.3144 146.333L40.3183 145.04L23.8738 109.778L23.4753 109.081L24.3115 108.421L40.4506 101.379L40.5158 79.8749ZM40.4449 103.268L25.7377 109.685L26.7734 111.905L40.4369 105.89L40.4449 103.268ZM27.5043 113.473L40.3306 140.976L40.4312 107.781L27.5043 113.473ZM80.8064 103.261L77.1953 80.4086L78.9029 80.1387L82.5297 103.091L79.314 146.2L77.59 146.071L80.8064 103.261ZM50.3036 91.0494L50.3034 91.0513V93.6226C50.3045 93.6258 50.3061 93.63 50.3082 93.635C50.3192 93.6612 50.3384 93.6933 50.3638 93.7221C50.389 93.7505 50.4115 93.766 50.4254 93.7731C50.4367 93.7788 50.442 93.7792 50.4467 93.7792H70.3345V91.0745C70.3334 91.0713 70.3318 91.0672 70.3297 91.0621C70.3187 91.0359 70.2996 91.0039 70.2741 90.975C70.249 90.9466 70.2265 90.9311 70.2125 90.924C70.2012 90.9183 70.1959 90.9179 70.1912 90.9179H50.4665C50.4625 90.9191 50.4566 90.9211 50.449 90.9242C50.4207 90.9359 50.3873 90.9557 50.3578 90.9812C50.3286 91.0065 50.3136 91.0284 50.3074 91.0405C50.3059 91.0433 50.3044 91.0469 50.3044 91.0469L50.3036 91.0494ZM49.2258 89.6746C49.551 89.3928 49.997 89.1891 50.4467 89.1891H70.1912C70.7968 89.1891 71.2699 89.4911 71.5696 89.8303C71.8545 90.1527 72.0633 90.5982 72.0633 91.0513V93.8452C72.0633 94.3288 71.8282 94.7379 71.5555 95.0081C71.525 95.0384 71.4928 95.0681 71.459 95.097V106.419C71.6533 106.791 71.2532 107.26 70.9042 107.515L60.83 114.9C60.445 115.182 59.904 115.099 59.6218 114.714C59.6175 114.708 59.6134 114.702 59.6093 114.696L59.6065 114.7L49.1794 106.419V94.9828C49.1401 94.9449 49.1031 94.9061 49.0683 94.8668C48.7835 94.5444 48.5746 94.0989 48.5746 93.6459V91.0513C48.5746 90.4419 48.8847 89.9701 49.2258 89.6746ZM50.9082 95.508V106.18L60.3546 113.105L69.7302 106.232V95.508H50.9082Z" fill="#010066"/>
</svg>
