<svg width="152" height="152" viewBox="0 0 152 152" fill="none" xmlns="http://www.w3.org/2000/svg">
<path d="M79.0151 44.0182V72.1287C93.866 72.1287 97.5787 59.9298 97.0483 57.8083C96.624 56.111 84.8494 47.9077 79.0151 44.0182Z" fill="white"/>
<path d="M3.16956 125.698C4.44249 121.03 16.7828 108.195 22.7939 102.361C41.0389 115.939 65.0482 109.079 74.7723 103.952C79.7226 108.725 90.1535 119.015 92.2751 121.985C94.3966 124.955 93.8659 126.759 93.3354 127.289C88.8791 130.04 84.36 132.266 79.8409 134.039C73.6767 136.458 67.5123 138.036 61.5072 138.958C42.8022 141.827 25.6417 138.326 14.8385 134.039C7.14001 130.984 2.66984 127.53 3.16956 125.698Z" fill="white"/>
<path d="M19.0813 44.5486V72.6591C4.23048 72.6591 0.51777 60.4602 1.04816 58.3386C1.47247 56.6414 13.2471 48.4381 19.0813 44.5486Z" fill="white"/>
<path d="M23.3244 103.422C33.9322 114.029 69.4682 109.786 74.2416 104.482C75.2594 103.351 76.0738 99.8344 76.7208 94.9354C55.3674 105.967 29.5167 99.5321 19.2606 94.9354C20.0487 98.478 21.3305 101.428 23.3244 103.422Z" fill="white"/>
<path fill-rule="evenodd" clip-rule="evenodd" d="M62.9136 39.1825C63.0248 39.4438 63.1182 39.7359 63.1957 40.045C63.3776 40.7703 63.4907 41.6664 63.5121 42.6649C63.5548 44.6619 63.2312 47.1142 62.3102 49.502C61.3883 51.8922 59.8617 54.2319 57.4906 55.9736C55.1157 57.7181 51.9259 58.8386 47.7222 58.8386C44.3475 58.8386 41.7066 57.9981 39.6697 56.6049C37.6352 55.2133 36.2356 53.2924 35.3045 51.1813C33.5638 47.235 33.4386 42.5792 33.8756 39.2698C33.3253 39.358 32.5889 39.5492 31.7082 39.829C30.4814 40.2187 29.0324 40.7605 27.5287 41.366C24.6593 42.5213 21.6146 43.8984 19.5813 44.8641V45.003C20.2357 47.1412 20.3469 50.3729 20.2205 54.1857C20.1186 57.2582 19.8594 60.7592 19.5813 64.448V72.6591C19.5813 72.9352 19.3575 73.1591 19.0813 73.1591C19.0443 73.1591 19.0073 73.159 18.9704 73.1589C18.5175 80.8339 18.4045 88.5603 19.6951 94.5813C24.81 96.8359 33.6671 99.5097 43.8677 100.298C54.1461 101.092 65.7511 99.9682 76.2591 94.6103C77.9928 81.2324 78.5064 57.8198 78.515 44.3609C72.128 41.8952 68.0396 40.5209 65.5256 39.8051C64.2966 39.4552 63.4563 39.2662 62.9136 39.1825ZM78.9098 72.6176C78.9438 72.6249 78.979 72.6287 79.0151 72.6287C86.5971 72.6287 91.3775 69.5065 94.1863 66.0811C95.5853 64.375 96.4913 62.599 97.0146 61.1063C97.2762 60.36 97.4443 59.6786 97.5294 59.1062C97.6123 58.5484 97.6236 58.048 97.5334 57.687C97.4837 57.4881 97.3684 57.2949 97.2458 57.1244C97.1169 56.9452 96.9493 56.7502 96.7537 56.5439C96.3621 56.1309 95.8293 55.6429 95.1962 55.1038C93.9284 54.0241 92.2235 52.71 90.3573 51.333C86.6228 48.5775 82.2136 45.5496 79.2925 43.6022C79.2621 43.5819 79.2297 43.5651 79.1956 43.5519C72.6126 41.0036 68.3975 39.5831 65.7995 38.8433C64.5026 38.4741 63.5952 38.2705 62.9911 38.183C62.6922 38.1397 62.4454 38.1213 62.2535 38.1327C62.1591 38.1383 62.0524 38.1523 61.9507 38.1884C61.8952 38.2081 61.8126 38.2446 61.7349 38.3117C53.9165 42.4627 47.9617 42.5725 43.5868 41.6074C41.3835 41.1213 39.5645 40.3591 38.0862 39.6774C37.7856 39.5388 37.4933 39.4007 37.2135 39.2686C36.8166 39.0811 36.445 38.9056 36.1113 38.7576C35.5413 38.5048 35.0103 38.2987 34.5447 38.2211C34.1495 38.1552 33.673 38.1821 33.1604 38.2621C32.6409 38.3432 32.0516 38.4842 31.4175 38.6684C30.1492 39.0369 28.6686 39.5881 27.1513 40.2146C24.1151 41.4682 20.8923 43.0397 18.85 44.1053C18.8342 44.1135 18.8188 44.1226 18.804 44.1325C15.8828 46.08 11.4736 49.1079 7.73914 51.8634C5.8729 53.2403 4.1681 54.5545 2.90022 55.6342C2.26717 56.1733 1.73438 56.6613 1.34274 57.0743C1.14713 57.2805 0.979531 57.4756 0.850608 57.6548C0.728007 57.8252 0.612794 58.0185 0.563078 58.2174C0.47283 58.5784 0.48413 59.0788 0.567051 59.6366C0.652128 60.2089 0.820208 60.8904 1.08183 61.6367C1.60515 63.1294 2.51114 64.9054 3.91014 66.6115C6.57912 69.8663 11.0282 72.8475 17.9696 73.1362C17.5107 80.9269 17.3979 88.865 18.7725 95.0439C19.4244 97.9741 20.4188 100.55 21.9003 102.534C18.8969 105.473 14.6017 109.868 10.8302 114.136C8.82755 116.402 6.96677 118.639 5.52429 120.607C4.09598 122.556 3.03246 124.3 2.68717 125.566C2.50036 126.251 2.80069 126.976 3.29854 127.643C3.80939 128.329 4.60573 129.062 5.63466 129.814C7.69718 131.321 10.7806 132.967 14.6541 134.504C25.5277 138.819 42.778 142.337 61.583 139.452C67.6221 138.525 73.8225 136.938 80.0236 134.505C84.5697 132.72 89.1156 130.481 93.598 127.714C93.631 127.694 93.6615 127.67 93.6889 127.643C94.48 126.852 94.8588 124.742 92.6819 121.694C91.5926 120.169 88.4203 116.822 84.9404 113.294C81.5187 109.824 77.7586 106.139 75.2777 103.745C75.33 103.631 75.381 103.513 75.4306 103.391C75.6719 102.797 75.8959 102.074 76.1051 101.244C76.5235 99.5844 76.8919 97.459 77.2165 95.0008C78.0101 88.9927 78.5523 80.9185 78.9098 72.6176ZM79.5151 44.9544V71.624C86.4912 71.4908 90.8462 68.5774 93.413 65.447C94.7323 63.8382 95.5832 62.1667 96.0709 60.7754C96.3148 60.0797 96.4658 59.4601 96.5403 58.9592C96.6169 58.4438 96.6056 58.0989 96.5632 57.9295C96.5633 57.9298 96.562 57.9245 96.5573 57.9129C96.554 57.9051 96.5496 57.8952 96.5437 57.8832C96.541 57.8778 96.538 57.872 96.5347 57.8658C96.5129 57.825 96.4803 57.7727 96.4341 57.7084C96.341 57.5791 96.2065 57.4201 96.0281 57.232C95.6718 56.8563 95.1695 56.3946 94.5479 55.8652C93.3064 54.8079 91.6233 53.5098 89.7636 52.1377C86.3635 49.629 82.3966 46.8898 79.5151 44.9544ZM39.1204 109.971C43.4882 110.802 47.8556 110.958 52.013 110.67C54.4725 110.499 56.8612 110.173 59.1365 109.739C61.5636 109.42 63.8436 109.01 65.8779 108.533C67.9793 108.04 69.8283 107.473 71.3104 106.856C72.778 106.246 73.9402 105.565 74.6133 104.817C74.6639 104.761 74.7133 104.7 74.7617 104.637C77.2378 107.029 80.8949 110.616 84.2285 113.996C87.732 117.548 90.836 120.831 91.8682 122.276C93.8571 125.06 93.2992 126.551 93.0138 126.9C88.6469 129.591 84.2201 131.774 79.7927 133.521C79.4882 133.448 79.141 133.271 78.7532 132.971C78.3152 132.632 77.8524 132.157 77.3736 131.566C76.4157 130.384 75.4327 128.784 74.4895 127.008C72.6049 123.46 70.9168 119.28 69.9398 116.515C69.8478 116.254 69.5622 116.118 69.3018 116.21C69.0415 116.302 68.905 116.587 68.997 116.848C69.9847 119.643 71.6916 123.872 73.6064 127.477C74.5629 129.278 75.5807 130.942 76.5966 132.196C77.1046 132.823 77.6219 133.36 78.1412 133.762C78.2597 133.853 78.3797 133.939 78.5012 134.018C72.8069 136.156 67.1205 137.581 61.5687 138.442C61.3941 138.353 61.1637 138.162 60.8848 137.822C60.5612 137.429 60.2141 136.888 59.8514 136.222C59.1269 134.892 58.3711 133.12 57.6391 131.171C56.1765 127.275 54.8313 122.731 54.0402 119.736C53.9697 119.469 53.6961 119.31 53.4291 119.38C53.1621 119.451 53.0028 119.724 53.0733 119.991C53.8698 123.007 55.2248 127.585 56.7029 131.522C57.4413 133.489 58.2161 135.31 58.9732 136.701C59.3514 137.395 59.733 137.996 60.1123 138.457C60.162 138.518 60.2125 138.577 60.2638 138.634C52.5362 139.714 45.0928 139.713 38.2814 139.034C38.5001 138.786 38.7091 138.477 38.9092 138.133C39.2116 137.613 39.5173 136.972 39.8216 136.247C40.4306 134.797 41.0496 132.975 41.6374 131.041C42.8136 127.171 43.8776 122.808 44.4982 119.97C44.5573 119.701 44.3864 119.434 44.1166 119.375C43.8469 119.316 43.5804 119.487 43.5214 119.757C42.9045 122.577 41.8469 126.912 40.6806 130.75C40.0971 132.67 39.4896 134.455 38.8996 135.86C38.6045 136.563 38.3176 137.161 38.0448 137.63C37.7662 138.109 37.5246 138.414 37.3328 138.567C37.2216 138.656 37.1584 138.783 37.147 138.914C28.9251 137.995 21.6726 136.1 16.021 133.961C16.8897 133.393 17.7924 132.573 18.6925 131.611C19.9489 130.269 21.24 128.607 22.4739 126.855C24.942 123.349 27.207 119.444 28.5405 116.914C28.6693 116.67 28.5756 116.368 28.3314 116.239C28.0871 116.11 27.7847 116.204 27.6559 116.448C26.3374 118.949 24.0942 122.816 21.6562 126.279C20.437 128.01 19.1756 129.632 17.9624 130.928C16.8162 132.152 15.7471 133.049 14.8255 133.496C11.0946 132.001 8.16293 130.423 6.22473 129.006C5.23627 128.284 4.5276 127.619 4.10027 127.046C3.65993 126.455 3.58888 126.061 3.65193 125.829C3.94311 124.762 4.89948 123.151 6.33085 121.198C7.74803 119.265 9.58671 117.053 11.5796 114.798C15.3041 110.583 19.5471 106.239 22.5345 103.312C22.676 103.471 22.8215 103.626 22.9709 103.775C25.7243 106.529 30.0476 108.279 34.983 109.298C36.3184 109.574 37.7033 109.797 39.1204 109.971ZM74.1827 103.695C74.2876 103.508 74.3952 103.282 74.5041 103.014C74.7221 102.478 74.9329 101.803 75.1354 101C75.4873 99.6038 75.8071 97.8483 76.0964 95.8104C65.5403 101.011 53.9885 102.082 43.7907 101.295C33.9156 100.532 25.2762 98.0229 19.9801 95.7928C20.6015 98.206 21.4739 100.27 22.6599 101.879C22.8047 101.839 22.9648 101.865 23.0924 101.96C28.1759 105.743 33.717 107.921 39.2741 108.983C43.0334 109.445 47.0374 109.563 50.9525 109.419C53.7162 109.317 56.4305 109.085 58.9775 108.751C65.2317 107.555 70.6089 105.529 74.1827 103.695ZM18.5813 64.4101C18.5716 64.5394 18.5618 64.669 18.552 64.7988C18.4898 65.6233 18.4269 66.4578 18.3647 67.3C18.2472 68.8909 18.1322 70.5094 18.0303 72.1379C11.3749 71.8661 7.18202 69.0245 4.68341 65.9774C3.36417 64.3686 2.51325 62.6971 2.02552 61.3058C1.78162 60.6101 1.63064 59.9904 1.55618 59.4896C1.47957 58.9742 1.49087 58.6293 1.53322 58.4599C1.53314 58.4602 1.53448 58.4549 1.5392 58.4433C1.54387 58.4319 1.55107 58.4163 1.5618 58.3961C1.58357 58.3553 1.61613 58.3031 1.66239 58.2388C1.75541 58.1095 1.88999 57.9505 2.06834 57.7624C2.42463 57.3867 2.92693 56.9249 3.54857 56.3955C4.79009 55.3383 6.47313 54.0402 8.33286 52.668C11.7329 50.1593 15.6999 47.4202 18.5813 45.4848V64.4101ZM34.8753 39.3386C34.4439 42.5327 34.5644 47.0255 36.2194 50.7777C37.0916 52.7551 38.3837 54.5137 40.2343 55.7795C42.0826 57.0438 44.5201 57.8386 47.7222 57.8386C51.7395 57.8386 54.7155 56.7713 56.8986 55.1677C59.0854 53.5614 60.5091 51.3928 61.3772 49.1421C62.2463 46.889 62.5525 44.5678 62.5123 42.6863C62.4922 41.7457 62.3857 40.9262 62.2257 40.2883C62.1234 39.88 62.0057 39.5731 61.8914 39.3591C54.021 43.4576 47.9252 43.5884 43.3713 42.5839C41.0663 42.0754 39.1726 41.2796 37.6675 40.5855C37.3452 40.4369 37.0468 40.2959 36.7668 40.1636C36.3828 39.982 36.0336 39.817 35.706 39.6717C35.3886 39.531 35.1137 39.4193 34.8753 39.3386Z" fill="#010066"/>
<path opacity="0.8" fill-rule="evenodd" clip-rule="evenodd" d="M60.4351 74.6218C61.7098 74.7663 62.8863 75.3762 63.7391 76.3345C64.5919 77.2928 65.061 78.5322 65.0564 79.8151C65.061 81.0979 64.5919 82.3373 63.7391 83.2956C62.8863 84.254 61.7098 84.8638 60.4351 85.0083C60.6334 85.5608 60.7406 86.1572 60.7406 86.7795C60.7406 89.6637 58.4218 92.002 55.5603 92.002C54.7037 92.0013 53.8608 91.7875 53.1074 91.3799C52.354 90.9723 51.7138 90.3836 51.2445 89.667C50.7753 90.3836 50.1351 90.9723 49.3817 91.3799C48.6283 91.7875 47.7853 92.0013 46.9287 92.002C44.0689 92.002 41.7485 89.6621 41.7485 86.7795C41.7485 86.1572 41.8573 85.5608 42.0539 85.0083C40.7793 84.8638 39.6028 84.254 38.75 83.2956C37.8972 82.3373 37.4281 81.0979 37.4327 79.8151C37.4281 78.5322 37.8972 77.2928 38.75 76.3345C39.6028 75.3762 40.7793 74.7663 42.0539 74.6218C41.8511 74.0533 41.7478 73.4542 41.7485 72.8506C41.7485 69.968 44.0672 67.6281 46.9287 67.6281C48.7291 67.6281 50.3167 68.5543 51.2445 69.9631C51.7138 69.2465 52.354 68.6579 53.1074 68.2503C53.8608 67.8426 54.7037 67.6288 55.5603 67.6281C58.4202 67.6281 60.7406 69.968 60.7406 72.8506C60.7406 73.473 60.6317 74.0693 60.4351 74.6218Z" fill="#EF5DA8"/>
<path d="M53.6819 78.1901C53.6819 79.483 53.1683 80.7229 52.2541 81.6371C51.3399 82.5513 50.1 83.0649 48.8072 83.0649C47.5143 83.0649 46.2744 82.5513 45.3602 81.6371C44.446 80.7229 43.9324 79.483 43.9324 78.1901C43.9324 76.8972 44.446 75.6573 45.3602 74.7431C46.2744 73.8289 47.5143 73.3153 48.8072 73.3153C50.1 73.3153 51.3399 73.8289 52.2541 74.7431C53.1683 75.6573 53.6819 76.8972 53.6819 78.1901Z" fill="#EFF6FD"/>
<path fill-rule="evenodd" clip-rule="evenodd" d="M58.4658 83.6676C59.6598 83.3315 60.7113 82.6145 61.4602 81.6257C62.2091 80.6369 62.6144 79.4304 62.6144 78.19C62.6144 76.9496 62.2091 75.7431 61.4602 74.7543C60.7113 73.7655 59.6598 73.0485 58.4658 72.7124C58.6853 71.5143 58.5144 70.2774 57.9783 69.1838C57.4421 68.0902 56.5691 67.1975 55.4876 66.6373C54.4061 66.0771 53.1733 65.8789 51.9707 66.0718C50.768 66.2648 49.6592 66.8388 48.8072 67.7092C47.9553 66.839 46.8466 66.2652 45.6442 66.0722C44.4419 65.8793 43.2093 66.0774 42.1279 66.6373C41.0465 67.1973 40.1734 68.0896 39.6371 69.1829C39.1008 70.2762 38.9296 71.5128 39.1486 72.7107C37.9546 73.0468 36.9031 73.7639 36.1542 74.7527C35.4053 75.7415 35 76.9479 35 78.1884C35 79.4288 35.4053 80.6352 36.1542 81.624C36.9031 82.6129 37.9546 83.3299 39.1486 83.666C38.9286 84.8642 39.0992 86.1013 39.6351 87.1953C40.1711 88.2893 41.0442 89.1822 42.1258 89.7427C43.2074 90.3032 44.4405 90.5015 45.6433 90.3085C46.8461 90.1156 47.9552 89.5415 48.8072 88.6708C49.6591 89.541 50.7678 90.1148 51.9702 90.3077C53.1726 90.5007 54.4051 90.3026 55.4865 89.7426C56.5679 89.1827 57.441 88.2904 57.9773 87.1971C58.5136 86.1037 58.6848 84.8671 58.4658 83.6692V83.6676ZM56.693 73.0682C56.6515 73.1839 56.6367 73.3075 56.6499 73.4298C56.6631 73.552 56.7038 73.6696 56.7691 73.7738C56.8343 73.878 56.9223 73.966 57.0265 74.0313C57.1307 74.0965 57.2484 74.1372 57.3706 74.1504C58.368 74.2564 59.291 74.7277 59.9617 75.4735C60.6325 76.2193 61.0036 77.1869 61.0036 78.19C61.0036 79.1931 60.6325 80.1606 59.9617 80.9065C59.291 81.6523 58.368 82.1236 57.3706 82.2296C57.2484 82.2427 57.1307 82.2835 57.0265 82.3487C56.9223 82.414 56.8343 82.502 56.7691 82.6062C56.7038 82.7104 56.6631 82.828 56.6499 82.9502C56.6367 83.0724 56.6515 83.1961 56.693 83.3118C57.0315 84.2466 57.0153 85.2732 56.6476 86.197C56.28 87.1208 55.5862 87.8777 54.6979 88.3242C53.8095 88.7708 52.7883 88.8761 51.8275 88.6201C50.8667 88.3641 50.0332 87.7647 49.4848 86.9353C49.4107 86.8237 49.3101 86.7322 49.192 86.6689C49.0739 86.6055 48.942 86.5724 48.808 86.5724C48.674 86.5724 48.5421 86.6055 48.424 86.6689C48.306 86.7322 48.2054 86.8237 48.1312 86.9353C47.5828 87.7647 46.7493 88.3641 45.7885 88.6201C44.8278 88.8761 43.8065 88.7708 42.9182 88.3242C42.0298 87.8777 41.3361 87.1208 40.9684 86.197C40.6007 85.2732 40.5846 84.2466 40.9231 83.3118C40.9646 83.1959 40.9793 83.0722 40.966 82.9499C40.9527 82.8275 40.9119 82.7098 40.8464 82.6056C40.781 82.5014 40.6928 82.4134 40.5884 82.3482C40.484 82.2831 40.3662 82.2425 40.2438 82.2296C39.2464 82.1236 38.3234 81.6523 37.6527 80.9065C36.9819 80.1606 36.6108 79.1931 36.6108 78.19C36.6108 77.1869 36.9819 76.2193 37.6527 75.4735C38.3234 74.7277 39.2464 74.2564 40.2438 74.1504C40.3661 74.1372 40.4837 74.0965 40.5879 74.0313C40.6921 73.966 40.7801 73.878 40.8453 73.7738C40.9106 73.6696 40.9513 73.552 40.9645 73.4298C40.9777 73.3075 40.963 73.1839 40.9214 73.0682C40.583 72.1333 40.5991 71.1068 40.9668 70.183C41.3345 69.2592 42.0282 68.5023 42.9165 68.0557C43.8049 67.6092 44.8262 67.5039 45.7869 67.7599C46.7477 68.0158 47.5812 68.6153 48.1296 69.4446C48.2037 69.5562 48.3043 69.6478 48.4224 69.7111C48.5405 69.7744 48.6724 69.8076 48.8064 69.8076C48.9404 69.8076 49.0723 69.7744 49.1904 69.7111C49.3085 69.6478 49.409 69.5562 49.4832 69.4446C50.0316 68.6153 50.8651 68.0158 51.8259 67.7599C52.7866 67.5039 53.8079 67.6092 54.6963 68.0557C55.5846 68.5023 56.2783 69.2592 56.646 70.183C57.0137 71.1068 57.0298 72.1333 56.6914 73.0682H56.693Z" fill="#010066"/>
<path d="M80.589 45.815C75.3914 51.4967 64.6764 63.0224 63.397 63.6717C61.7978 64.4834 57 61.2367 57 59.6134C57 57.99 78.5899 15.7832 87.3859 13.754C90.0562 13.138 92.9109 12.896 95.7819 12.8123C95.827 12.8095 95.8721 12.8083 95.9173 12.8085C101.838 12.646 107.817 13.1421 112.384 12.4055C112.865 12.179 113.332 12.0768 113.774 12.1307C120.57 10.5073 134.164 23.8999 150.956 58.3959C151.223 60.1545 150.397 63.6717 144.959 63.6717L127.367 45.815C129.5 56.3667 130.438 76.1346 129.766 92.8919C129.428 101.34 126.874 109.714 126.319 116.022C125.829 121.603 125.768 124.416 124.569 125.359C122.988 126.601 115.773 129.011 113.774 123.735C113.259 122.377 112.585 119.242 111.813 115.294C109.589 103.911 106.553 85.7715 104.178 83.9636C101.813 92.3224 97.9617 106.316 95.7819 115.294C94.6456 119.974 94.3113 123.255 94.1827 123.735C93.7829 125.228 85.7866 128.605 82.5881 123.735C81.9951 122.833 81.2923 120.047 80.589 116.022C77.4987 98.3364 74.4008 56.7247 80.589 45.815Z" fill="white"/>
<path fill-rule="evenodd" clip-rule="evenodd" d="M119.823 14.2471C117.38 12.7119 115.399 12.2565 113.89 12.617C113.452 12.7215 113 12.8109 112.536 12.8874C111.883 13.2093 111.167 13.8019 110.424 14.5976C109.663 15.4125 108.898 16.4128 108.169 17.4845C106.742 19.5857 105.477 21.9282 104.678 23.6067V83.7414C105.001 84.0714 105.288 84.575 105.552 85.1549C105.879 85.8742 106.209 86.7987 106.538 87.8745C107.198 90.0278 107.873 92.837 108.541 95.9327C109.447 100.133 110.345 104.89 111.176 109.288C111.42 110.579 111.658 111.839 111.888 113.046C112.264 111.802 112.729 110.555 113.281 109.433C114.141 107.682 115.256 106.141 116.648 105.467C117.361 105.121 118.142 105.006 118.97 105.203C119.789 105.397 120.615 105.888 121.449 106.689C122.889 108.072 124.418 110.442 126.036 114.08C126.328 111.91 126.785 109.55 127.264 107.081C127.386 106.449 127.51 105.811 127.633 105.166C128.382 101.231 129.099 97.0564 129.267 92.8719C129.937 76.1365 128.999 56.4199 126.879 45.9224C126.411 43.9559 125.711 40.8496 125.128 37.9073C124.548 34.9834 124.069 32.1573 124.069 30.7992C124.069 30.5231 124.292 30.2992 124.569 30.2992C124.845 30.2992 125.069 30.5231 125.069 30.7992C125.069 32.0385 125.522 34.7588 126.108 37.7127C126.677 40.5771 127.356 43.601 127.821 45.5636L145.167 63.1699C147.639 63.1266 148.986 62.3092 149.702 61.3867C150.43 60.4483 150.571 59.318 150.472 58.5436C142.099 41.3533 134.536 29.445 128.236 22.0426C125.08 18.3351 122.257 15.7763 119.823 14.2471ZM128.163 47.335L144.603 64.0226C144.697 64.118 144.825 64.1717 144.959 64.1717C147.791 64.1717 149.521 63.2501 150.492 61.9998C151.446 60.7699 151.6 59.3044 151.451 58.3209C151.443 58.271 151.428 58.2225 151.406 58.177C143 40.9096 135.382 28.8962 128.997 21.3945C125.806 17.6448 122.907 15.0038 120.355 13.4004C117.851 11.8269 115.614 11.2116 113.742 11.6249C113.234 11.5828 112.727 11.7023 112.237 11.9226C110.013 12.2743 107.436 12.3338 104.66 12.3223C103.832 12.3189 102.985 12.3091 102.126 12.2991C100.096 12.2757 97.9968 12.2514 95.911 12.3084C95.8607 12.3084 95.8103 12.3098 95.7599 12.3127C92.8756 12.3971 89.9869 12.6408 87.2735 13.2668C86.0373 13.552 84.6562 14.5138 83.2117 15.8769C81.752 17.2543 80.1687 19.0992 78.53 21.2437C75.2515 25.5343 71.7166 31.0704 68.4639 36.5818C65.2098 42.0954 62.2314 47.5956 60.0659 51.8203C58.9833 53.9324 58.1024 55.7286 57.4911 57.0501C57.1857 57.7102 56.9455 58.2565 56.7807 58.6667C56.6985 58.8712 56.6325 59.048 56.5863 59.1913C56.5475 59.3116 56.5 59.4731 56.5 59.6134C56.5 59.9334 56.6157 60.2474 56.7719 60.5293C56.9307 60.8162 57.1508 61.1048 57.4054 61.3836C57.9148 61.9415 58.5992 62.5004 59.3255 62.9744C60.0514 63.4481 60.8419 63.8517 61.5706 64.0846C62.2671 64.3072 63.036 64.4157 63.6233 64.1176C63.7544 64.0511 63.9065 63.9383 64.0585 63.8152C64.2192 63.6851 64.4104 63.5179 64.6269 63.3204C65.0604 62.9248 65.6101 62.3933 66.245 61.7609C67.5155 60.4954 69.141 58.8124 70.8862 56.9748C73.5751 54.1438 76.5542 50.9399 78.9693 48.3183C78.0482 51.08 77.4315 54.711 77.0459 58.854C76.5119 64.593 76.4158 71.3917 76.6098 78.3914C76.9976 92.3897 78.5466 107.238 80.0965 116.108C80.4493 118.127 80.8034 119.844 81.1457 121.174C81.4817 122.48 81.822 123.48 82.1702 124.01C83.9301 126.69 86.9876 127.051 89.5198 126.614C90.7961 126.394 91.983 125.967 92.885 125.492C93.3355 125.255 93.727 125 94.0264 124.743C94.3083 124.501 94.5752 124.203 94.6657 123.865C94.7069 123.711 94.7565 123.38 94.8198 122.958L94.834 122.863C94.8996 122.425 94.9849 121.855 95.0978 121.171C95.338 119.714 95.7033 117.736 96.2678 115.412C98.364 106.778 102.009 93.4949 104.388 85.0586C104.468 85.2051 104.553 85.3747 104.642 85.5691C104.943 86.2323 105.258 87.1105 105.582 88.1674C106.229 90.2794 106.897 93.0555 107.563 96.1436C108.467 100.331 109.36 105.064 110.19 109.455C110.584 111.542 110.963 113.552 111.323 115.389C112.09 119.319 112.772 122.505 113.306 123.913C113.85 125.347 114.761 126.282 115.856 126.836C116.938 127.383 118.169 127.542 119.35 127.491C120.532 127.439 121.693 127.174 122.658 126.844C123.614 126.517 124.42 126.111 124.877 125.752C125.274 125.441 125.546 124.997 125.747 124.463C125.947 123.931 126.089 123.276 126.204 122.504C126.373 121.374 126.493 119.927 126.641 118.141C126.695 117.494 126.753 116.803 126.817 116.066C127.047 113.46 127.621 110.497 128.243 107.287C128.366 106.652 128.491 106.007 128.615 105.353C129.366 101.412 130.095 97.1758 130.266 92.912C130.905 76.9566 130.089 58.2525 128.163 47.335ZM103.678 83.8942V23.5914C102.958 21.8194 101.718 19.2355 100.278 17.0879C99.5456 15.9948 98.7745 15.0342 98.0085 14.3516C97.2354 13.6627 96.5315 13.3137 95.9229 13.3085L95.7965 13.3121C93.2901 13.3851 90.8126 13.5793 88.4692 14.0352C90.169 15.5377 92.4207 17.6579 94.4097 19.8063C95.5601 21.049 96.6303 22.3093 97.4563 23.4707C98.2715 24.6169 98.8894 25.7217 99.0712 26.6442C99.1601 27.0956 99.2248 28.0249 99.2748 29.29C99.3256 30.5718 99.3625 32.2399 99.388 34.1979C99.4388 38.1147 99.4438 43.2037 99.4205 48.7088C99.3738 59.7197 99.2139 72.4041 99.0806 80.7249C99.0762 81.001 98.8487 81.2213 98.5726 81.2169C98.2965 81.2124 98.0763 80.985 98.0807 80.7089C98.214 72.3905 98.3739 59.7102 98.4205 48.7046C98.4438 43.2014 98.4388 38.1191 98.388 34.2109C98.3627 32.2565 98.3259 30.5985 98.2756 29.3296C98.2247 28.0441 98.1611 27.1978 98.0901 26.8375C97.952 26.1367 97.4438 25.1785 96.6414 24.0503C95.8498 22.9373 94.811 21.7118 93.6758 20.4857C91.4926 18.1274 88.9812 15.7967 87.2605 14.3062C86.3378 14.596 85.2033 15.3724 83.898 16.6042C82.4933 17.9297 80.9469 19.7278 79.3246 21.8509C76.0811 26.0956 72.5693 31.5931 69.3251 37.09C66.0822 42.5847 63.1133 48.0674 60.9558 52.2764C59.8769 54.3812 59.0024 56.1646 58.3987 57.4699C58.0965 58.1233 57.8643 58.6521 57.7085 59.0396C57.6305 59.2339 57.5741 59.3865 57.5381 59.4982C57.5101 59.585 57.5024 59.6239 57.5004 59.6302C57.5046 59.7172 57.5412 59.8545 57.6467 60.0449C57.7565 60.2432 57.9237 60.4682 58.1439 60.7093C58.584 61.1914 59.1991 61.6978 59.872 62.1369C60.5455 62.5764 61.2543 62.9337 61.875 63.132C62.5278 63.3407 62.9584 63.3336 63.1707 63.2259C63.1996 63.2112 63.2811 63.1579 63.4292 63.038C63.5685 62.9252 63.7437 62.7726 63.9528 62.5817C64.3706 62.2005 64.9085 61.6807 65.5393 61.0524C66.8 59.7967 68.4181 58.1214 70.1612 56.2862C73.6198 52.6447 77.5612 48.3833 80.1597 45.5435C80.3643 45.0194 80.5748 44.0715 80.7771 42.8231C80.9869 41.529 81.1807 39.9616 81.3534 38.3158C81.6985 35.0248 81.9568 31.4413 82.0889 29.1471C82.1048 28.8714 82.3411 28.6608 82.6168 28.6767C82.8925 28.6926 83.1031 28.9289 83.0873 29.2046C82.9545 31.5098 82.6951 35.1095 82.3479 38.4201C82.1743 40.0749 81.9783 41.6629 81.7642 42.9831C81.5531 44.2858 81.3169 45.3791 81.0493 46.0102C81.0419 46.0278 81.0334 46.045 81.0239 46.0617C79.5341 48.6883 78.5727 53.2394 78.0416 58.9467C77.5127 64.6309 77.4161 71.386 77.6094 78.3637C77.9746 91.5453 79.3731 105.479 80.8251 114.413C81.6171 112.881 82.5566 111.296 83.5815 109.883C84.9129 108.047 86.4278 106.447 87.9925 105.667C88.7836 105.273 89.6123 105.076 90.4457 105.191C91.2843 105.307 92.0728 105.73 92.7906 106.479C93.9677 107.706 94.9877 109.84 95.8063 113.104C98.0336 104.174 101.486 91.6409 103.678 83.8942ZM95.2701 115.283C94.3971 110.921 93.2632 108.416 92.0689 107.171C91.4785 106.555 90.8871 106.261 90.3092 106.182C89.7261 106.102 89.1017 106.232 88.4384 106.562C87.0945 107.232 85.6957 108.671 84.3909 110.47C83.128 112.211 81.9897 114.237 81.1089 116.092C81.4502 118.029 81.7896 119.664 82.1141 120.925C82.4537 122.244 82.7613 123.088 83.006 123.461C84.4446 125.651 86.9845 126.036 89.35 125.629C90.5225 125.427 91.6096 125.034 92.4193 124.607C92.8246 124.394 93.1485 124.179 93.3754 123.984C93.6198 123.775 93.6903 123.641 93.6997 123.606C93.7224 123.521 93.7623 123.267 93.8326 122.798L93.8452 122.714C93.9108 122.275 93.997 121.7 94.1111 121.008C94.3505 119.556 94.713 117.592 95.2701 115.283ZM98.2779 13.2741C98.4119 13.3786 98.544 13.4894 98.6738 13.6051C99.5279 14.3662 100.353 15.4031 101.109 16.5311C102.359 18.3966 103.456 20.5648 104.212 22.2866C105.017 20.6885 106.119 18.7227 107.342 16.9225C108.088 15.8246 108.885 14.7797 109.693 13.9149C109.95 13.6401 110.211 13.3806 110.473 13.1419C108.659 13.3018 106.693 13.3307 104.656 13.3223C103.812 13.3188 102.957 13.3089 102.093 13.2989C100.835 13.2843 99.5594 13.2696 98.2779 13.2741ZM125.811 116.099C123.948 111.558 122.25 108.844 120.756 107.411C120.008 106.692 119.334 106.317 118.739 106.175C118.152 106.036 117.606 106.113 117.084 106.367C116.005 106.889 115.015 108.17 114.178 109.874C113.367 111.526 112.741 113.488 112.324 115.301C113.091 119.218 113.749 122.26 114.241 123.558C114.697 124.761 115.437 125.503 116.307 125.943C117.189 126.389 118.235 126.539 119.306 126.492C120.375 126.445 121.44 126.204 122.334 125.898C123.238 125.589 123.927 125.227 124.26 124.966C124.463 124.806 124.648 124.544 124.811 124.111C124.975 123.676 125.104 123.102 125.215 122.356C125.378 121.261 125.495 119.863 125.642 118.093C125.693 117.475 125.748 116.811 125.811 116.099Z" fill="#010066"/>
</svg>
