<svg width="24" height="24" viewBox="0 0 24 24" fill="none" xmlns="http://www.w3.org/2000/svg">
<circle cx="12" cy="12" r="11.5" stroke="#010066"/>
<path d="M7.35355 9.64645C7.15829 9.45118 6.84171 9.45118 6.64645 9.64645C6.45118 9.84171 6.45118 10.1583 6.64645 10.3536L7.35355 9.64645ZM12 15L11.6464 15.3536C11.8417 15.5488 12.1583 15.5488 12.3536 15.3536L12 15ZM17.3536 10.3536C17.5488 10.1583 17.5488 9.84171 17.3536 9.64645C17.1583 9.45118 16.8417 9.45118 16.6464 9.64645L17.3536 10.3536ZM6.64645 10.3536L11.6464 15.3536L12.3536 14.6464L7.35355 9.64645L6.64645 10.3536ZM12.3536 15.3536L17.3536 10.3536L16.6464 9.64645L11.6464 14.6464L12.3536 15.3536Z" fill="#010066"/>
</svg>
