<svg width="24" height="24" fill="none" xmlns="http://www.w3.org/2000/svg"><path d="M20.052 3.002a2.23 2.23 0 0 0-.7.167h-.003c-.213.085-1.23.512-2.774 1.16l-5.537 2.332C7.065 8.334 3.16 9.981 3.16 9.981l.046-.018s-.269.088-.55.28c-.174.111-.323.256-.44.426a1.246 1.246 0 0 0-.207.832c.067.542.418.867.67 1.046.255.181.498.266.498.266h.006l3.662 1.234c.165.527 1.116 3.656 1.345 4.377.135.43.266.7.43.905.08.105.173.193.285.264.058.033.12.06.184.079l-.037-.009c.011.003.02.012.028.015.03.008.05.011.089.017.58.176 1.045-.184 1.045-.184l.027-.021 2.162-1.969 3.624 2.78.082.036c.756.331 1.52.146 1.925-.179.407-.328.566-.747.566-.747l.026-.068 2.8-14.346c.08-.354.1-.686.012-1.007-.09-.326-.3-.606-.585-.786a1.404 1.404 0 0 0-.8-.202Zm-.075 1.537c-.003.048.006.042-.015.133v.008l-2.775 14.198c-.012.02-.032.064-.088.108-.058.047-.105.076-.348-.02l-4.433-3.399-2.677 2.44.562-3.592 7.242-6.75c.299-.277.199-.336.199-.336.021-.34-.45-.1-.45-.1L8.06 12.888l-.003-.015-4.377-1.474v-.003l-.011-.002a.223.223 0 0 0 .022-.01l.024-.011.024-.008 7.88-3.32c1.99-.838 3.994-1.681 5.535-2.332A602.64 602.64 0 0 1 19.9 4.564c.062-.024.032-.024.077-.024Z" fill="#26303B"/></svg>