<svg width="21" height="21" fill="none" xmlns="http://www.w3.org/2000/svg"><path d="M14.438 8.531a.656.656 0 0 1 .656-.656h1.312a.656.656 0 0 1 .657.656v1.313a.656.656 0 0 1-.657.656h-1.312a.656.656 0 0 1-.656-.656V8.53Zm-3.938 0a.656.656 0 0 1 .656-.656h1.313a.656.656 0 0 1 .656.656v1.313a.656.656 0 0 1-.656.656h-1.313a.656.656 0 0 1-.656-.656V8.53ZM3.937 12.47a.656.656 0 0 1 .657-.656h1.312a.656.656 0 0 1 .657.656v1.312a.656.656 0 0 1-.657.656H4.594a.656.656 0 0 1-.657-.656V12.47Zm3.938 0a.656.656 0 0 1 .656-.656h1.313a.656.656 0 0 1 .656.656v1.312a.656.656 0 0 1-.656.656H8.53a.656.656 0 0 1-.656-.656V12.47Z" fill="#010066"/><path d="M4.594 0a.656.656 0 0 1 .656.656v.656h10.5V.656a.656.656 0 1 1 1.313 0v.656h1.312A2.625 2.625 0 0 1 21 3.938v14.438A2.625 2.625 0 0 1 18.375 21H2.625A2.625 2.625 0 0 1 0 18.375V3.937a2.625 2.625 0 0 1 2.625-2.624h1.313V.655A.656.656 0 0 1 4.593 0ZM1.312 5.25v13.125a1.313 1.313 0 0 0 1.313 1.313h15.75a1.313 1.313 0 0 0 1.313-1.313V5.25H1.313Z" fill="#010066"/></svg>