<svg width="64" height="64" fill="none" xmlns="http://www.w3.org/2000/svg"><path fill-rule="evenodd" clip-rule="evenodd" d="M17.114 48.63c10.838-1.583 18.3-1.447 29.153.056a3.289 3.289 0 0 1 2.816 3.276c0 .76-.26 1.498-.733 2.074A97 97 0 0 1 45.823 57h4.182c.263-.313.527-.633.795-.958a6.446 6.446 0 0 0 1.45-4.079c0-3.206-2.34-5.969-5.55-6.412-11.108-1.538-18.873-1.685-30.043-.052-3.243.473-5.574 3.279-5.574 6.507a6.56 6.56 0 0 0 1.352 3.998c.262.339.52.671.776.998h4.08a91.672 91.672 0 0 1-2.346-2.93 3.395 3.395 0 0 1-.695-2.067c0-1.706 1.226-3.135 2.864-3.375ZM31.667 33.25a9.5 9.5 0 1 0 0-19.001 9.5 9.5 0 0 0 0 19.001Zm0 3.167a12.667 12.667 0 1 0 0-25.334 12.667 12.667 0 0 0 0 25.334Z" fill="#BEBEBE"/><path fill-rule="evenodd" clip-rule="evenodd" d="M31.667 60.167c15.74 0 28.5-12.76 28.5-28.5s-12.76-28.5-28.5-28.5-28.5 12.76-28.5 28.5 12.76 28.5 28.5 28.5Zm0 3.166c17.49 0 31.666-14.177 31.666-31.666C63.333 14.177 49.156 0 31.667 0 14.177 0 0 14.177 0 31.667c0 17.49 14.177 31.666 31.667 31.666Z" fill="#BEBEBE"/></svg>