<svg width="16" height="20" fill="none" xmlns="http://www.w3.org/2000/svg"><path d="M8 12c2.206 0 4-1.794 4-4s-1.794-4-4-4-4 1.794-4 4 1.794 4 4 4Zm0-6c1.103 0 2 .897 2 2s-.897 2-2 2-2-.897-2-2 .897-2 2-2Z" fill="#26303B"/><path d="M7.42 19.814a.998.998 0 0 0 1.16 0C8.884 19.599 16.029 14.44 16 8c0-4.411-3.589-8-8-8-4.41 0-8 3.589-8 7.995-.029 6.445 7.116 11.604 7.42 11.819ZM8 2c3.309 0 6 2.691 6 6.005.02 4.438-4.388 8.423-6 9.73C6.389 16.427 1.98 12.44 2 8 2 4.69 4.691 2 8 2Z" fill="#26303B"/></svg>